<?xml version="1.0" encoding="utf-8"?>
<svg version="1.1" xmlns:xlink="http://www.w3.org/1999/xlink" width="16px" height="16px" viewBox="24 154  16 16" xmlns="http://www.w3.org/2000/svg">
  <path d="M 24.5 157  A 2.5 2.5 0 0 1 27 154.5 L 37 154.5  A 2.5 2.5 0 0 1 39.5 157 L 39.5 167  A 2.5 2.5 0 0 1 37 169.5 L 27 169.5  A 2.5 2.5 0 0 1 24.5 167 L 24.5 157  Z " fill-rule="nonzero" fill="#ffffff" stroke="none" />
  <path d="M 24.5 157  A 2.5 2.5 0 0 1 27 154.5 L 37 154.5  A 2.5 2.5 0 0 1 39.5 157 L 39.5 167  A 2.5 2.5 0 0 1 37 169.5 L 27 169.5  A 2.5 2.5 0 0 1 24.5 167 L 24.5 157  Z " stroke-width="1" stroke="#cecece" fill="none" />
</svg>