<?xml version="1.0" encoding="utf-8"?>
<svg version="1.1" xmlns:xlink="http://www.w3.org/1999/xlink" width="16px" height="16px" viewBox="24 245  16 16" xmlns="http://www.w3.org/2000/svg">
  <path d="M 24.5 248  A 2.5 2.5 0 0 1 27 245.5 L 37 245.5  A 2.5 2.5 0 0 1 39.5 248 L 39.5 258  A 2.5 2.5 0 0 1 37 260.5 L 27 260.5  A 2.5 2.5 0 0 1 24.5 258 L 24.5 248  Z " fill-rule="nonzero" fill="#f0f0f0" stroke="none" />
  <path d="M 24.5 248  A 2.5 2.5 0 0 1 27 245.5 L 37 245.5  A 2.5 2.5 0 0 1 39.5 248 L 39.5 258  A 2.5 2.5 0 0 1 37 260.5 L 27 260.5  A 2.5 2.5 0 0 1 24.5 258 L 24.5 248  Z " stroke-width="1" stroke="#cecece" fill="none" />
</svg>