<?xml version="1.0" encoding="utf-8"?>
<svg version="1.1" xmlns:xlink="http://www.w3.org/1999/xlink" width="16px" height="16px" viewBox="24 539  16 16" xmlns="http://www.w3.org/2000/svg">
  <path d="M 24.5 542  A 2.5 2.5 0 0 1 27 539.5 L 37 539.5  A 2.5 2.5 0 0 1 39.5 542 L 39.5 552  A 2.5 2.5 0 0 1 37 554.5 L 27 554.5  A 2.5 2.5 0 0 1 24.5 552 L 24.5 542  Z " fill-rule="nonzero" fill="#f0f0f0" stroke="none" />
  <path d="M 24.5 542  A 2.5 2.5 0 0 1 27 539.5 L 37 539.5  A 2.5 2.5 0 0 1 39.5 542 L 39.5 552  A 2.5 2.5 0 0 1 37 554.5 L 27 554.5  A 2.5 2.5 0 0 1 24.5 552 L 24.5 542  Z " stroke-width="1" stroke="#cecece" fill="none" />
</svg>