<?xml version="1.0" encoding="utf-8"?>
<svg version="1.1" xmlns:xlink="http://www.w3.org/1999/xlink" width="16px" height="16px" viewBox="24 490  16 16" xmlns="http://www.w3.org/2000/svg">
  <path d="M 24.5 493  A 2.5 2.5 0 0 1 27 490.5 L 37 490.5  A 2.5 2.5 0 0 1 39.5 493 L 39.5 503  A 2.5 2.5 0 0 1 37 505.5 L 27 505.5  A 2.5 2.5 0 0 1 24.5 503 L 24.5 493  Z " fill-rule="nonzero" fill="#ffffff" stroke="none" />
  <path d="M 24.5 493  A 2.5 2.5 0 0 1 27 490.5 L 37 490.5  A 2.5 2.5 0 0 1 39.5 493 L 39.5 503  A 2.5 2.5 0 0 1 37 505.5 L 27 505.5  A 2.5 2.5 0 0 1 24.5 503 L 24.5 493  Z " stroke-width="1" stroke="#cecece" fill="none" />
</svg>