<?xml version="1.0" encoding="utf-8"?>
<svg version="1.1" xmlns:xlink="http://www.w3.org/1999/xlink" width="16px" height="16px" viewBox="24 107  16 16" xmlns="http://www.w3.org/2000/svg">
  <path d="M 24.5 110  A 2.5 2.5 0 0 1 27 107.5 L 37 107.5  A 2.5 2.5 0 0 1 39.5 110 L 39.5 120  A 2.5 2.5 0 0 1 37 122.5 L 27 122.5  A 2.5 2.5 0 0 1 24.5 120 L 24.5 110  Z " fill-rule="nonzero" fill="#ffffff" stroke="none" />
  <path d="M 24.5 110  A 2.5 2.5 0 0 1 27 107.5 L 37 107.5  A 2.5 2.5 0 0 1 39.5 110 L 39.5 120  A 2.5 2.5 0 0 1 37 122.5 L 27 122.5  A 2.5 2.5 0 0 1 24.5 120 L 24.5 110  Z " stroke-width="1" stroke="#cecece" fill="none" />
  <path d="M 27.4285714285714 115  L 30.8571428571429 118.428571428571  L 36.5714285714286 110.428571428571  " stroke-width="3.42857142857143" stroke="#cecece" fill="none" />
</svg>