<?xml version="1.0" encoding="utf-8"?>
<svg version="1.1" xmlns:xlink="http://www.w3.org/1999/xlink" width="16px" height="16px" viewBox="24 342  16 16" xmlns="http://www.w3.org/2000/svg">
  <path d="M 24.5 345  A 2.5 2.5 0 0 1 27 342.5 L 37 342.5  A 2.5 2.5 0 0 1 39.5 345 L 39.5 355  A 2.5 2.5 0 0 1 37 357.5 L 27 357.5  A 2.5 2.5 0 0 1 24.5 355 L 24.5 345  Z " fill-rule="nonzero" fill="#f0f0f0" stroke="none" />
  <path d="M 24.5 345  A 2.5 2.5 0 0 1 27 342.5 L 37 342.5  A 2.5 2.5 0 0 1 39.5 345 L 39.5 355  A 2.5 2.5 0 0 1 37 357.5 L 27 357.5  A 2.5 2.5 0 0 1 24.5 355 L 24.5 345  Z " stroke-width="1" stroke="#cecece" fill="none" />
  <path d="M 27.4285714285714 350  L 30.8571428571429 353.428571428571  L 36.5714285714286 345.428571428571  " stroke-width="3.42857142857143" stroke="#cecece" fill="none" />
</svg>