<?xml version="1.0" encoding="utf-8"?>
<svg version="1.1" xmlns:xlink="http://www.w3.org/1999/xlink" width="16px" height="16px" viewBox="24 61  16 16" xmlns="http://www.w3.org/2000/svg">
  <path d="M 24.5 64  A 2.5 2.5 0 0 1 27 61.5 L 37 61.5  A 2.5 2.5 0 0 1 39.5 64 L 39.5 74  A 2.5 2.5 0 0 1 37 76.5 L 27 76.5  A 2.5 2.5 0 0 1 24.5 74 L 24.5 64  Z " fill-rule="nonzero" fill="#f0f0f0" stroke="none" />
  <path d="M 24.5 64  A 2.5 2.5 0 0 1 27 61.5 L 37 61.5  A 2.5 2.5 0 0 1 39.5 64 L 39.5 74  A 2.5 2.5 0 0 1 37 76.5 L 27 76.5  A 2.5 2.5 0 0 1 24.5 74 L 24.5 64  Z " stroke-width="1" stroke="#cecece" fill="none" />
  <path d="M 27.4285714285714 69  L 30.8571428571429 72.4285714285714  L 36.5714285714286 64.4285714285714  " stroke-width="3.42857142857143" stroke="#cecece" fill="none" />
</svg>