<?xml version="1.0" encoding="utf-8"?>
<svg version="1.1" xmlns:xlink="http://www.w3.org/1999/xlink" width="16px" height="16px" viewBox="25 711  16 16" xmlns="http://www.w3.org/2000/svg">
  <path d="M 25.5 714  A 2.5 2.5 0 0 1 28 711.5 L 38 711.5  A 2.5 2.5 0 0 1 40.5 714 L 40.5 724  A 2.5 2.5 0 0 1 38 726.5 L 28 726.5  A 2.5 2.5 0 0 1 25.5 724 L 25.5 714  Z " fill-rule="nonzero" fill="#ffffff" stroke="none" />
  <path d="M 25.5 714  A 2.5 2.5 0 0 1 28 711.5 L 38 711.5  A 2.5 2.5 0 0 1 40.5 714 L 40.5 724  A 2.5 2.5 0 0 1 38 726.5 L 28 726.5  A 2.5 2.5 0 0 1 25.5 724 L 25.5 714  Z " stroke-width="1" stroke="#cecece" fill="none" />
</svg>