<?xml version="1.0" encoding="utf-8"?>
<svg version="1.1" xmlns:xlink="http://www.w3.org/1999/xlink" width="16px" height="16px" viewBox="25 769  16 16" xmlns="http://www.w3.org/2000/svg">
  <path d="M 25.5 772  A 2.5 2.5 0 0 1 28 769.5 L 38 769.5  A 2.5 2.5 0 0 1 40.5 772 L 40.5 782  A 2.5 2.5 0 0 1 38 784.5 L 28 784.5  A 2.5 2.5 0 0 1 25.5 782 L 25.5 772  Z " fill-rule="nonzero" fill="#f0f0f0" stroke="none" />
  <path d="M 25.5 772  A 2.5 2.5 0 0 1 28 769.5 L 38 769.5  A 2.5 2.5 0 0 1 40.5 772 L 40.5 782  A 2.5 2.5 0 0 1 38 784.5 L 28 784.5  A 2.5 2.5 0 0 1 25.5 782 L 25.5 772  Z " stroke-width="1" stroke="#cecece" fill="none" />
</svg>