<?xml version="1.0" encoding="utf-8"?>
<svg version="1.1" xmlns:xlink="http://www.w3.org/1999/xlink" width="16px" height="16px" viewBox="24 198  16 16" xmlns="http://www.w3.org/2000/svg">
  <path d="M 24.5 201  A 2.5 2.5 0 0 1 27 198.5 L 37 198.5  A 2.5 2.5 0 0 1 39.5 201 L 39.5 211  A 2.5 2.5 0 0 1 37 213.5 L 27 213.5  A 2.5 2.5 0 0 1 24.5 211 L 24.5 201  Z " fill-rule="nonzero" fill="#ffffff" stroke="none" />
  <path d="M 24.5 201  A 2.5 2.5 0 0 1 27 198.5 L 37 198.5  A 2.5 2.5 0 0 1 39.5 201 L 39.5 211  A 2.5 2.5 0 0 1 37 213.5 L 27 213.5  A 2.5 2.5 0 0 1 24.5 211 L 24.5 201  Z " stroke-width="1" stroke="#cecece" fill="none" />
  <path d="M 27.4285714285714 206  L 30.8571428571429 209.428571428571  L 36.5714285714286 201.428571428571  " stroke-width="3.42857142857143" stroke="#cecece" fill="none" />
</svg>