<?xml version="1.0" encoding="utf-8"?>
<svg version="1.1" xmlns:xlink="http://www.w3.org/1999/xlink" width="19px" height="19px" xmlns="http://www.w3.org/2000/svg">
  <g transform="matrix(1 0 0 1 -13 -8 )">
    <path d="M 11.7389322916667 11.7389322916667  C 12.357421875 11.1204427083333  12.6666666666667 10.3741319444444  12.6666666666667 9.5  C 12.6666666666667 8.62586805555555  12.357421875 7.87955729166667  11.7389322916667 7.26106770833333  C 11.1204427083333 6.642578125  10.3741319444444 6.33333333333333  9.5 6.33333333333333  C 8.62586805555556 6.33333333333333  7.87955729166667 6.642578125  7.26106770833333 7.26106770833333  C 6.642578125 7.87955729166667  6.33333333333333 8.62586805555555  6.33333333333333 9.5  C 6.33333333333333 10.3741319444444  6.642578125 11.1204427083333  7.26106770833333 11.7389322916667  C 7.87955729166667 12.357421875  8.62586805555556 12.6666666666667  9.5 12.6666666666667  C 10.3741319444444 12.6666666666667  11.1204427083333 12.357421875  11.7389322916667 11.7389322916667  Z M 18.9010416666667 7.86100260416667  C 18.9670138888889 7.94759114583333  19 8.04448784722222  19 8.15169270833333  L 19 10.8977864583333  C 19 10.9967447916667  18.9670138888889 11.0915798611111  18.9010416666667 11.1822916666667  C 18.8350694444444 11.2730034722222  18.7526041666667 11.3266059027778  18.6536458333333 11.3430989583333  L 16.365234375 11.689453125  C 16.2085503472222 12.134765625  16.0477430555556 12.5099826388889  15.8828125 12.8151041666667  C 16.1714409722222 13.2274305555556  16.6126302083333 13.7964409722222  17.2063802083333 14.5221354166667  C 17.2888454861111 14.62109375  17.330078125 14.7241753472222  17.330078125 14.8313802083333  C 17.330078125 14.9385850694444  17.29296875 15.0334201388889  17.21875 15.1158854166667  C 16.99609375 15.4210069444444  16.587890625 15.8663194444444  15.994140625 16.4518229166667  C 15.400390625 17.0373263888889  15.0128038194444 17.330078125  14.8313802083333 17.330078125  C 14.732421875 17.330078125  14.6252170138889 17.29296875  14.509765625 17.21875  L 12.802734375 15.8828125  C 12.4398871527778 16.0724826388889  12.0646701388889 16.2291666666667  11.6770833333333 16.3528645833333  C 11.5451388888889 17.4743923611111  11.4255642361111 18.2413194444444  11.318359375 18.6536458333333  C 11.2606336805556 18.8845486111111  11.1121961805556 19  10.873046875 19  L 8.126953125 19  C 8.01150173611111 19  7.91048177083333 18.9649522569444  7.82389322916667 18.8948567708333  C 7.7373046875 18.8247612847222  7.68988715277778 18.7361111111111  7.681640625 18.62890625  L 7.33528645833333 16.3528645833333  C 6.93120659722222 16.2209201388889  6.56011284722222 16.068359375  6.22200520833333 15.8951822916667  L 4.47786458333333 17.21875  C 4.39539930555556 17.29296875  4.29231770833333 17.330078125  4.16861979166667 17.330078125  C 4.05316840277778 17.330078125  3.95008680555556 17.2847222222222  3.859375 17.1940104166667  C 2.8203125 16.25390625  2.13997395833333 15.5611979166667  1.818359375 15.1158854166667  C 1.76063368055556 15.0334201388889  1.73177083333333 14.9385850694444  1.73177083333333 14.8313802083333  C 1.73177083333333 14.732421875  1.76475694444444 14.6375868055556  1.83072916666667 14.546875  C 1.95442708333333 14.3736979166667  2.16471354166667 14.0995008680556  2.46158854166667 13.7242838541667  C 2.75846354166667 13.3490668402778  2.98111979166667 13.0583767361111  3.12955729166667 12.8522135416667  C 2.90690104166667 12.4398871527778  2.73784722222222 12.0316840277778  2.62239583333333 11.6276041666667  L 0.358723958333333 11.2936197916667  C 0.251519097222222 11.2771267361111  0.164930555555556 11.2255859375  0.0989583333333333 11.1389973958333  C 0.0329861111111111 11.0524088541667  0 10.9555121527778  0 10.8483072916667  L 0 8.10221354166667  C 0 8.00325520833333  0.0329861111111111 7.90842013888889  0.0989583333333333 7.81770833333333  C 0.164930555555556 7.72699652777778  0.243272569444444 7.67339409722222  0.333984375 7.65690104166667  L 2.634765625 7.310546875  C 2.75021701388889 6.93120659722222  2.91102430555556 6.55186631944444  3.1171875 6.17252604166667  C 2.78732638888889 5.70247395833333  2.34613715277778 5.13346354166667  1.79361979166667 4.46549479166667  C 1.71115451388889 4.36653645833333  1.669921875 4.267578125  1.669921875 4.16861979166667  C 1.669921875 4.08615451388889  1.70703125 3.99131944444444  1.78125 3.88411458333333  C 1.99565972222222 3.58723958333333  2.40180121527778 3.14398871527778  2.99967447916667 2.55436197916667  C 3.59754774305556 1.96473524305555  3.98719618055556 1.669921875  4.16861979166667 1.669921875  C 4.27582465277778 1.669921875  4.38302951388889 1.71115451388889  4.490234375 1.79361979166667  L 6.197265625 3.1171875  C 6.56011284722222 2.92751736111111  6.93532986111111 2.77083333333333  7.32291666666667 2.64713541666667  C 7.45486111111111 1.52560763888889  7.57443576388889 0.758680555555554  7.681640625 0.346354166666666  C 7.73936631944444 0.115451388888888  7.88780381944444 0  8.126953125 0  L 10.873046875 0  C 10.9884982638889 0  11.0895182291667 0.0350477430555539  11.1761067708333 0.105143229166666  C 11.2626953125 0.175238715277776  11.3101128472222 0.263888888888888  11.318359375 0.37109375  L 11.6647135416667 2.64713541666667  C 12.0687934027778 2.77907986111111  12.4398871527778 2.931640625  12.7779947916667 3.10481770833333  L 14.5345052083333 1.78125  C 14.6087239583333 1.70703125  14.7076822916667 1.669921875  14.8313802083333 1.669921875  C 14.9385850694444 1.669921875  15.0416666666667 1.71115451388889  15.140625 1.79361979166667  C 16.2044270833333 2.77495659722222  16.884765625 3.47591145833333  17.181640625 3.896484375  C 17.2393663194444 3.96245659722222  17.2682291666667 4.05316840277778  17.2682291666667 4.16861979166667  C 17.2682291666667 4.267578125  17.2352430555556 4.36241319444444  17.1692708333333 4.453125  C 17.0455729166667 4.62630208333333  16.8352864583333 4.90049913194444  16.5384114583333 5.27571614583333  C 16.2415364583333 5.65093315972222  16.0188802083333 5.94162326388889  15.8704427083333 6.14778645833333  C 16.0848524305556 6.56011284722222  16.25390625 6.96419270833333  16.3776041666667 7.36002604166667  L 18.6412760416667 7.70638020833333  C 18.7484809027778 7.72287326388889  18.8350694444444 7.7744140625  18.9010416666667 7.86100260416667  Z " fill-rule="nonzero" fill="#b2b2b2" stroke="none" transform="matrix(1 0 0 1 13 8 )" />
  </g>
</svg>