<?xml version="1.0" encoding="utf-8"?>
<svg version="1.1" xmlns:xlink="http://www.w3.org/1999/xlink" width="12px" height="12px" viewBox="92 8  12 12" xmlns="http://www.w3.org/2000/svg">
  <path d="M 98 8  C 101.36 8  104 10.64  104 14  C 104 17.36  101.36 20  98 20  C 94.64 20  92 17.36  92 14  C 92 10.64  94.64 8  98 8  Z " fill-rule="nonzero" fill="#ffffff" stroke="none" />
  <path d="M 98 8.5  C 101.08 8.5  103.5 10.92  103.5 14  C 103.5 17.08  101.08 19.5  98 19.5  C 94.92 19.5  92.5 17.08  92.5 14  C 92.5 10.92  94.92 8.5  98 8.5  Z " stroke-width="1" stroke="#0099ff" fill="none" />
  <path d="M 98 17  C 96.32 17  95 15.68  95 14  C 95 12.32  96.32 11  98 11  C 99.68 11  101 12.32  101 14  C 101 15.68  99.68 17  98 17  " fill-rule="nonzero" fill="#0099ff" stroke="none" />
</svg>