<?xml version="1.0" encoding="utf-8"?>
<svg version="1.1" xmlns:xlink="http://www.w3.org/1999/xlink" width="12px" height="12px" viewBox="189 8  12 12" xmlns="http://www.w3.org/2000/svg">
  <path d="M 195 8  C 198.36 8  201 10.64  201 14  C 201 17.36  198.36 20  195 20  C 191.64 20  189 17.36  189 14  C 189 10.64  191.64 8  195 8  Z " fill-rule="nonzero" fill="#f0f0f0" stroke="none" />
  <path d="M 195 8.5  C 198.08 8.5  200.5 10.92  200.5 14  C 200.5 17.08  198.08 19.5  195 19.5  C 191.92 19.5  189.5 17.08  189.5 14  C 189.5 10.92  191.92 8.5  195 8.5  Z " stroke-width="1" stroke="#797979" fill="none" />
  <path d="M 195 17  C 193.32 17  192 15.68  192 14  C 192 12.32  193.32 11  195 11  C 196.68 11  198 12.32  198 14  C 198 15.68  196.68 17  195 17  " fill-rule="nonzero" fill="#797979" stroke="none" />
</svg>