<?xml version="1.0" encoding="utf-8"?>
<svg version="1.1" xmlns:xlink="http://www.w3.org/1999/xlink" width="12px" height="12px" viewBox="189 11  12 12" xmlns="http://www.w3.org/2000/svg">
  <path d="M 195 11  C 198.36 11  201 13.64  201 17  C 201 20.36  198.36 23  195 23  C 191.64 23  189 20.36  189 17  C 189 13.64  191.64 11  195 11  Z " fill-rule="nonzero" fill="#ffffff" stroke="none" />
  <path d="M 195 11.5  C 198.08 11.5  200.5 13.92  200.5 17  C 200.5 20.08  198.08 22.5  195 22.5  C 191.92 22.5  189.5 20.08  189.5 17  C 189.5 13.92  191.92 11.5  195 11.5  Z " stroke-width="1" stroke="#0099ff" fill="none" />
  <path d="M 195 20  C 193.32 20  192 18.68  192 17  C 192 15.32  193.32 14  195 14  C 196.68 14  198 15.32  198 17  C 198 18.68  196.68 20  195 20  " fill-rule="nonzero" fill="#0099ff" stroke="none" />
</svg>