<?xml version="1.0" encoding="utf-8"?>
<svg version="1.1" xmlns:xlink="http://www.w3.org/1999/xlink" width="12px" height="12px" viewBox="92 11  12 12" xmlns="http://www.w3.org/2000/svg">
  <path d="M 98 11  C 101.36 11  104 13.64  104 17  C 104 20.36  101.36 23  98 23  C 94.64 23  92 20.36  92 17  C 92 13.64  94.64 11  98 11  Z " fill-rule="nonzero" fill="#f0f0f0" stroke="none" />
  <path d="M 98 11.5  C 101.08 11.5  103.5 13.92  103.5 17  C 103.5 20.08  101.08 22.5  98 22.5  C 94.92 22.5  92.5 20.08  92.5 17  C 92.5 13.92  94.92 11.5  98 11.5  Z " stroke-width="1" stroke="#797979" fill="none" />
  <path d="M 98 20  C 96.32 20  95 18.68  95 17  C 95 15.32  96.32 14  98 14  C 99.68 14  101 15.32  101 17  C 101 18.68  99.68 20  98 20  " fill-rule="nonzero" fill="#797979" stroke="none" />
</svg>