<?xml version="1.0" encoding="utf-8"?>
<svg version="1.1" xmlns:xlink="http://www.w3.org/1999/xlink" width="18px" height="18px" viewBox="176 320  18 18" xmlns="http://www.w3.org/2000/svg">
  <path d="M 176.5 323  A 2.5 2.5 0 0 1 179 320.5 L 191 320.5  A 2.5 2.5 0 0 1 193.5 323 L 193.5 335  A 2.5 2.5 0 0 1 191 337.5 L 179 337.5  A 2.5 2.5 0 0 1 176.5 335 L 176.5 323  Z " fill-rule="nonzero" fill="#ffffff" stroke="none" />
  <path d="M 176.5 323  A 2.5 2.5 0 0 1 179 320.5 L 191 320.5  A 2.5 2.5 0 0 1 193.5 323 L 193.5 335  A 2.5 2.5 0 0 1 191 337.5 L 179 337.5  A 2.5 2.5 0 0 1 176.5 335 L 176.5 323  Z " stroke-width="1" stroke="#797979" fill="none" />
</svg>