<?xml version="1.0" encoding="utf-8"?>
<svg version="1.1" xmlns:xlink="http://www.w3.org/1999/xlink" width="18px" height="18px" viewBox="318 320  18 18" xmlns="http://www.w3.org/2000/svg">
  <path d="M 318.5 323  A 2.5 2.5 0 0 1 321 320.5 L 333 320.5  A 2.5 2.5 0 0 1 335.5 323 L 335.5 335  A 2.5 2.5 0 0 1 333 337.5 L 321 337.5  A 2.5 2.5 0 0 1 318.5 335 L 318.5 323  Z " fill-rule="nonzero" fill="#ffffff" stroke="none" />
  <path d="M 318.5 323  A 2.5 2.5 0 0 1 321 320.5 L 333 320.5  A 2.5 2.5 0 0 1 335.5 323 L 335.5 335  A 2.5 2.5 0 0 1 333 337.5 L 321 337.5  A 2.5 2.5 0 0 1 318.5 335 L 318.5 323  Z " stroke-width="1" stroke="#797979" fill="none" />
  <path d="M 321.857142857143 329  L 325.714285714286 332.857142857143  L 332.142857142857 323.857142857143  " stroke-width="3.85714285714286" stroke="#797979" fill="none" />
</svg>