<?xml version="1.0" encoding="utf-8"?>
<svg version="1.1" xmlns:xlink="http://www.w3.org/1999/xlink" width="18px" height="18px" viewBox="318 373  18 18" xmlns="http://www.w3.org/2000/svg">
  <path d="M 318.5 376  A 2.5 2.5 0 0 1 321 373.5 L 333 373.5  A 2.5 2.5 0 0 1 335.5 376 L 335.5 388  A 2.5 2.5 0 0 1 333 390.5 L 321 390.5  A 2.5 2.5 0 0 1 318.5 388 L 318.5 376  Z " fill-rule="nonzero" fill="#f0f0f0" stroke="none" />
  <path d="M 318.5 376  A 2.5 2.5 0 0 1 321 373.5 L 333 373.5  A 2.5 2.5 0 0 1 335.5 376 L 335.5 388  A 2.5 2.5 0 0 1 333 390.5 L 321 390.5  A 2.5 2.5 0 0 1 318.5 388 L 318.5 376  Z " stroke-width="1" stroke="#797979" fill="none" />
  <path d="M 321.857142857143 382  L 325.714285714286 385.857142857143  L 332.142857142857 376.857142857143  " stroke-width="3.85714285714286" stroke="#797979" fill="none" />
</svg>