<?xml version="1.0" encoding="utf-8"?>
<svg version="1.1" xmlns:xlink="http://www.w3.org/1999/xlink" width="18px" height="18px" viewBox="176 373  18 18" xmlns="http://www.w3.org/2000/svg">
  <path d="M 176.5 376  A 2.5 2.5 0 0 1 179 373.5 L 191 373.5  A 2.5 2.5 0 0 1 193.5 376 L 193.5 388  A 2.5 2.5 0 0 1 191 390.5 L 179 390.5  A 2.5 2.5 0 0 1 176.5 388 L 176.5 376  Z " fill-rule="nonzero" fill="#ffffff" stroke="none" />
  <path d="M 176.5 376  A 2.5 2.5 0 0 1 179 373.5 L 191 373.5  A 2.5 2.5 0 0 1 193.5 376 L 193.5 388  A 2.5 2.5 0 0 1 191 390.5 L 179 390.5  A 2.5 2.5 0 0 1 176.5 388 L 176.5 376  Z " stroke-width="1" stroke="#797979" fill="none" />
</svg>