<?xml version="1.0" encoding="utf-8"?>
<svg version="1.1" xmlns:xlink="http://www.w3.org/1999/xlink" width="16px" height="16px" viewBox="87 260  16 16" xmlns="http://www.w3.org/2000/svg">
  <path d="M 87.5 263  A 2.5 2.5 0 0 1 90 260.5 L 100 260.5  A 2.5 2.5 0 0 1 102.5 263 L 102.5 273  A 2.5 2.5 0 0 1 100 275.5 L 90 275.5  A 2.5 2.5 0 0 1 87.5 273 L 87.5 263  Z " fill-rule="nonzero" fill="#f0f0f0" stroke="none" />
  <path d="M 87.5 263  A 2.5 2.5 0 0 1 90 260.5 L 100 260.5  A 2.5 2.5 0 0 1 102.5 263 L 102.5 273  A 2.5 2.5 0 0 1 100 275.5 L 90 275.5  A 2.5 2.5 0 0 1 87.5 273 L 87.5 263  Z " stroke-width="1" stroke="#999999" fill="none" />
</svg>