<?xml version="1.0" encoding="utf-8"?>
<svg version="1.1" xmlns:xlink="http://www.w3.org/1999/xlink" width="16px" height="16px" viewBox="87 421  16 16" xmlns="http://www.w3.org/2000/svg">
  <path d="M 87.5 424  A 2.5 2.5 0 0 1 90 421.5 L 100 421.5  A 2.5 2.5 0 0 1 102.5 424 L 102.5 434  A 2.5 2.5 0 0 1 100 436.5 L 90 436.5  A 2.5 2.5 0 0 1 87.5 434 L 87.5 424  Z " fill-rule="nonzero" fill="#ffffff" stroke="none" />
  <path d="M 87.5 424  A 2.5 2.5 0 0 1 90 421.5 L 100 421.5  A 2.5 2.5 0 0 1 102.5 424 L 102.5 434  A 2.5 2.5 0 0 1 100 436.5 L 90 436.5  A 2.5 2.5 0 0 1 87.5 434 L 87.5 424  Z " stroke-width="1" stroke="#999999" fill="none" />
</svg>