<?xml version="1.0" encoding="utf-8"?>
<svg version="1.1" xmlns:xlink="http://www.w3.org/1999/xlink" width="16px" height="16px" viewBox="87 586  16 16" xmlns="http://www.w3.org/2000/svg">
  <path d="M 87.5 589  A 2.5 2.5 0 0 1 90 586.5 L 100 586.5  A 2.5 2.5 0 0 1 102.5 589 L 102.5 599  A 2.5 2.5 0 0 1 100 601.5 L 90 601.5  A 2.5 2.5 0 0 1 87.5 599 L 87.5 589  Z " fill-rule="nonzero" fill="#f0f0f0" stroke="none" />
  <path d="M 87.5 589  A 2.5 2.5 0 0 1 90 586.5 L 100 586.5  A 2.5 2.5 0 0 1 102.5 589 L 102.5 599  A 2.5 2.5 0 0 1 100 601.5 L 90 601.5  A 2.5 2.5 0 0 1 87.5 599 L 87.5 589  Z " stroke-width="1" stroke="#999999" fill="none" />
</svg>