<?xml version="1.0" encoding="utf-8"?>
<svg version="1.1" xmlns:xlink="http://www.w3.org/1999/xlink" width="16px" height="16px" viewBox="87 310  16 16" xmlns="http://www.w3.org/2000/svg">
  <path d="M 87.5 313  A 2.5 2.5 0 0 1 90 310.5 L 100 310.5  A 2.5 2.5 0 0 1 102.5 313 L 102.5 323  A 2.5 2.5 0 0 1 100 325.5 L 90 325.5  A 2.5 2.5 0 0 1 87.5 323 L 87.5 313  Z " fill-rule="nonzero" fill="#ffffff" stroke="none" />
  <path d="M 87.5 313  A 2.5 2.5 0 0 1 90 310.5 L 100 310.5  A 2.5 2.5 0 0 1 102.5 313 L 102.5 323  A 2.5 2.5 0 0 1 100 325.5 L 90 325.5  A 2.5 2.5 0 0 1 87.5 323 L 87.5 313  Z " stroke-width="1" stroke="#999999" fill="none" />
</svg>