<?xml version="1.0" encoding="utf-8"?>
<svg version="1.1" xmlns:xlink="http://www.w3.org/1999/xlink" width="16px" height="16px" viewBox="87 366  16 16" xmlns="http://www.w3.org/2000/svg">
  <path d="M 87.5 369  A 2.5 2.5 0 0 1 90 366.5 L 100 366.5  A 2.5 2.5 0 0 1 102.5 369 L 102.5 379  A 2.5 2.5 0 0 1 100 381.5 L 90 381.5  A 2.5 2.5 0 0 1 87.5 379 L 87.5 369  Z " fill-rule="nonzero" fill="#f0f0f0" stroke="none" />
  <path d="M 87.5 369  A 2.5 2.5 0 0 1 90 366.5 L 100 366.5  A 2.5 2.5 0 0 1 102.5 369 L 102.5 379  A 2.5 2.5 0 0 1 100 381.5 L 90 381.5  A 2.5 2.5 0 0 1 87.5 379 L 87.5 369  Z " stroke-width="1" stroke="#999999" fill="none" />
  <path d="M 90.4285714285714 374  L 93.8571428571429 377.428571428571  L 99.5714285714286 369.428571428571  " stroke-width="3.42857142857143" stroke="#999999" fill="none" />
</svg>