<?xml version="1.0" encoding="utf-8"?>
<svg version="1.1" xmlns:xlink="http://www.w3.org/1999/xlink" width="16px" height="16px" viewBox="87 146  16 16" xmlns="http://www.w3.org/2000/svg">
  <path d="M 87.5 149  A 2.5 2.5 0 0 1 90 146.5 L 100 146.5  A 2.5 2.5 0 0 1 102.5 149 L 102.5 159  A 2.5 2.5 0 0 1 100 161.5 L 90 161.5  A 2.5 2.5 0 0 1 87.5 159 L 87.5 149  Z " fill-rule="nonzero" fill="#ffffff" stroke="none" />
  <path d="M 87.5 149  A 2.5 2.5 0 0 1 90 146.5 L 100 146.5  A 2.5 2.5 0 0 1 102.5 149 L 102.5 159  A 2.5 2.5 0 0 1 100 161.5 L 90 161.5  A 2.5 2.5 0 0 1 87.5 159 L 87.5 149  Z " stroke-width="1" stroke="#999999" fill="none" />
  <path d="M 90.4285714285714 154  L 93.8571428571429 157.428571428571  L 99.5714285714286 149.428571428571  " stroke-width="3.42857142857143" stroke="#999999" fill="none" />
</svg>