<?xml version="1.0" encoding="utf-8"?>
<svg version="1.1" xmlns:xlink="http://www.w3.org/1999/xlink" width="16px" height="16px" viewBox="62 194  16 16" xmlns="http://www.w3.org/2000/svg">
  <path d="M 62.5 197  A 2.5 2.5 0 0 1 65 194.5 L 75 194.5  A 2.5 2.5 0 0 1 77.5 197 L 77.5 207  A 2.5 2.5 0 0 1 75 209.5 L 65 209.5  A 2.5 2.5 0 0 1 62.5 207 L 62.5 197  Z " fill-rule="nonzero" fill="#f0f0f0" stroke="none" />
  <path d="M 62.5 197  A 2.5 2.5 0 0 1 65 194.5 L 75 194.5  A 2.5 2.5 0 0 1 77.5 197 L 77.5 207  A 2.5 2.5 0 0 1 75 209.5 L 65 209.5  A 2.5 2.5 0 0 1 62.5 207 L 62.5 197  Z " stroke-width="1" stroke="#999999" fill="none" />
</svg>