<?xml version="1.0" encoding="utf-8"?>
<svg version="1.1" xmlns:xlink="http://www.w3.org/1999/xlink" width="16px" height="16px" viewBox="62 634  16 16" xmlns="http://www.w3.org/2000/svg">
  <path d="M 62.5 637  A 2.5 2.5 0 0 1 65 634.5 L 75 634.5  A 2.5 2.5 0 0 1 77.5 637 L 77.5 647  A 2.5 2.5 0 0 1 75 649.5 L 65 649.5  A 2.5 2.5 0 0 1 62.5 647 L 62.5 637  Z " fill-rule="nonzero" fill="#ffffff" stroke="none" />
  <path d="M 62.5 637  A 2.5 2.5 0 0 1 65 634.5 L 75 634.5  A 2.5 2.5 0 0 1 77.5 637 L 77.5 647  A 2.5 2.5 0 0 1 75 649.5 L 65 649.5  A 2.5 2.5 0 0 1 62.5 647 L 62.5 637  Z " stroke-width="1" stroke="#999999" fill="none" />
</svg>