<?xml version="1.0" encoding="utf-8"?>
<svg version="1.1" xmlns:xlink="http://www.w3.org/1999/xlink" width="16px" height="16px" viewBox="62 359  16 16" xmlns="http://www.w3.org/2000/svg">
  <path d="M 62.5 362  A 2.5 2.5 0 0 1 65 359.5 L 75 359.5  A 2.5 2.5 0 0 1 77.5 362 L 77.5 372  A 2.5 2.5 0 0 1 75 374.5 L 65 374.5  A 2.5 2.5 0 0 1 62.5 372 L 62.5 362  Z " fill-rule="nonzero" fill="#ffffff" stroke="none" />
  <path d="M 62.5 362  A 2.5 2.5 0 0 1 65 359.5 L 75 359.5  A 2.5 2.5 0 0 1 77.5 362 L 77.5 372  A 2.5 2.5 0 0 1 75 374.5 L 65 374.5  A 2.5 2.5 0 0 1 62.5 372 L 62.5 362  Z " stroke-width="1" stroke="#999999" fill="none" />
  <path d="M 65.4285714285714 367  L 68.8571428571429 370.428571428571  L 74.5714285714286 362.428571428571  " stroke-width="3.42857142857143" stroke="#999999" fill="none" />
</svg>