<?xml version="1.0" encoding="utf-8"?>
<svg version="1.1" xmlns:xlink="http://www.w3.org/1999/xlink" width="16px" height="16px" viewBox="62 414  16 16" xmlns="http://www.w3.org/2000/svg">
  <path d="M 62.5 417  A 2.5 2.5 0 0 1 65 414.5 L 75 414.5  A 2.5 2.5 0 0 1 77.5 417 L 77.5 427  A 2.5 2.5 0 0 1 75 429.5 L 65 429.5  A 2.5 2.5 0 0 1 62.5 427 L 62.5 417  Z " fill-rule="nonzero" fill="#ffffff" stroke="none" />
  <path d="M 62.5 417  A 2.5 2.5 0 0 1 65 414.5 L 75 414.5  A 2.5 2.5 0 0 1 77.5 417 L 77.5 427  A 2.5 2.5 0 0 1 75 429.5 L 65 429.5  A 2.5 2.5 0 0 1 62.5 427 L 62.5 417  Z " stroke-width="1" stroke="#999999" fill="none" />
</svg>