<?xml version="1.0" encoding="utf-8"?>
<svg version="1.1" xmlns:xlink="http://www.w3.org/1999/xlink" width="16px" height="16px" viewBox="62 579  16 16" xmlns="http://www.w3.org/2000/svg">
  <path d="M 62.5 582  A 2.5 2.5 0 0 1 65 579.5 L 75 579.5  A 2.5 2.5 0 0 1 77.5 582 L 77.5 592  A 2.5 2.5 0 0 1 75 594.5 L 65 594.5  A 2.5 2.5 0 0 1 62.5 592 L 62.5 582  Z " fill-rule="nonzero" fill="#f0f0f0" stroke="none" />
  <path d="M 62.5 582  A 2.5 2.5 0 0 1 65 579.5 L 75 579.5  A 2.5 2.5 0 0 1 77.5 582 L 77.5 592  A 2.5 2.5 0 0 1 75 594.5 L 65 594.5  A 2.5 2.5 0 0 1 62.5 592 L 62.5 582  Z " stroke-width="1" stroke="#999999" fill="none" />
  <path d="M 65.4285714285714 587  L 68.8571428571429 590.428571428571  L 74.5714285714286 582.428571428571  " stroke-width="3.42857142857143" stroke="#999999" fill="none" />
</svg>