<?xml version="1.0" encoding="utf-8"?>
<svg version="1.1" xmlns:xlink="http://www.w3.org/1999/xlink" width="16px" height="16px" viewBox="62 84  16 16" xmlns="http://www.w3.org/2000/svg">
  <path d="M 62.5 87  A 2.5 2.5 0 0 1 65 84.5 L 75 84.5  A 2.5 2.5 0 0 1 77.5 87 L 77.5 97  A 2.5 2.5 0 0 1 75 99.5 L 65 99.5  A 2.5 2.5 0 0 1 62.5 97 L 62.5 87  Z " fill-rule="nonzero" fill="#ffffff" stroke="none" />
  <path d="M 62.5 87  A 2.5 2.5 0 0 1 65 84.5 L 75 84.5  A 2.5 2.5 0 0 1 77.5 87 L 77.5 97  A 2.5 2.5 0 0 1 75 99.5 L 65 99.5  A 2.5 2.5 0 0 1 62.5 97 L 62.5 87  Z " stroke-width="1" stroke="#999999" fill="none" />
  <path d="M 65.4285714285714 92  L 68.8571428571429 95.4285714285714  L 74.5714285714286 87.4285714285714  " stroke-width="3.42857142857143" stroke="#999999" fill="none" />
</svg>