<?xml version="1.0" encoding="utf-8"?>
<svg version="1.1" xmlns:xlink="http://www.w3.org/1999/xlink" width="24px" height="25px" xmlns="http://www.w3.org/2000/svg">
  <g transform="matrix(1 0 0 1 -751 -363 )">
    <path d="M 14.2111801242236 11.9238476953908  C 14.3768115942029 12.0908483633935  14.4596273291925 12.2828991315965  14.4596273291925 12.5  C 14.4596273291925 12.7171008684035  14.3768115942029 12.9091516366065  14.2111801242236 13.0761523046092  L 2.63354037267081 24.749498997996  C 2.46790890269151 24.9164996659987  2.27743271221532 25  2.06211180124224 25  C 1.84679089026915 25  1.65631469979296 24.9164996659987  1.49068322981366 24.749498997996  L 0.248447204968944 23.496993987976  C 0.0828157349896481 23.3299933199733  0 23.1379425517702  0 22.9208416833667  C 0 22.7037408149633  0.0828157349896481 22.5116900467602  0.248447204968944 22.3446893787575  L 10.0124223602484 12.5  L 0.248447204968944 2.65531062124249  C 0.0828157349896481 2.48830995323981  0 2.29625918503674  0 2.07915831663327  C 0 1.86205744822979  0.0828157349896481 1.67000668002672  0.248447204968944 1.50300601202405  L 1.49068322981366 0.250501002004008  C 1.65631469979296 0.0835003340013352  1.84679089026915 0  2.06211180124224 0  C 2.27743271221532 0  2.46790890269151 0.0835003340013352  2.63354037267081 0.250501002004008  L 14.2111801242236 11.9238476953908  Z M 23.7515527950311 11.9238476953908  C 23.9171842650104 12.0908483633935  24 12.2828991315965  24 12.5  C 24 12.7171008684035  23.9171842650104 12.9091516366065  23.7515527950311 13.0761523046092  L 12.1739130434783 24.749498997996  C 12.008281573499 24.9164996659987  11.8178053830228 25  11.6024844720497 25  C 11.3871635610766 25  11.1966873706004 24.9164996659987  11.0310559006211 24.749498997996  L 9.7888198757764 23.496993987976  C 9.6231884057971 23.3299933199733  9.54037267080745 23.1379425517702  9.54037267080745 22.9208416833667  C 9.54037267080745 22.7037408149633  9.6231884057971 22.5116900467602  9.7888198757764 22.3446893787575  L 19.5527950310559 12.5  L 9.7888198757764 2.65531062124249  C 9.6231884057971 2.48830995323981  9.54037267080745 2.29625918503674  9.54037267080745 2.07915831663327  C 9.54037267080745 1.86205744822979  9.6231884057971 1.67000668002672  9.7888198757764 1.50300601202405  L 11.0310559006211 0.250501002004008  C 11.1966873706004 0.0835003340013352  11.3871635610766 0  11.6024844720497 0  C 11.8178053830228 0  12.008281573499 0.0835003340013352  12.1739130434783 0.250501002004008  L 23.7515527950311 11.9238476953908  Z " fill-rule="nonzero" fill="#bdbdbd" stroke="none" transform="matrix(1 0 0 1 751 363 )" />
  </g>
</svg>