<?xml version="1.0" encoding="utf-8"?>
<svg version="1.1" xmlns:xlink="http://www.w3.org/1999/xlink" width="18px" height="18px" viewBox="994 223  18 18" xmlns="http://www.w3.org/2000/svg">
  <path d="M 1003 227  C 1005.8 227  1008 229.2  1008 232  C 1008 234.8  1005.8 237  1003 237  C 1000.2 237  998 234.8  998 232  C 998 229.2  1000.2 227  1003 227  Z " fill-rule="nonzero" fill="#f0f0f0" stroke="none" />
  <path d="M 1003 225.5  C 1006.64 225.5  1009.5 228.36  1009.5 232  C 1009.5 235.64  1006.64 238.5  1003 238.5  C 999.36 238.5  996.5 235.64  996.5 232  C 996.5 228.36  999.36 225.5  1003 225.5  Z " stroke-width="5" stroke="#409eff" fill="none" />
  <path d="M 1003 236.5  C 1000.48 236.5  998.5 234.52  998.5 232  C 998.5 229.48  1000.48 227.5  1003 227.5  C 1005.52 227.5  1007.5 229.48  1007.5 232  C 1007.5 234.52  1005.52 236.5  1003 236.5  " fill-rule="nonzero" fill="#409eff" stroke="none" />
</svg>