<?xml version="1.0" encoding="utf-8"?>
<svg version="1.1" xmlns:xlink="http://www.w3.org/1999/xlink" width="18px" height="18px" viewBox="1078 223  18 18" xmlns="http://www.w3.org/2000/svg">
  <path d="M 1087 223  C 1092.04 223  1096 226.96  1096 232  C 1096 237.04  1092.04 241  1087 241  C 1081.96 241  1078 237.04  1078 232  C 1078 226.96  1081.96 223  1087 223  Z " fill-rule="nonzero" fill="#ffffff" stroke="none" />
  <path d="M 1087 223.5  C 1091.76 223.5  1095.5 227.24  1095.5 232  C 1095.5 236.76  1091.76 240.5  1087 240.5  C 1082.24 240.5  1078.5 236.76  1078.5 232  C 1078.5 227.24  1082.24 223.5  1087 223.5  Z " stroke-width="1" stroke="#0099ff" fill="none" />
  <path d="M 1087 236.5  C 1084.48 236.5  1082.5 234.52  1082.5 232  C 1082.5 229.48  1084.48 227.5  1087 227.5  C 1089.52 227.5  1091.5 229.48  1091.5 232  C 1091.5 234.52  1089.52 236.5  1087 236.5  " fill-rule="nonzero" fill="#0099ff" stroke="none" />
</svg>