<?xml version="1.0" encoding="utf-8"?>
<svg version="1.1" xmlns:xlink="http://www.w3.org/1999/xlink" width="18px" height="18px" viewBox="272 43  18 18" xmlns="http://www.w3.org/2000/svg">
  <path d="M 272.5 46  A 2.5 2.5 0 0 1 275 43.5 L 287 43.5  A 2.5 2.5 0 0 1 289.5 46 L 289.5 58  A 2.5 2.5 0 0 1 287 60.5 L 275 60.5  A 2.5 2.5 0 0 1 272.5 58 L 272.5 46  Z " fill-rule="nonzero" fill="#409eff" stroke="none" />
  <path d="M 272.5 46  A 2.5 2.5 0 0 1 275 43.5 L 287 43.5  A 2.5 2.5 0 0 1 289.5 46 L 289.5 58  A 2.5 2.5 0 0 1 287 60.5 L 275 60.5  A 2.5 2.5 0 0 1 272.5 58 L 272.5 46  Z " stroke-width="1" stroke="#ffffff" fill="none" />
  <path d="M 275.857142857143 52  L 279.714285714286 55.8571428571429  L 286.142857142857 46.8571428571429  " stroke-width="3.85714285714286" stroke="#ffffff" fill="none" />
</svg>