<?xml version="1.0" encoding="utf-8"?>
<svg version="1.1" xmlns:xlink="http://www.w3.org/1999/xlink" width="15px" height="15px" xmlns="http://www.w3.org/2000/svg">
  <g transform="matrix(1 0 0 1 -84 -73 )">
    <path d="M 8.505859375 10.244140625  C 8.564453125 10.302734375  8.59375 10.3776041666667  8.59375 10.46875  L 8.59375 12.03125  C 8.59375 12.1223958333333  8.564453125 12.197265625  8.505859375 12.255859375  C 8.447265625 12.314453125  8.37239583333333 12.34375  8.28125 12.34375  L 6.71875 12.34375  C 6.62760416666667 12.34375  6.552734375 12.314453125  6.494140625 12.255859375  C 6.435546875 12.197265625  6.40625 12.1223958333333  6.40625 12.03125  L 6.40625 10.46875  C 6.40625 10.3776041666667  6.435546875 10.302734375  6.494140625 10.244140625  C 6.552734375 10.185546875  6.62760416666667 10.15625  6.71875 10.15625  L 8.28125 10.15625  C 8.37239583333333 10.15625  8.447265625 10.185546875  8.505859375 10.244140625  Z M 10.0244140625 3.5302734375  C 10.7373046875 4.11295572916667  11.09375 4.81119791666667  11.09375 5.625  C 11.09375 5.95052083333333  11.044921875 6.24348958333333  10.947265625 6.50390625  C 10.849609375 6.76432291666667  10.7014973958333 6.98893229166667  10.5029296875 7.177734375  C 10.3043619791667 7.36653645833333  10.1350911458333 7.509765625  9.9951171875 7.607421875  C 9.85514322916667 7.705078125  9.66145833333334 7.822265625  9.4140625 7.958984375  C 9.20572916666667 8.076171875  9.05436197916667 8.16731770833333  8.9599609375 8.232421875  C 8.86555989583333 8.29752604166666  8.78092447916667 8.37565104166667  8.7060546875 8.466796875  C 8.63118489583333 8.55794270833333  8.59375 8.65234375  8.59375 8.75  L 8.59375 9.0625  C 8.59375 9.15364583333333  8.564453125 9.228515625  8.505859375 9.287109375  C 8.447265625 9.345703125  8.37239583333333 9.375  8.28125 9.375  L 6.71875 9.375  C 6.62760416666667 9.375  6.552734375 9.345703125  6.494140625 9.287109375  C 6.435546875 9.228515625  6.40625 9.15364583333333  6.40625 9.0625  L 6.40625 8.3984375  C 6.40625 8.17057291666667  6.4404296875 7.96061197916667  6.5087890625 7.7685546875  C 6.5771484375 7.57649739583333  6.6552734375 7.421875  6.7431640625 7.3046875  C 6.8310546875 7.1875  6.9580078125 7.07194010416667  7.1240234375 6.9580078125  C 7.2900390625 6.84407552083333  7.42350260416667 6.76106770833333  7.5244140625 6.708984375  C 7.62532552083333 6.65690104166667  7.77018229166667 6.58854166666667  7.958984375 6.50390625  C 8.30403645833333 6.34114583333333  8.54817708333333 6.201171875  8.69140625 6.083984375  C 8.83463541666667 5.966796875  8.90625 5.80729166666667  8.90625 5.60546875  C 8.90625 5.33203125  8.7646484375 5.09928385416666  8.4814453125 4.9072265625  C 8.1982421875 4.71516927083333  7.88736979166667 4.619140625  7.548828125 4.619140625  C 7.18424479166667 4.619140625  6.875 4.70703125  6.62109375 4.8828125  C 6.43229166666667 5.01302083333333  6.171875 5.283203125  5.83984375 5.693359375  C 5.78125 5.771484375  5.69986979166667 5.810546875  5.595703125 5.810546875  C 5.52408854166667 5.810546875  5.46223958333333 5.791015625  5.41015625 5.751953125  L 4.35546875 4.951171875  C 4.29036458333333 4.90559895833333  4.25130208333333 4.84049479166667  4.23828125 4.755859375  C 4.22526041666667 4.67122395833333  4.24153645833333 4.59635416666667  4.287109375 4.53125  C 5.08138020833333 3.28125  6.21744791666667 2.65625  7.6953125 2.65625  C 8.53515625 2.65625  9.3115234375 2.94759114583333  10.0244140625 3.5302734375  Z M 9.9267578125 1.748046875  C 9.1552734375 1.416015625  8.34635416666667 1.25  7.5 1.25  C 6.65364583333333 1.25  5.8447265625 1.416015625  5.0732421875 1.748046875  C 4.3017578125 2.080078125  3.6376953125 2.5244140625  3.0810546875 3.0810546875  C 2.5244140625 3.6376953125  2.080078125 4.3017578125  1.748046875 5.0732421875  C 1.416015625 5.8447265625  1.25 6.65364583333333  1.25 7.5  C 1.25 8.34635416666667  1.416015625 9.1552734375  1.748046875 9.9267578125  C 2.080078125 10.6982421875  2.5244140625 11.3623046875  3.0810546875 11.9189453125  C 3.6376953125 12.4755859375  4.3017578125 12.919921875  5.0732421875 13.251953125  C 5.8447265625 13.583984375  6.65364583333333 13.75  7.5 13.75  C 8.34635416666667 13.75  9.1552734375 13.583984375  9.9267578125 13.251953125  C 10.6982421875 12.919921875  11.3623046875 12.4755859375  11.9189453125 11.9189453125  C 12.4755859375 11.3623046875  12.919921875 10.6982421875  13.251953125 9.9267578125  C 13.583984375 9.1552734375  13.75 8.34635416666667  13.75 7.5  C 13.75 6.65364583333333  13.583984375 5.8447265625  13.251953125 5.0732421875  C 12.919921875 4.3017578125  12.4755859375 3.6376953125  11.9189453125 3.0810546875  C 11.3623046875 2.5244140625  10.6982421875 2.080078125  9.9267578125 1.748046875  Z M 13.994140625 3.7353515625  C 14.6647135416667 4.88444010416667  15 6.13932291666666  15 7.5  C 15 8.86067708333333  14.6647135416667 10.1155598958333  13.994140625 11.2646484375  C 13.3235677083333 12.4137369791667  12.4137369791667 13.3235677083333  11.2646484375 13.994140625  C 10.1155598958333 14.6647135416667  8.86067708333333 15  7.5 15  C 6.13932291666667 15  4.88444010416667 14.6647135416667  3.7353515625 13.994140625  C 2.58626302083333 13.3235677083333  1.67643229166667 12.4137369791667  1.005859375 11.2646484375  C 0.335286458333333 10.1155598958333  0 8.86067708333333  0 7.5  C 0 6.13932291666666  0.335286458333333 4.88444010416667  1.005859375 3.7353515625  C 1.67643229166667 2.58626302083333  2.58626302083333 1.67643229166667  3.7353515625 1.005859375  C 4.88444010416667 0.335286458333332  6.13932291666667 0  7.5 0  C 8.86067708333333 0  10.1155598958333 0.335286458333332  11.2646484375 1.005859375  C 12.4137369791667 1.67643229166667  13.3235677083333 2.58626302083333  13.994140625 3.7353515625  Z " fill-rule="nonzero" fill="#c3c3c3" stroke="none" transform="matrix(1 0 0 1 84 73 )" />
  </g>
</svg>