<?xml version="1.0" encoding="utf-8"?>
<svg version="1.1" xmlns:xlink="http://www.w3.org/1999/xlink" width="16px" height="16px" viewBox="51 140  16 16" xmlns="http://www.w3.org/2000/svg">
  <path d="M 51.5 143  A 2.5 2.5 0 0 1 54 140.5 L 64 140.5  A 2.5 2.5 0 0 1 66.5 143 L 66.5 153  A 2.5 2.5 0 0 1 64 155.5 L 54 155.5  A 2.5 2.5 0 0 1 51.5 153 L 51.5 143  Z " fill-rule="nonzero" fill="#f0f0f0" stroke="none" />
  <path d="M 51.5 143  A 2.5 2.5 0 0 1 54 140.5 L 64 140.5  A 2.5 2.5 0 0 1 66.5 143 L 66.5 153  A 2.5 2.5 0 0 1 64 155.5 L 54 155.5  A 2.5 2.5 0 0 1 51.5 153 L 51.5 143  Z " stroke-width="1" stroke="#999999" fill="none" />
</svg>