<?xml version="1.0" encoding="utf-8"?>
<svg version="1.1" xmlns:xlink="http://www.w3.org/1999/xlink" width="16px" height="16px" viewBox="51 470  16 16" xmlns="http://www.w3.org/2000/svg">
  <path d="M 51.5 473  A 2.5 2.5 0 0 1 54 470.5 L 64 470.5  A 2.5 2.5 0 0 1 66.5 473 L 66.5 483  A 2.5 2.5 0 0 1 64 485.5 L 54 485.5  A 2.5 2.5 0 0 1 51.5 483 L 51.5 473  Z " fill-rule="nonzero" fill="#ffffff" stroke="none" />
  <path d="M 51.5 473  A 2.5 2.5 0 0 1 54 470.5 L 64 470.5  A 2.5 2.5 0 0 1 66.5 473 L 66.5 483  A 2.5 2.5 0 0 1 64 485.5 L 54 485.5  A 2.5 2.5 0 0 1 51.5 483 L 51.5 473  Z " stroke-width="1" stroke="#999999" fill="none" />
</svg>