<?xml version="1.0" encoding="utf-8"?>
<svg version="1.1" xmlns:xlink="http://www.w3.org/1999/xlink" width="16px" height="16px" viewBox="51 359  16 16" xmlns="http://www.w3.org/2000/svg">
  <path d="M 51.5 362  A 2.5 2.5 0 0 1 54 359.5 L 64 359.5  A 2.5 2.5 0 0 1 66.5 362 L 66.5 372  A 2.5 2.5 0 0 1 64 374.5 L 54 374.5  A 2.5 2.5 0 0 1 51.5 372 L 51.5 362  Z " fill-rule="nonzero" fill="#ffffff" stroke="none" />
  <path d="M 51.5 362  A 2.5 2.5 0 0 1 54 359.5 L 64 359.5  A 2.5 2.5 0 0 1 66.5 362 L 66.5 372  A 2.5 2.5 0 0 1 64 374.5 L 54 374.5  A 2.5 2.5 0 0 1 51.5 372 L 51.5 362  Z " stroke-width="1" stroke="#999999" fill="none" />
</svg>