<?xml version="1.0" encoding="utf-8"?>
<svg version="1.1" xmlns:xlink="http://www.w3.org/1999/xlink" width="16px" height="16px" viewBox="51 309  16 16" xmlns="http://www.w3.org/2000/svg">
  <path d="M 51.5 312  A 2.5 2.5 0 0 1 54 309.5 L 64 309.5  A 2.5 2.5 0 0 1 66.5 312 L 66.5 322  A 2.5 2.5 0 0 1 64 324.5 L 54 324.5  A 2.5 2.5 0 0 1 51.5 322 L 51.5 312  Z " fill-rule="nonzero" fill="#ffffff" stroke="none" />
  <path d="M 51.5 312  A 2.5 2.5 0 0 1 54 309.5 L 64 309.5  A 2.5 2.5 0 0 1 66.5 312 L 66.5 322  A 2.5 2.5 0 0 1 64 324.5 L 54 324.5  A 2.5 2.5 0 0 1 51.5 322 L 51.5 312  Z " stroke-width="1" stroke="#999999" fill="none" />
  <path d="M 54.4285714285714 317  L 57.8571428571429 320.428571428571  L 63.5714285714286 312.428571428571  " stroke-width="3.42857142857143" stroke="#999999" fill="none" />
</svg>