<?xml version="1.0" encoding="utf-8"?>
<svg version="1.1" xmlns:xlink="http://www.w3.org/1999/xlink" width="16px" height="16px" viewBox="51 635  16 16" xmlns="http://www.w3.org/2000/svg">
  <path d="M 51.5 638  A 2.5 2.5 0 0 1 54 635.5 L 64 635.5  A 2.5 2.5 0 0 1 66.5 638 L 66.5 648  A 2.5 2.5 0 0 1 64 650.5 L 54 650.5  A 2.5 2.5 0 0 1 51.5 648 L 51.5 638  Z " fill-rule="nonzero" fill="#ffffff" stroke="none" />
  <path d="M 51.5 638  A 2.5 2.5 0 0 1 54 635.5 L 64 635.5  A 2.5 2.5 0 0 1 66.5 638 L 66.5 648  A 2.5 2.5 0 0 1 64 650.5 L 54 650.5  A 2.5 2.5 0 0 1 51.5 648 L 51.5 638  Z " stroke-width="1" stroke="#999999" fill="none" />
  <path d="M 54.4285714285714 643  L 57.8571428571429 646.428571428571  L 63.5714285714286 638.428571428571  " stroke-width="3.42857142857143" stroke="#999999" fill="none" />
</svg>