<?xml version="1.0" encoding="utf-8"?>
<svg version="1.1" xmlns:xlink="http://www.w3.org/1999/xlink" width="30px" height="30px" xmlns="http://www.w3.org/2000/svg">
  <g transform="matrix(1 0 0 1 -495 -221 )">
    <path d="M 510 222  C 517.84 222  524 228.16  524 236  C 524 243.84  517.84 250  510 250  C 502.16 250  496 243.84  496 236  C 496 228.16  502.16 222  510 222  Z " fill-rule="nonzero" fill="#ffffff" stroke="none" />
    <path d="M 510 222  C 517.84 222  524 228.16  524 236  C 524 243.84  517.84 250  510 250  C 502.16 250  496 243.84  496 236  C 496 228.16  502.16 222  510 222  Z " stroke-width="2" stroke="#0079fe" fill="none" />
  </g>
</svg>