<?xml version="1.0" encoding="utf-8"?>
<svg version="1.1" xmlns:xlink="http://www.w3.org/1999/xlink" width="18px" height="18px" viewBox="162 271  18 18" xmlns="http://www.w3.org/2000/svg">
  <path d="M 162.5 274  A 2.5 2.5 0 0 1 165 271.5 L 177 271.5  A 2.5 2.5 0 0 1 179.5 274 L 179.5 286  A 2.5 2.5 0 0 1 177 288.5 L 165 288.5  A 2.5 2.5 0 0 1 162.5 286 L 162.5 274  Z " fill-rule="nonzero" fill="#ffffff" stroke="none" />
  <path d="M 162.5 274  A 2.5 2.5 0 0 1 165 271.5 L 177 271.5  A 2.5 2.5 0 0 1 179.5 274 L 179.5 286  A 2.5 2.5 0 0 1 177 288.5 L 165 288.5  A 2.5 2.5 0 0 1 162.5 286 L 162.5 274  Z " stroke-width="1" stroke="#797979" fill="none" />
</svg>