<?xml version="1.0" encoding="utf-8"?>
<svg version="1.1" xmlns:xlink="http://www.w3.org/1999/xlink" width="18px" height="18px" viewBox="162 117  18 18" xmlns="http://www.w3.org/2000/svg">
  <path d="M 162.5 120  A 2.5 2.5 0 0 1 165 117.5 L 177 117.5  A 2.5 2.5 0 0 1 179.5 120 L 179.5 132  A 2.5 2.5 0 0 1 177 134.5 L 165 134.5  A 2.5 2.5 0 0 1 162.5 132 L 162.5 120  Z " fill-rule="nonzero" fill="#f0f0f0" stroke="none" />
  <path d="M 162.5 120  A 2.5 2.5 0 0 1 165 117.5 L 177 117.5  A 2.5 2.5 0 0 1 179.5 120 L 179.5 132  A 2.5 2.5 0 0 1 177 134.5 L 165 134.5  A 2.5 2.5 0 0 1 162.5 132 L 162.5 120  Z " stroke-width="1" stroke="#797979" fill="none" />
  <path d="M 165.857142857143 126  L 169.714285714286 129.857142857143  L 176.142857142857 120.857142857143  " stroke-width="3.85714285714286" stroke="#797979" fill="none" />
</svg>