<?xml version="1.0" encoding="utf-8"?>
<svg version="1.1" xmlns:xlink="http://www.w3.org/1999/xlink" width="18px" height="18px" viewBox="162 221  18 18" xmlns="http://www.w3.org/2000/svg">
  <path d="M 162.5 224  A 2.5 2.5 0 0 1 165 221.5 L 177 221.5  A 2.5 2.5 0 0 1 179.5 224 L 179.5 236  A 2.5 2.5 0 0 1 177 238.5 L 165 238.5  A 2.5 2.5 0 0 1 162.5 236 L 162.5 224  Z " fill-rule="nonzero" fill="#409eff" stroke="none" />
  <path d="M 162.5 224  A 2.5 2.5 0 0 1 165 221.5 L 177 221.5  A 2.5 2.5 0 0 1 179.5 224 L 179.5 236  A 2.5 2.5 0 0 1 177 238.5 L 165 238.5  A 2.5 2.5 0 0 1 162.5 236 L 162.5 224  Z " stroke-width="1" stroke="#ffffff" fill="none" />
  <path d="M 165.857142857143 230  L 169.714285714286 233.857142857143  L 176.142857142857 224.857142857143  " stroke-width="3.85714285714286" stroke="#ffffff" fill="none" />
</svg>