<?xml version="1.0" encoding="utf-8"?>
<svg version="1.1" xmlns:xlink="http://www.w3.org/1999/xlink" width="18px" height="18px" viewBox="162 221  18 18" xmlns="http://www.w3.org/2000/svg">
  <path d="M 162.5 224  A 2.5 2.5 0 0 1 165 221.5 L 177 221.5  A 2.5 2.5 0 0 1 179.5 224 L 179.5 236  A 2.5 2.5 0 0 1 177 238.5 L 165 238.5  A 2.5 2.5 0 0 1 162.5 236 L 162.5 224  Z " fill-rule="nonzero" fill="#f0f0f0" stroke="none" />
  <path d="M 162.5 224  A 2.5 2.5 0 0 1 165 221.5 L 177 221.5  A 2.5 2.5 0 0 1 179.5 224 L 179.5 236  A 2.5 2.5 0 0 1 177 238.5 L 165 238.5  A 2.5 2.5 0 0 1 162.5 236 L 162.5 224  Z " stroke-width="1" stroke="#797979" fill="none" />
</svg>