<?xml version="1.0" encoding="utf-8"?>
<svg version="1.1" xmlns:xlink="http://www.w3.org/1999/xlink" width="403px" height="100px" viewBox="154 100  403 100" xmlns="http://www.w3.org/2000/svg">
  <path d="M 155 105  A 4 4 0 0 1 159 101 L 552 101  A 4 4 0 0 1 556 105 L 556 195  A 4 4 0 0 1 552 199 L 159 199  A 4 4 0 0 1 155 195 L 155 105  Z " fill-rule="nonzero" fill="#ffffff" stroke="none" />
  <path d="M 154.5 105  A 4.5 4.5 0 0 1 159 100.5 L 552 100.5  A 4.5 4.5 0 0 1 556.5 105 L 556.5 195  A 4.5 4.5 0 0 1 552 199.5 L 159 199.5  A 4.5 4.5 0 0 1 154.5 195 L 154.5 105  Z " stroke-width="1" stroke="#797979" fill="none" stroke-opacity="0.298039215686275" />
</svg>