<?xml version="1.0" encoding="utf-8"?>
<svg version="1.1" xmlns:xlink="http://www.w3.org/1999/xlink" width="18px" height="18px" viewBox="194 -195  18 18" xmlns="http://www.w3.org/2000/svg">
  <path d="M 194.5 -192  A 2.5 2.5 0 0 1 197 -194.5 L 209 -194.5  A 2.5 2.5 0 0 1 211.5 -192 L 211.5 -180  A 2.5 2.5 0 0 1 209 -177.5 L 197 -177.5  A 2.5 2.5 0 0 1 194.5 -180 L 194.5 -192  Z " fill-rule="nonzero" fill="#ffffff" stroke="none" />
  <path d="M 194.5 -192  A 2.5 2.5 0 0 1 197 -194.5 L 209 -194.5  A 2.5 2.5 0 0 1 211.5 -192 L 211.5 -180  A 2.5 2.5 0 0 1 209 -177.5 L 197 -177.5  A 2.5 2.5 0 0 1 194.5 -180 L 194.5 -192  Z " stroke-width="1" stroke="#797979" fill="none" />
</svg>