<?xml version="1.0" encoding="utf-8"?>
<svg version="1.1" xmlns:xlink="http://www.w3.org/1999/xlink" width="18px" height="18px" viewBox="276 187  18 18" xmlns="http://www.w3.org/2000/svg">
  <path d="M 276.5 190  A 2.5 2.5 0 0 1 279 187.5 L 291 187.5  A 2.5 2.5 0 0 1 293.5 190 L 293.5 202  A 2.5 2.5 0 0 1 291 204.5 L 279 204.5  A 2.5 2.5 0 0 1 276.5 202 L 276.5 190  Z " fill-rule="nonzero" fill="#ffffff" stroke="none" />
  <path d="M 276.5 190  A 2.5 2.5 0 0 1 279 187.5 L 291 187.5  A 2.5 2.5 0 0 1 293.5 190 L 293.5 202  A 2.5 2.5 0 0 1 291 204.5 L 279 204.5  A 2.5 2.5 0 0 1 276.5 202 L 276.5 190  Z " stroke-width="1" stroke="#797979" fill="none" />
</svg>