<?xml version="1.0" encoding="utf-8"?>
<svg version="1.1" xmlns:xlink="http://www.w3.org/1999/xlink" width="18px" height="18px" viewBox="154 233  18 18" xmlns="http://www.w3.org/2000/svg">
  <path d="M 154.5 236  A 2.5 2.5 0 0 1 157 233.5 L 169 233.5  A 2.5 2.5 0 0 1 171.5 236 L 171.5 248  A 2.5 2.5 0 0 1 169 250.5 L 157 250.5  A 2.5 2.5 0 0 1 154.5 248 L 154.5 236  Z " fill-rule="nonzero" fill="#f0f0f0" stroke="none" />
  <path d="M 154.5 236  A 2.5 2.5 0 0 1 157 233.5 L 169 233.5  A 2.5 2.5 0 0 1 171.5 236 L 171.5 248  A 2.5 2.5 0 0 1 169 250.5 L 157 250.5  A 2.5 2.5 0 0 1 154.5 248 L 154.5 236  Z " stroke-width="1" stroke="#797979" fill="none" />
</svg>