<?xml version="1.0" encoding="utf-8"?>
<svg version="1.1" xmlns:xlink="http://www.w3.org/1999/xlink" width="18px" height="18px" viewBox="209 -301  18 18" xmlns="http://www.w3.org/2000/svg">
  <path d="M 209.5 -298  A 2.5 2.5 0 0 1 212 -300.5 L 224 -300.5  A 2.5 2.5 0 0 1 226.5 -298 L 226.5 -286  A 2.5 2.5 0 0 1 224 -283.5 L 212 -283.5  A 2.5 2.5 0 0 1 209.5 -286 L 209.5 -298  Z " fill-rule="nonzero" fill="#ffffff" stroke="none" />
  <path d="M 209.5 -298  A 2.5 2.5 0 0 1 212 -300.5 L 224 -300.5  A 2.5 2.5 0 0 1 226.5 -298 L 226.5 -286  A 2.5 2.5 0 0 1 224 -283.5 L 212 -283.5  A 2.5 2.5 0 0 1 209.5 -286 L 209.5 -298  Z " stroke-width="1" stroke="#797979" fill="none" />
</svg>