<?xml version="1.0" encoding="utf-8"?>
<svg version="1.1" xmlns:xlink="http://www.w3.org/1999/xlink" width="18px" height="18px" xmlns="http://www.w3.org/2000/svg">
  <g transform="matrix(1 0 0 1 -9 -11 )">
    <path d="M 17.7039473684211 9  C 17.7039473684211 4.20039473684211  13.7996052631579 0.296052631578947  9 0.296052631578947  C 4.2003947368421 0.296052631578947  0.296052631578947 4.2003947368421  0.296052631578947 9  C 0.296052631578947 13.7996052631579  4.20039473684211 17.7039473684211  9 17.7039473684211  C 13.7996052631579 17.7039473684211  17.7039473684211 13.7996052631579  17.7039473684211 9  Z M 16.4574177631579 9  C 16.4574177631579 13.1147911184211  13.1113717105263 16.4574177631579  9 16.4574177631579  C 4.88862828947368 16.4574177631579  1.54258223684211 13.1110608552632  1.54258223684211 9  C 1.54258223684211 4.88862828947368  4.88583059210526 1.54258223684211  9 1.54258223684211  C 13.1147911184211 1.54258223684211  16.4574177631579 4.88551973684211  16.4574177631579 9  Z " fill-rule="nonzero" fill="#999999" stroke="none" transform="matrix(1 0 0 1 9 11 )" />
  </g>
</svg>