<?xml version="1.0" encoding="utf-8"?>
<svg version="1.1" xmlns:xlink="http://www.w3.org/1999/xlink" width="816px" height="304px" xmlns="http://www.w3.org/2000/svg">
  <g transform="matrix(1 0 0 1 -73 -199 )">
    <path d="M 74 203  A 3 3 0 0 1 77 200 L 885 200  A 3 3 0 0 1 888 203 L 888 499  A 3 3 0 0 1 885 502 L 77 502  A 3 3 0 0 1 74 499 L 74 203  Z " fill-rule="nonzero" fill="#ffffff" stroke="none" />
    <path d="M 73.5 203  A 3.5 3.5 0 0 1 77 199.5 L 885 199.5  A 3.5 3.5 0 0 1 888.5 203 L 888.5 499  A 3.5 3.5 0 0 1 885 502.5 L 77 502.5  A 3.5 3.5 0 0 1 73.5 499 L 73.5 203  Z " stroke-width="1" stroke-dasharray="9,4" stroke="#797979" fill="none" stroke-dashoffset="0.5" />
  </g>
</svg>