<?xml version="1.0" encoding="utf-8"?>
<svg version="1.1" xmlns:xlink="http://www.w3.org/1999/xlink" width="18px" height="17px" xmlns="http://www.w3.org/2000/svg">
  <g transform="matrix(1 0 0 1 -266 -133 )">
    <path d="M 13.640625 15.373046875  C 13.7776442307692 15.2328559027778  13.8461538461538 15.0668402777778  13.8461538461538 14.875  C 13.8461538461538 14.6831597222222  13.7776442307692 14.5171440972222  13.640625 14.376953125  C 13.5036057692308 14.2367621527778  13.3413461538462 14.1666666666667  13.1538461538462 14.1666666666667  C 12.9663461538462 14.1666666666667  12.8040865384615 14.2367621527778  12.6670673076923 14.376953125  C 12.5300480769231 14.5171440972222  12.4615384615385 14.6831597222222  12.4615384615385 14.875  C 12.4615384615385 15.0668402777778  12.5300480769231 15.2328559027778  12.6670673076923 15.373046875  C 12.8040865384615 15.5132378472222  12.9663461538462 15.5833333333333  13.1538461538462 15.5833333333333  C 13.3413461538462 15.5833333333333  13.5036057692308 15.5132378472222  13.640625 15.373046875  Z M 16.4098557692308 15.373046875  C 16.546875 15.2328559027778  16.6153846153846 15.0668402777778  16.6153846153846 14.875  C 16.6153846153846 14.6831597222222  16.546875 14.5171440972222  16.4098557692308 14.376953125  C 16.2728365384615 14.2367621527778  16.1105769230769 14.1666666666667  15.9230769230769 14.1666666666667  C 15.7355769230769 14.1666666666667  15.5733173076923 14.2367621527778  15.4362980769231 14.376953125  C 15.2992788461538 14.5171440972222  15.2307692307692 14.6831597222222  15.2307692307692 14.875  C 15.2307692307692 15.0668402777778  15.2992788461538 15.2328559027778  15.4362980769231 15.373046875  C 15.5733173076923 15.5132378472222  15.7355769230769 15.5833333333333  15.9230769230769 15.5833333333333  C 16.1105769230769 15.5833333333333  16.2728365384615 15.5132378472222  16.4098557692308 15.373046875  Z M 17.6971153846154 11.6432291666667  C 17.8990384615385 11.8498263888889  18 12.1006944444444  18 12.3958333333333  L 18 15.9375  C 18 16.2326388888889  17.8990384615385 16.4835069444444  17.6971153846154 16.6901041666667  C 17.4951923076923 16.8967013888889  17.25 17  16.9615384615385 17  L 1.03846153846154 17  C 0.75 17  0.504807692307692 16.8967013888889  0.302884615384615 16.6901041666667  C 0.100961538461538 16.4835069444444  0 16.2326388888889  0 15.9375  L 0 12.3958333333333  C 0 12.1006944444444  0.100961538461538 11.8498263888889  0.302884615384615 11.6432291666667  C 0.504807692307692 11.4366319444444  0.75 11.3333333333333  1.03846153846154 11.3333333333333  L 6.06850961538461 11.3333333333333  L 7.52884615384615 12.8385416666667  C 7.94711538461539 13.2517361111111  8.4375 13.4583333333333  9 13.4583333333333  C 9.5625 13.4583333333333  10.0528846153846 13.2517361111111  10.4711538461538 12.8385416666667  L 11.9423076923077 11.3333333333333  L 16.9615384615385 11.3333333333333  C 17.25 11.3333333333333  17.4951923076923 11.4366319444444  17.6971153846154 11.6432291666667  Z M 13.8461538461538 5.66666666666667  C 14.1490384615385 5.66666666666667  14.3617788461538 5.810546875  14.484375 6.09830729166667  C 14.6069711538462 6.40082465277778  14.5564903846154 6.65907118055556  14.3329326923077 6.873046875  L 9.48677884615385 11.8313802083333  C 9.35697115384615 11.9715711805556  9.19471153846154 12.0416666666667  9 12.0416666666667  C 8.80528846153846 12.0416666666667  8.64302884615385 11.9715711805556  8.51322115384615 11.8313802083333  L 3.66706730769231 6.873046875  C 3.44350961538462 6.65907118055556  3.39302884615385 6.40082465277778  3.515625 6.09830729166667  C 3.63822115384615 5.810546875  3.85096153846154 5.66666666666667  4.15384615384615 5.66666666666667  L 6.92307692307692 5.66666666666667  L 6.92307692307692 0.708333333333333  C 6.92307692307692 0.516493055555553  6.99158653846154 0.350477430555553  7.12860576923077 0.210286458333333  C 7.265625 0.0700954861111122  7.42788461538462 0  7.61538461538461 0  L 10.3846153846154 0  C 10.5721153846154 0  10.734375 0.0700954861111122  10.8713942307692 0.210286458333333  C 11.0084134615385 0.350477430555553  11.0769230769231 0.516493055555553  11.0769230769231 0.708333333333333  L 11.0769230769231 5.66666666666667  L 13.8461538461538 5.66666666666667  Z " fill-rule="nonzero" fill="#409eff" stroke="none" transform="matrix(1 0 0 1 266 133 )" />
  </g>
</svg>