<?xml version="1.0" encoding="utf-8"?>
<svg version="1.1" xmlns:xlink="http://www.w3.org/1999/xlink" width="816px" height="82px" xmlns="http://www.w3.org/2000/svg">
  <g transform="matrix(1 0 0 1 -73 -99 )">
    <path d="M 74 103  A 3 3 0 0 1 77 100 L 885 100  A 3 3 0 0 1 888 103 L 888 177  A 3 3 0 0 1 885 180 L 77 180  A 3 3 0 0 1 74 177 L 74 103  Z " fill-rule="nonzero" fill="#ffffff" stroke="none" />
    <path d="M 73.5 103  A 3.5 3.5 0 0 1 77 99.5 L 885 99.5  A 3.5 3.5 0 0 1 888.5 103 L 888.5 177  A 3.5 3.5 0 0 1 885 180.5 L 77 180.5  A 3.5 3.5 0 0 1 73.5 177 L 73.5 103  Z " stroke-width="1" stroke-dasharray="9,4" stroke="#797979" fill="none" stroke-dashoffset="0.5" />
  </g>
</svg>