<?xml version="1.0" encoding="utf-8"?>
<svg version="1.1" xmlns:xlink="http://www.w3.org/1999/xlink" width="16px" height="16px" viewBox="728 417  16 16" xmlns="http://www.w3.org/2000/svg">
  <path d="M 728.5 420  A 2.5 2.5 0 0 1 731 417.5 L 741 417.5  A 2.5 2.5 0 0 1 743.5 420 L 743.5 430  A 2.5 2.5 0 0 1 741 432.5 L 731 432.5  A 2.5 2.5 0 0 1 728.5 430 L 728.5 420  Z " fill-rule="nonzero" fill="#f0f0f0" stroke="none" />
  <path d="M 728.5 420  A 2.5 2.5 0 0 1 731 417.5 L 741 417.5  A 2.5 2.5 0 0 1 743.5 420 L 743.5 430  A 2.5 2.5 0 0 1 741 432.5 L 731 432.5  A 2.5 2.5 0 0 1 728.5 430 L 728.5 420  Z " stroke-width="1" stroke="#999999" fill="none" />
  <path d="M 731.428571428571 425  L 734.857142857143 428.428571428571  L 740.571428571429 420.428571428571  " stroke-width="3.42857142857143" stroke="#999999" fill="none" />
</svg>