<?xml version="1.0" encoding="utf-8"?>
<svg version="1.1" xmlns:xlink="http://www.w3.org/1999/xlink" width="16px" height="16px" viewBox="728 307  16 16" xmlns="http://www.w3.org/2000/svg">
  <path d="M 728.5 310  A 2.5 2.5 0 0 1 731 307.5 L 741 307.5  A 2.5 2.5 0 0 1 743.5 310 L 743.5 320  A 2.5 2.5 0 0 1 741 322.5 L 731 322.5  A 2.5 2.5 0 0 1 728.5 320 L 728.5 310  Z " fill-rule="nonzero" fill="#ffffff" stroke="none" />
  <path d="M 728.5 310  A 2.5 2.5 0 0 1 731 307.5 L 741 307.5  A 2.5 2.5 0 0 1 743.5 310 L 743.5 320  A 2.5 2.5 0 0 1 741 322.5 L 731 322.5  A 2.5 2.5 0 0 1 728.5 320 L 728.5 310  Z " stroke-width="1" stroke="#999999" fill="none" />
</svg>