<?xml version="1.0" encoding="utf-8"?>
<svg version="1.1" xmlns:xlink="http://www.w3.org/1999/xlink" width="16px" height="16px" viewBox="728 252  16 16" xmlns="http://www.w3.org/2000/svg">
  <path d="M 728.5 255  A 2.5 2.5 0 0 1 731 252.5 L 741 252.5  A 2.5 2.5 0 0 1 743.5 255 L 743.5 265  A 2.5 2.5 0 0 1 741 267.5 L 731 267.5  A 2.5 2.5 0 0 1 728.5 265 L 728.5 255  Z " fill-rule="nonzero" fill="#f0f0f0" stroke="none" />
  <path d="M 728.5 255  A 2.5 2.5 0 0 1 731 252.5 L 741 252.5  A 2.5 2.5 0 0 1 743.5 255 L 743.5 265  A 2.5 2.5 0 0 1 741 267.5 L 731 267.5  A 2.5 2.5 0 0 1 728.5 265 L 728.5 255  Z " stroke-width="1" stroke="#999999" fill="none" />
  <path d="M 731.428571428571 260  L 734.857142857143 263.428571428571  L 740.571428571429 255.428571428571  " stroke-width="3.42857142857143" stroke="#999999" fill="none" />
</svg>