<?xml version="1.0" encoding="utf-8"?>
<svg version="1.1" xmlns:xlink="http://www.w3.org/1999/xlink" width="16px" height="16px" viewBox="728 197  16 16" xmlns="http://www.w3.org/2000/svg">
  <path d="M 728.5 200  A 2.5 2.5 0 0 1 731 197.5 L 741 197.5  A 2.5 2.5 0 0 1 743.5 200 L 743.5 210  A 2.5 2.5 0 0 1 741 212.5 L 731 212.5  A 2.5 2.5 0 0 1 728.5 210 L 728.5 200  Z " fill-rule="nonzero" fill="#f0f0f0" stroke="none" />
  <path d="M 728.5 200  A 2.5 2.5 0 0 1 731 197.5 L 741 197.5  A 2.5 2.5 0 0 1 743.5 200 L 743.5 210  A 2.5 2.5 0 0 1 741 212.5 L 731 212.5  A 2.5 2.5 0 0 1 728.5 210 L 728.5 200  Z " stroke-width="1" stroke="#999999" fill="none" />
</svg>