<?xml version="1.0" encoding="utf-8"?>
<svg version="1.1" xmlns:xlink="http://www.w3.org/1999/xlink" width="16px" height="16px" viewBox="728 142  16 16" xmlns="http://www.w3.org/2000/svg">
  <path d="M 728.5 145  A 2.5 2.5 0 0 1 731 142.5 L 741 142.5  A 2.5 2.5 0 0 1 743.5 145 L 743.5 155  A 2.5 2.5 0 0 1 741 157.5 L 731 157.5  A 2.5 2.5 0 0 1 728.5 155 L 728.5 145  Z " fill-rule="nonzero" fill="#409eff" stroke="none" />
  <path d="M 728.5 145  A 2.5 2.5 0 0 1 731 142.5 L 741 142.5  A 2.5 2.5 0 0 1 743.5 145 L 743.5 155  A 2.5 2.5 0 0 1 741 157.5 L 731 157.5  A 2.5 2.5 0 0 1 728.5 155 L 728.5 145  Z " stroke-width="1" stroke="#f7f7f7" fill="none" />
  <path d="M 731.428571428571 150  L 734.857142857143 153.428571428571  L 740.571428571429 145.428571428571  " stroke-width="3.42857142857143" stroke="#f7f7f7" fill="none" />
</svg>