<?xml version="1.0" encoding="utf-8"?>
<svg version="1.1" xmlns:xlink="http://www.w3.org/1999/xlink" width="16px" height="16px" viewBox="728 362  16 16" xmlns="http://www.w3.org/2000/svg">
  <path d="M 728.5 365  A 2.5 2.5 0 0 1 731 362.5 L 741 362.5  A 2.5 2.5 0 0 1 743.5 365 L 743.5 375  A 2.5 2.5 0 0 1 741 377.5 L 731 377.5  A 2.5 2.5 0 0 1 728.5 375 L 728.5 365  Z " fill-rule="nonzero" fill="#f0f0f0" stroke="none" />
  <path d="M 728.5 365  A 2.5 2.5 0 0 1 731 362.5 L 741 362.5  A 2.5 2.5 0 0 1 743.5 365 L 743.5 375  A 2.5 2.5 0 0 1 741 377.5 L 731 377.5  A 2.5 2.5 0 0 1 728.5 375 L 728.5 365  Z " stroke-width="1" stroke="#999999" fill="none" />
  <path d="M 731.428571428571 370  L 734.857142857143 373.428571428571  L 740.571428571429 365.428571428571  " stroke-width="3.42857142857143" stroke="#999999" fill="none" />
</svg>