<?xml version="1.0" encoding="utf-8"?>
<svg version="1.1" xmlns:xlink="http://www.w3.org/1999/xlink" width="20px" height="20px" xmlns="http://www.w3.org/2000/svg">
  <g transform="matrix(1 0 0 1 -48 -197 )">
    <path d="M 20 10  C 20 4.48  15.52 0  10 0  C 4.48 0  0 4.48  0 10  C 0 15.52  4.48 20  10 20  C 15.52 20  20 15.52  20 10  Z M 15 9  L 15 11  L 11 11  L 11 15  L 9 15  L 9 11  L 5 11  L 5 9  L 9 9  L 9 5  L 11 5  L 11 9  L 15 9  Z " fill-rule="nonzero" fill="#0099ff" stroke="none" transform="matrix(1 0 0 1 48 197 )" />
  </g>
</svg>