<?xml version="1.0" encoding="utf-8"?>
<svg version="1.1" xmlns:xlink="http://www.w3.org/1999/xlink" width="18px" height="18px" viewBox="533 2  18 18" xmlns="http://www.w3.org/2000/svg">
  <path d="M 542 2  C 547.04 2  551 5.96  551 11  C 551 16.04  547.04 20  542 20  C 536.96 20  533 16.04  533 11  C 533 5.96  536.96 2  542 2  Z " fill-rule="nonzero" fill="#ffffff" stroke="none" />
  <path d="M 542 2.5  C 546.76 2.5  550.5 6.24  550.5 11  C 550.5 15.76  546.76 19.5  542 19.5  C 537.24 19.5  533.5 15.76  533.5 11  C 533.5 6.24  537.24 2.5  542 2.5  Z " stroke-width="1" stroke="#0099ff" fill="none" />
  <path d="M 542 15.5  C 539.48 15.5  537.5 13.52  537.5 11  C 537.5 8.48  539.48 6.5  542 6.5  C 544.52 6.5  546.5 8.48  546.5 11  C 546.5 13.52  544.52 15.5  542 15.5  " fill-rule="nonzero" fill="#0099ff" stroke="none" />
</svg>