<?xml version="1.0" encoding="utf-8"?>
<svg version="1.1" xmlns:xlink="http://www.w3.org/1999/xlink" width="18px" height="18px" viewBox="671 2  18 18" xmlns="http://www.w3.org/2000/svg">
  <path d="M 680 2  C 685.04 2  689 5.96  689 11  C 689 16.04  685.04 20  680 20  C 674.96 20  671 16.04  671 11  C 671 5.96  674.96 2  680 2  Z " fill-rule="nonzero" fill="#f0f0f0" stroke="none" />
  <path d="M 680 2.5  C 684.76 2.5  688.5 6.24  688.5 11  C 688.5 15.76  684.76 19.5  680 19.5  C 675.24 19.5  671.5 15.76  671.5 11  C 671.5 6.24  675.24 2.5  680 2.5  Z " stroke-width="1" stroke="#797979" fill="none" />
  <path d="M 680 15.5  C 677.48 15.5  675.5 13.52  675.5 11  C 675.5 8.48  677.48 6.5  680 6.5  C 682.52 6.5  684.5 8.48  684.5 11  C 684.5 13.52  682.52 15.5  680 15.5  " fill-rule="nonzero" fill="#797979" stroke="none" />
</svg>