<?xml version="1.0" encoding="utf-8"?>
<svg version="1.1" xmlns:xlink="http://www.w3.org/1999/xlink" width="18px" height="18px" viewBox="79 2  18 18" xmlns="http://www.w3.org/2000/svg">
  <path d="M 88 2  C 93.04 2  97 5.96  97 11  C 97 16.04  93.04 20  88 20  C 82.96 20  79 16.04  79 11  C 79 5.96  82.96 2  88 2  Z " fill-rule="nonzero" fill="#f0f0f0" stroke="none" />
  <path d="M 88 2.5  C 92.76 2.5  96.5 6.24  96.5 11  C 96.5 15.76  92.76 19.5  88 19.5  C 83.24 19.5  79.5 15.76  79.5 11  C 79.5 6.24  83.24 2.5  88 2.5  Z " stroke-width="1" stroke="#797979" fill="none" />
  <path d="M 88 15.5  C 85.48 15.5  83.5 13.52  83.5 11  C 83.5 8.48  85.48 6.5  88 6.5  C 90.52 6.5  92.5 8.48  92.5 11  C 92.5 13.52  90.52 15.5  88 15.5  " fill-rule="nonzero" fill="#797979" stroke="none" />
</svg>