<?xml version="1.0" encoding="utf-8"?>
<svg version="1.1" xmlns:xlink="http://www.w3.org/1999/xlink" width="18px" height="18px" viewBox="199 2  18 18" xmlns="http://www.w3.org/2000/svg">
  <path d="M 208 2  C 213.04 2  217 5.96  217 11  C 217 16.04  213.04 20  208 20  C 202.96 20  199 16.04  199 11  C 199 5.96  202.96 2  208 2  Z " fill-rule="nonzero" fill="#ffffff" stroke="none" />
  <path d="M 208 2.5  C 212.76 2.5  216.5 6.24  216.5 11  C 216.5 15.76  212.76 19.5  208 19.5  C 203.24 19.5  199.5 15.76  199.5 11  C 199.5 6.24  203.24 2.5  208 2.5  Z " stroke-width="1" stroke="#0099ff" fill="none" />
  <path d="M 208 15.5  C 205.48 15.5  203.5 13.52  203.5 11  C 203.5 8.48  205.48 6.5  208 6.5  C 210.52 6.5  212.5 8.48  212.5 11  C 212.5 13.52  210.52 15.5  208 15.5  " fill-rule="nonzero" fill="#0099ff" stroke="none" />
</svg>