<?xml version="1.0" encoding="utf-8"?>
<svg version="1.1" xmlns:xlink="http://www.w3.org/1999/xlink" width="18px" height="18px" viewBox="154 221  18 18" xmlns="http://www.w3.org/2000/svg">
  <path d="M 154.5 224  A 2.5 2.5 0 0 1 157 221.5 L 169 221.5  A 2.5 2.5 0 0 1 171.5 224 L 171.5 236  A 2.5 2.5 0 0 1 169 238.5 L 157 238.5  A 2.5 2.5 0 0 1 154.5 236 L 154.5 224  Z " fill-rule="nonzero" fill="#f0f0f0" stroke="none" />
  <path d="M 154.5 224  A 2.5 2.5 0 0 1 157 221.5 L 169 221.5  A 2.5 2.5 0 0 1 171.5 224 L 171.5 236  A 2.5 2.5 0 0 1 169 238.5 L 157 238.5  A 2.5 2.5 0 0 1 154.5 236 L 154.5 224  Z " stroke-width="1" stroke="#797979" fill="none" />
  <path d="M 157.857142857143 230  L 161.714285714286 233.857142857143  L 168.142857142857 224.857142857143  " stroke-width="3.85714285714286" stroke="#797979" fill="none" />
</svg>