<?xml version="1.0" encoding="utf-8"?>
<svg version="1.1" xmlns:xlink="http://www.w3.org/1999/xlink" width="23px" height="20px" xmlns="http://www.w3.org/2000/svg">
  <g transform="matrix(1 0 0 1 -584 -197 )">
    <path d="M 20.9197058778128 9.09555297989929  C 20.5035669722848 4.04295464526958  16.4283781092507 0.0666310767593228  11.4822699738268 0.063529438735825  C 9.33320977301074 0.063529438735825  7.3506051303885 0.814130304990381  5.75738760464513 2.07960612240554  C 5.39772469960836 2.36495851836083  5.36502806457335 2.91705335636795  5.68604950827636 3.252032254145  C 5.95059495148811 3.52807967314857  6.36970628020906 3.55909624202727  6.66694835845581 3.32026868890981  C 8.00453769047912 2.2595021967495  9.67503815897709 1.62676426708151  11.4792975506339 1.62676428804192  C 15.6406866059142 1.62676428804192  19.0708601583494 4.9734515858681  19.4245782370874 9.21961925541409  C 19.4572748721224 9.62593624693986  19.4186333907015 9.94850850878127  19.4186333907015 9.94850850878127  L 17.5460083057819 9.96401678274041  L 19.8199102003521 14.6909411965448  C 20.016089970388 14.6909411965448  22.8488069431367 9.94540684979735  22.8488069431367 9.94540684979735  L 20.9524024927607 9.94540684979735  C 20.9613197623395 9.43053187767634  20.9286231273045 9.1948059835428  20.9197058778128 9.09555297989929  Z M 16.449185051514 16.4526820531379  C 15.0848439308416 17.5909899570148  13.3578674618523 18.2702527295206  11.4822699738268 18.2702527295206  C 7.08308726398384 18.2702527295206  3.50726509561824 14.5358583731117  3.50726509561824 9.94850850878127  L 3.50726509561824 9.93920353182953  L 5.40069710271421 9.91749193990256  L 3.15057459368731 5.20297416203381  L 0.118705427709773 9.94540684979735  L 2.01213745489281 9.94540684979735  C 2.00916503169989 15.4911685646211  6.53021699201703 19.8334875788267  11.4822699738268 19.8334875788267  C 13.7115855405903 19.8334875788267  15.7655282795813 19.0239552547591  17.3854975939739 17.6747347076596  C 17.7332708263261 17.3831789937364  17.7600226149752 16.8403891326811  17.4449460176581 16.5116135319114  C 17.1744557280605 16.22936279494  16.7464271498478 16.2045495440291  16.449185051514 16.4526820531379  Z " fill-rule="nonzero" fill="#409eff" stroke="none" transform="matrix(1 0 0 1 584 197 )" />
  </g>
</svg>