<?xml version="1.0" encoding="utf-8"?>
<svg version="1.1" xmlns:xlink="http://www.w3.org/1999/xlink" width="80px" height="30px" xmlns="http://www.w3.org/2000/svg">
  <g transform="matrix(1 0 0 1 -461 -720 )">
    <path d="M 462 723  A 2 2 0 0 1 464 721 L 538 721  A 2 2 0 0 1 540 723 L 540 747  A 2 2 0 0 1 538 749 L 464 749  A 2 2 0 0 1 462 747 L 462 723  Z " fill-rule="nonzero" fill="#f0f7ff" stroke="none" />
    <path d="M 461.5 723  A 2.5 2.5 0 0 1 464 720.5 L 538 720.5  A 2.5 2.5 0 0 1 540.5 723 L 540.5 747  A 2.5 2.5 0 0 1 538 749.5 L 464 749.5  A 2.5 2.5 0 0 1 461.5 747 L 461.5 723  Z " stroke-width="1" stroke="#7abbff" fill="none" stroke-opacity="0.996078431372549" />
  </g>
</svg>