<?xml version="1.0" encoding="utf-8"?>
<svg version="1.1" xmlns:xlink="http://www.w3.org/1999/xlink" width="400px" height="93px" viewBox="154 442  400 93" xmlns="http://www.w3.org/2000/svg">
  <path d="M 155 447  A 4 4 0 0 1 159 443 L 549 443  A 4 4 0 0 1 553 447 L 553 530  A 4 4 0 0 1 549 534 L 159 534  A 4 4 0 0 1 155 530 L 155 447  Z " fill-rule="nonzero" fill="#f0f0f0" stroke="none" />
  <path d="M 154.5 447  A 4.5 4.5 0 0 1 159 442.5 L 549 442.5  A 4.5 4.5 0 0 1 553.5 447 L 553.5 530  A 4.5 4.5 0 0 1 549 534.5 L 159 534.5  A 4.5 4.5 0 0 1 154.5 530 L 154.5 447  Z " stroke-width="1" stroke="#797979" fill="none" stroke-opacity="0.298039215686275" />
</svg>