<?xml version="1.0" encoding="utf-8"?>
<svg version="1.1" xmlns:xlink="http://www.w3.org/1999/xlink" width="16px" height="19px" xmlns="http://www.w3.org/2000/svg">
  <g transform="matrix(1 0 0 1 -184 -13 )">
    <path d="M 8.68000000710227 0.427499992863582  L 8.68121213068182 0.426282041766827  L 8.68969697443182 0.444551286808894  L 15.5078787926136 14.5532692379056  C 15.5550932115841 14.6551789691343  15.5795575913023 14.7662304038033  15.5795575913023 14.8786416169086  C 15.5795575913023 15.3044319212483  15.2360378870835 15.6496031625066  14.8122848569273 15.6496031625066  C 14.5274294246687 15.6496031625066  14.2660193311873 15.4910338151247  14.1333333380682 15.2377564054988  L 14.12848484375 15.2255769159405  L 11.7393939346591 10.2855769230769  L 4.25818181818182 10.2855769230769  L 1.87151515625 15.2255769159405  C 1.68884700796989 15.6040815615492  1.23793837260966 15.7655848963232  0.85818182528409 15.588525636268  L 0.846060610795454 15.5824359021935  C 0.46982849782464 15.3984448187004  0.309679829905187 14.945488722673  0.486060610795455 14.5642307763672  L 0.492121207386364 14.5520512868089  L 7.30909090198864 0.445769237905649  C 7.43751478758543 0.180384163970211  7.7054330924979 0.0119397314765095  7.99911588092556 0.0119397314765095  C 8.28546984566011 0.0119397314765095  8.54799528211096 0.17216543625958  8.68000000710227 0.427499992863582  Z M 10.9951515056818 8.74487180438702  L 8 2.54551281813401  L 5.00363637073864 8.74487180438702  L 10.9951515056818 8.74487180438702  Z M 1.94909091619318 16.8588461467097  L 14.0509090838068 16.8588461467097  C 14.4746621139631 16.8588461467097  14.8181818181818 17.204017387968  14.8181818181818 17.6298076923077  C 14.8181818181818 18.0555979966474  14.4746621139631 18.4007692379056  14.0509090838068 18.4007692379056  L 1.94909091619318 18.4007692379056  C 1.5253378860369 18.4007692379056  1.18181818181818 18.0555979966474  1.18181818181818 17.6298076923077  C 1.18181818181818 17.204017387968  1.5253378860369 16.8588461467097  1.94909091619318 16.8588461467097  Z " fill-rule="nonzero" fill="#666666" stroke="none" transform="matrix(1 0 0 1 184 13 )" />
  </g>
</svg>