<?xml version="1.0" encoding="utf-8"?>
<svg version="1.1" xmlns:xlink="http://www.w3.org/1999/xlink" width="14px" height="15px" xmlns="http://www.w3.org/2000/svg">
  <g transform="matrix(1 0 0 1 -27 -15 )">
    <path d="M 3.53671875 5.1083984375  C 3.3767578125 5.2708984375  3.166015625 5.349609375  2.9552734375 5.349609375  C 2.74453125 5.349609375  2.5337890625 5.268359375  2.373828125 5.1083984375  L 0.472070312500001 3.206640625  C 0.149609375000001 2.8841796875  0.149609375000001 2.363671875  0.472070312500001 2.04375  C 0.79453125 1.7212890625  1.3150390625 1.7212890625  1.6349609375 2.04375  L 2.9552734375 3.3640625  L 5.278515625 1.043359375  C 5.6009765625 0.7208984375  6.121484375 0.7208984375  6.44140625 1.043359375  C 6.7638671875 1.3658203125  6.7638671875 1.886328125  6.44140625 2.20625  L 3.53671875 5.1083984375  Z M 6.3423828125 11.35703125  C 6.3423828125 12.9490234375  5.0474609375 14.2439453125  3.45546875 14.2439453125  C 1.8634765625 14.2439453125  0.571093749999999 12.9490234375  0.571093749999999 11.35703125  C 0.571093749999999 9.7650390625  1.866015625 8.47265625  3.45546875 8.47265625  C 5.0474609375 8.47265625  6.3423828125 9.767578125  6.3423828125 11.35703125  Z M 4.6970703125 11.35703125  C 4.6970703125 10.6740234375  4.141015625 10.11796875  3.45546875 10.11796875  C 2.7724609375 10.11796875  2.21640625 10.6740234375  2.21640625 11.35703125  C 2.21640625 12.0400390625  2.7724609375 12.59609375  3.45546875 12.59609375  C 4.1384765625 12.59609375  4.6970703125 12.0400390625  4.6970703125 11.35703125  Z M 13.865625 3.0771484375  C 13.865625 3.531640625  13.4974609375 3.8998046875  13.04296875 3.8998046875  L 8.406640625 3.8998046875  C 7.9521484375 3.8998046875  7.583984375 3.531640625  7.583984375 3.0771484375  C 7.583984375 2.62265625  7.9521484375 2.2544921875  8.406640625 2.2544921875  L 13.04296875 2.2544921875  C 13.4974609375 2.2544921875  13.865625 2.62265625  13.865625 3.0771484375  Z M 13.865625 11.35703125  C 13.865625 11.8115234375  13.4974609375 12.1796875  13.04296875 12.1796875  L 8.406640625 12.1796875  C 7.9521484375 12.1796875  7.583984375 11.8115234375  7.583984375 11.35703125  C 7.583984375 10.9025390625  7.9521484375 10.534375  8.406640625 10.534375  L 13.04296875 10.534375  C 13.4974609375 10.534375  13.865625 10.9025390625  13.865625 11.35703125  Z " fill-rule="nonzero" fill="#409eff" stroke="none" transform="matrix(1 0 0 1 27 15 )" />
  </g>
</svg>