<?xml version="1.0" encoding="utf-8"?>
<svg version="1.1" xmlns:xlink="http://www.w3.org/1999/xlink" width="20px" height="20px" xmlns="http://www.w3.org/2000/svg">
  <g transform="matrix(1 0 0 1 -24 -12 )">
    <path d="M 19.7474609375 16.7057291666667  C 19.75 18.0018601190476  18.64296875 19.0561755952381  17.28203125 19  L 2.71796875 19  C 1.35703125 19.0561755952381  0.25 18.0018601190476  0.25 16.7057291666667  L 0.25 2.83761160714286  C 0.25 1.54148065476191  1.35703125 0.487165178571429  2.71796875 0.487165178571429  L 17.2794921875 0.487165178571429  C 18.6404296875 0.487165178571429  19.7474609375 1.54148065476191  19.7474609375 2.83761160714286  L 19.7474609375 16.7057291666667  Z M 17.2794921875 2  L 2.71796875 2  C 2.2634765625 2.05412946428571  1.8953125 2.4047619047619  2 2.83761160714286  L 2 16.7057291666667  C 1.8953125 17.1385788690476  2.2634765625 17.4892113095238  2.71796875 17.4892113095238  L 17.2794921875 17.4892113095238  C 17.733984375 17.4892113095238  18.1021484375 17.1385788690476  18 16.7057291666667  L 18 2.83761160714286  C 18.1021484375 2.4047619047619  17.733984375 2.05412946428571  17.2794921875 2  Z " fill-rule="nonzero" fill="#409eff" stroke="none" transform="matrix(1 0 0 1 24 12 )" />
  </g>
</svg>