<?xml version="1.0" encoding="utf-8"?>
<svg version="1.1" xmlns:xlink="http://www.w3.org/1999/xlink" width="16px" height="16px" viewBox="22 49  16 16" xmlns="http://www.w3.org/2000/svg">
  <path d="M 22.5 52  A 2.5 2.5 0 0 1 25 49.5 L 35 49.5  A 2.5 2.5 0 0 1 37.5 52 L 37.5 62  A 2.5 2.5 0 0 1 35 64.5 L 25 64.5  A 2.5 2.5 0 0 1 22.5 62 L 22.5 52  Z " fill-rule="nonzero" fill="#f0f0f0" stroke="none" />
  <path d="M 22.5 52  A 2.5 2.5 0 0 1 25 49.5 L 35 49.5  A 2.5 2.5 0 0 1 37.5 52 L 37.5 62  A 2.5 2.5 0 0 1 35 64.5 L 25 64.5  A 2.5 2.5 0 0 1 22.5 62 L 22.5 52  Z " stroke-width="1" stroke="#999999" fill="none" />
</svg>