<?xml version="1.0" encoding="utf-8"?>
<svg version="1.1" xmlns:xlink="http://www.w3.org/1999/xlink" width="16px" height="16px" viewBox="21 206  16 16" xmlns="http://www.w3.org/2000/svg">
  <path d="M 21.5 209  A 2.5 2.5 0 0 1 24 206.5 L 34 206.5  A 2.5 2.5 0 0 1 36.5 209 L 36.5 219  A 2.5 2.5 0 0 1 34 221.5 L 24 221.5  A 2.5 2.5 0 0 1 21.5 219 L 21.5 209  Z " fill-rule="nonzero" fill="#f0f0f0" stroke="none" />
  <path d="M 21.5 209  A 2.5 2.5 0 0 1 24 206.5 L 34 206.5  A 2.5 2.5 0 0 1 36.5 209 L 36.5 219  A 2.5 2.5 0 0 1 34 221.5 L 24 221.5  A 2.5 2.5 0 0 1 21.5 219 L 21.5 209  Z " stroke-width="1" stroke="#999999" fill="none" />
</svg>