<?xml version="1.0" encoding="utf-8"?>
<svg version="1.1" xmlns:xlink="http://www.w3.org/1999/xlink" width="16px" height="16px" viewBox="21 240  16 16" xmlns="http://www.w3.org/2000/svg">
  <path d="M 21.5 243  A 2.5 2.5 0 0 1 24 240.5 L 34 240.5  A 2.5 2.5 0 0 1 36.5 243 L 36.5 253  A 2.5 2.5 0 0 1 34 255.5 L 24 255.5  A 2.5 2.5 0 0 1 21.5 253 L 21.5 243  Z " fill-rule="nonzero" fill="#ffffff" stroke="none" />
  <path d="M 21.5 243  A 2.5 2.5 0 0 1 24 240.5 L 34 240.5  A 2.5 2.5 0 0 1 36.5 243 L 36.5 253  A 2.5 2.5 0 0 1 34 255.5 L 24 255.5  A 2.5 2.5 0 0 1 21.5 253 L 21.5 243  Z " stroke-width="1" stroke="#999999" fill="none" />
</svg>