<?xml version="1.0" encoding="utf-8"?>
<svg version="1.1" xmlns:xlink="http://www.w3.org/1999/xlink" width="16px" height="16px" viewBox="21 38  16 16" xmlns="http://www.w3.org/2000/svg">
  <path d="M 21.5 41  A 2.5 2.5 0 0 1 24 38.5 L 34 38.5  A 2.5 2.5 0 0 1 36.5 41 L 36.5 51  A 2.5 2.5 0 0 1 34 53.5 L 24 53.5  A 2.5 2.5 0 0 1 21.5 51 L 21.5 41  Z " fill-rule="nonzero" fill="#f0f0f0" stroke="none" />
  <path d="M 21.5 41  A 2.5 2.5 0 0 1 24 38.5 L 34 38.5  A 2.5 2.5 0 0 1 36.5 41 L 36.5 51  A 2.5 2.5 0 0 1 34 53.5 L 24 53.5  A 2.5 2.5 0 0 1 21.5 51 L 21.5 41  Z " stroke-width="1" stroke="#999999" fill="none" />
  <path d="M 24.4285714285714 46  L 27.8571428571429 49.4285714285714  L 33.5714285714286 41.4285714285714  " stroke-width="3.42857142857143" stroke="#999999" fill="none" />
</svg>