<?xml version="1.0" encoding="utf-8"?>
<svg version="1.1" xmlns:xlink="http://www.w3.org/1999/xlink" width="16px" height="16px" viewBox="21 136  16 16" xmlns="http://www.w3.org/2000/svg">
  <path d="M 21.5 139  A 2.5 2.5 0 0 1 24 136.5 L 34 136.5  A 2.5 2.5 0 0 1 36.5 139 L 36.5 149  A 2.5 2.5 0 0 1 34 151.5 L 24 151.5  A 2.5 2.5 0 0 1 21.5 149 L 21.5 139  Z " fill-rule="nonzero" fill="#ffffff" stroke="none" />
  <path d="M 21.5 139  A 2.5 2.5 0 0 1 24 136.5 L 34 136.5  A 2.5 2.5 0 0 1 36.5 139 L 36.5 149  A 2.5 2.5 0 0 1 34 151.5 L 24 151.5  A 2.5 2.5 0 0 1 21.5 149 L 21.5 139  Z " stroke-width="1" stroke="#999999" fill="none" />
  <path d="M 24.4285714285714 144  L 27.8571428571429 147.428571428571  L 33.5714285714286 139.428571428571  " stroke-width="3.42857142857143" stroke="#999999" fill="none" />
</svg>