<?xml version="1.0" encoding="utf-8"?>
<svg version="1.1" xmlns:xlink="http://www.w3.org/1999/xlink" width="16px" height="16px" viewBox="21 275  16 16" xmlns="http://www.w3.org/2000/svg">
  <path d="M 21.5 278  A 2.5 2.5 0 0 1 24 275.5 L 34 275.5  A 2.5 2.5 0 0 1 36.5 278 L 36.5 288  A 2.5 2.5 0 0 1 34 290.5 L 24 290.5  A 2.5 2.5 0 0 1 21.5 288 L 21.5 278  Z " fill-rule="nonzero" fill="#ffffff" stroke="none" />
  <path d="M 21.5 278  A 2.5 2.5 0 0 1 24 275.5 L 34 275.5  A 2.5 2.5 0 0 1 36.5 278 L 36.5 288  A 2.5 2.5 0 0 1 34 290.5 L 24 290.5  A 2.5 2.5 0 0 1 21.5 288 L 21.5 278  Z " stroke-width="1" stroke="#999999" fill="none" />
  <path d="M 24.4285714285714 283  L 27.8571428571429 286.428571428571  L 33.5714285714286 278.428571428571  " stroke-width="3.42857142857143" stroke="#999999" fill="none" />
</svg>