<?xml version="1.0" encoding="utf-8"?>
<svg version="1.1" xmlns:xlink="http://www.w3.org/1999/xlink" width="16px" height="16px" viewBox="21 310  16 16" xmlns="http://www.w3.org/2000/svg">
  <path d="M 21.5 313  A 2.5 2.5 0 0 1 24 310.5 L 34 310.5  A 2.5 2.5 0 0 1 36.5 313 L 36.5 323  A 2.5 2.5 0 0 1 34 325.5 L 24 325.5  A 2.5 2.5 0 0 1 21.5 323 L 21.5 313  Z " fill-rule="nonzero" fill="#ffffff" stroke="none" />
  <path d="M 21.5 313  A 2.5 2.5 0 0 1 24 310.5 L 34 310.5  A 2.5 2.5 0 0 1 36.5 313 L 36.5 323  A 2.5 2.5 0 0 1 34 325.5 L 24 325.5  A 2.5 2.5 0 0 1 21.5 323 L 21.5 313  Z " stroke-width="1" stroke="#999999" fill="none" />
  <path d="M 24.4285714285714 318  L 27.8571428571429 321.428571428571  L 33.5714285714286 313.428571428571  " stroke-width="3.42857142857143" stroke="#999999" fill="none" />
</svg>