<?xml version="1.0" encoding="utf-8"?>
<svg version="1.1" xmlns:xlink="http://www.w3.org/1999/xlink" width="30px" height="30px" xmlns="http://www.w3.org/2000/svg">
  <g transform="matrix(1 0 0 1 -845 -198 )">
    <path d="M 860 199  C 867.84 199  874 205.16  874 213  C 874 220.84  867.84 227  860 227  C 852.16 227  846 220.84  846 213  C 846 205.16  852.16 199  860 199  Z " fill-rule="nonzero" fill="#409eff" stroke="none" />
    <path d="M 860 199  C 867.84 199  874 205.16  874 213  C 874 220.84  867.84 227  860 227  C 852.16 227  846 220.84  846 213  C 846 205.16  852.16 199  860 199  Z " stroke-width="2" stroke="#409eff" fill="none" />
  </g>
</svg>