<?xml version="1.0" encoding="utf-8"?>
<svg version="1.1" xmlns:xlink="http://www.w3.org/1999/xlink" width="30px" height="30px" xmlns="http://www.w3.org/2000/svg">
  <g transform="matrix(1 0 0 1 -1186 -198 )">
    <path d="M 1201 199  C 1208.84 199  1215 205.16  1215 213  C 1215 220.84  1208.84 227  1201 227  C 1193.16 227  1187 220.84  1187 213  C 1187 205.16  1193.16 199  1201 199  Z " fill-rule="nonzero" fill="#ffffff" stroke="none" />
    <path d="M 1201 199  C 1208.84 199  1215 205.16  1215 213  C 1215 220.84  1208.84 227  1201 227  C 1193.16 227  1187 220.84  1187 213  C 1187 205.16  1193.16 199  1201 199  Z " stroke-width="2" stroke="#e4e4e4" fill="none" />
  </g>
</svg>