<?xml version="1.0" encoding="utf-8"?>
<svg version="1.1" xmlns:xlink="http://www.w3.org/1999/xlink" width="30px" height="30px" xmlns="http://www.w3.org/2000/svg">
  <g transform="matrix(1 0 0 1 -505 -198 )">
    <path d="M 520 199  C 527.84 199  534 205.16  534 213  C 534 220.84  527.84 227  520 227  C 512.16 227  506 220.84  506 213  C 506 205.16  512.16 199  520 199  Z " fill-rule="nonzero" fill="#409eff" stroke="none" fill-opacity="0" />
    <path d="M 520 199  C 527.84 199  534 205.16  534 213  C 534 220.84  527.84 227  520 227  C 512.16 227  506 220.84  506 213  C 506 205.16  512.16 199  520 199  Z " stroke-width="2" stroke="#409eff" fill="none" />
  </g>
</svg>