<?xml version="1.0" encoding="utf-8"?>
<svg version="1.1" xmlns:xlink="http://www.w3.org/1999/xlink" width="16px" height="16px" xmlns="http://www.w3.org/2000/svg">
  <g>
    <path d="M 8 15.6025558693182  C 3.80818805681817 15.6025558693182  0.397444130681833 12.1923690738636  0.397444130681833 8  C 0.397444130681833 3.80818805681817  3.80815872159093 0.397444130681833  8 0.397444130681833  C 12.1923690568181 0.397444130681833  15.6025558693182 3.80763092613638  15.6025558693182 8  C 15.6025558693182 12.1923690738636  12.1923690568181 15.6025558693182  8 15.6025558693182  Z M 8 1.48835322159092  C 4.40928027840908 1.48835322159092  1.48835322159092 4.4092509431818  1.48835322159092 8  C 1.48835322159092 11.5901919261364  4.40925094318184 14.5116467784091  8 14.5116467784091  C 11.5901919261363 14.5116467784091  14.5116467784091 11.5907490568182  14.5116467784091 8  C 14.5116467784091 4.4092509431818  11.5901919261363 1.48835322159092  8 1.48835322159092  Z M 7.18181085227281 4.45455278409091  C 7.18181085227281 4.00267803977274  7.54812525568179 3.63636363636364  8 3.63636363636364  C 8.45187474431821 3.63636363636364  8.81818914772719 4.00267803977274  8.81818914772719 4.45455278409091  C 8.81818914772719 4.90642752840908  8.45187474431821 5.27274193181818  8 5.27274193181818  C 7.54812525568179 5.27274193181818  7.18181085227281 4.90642752840908  7.18181085227281 4.45455278409091  Z M 8 6.36362170454545  C 8.30110321590903 6.36362170454545  8.54546920454546 6.60798769318184  8.54546920454546 6.90909090909091  L 8.54546920454546 11.8181671590909  C 8.54546920454546 12.1198274886364  8.30110321590903 12.3636363636364  8 12.3636363636364  C 7.69889678409097 12.3636363636364  7.45453079545454 12.1198274886364  7.45453079545454 11.8181671590909  L 7.45453079545454 6.90909090909091  C 7.45453079545454 6.60798769318184  7.69889678409097 6.36362170454545  8 6.36362170454545  Z " fill-rule="nonzero" fill="#575b66" stroke="none" />
  </g>
</svg>