<?xml version="1.0" encoding="utf-8"?>
<svg version="1.1" xmlns:xlink="http://www.w3.org/1999/xlink" width="20px" height="19px" xmlns="http://www.w3.org/2000/svg">
  <g transform="matrix(1 0 0 1 -250 -11 )">
    <path d="M 19.884765625 6.97265625  C 19.810546875 7.14453125  19.638671875 7.259765625  19.44921875 7.259765625  L 0.55078125 7.259765625  C 0.2890625 7.259765625  0.078125 7.046875  0.078125 6.787109375  C 0.078125 6.52734375  0.2890625 6.314453125  0.55078125 6.314453125  L 18.33203125 6.314453125  L 13.078125 0.90234375  C 12.896484375 0.71484375  12.900390625 0.416015625  13.087890625 0.234375  C 13.275390625 0.0527343749999996  13.57421875 0.0566406249999996  13.755859375 0.244140625  L 19.7890625 6.458984375  C 19.921875 6.595703125  19.958984375 6.796875  19.884765625 6.97265625  Z M 6.583984375 18.05859375  C 6.703125 18.056640625  6.8203125 18.01171875  6.912109375 17.923828125  C 7.099609375 17.7421875  7.103515625 17.443359375  6.921875 17.255859375  L 1.66796875 11.84375  L 19.44921875 11.84375  C 19.7109375 11.84375  19.921875 11.6328125  19.921875 11.37109375  C 19.921875 11.109375  19.7109375 10.8984375  19.44921875 10.8984375  L 0.55078125 10.8984375  C 0.361328125 10.8984375  0.189453125 11.01171875  0.115234375 11.1875  C 0.041015625 11.36328125  0.078125 11.564453125  0.2109375 11.701171875  L 6.244140625 17.916015625  C 6.3359375 18.01171875  6.458984375 18.05859375  6.583984375 18.05859375  Z " fill-rule="nonzero" fill="#268aff" stroke="none" transform="matrix(1 0 0 1 250 11 )" />
  </g>
</svg>