<?xml version="1.0" encoding="utf-8"?>
<svg version="1.1" xmlns:xlink="http://www.w3.org/1999/xlink" width="22px" height="19px" xmlns="http://www.w3.org/2000/svg">
  <g transform="matrix(1 0 0 1 -470 -11 )">
    <path d="M 21.8732421875 6.97265625  C 21.7916015625 7.14453125  21.6025390625 7.259765625  21.394140625 7.259765625  L 0.605859375 7.259765625  C 0.31796875 7.259765625  0.0859375 7.046875  0.0859375 6.787109375  C 0.0859375 6.52734375  0.31796875 6.314453125  0.605859375 6.314453125  L 20.165234375 6.314453125  L 14.3859375 0.90234375  C 14.1861328125 0.71484375  14.1904296875 0.416015625  14.3966796875 0.234375  C 14.6029296875 0.0527343749999996  14.931640625 0.0566406249999996  15.1314453125 0.244140625  L 21.76796875 6.458984375  C 21.9140625 6.595703125  21.9548828125 6.796875  21.8732421875 6.97265625  Z M 7.2423828125 18.05859375  C 7.3734375 18.056640625  7.50234375 18.01171875  7.6033203125 17.923828125  C 7.8095703125 17.7421875  7.8138671875 17.443359375  7.6140625 17.255859375  L 1.834765625 11.84375  L 21.394140625 11.84375  C 21.68203125 11.84375  21.9140625 11.6328125  21.9140625 11.37109375  C 21.9140625 11.109375  21.68203125 10.8984375  21.394140625 10.8984375  L 0.605859375 10.8984375  C 0.3974609375 10.8984375  0.2083984375 11.01171875  0.1267578125 11.1875  C 0.0451171875 11.36328125  0.0859375 11.564453125  0.23203125 11.701171875  L 6.8685546875 17.916015625  C 6.96953125 18.01171875  7.1048828125 18.05859375  7.2423828125 18.05859375  Z " fill-rule="nonzero" fill="#268aff" stroke="none" transform="matrix(1 0 0 1 470 11 )" />
  </g>
</svg>