<?xml version="1.0" encoding="utf-8"?>
<svg version="1.1" xmlns:xlink="http://www.w3.org/1999/xlink" width="18px" height="18px" viewBox="194 514  18 18" xmlns="http://www.w3.org/2000/svg">
  <path d="M 194.5 517  A 2.5 2.5 0 0 1 197 514.5 L 209 514.5  A 2.5 2.5 0 0 1 211.5 517 L 211.5 529  A 2.5 2.5 0 0 1 209 531.5 L 197 531.5  A 2.5 2.5 0 0 1 194.5 529 L 194.5 517  Z " fill-rule="nonzero" fill="#f0f0f0" stroke="none" />
  <path d="M 194.5 517  A 2.5 2.5 0 0 1 197 514.5 L 209 514.5  A 2.5 2.5 0 0 1 211.5 517 L 211.5 529  A 2.5 2.5 0 0 1 209 531.5 L 197 531.5  A 2.5 2.5 0 0 1 194.5 529 L 194.5 517  Z " stroke-width="1" stroke="#797979" fill="none" />
  <path d="M 197.857142857143 523  L 201.714285714286 526.857142857143  L 208.142857142857 517.857142857143  " stroke-width="3.85714285714286" stroke="#797979" fill="none" />
</svg>