<?xml version="1.0" encoding="utf-8"?>
<svg version="1.1" xmlns:xlink="http://www.w3.org/1999/xlink" width="11px" height="11px" xmlns="http://www.w3.org/2000/svg">
  <g transform="matrix(1 0 0 1 -61 -231 )">
    <path d="M 4.95 4.95  L 4.95 8.25  L 6.05 8.25  L 6.05 4.95  L 4.95 4.95  Z M 11 5.5  C 11 2.464  8.536 0  5.5 0  C 2.464 0  0 2.464  0 5.5  C 0 8.536  2.464 11  5.5 11  C 8.536 11  11 8.536  11 5.5  Z M 9.9 5.5  C 9.9 7.9255  7.9255 9.9  5.5 9.9  C 3.0745 9.9  1.1 7.9255  1.1 5.5  C 1.1 3.0745  3.0745 1.1  5.5 1.1  C 7.9255 1.1  9.9 3.0745  9.9 5.5  Z M 4.95 2.75  L 4.95 3.85  L 6.05 3.85  L 6.05 2.75  L 4.95 2.75  Z " fill-rule="nonzero" fill="#797979" stroke="none" transform="matrix(1 0 0 1 61 231 )" />
  </g>
</svg>