<?xml version="1.0" encoding="utf-8"?>
<svg version="1.1" xmlns:xlink="http://www.w3.org/1999/xlink" width="21px" height="20px" xmlns="http://www.w3.org/2000/svg">
  <g transform="matrix(1 0 0 1 -601 -110 )">
    <path d="M 15.2011929882813 0  L 15.1999430078125 0  L 15.394942265625 0.00499998046875  C 17.1324357421875 0.1137495703125  18.479930703125 1.64999380859375  18.479930703125 3.49623689453125  L 18.479930703125 9.2524653125  L 18.4724307226562 9.3649648828125  C 18.410455970365 9.80691119804496  18.0323769341059 10.1356710151822  17.5861063710289 10.1356710151822  C 17.0964118991098 10.1356710151822  16.6976387753068 9.74211728647236  16.6911874023438 9.2524653125  L 16.6911874023438 3.497486875  L 16.6836874414062 3.32998751953125  C 16.6099377148437 2.45249080078125  15.95869015625 1.78999330078125  15.2011929882812 2  L 3.27748771484375 2  L 3.1374882421875 1.79749326171875  C 2.39499103515625 1.87874294921875  1.78749330078125 2.5949902734375  2 3.497486875  L 2 16.5049381054687  L 1.79499326171875 16.6724374804687  C 1.86749298828125 17.5486841992187  2.519990546875 18.2124316992188  3.27748771484375 18.2124316992188  L 12.106204609375 18.2124316992188  L 12.2187041796875 18.2186816796875  C 12.6684809314658 18.2719756306792  13.0072866426566 18.653296455268  13.0072866426566 19.1062195962671  C 13.0072866426566 19.5998222360968  12.6071426418613 19.9999662368921  12.1135400020316 19.9999662368921  C 12.1106781549631 19.9999662368921  12.1078163243998 19.9999524911028  12.104954609375 19.999925  L 3.27748771484375 19.999925  L 3.0837384375 19.9936750195312  C 1.34874494140625 19.8849254296875  0 18.3486811914062  0 16.5049381054687  L 0 3.49498689453125  L 0.00499998046875 3.29123765625  C 0.104999609375 1.4699944921875  1.51499431640625 0  3.2799876953125 0  L 15.2011929882813 0  Z M 16.0686897460938 11.4199571679688  L 16.0674397460938 11.4212071679687  C 16.519938046875 11.4212071679687  16.8999366210938 11.7549559179688  16.9549364257813 12.2037042382813  L 16.9624363867187 12.3162038085938  L 16.9624363867187 14.4549458007813  L 19.103678359375 14.4549458007812  C 19.1056194613417 14.4549331705446  19.1075605992623 14.4549268553761  19.1095017423194 14.4549268553761  C 19.6037947380863 14.4549268553761  20.0044983829444 14.8556305002342  20.0044983829444 15.3499234960011  C 20.0044983829444 15.8034359414965  19.6652830063828 16.1852675637153  19.2149279492188 16.2386891015625  L 19.103678359375 16.2461890820313  L 16.9624363867187 16.2461890820313  L 16.9624363867187 18.3861810546875  C 16.9624493784315 18.3881483614926  16.962455874341 18.3901157058321  16.962455874341 18.3920830555341  C 16.962455874341 18.8856856953638  16.5623118735456 19.2858296961591  16.068709233716 19.2858296961591  C 15.6158565430386 19.2858296961591  15.2345716505826 18.9471263957218  15.1811930664063 18.497430625  L 15.1736931054688 18.3861810546875  L 15.1736931054688 16.2436890820313  L 13.0337011328125 16.2436890820312  C 12.5445008531755 16.2366215331972  12.1516332919207 15.8380371586104  12.1516332919207 15.3487858286751  C 12.1516332919207 14.9024722489949  12.4804547910916 14.5243705769139  12.9224515429688 14.4624457617188  L 13.0337011328125 14.4549458007813  L 15.1736931054688 14.4549458007813  L 15.1736931054687 12.313703828125  C 15.1743827694308 11.8198990505055  15.5748844868711 11.4199566863653  16.0686897460938 11.4199571679688  Z M 4.58998279296875 11.62620640625  L 9.14246572265625 11.62620640625  C 9.63166599525959 11.6332739646632  10.0245335458426 12.0318583363097  10.0245335458426 12.5211096593504  C 10.0245335458426 12.967423239731  9.69571204566715 13.3455249121806  9.25371529296875 13.4074497265625  L 9.14246572265625 13.4149496875  L 4.5924827734375 13.4149496875  C 4.58572131611665 13.4151032090421  4.5789583339904 13.415179977231  4.57219513401069 13.415179977231  C 4.078592494181 13.415179977231  3.67844849338569 13.0150359764357  3.67844849338569 12.521433336606  C 3.67844849338569 12.0635317267525  4.02452529372088 11.6797001912613  4.479983203125 11.6324563867188  L 4.58998279296875 11.62620640625  Z M 13.6974486328125 5.7512284375  L 13.6961986328125 5.7512284375  C 14.1853989124495 5.75829598633405  14.5782664737043 6.15688036092087  14.5782664737043 6.64613169085619  C 14.5782664737043 7.09244527053631  14.2494449745334 7.47054694261733  13.8074482226562 7.5324717578125  L 13.6949486523437 7.53997171875  L 4.5924827734375 7.53997171875  C 4.09939611267401 7.5382733813537  3.70056874966124 7.13806997237963  3.70056874966124 6.64498038683477  C 3.70056874966124 6.1953678802129  4.03413573650765 5.81554254305207  4.479983203125 5.75747841796875  L 4.5924827734375 5.7512284375  L 13.6974486328125 5.7512284375  Z " fill-rule="nonzero" fill="#409eff" stroke="none" transform="matrix(1 0 0 1 601 110 )" />
  </g>
</svg>