<?xml version="1.0" encoding="utf-8"?>
<svg version="1.1" xmlns:xlink="http://www.w3.org/1999/xlink" width="14px" height="16px" xmlns="http://www.w3.org/2000/svg">
  <g transform="matrix(1 0 0 1 -1 0 )">
    <path d="M 13.475 7.36206896551724  C 13.475 7.01120689655172  13.183625 6.72413793103448  12.8275 6.72413793103448  L 10.885 6.72413793103448  L 10.885 4.17241379310345  C 10.885 2.05129310344828  9.1529375 0.344827586206897  7 0.344827586206897  C 4.8470625 0.344827586206897  3.115 2.05129310344828  3.115 4.17241379310345  L 4.41 4.17241379310345  C 4.41 2.76896551724138  5.5755 1.62068965517241  7 1.62068965517241  C 8.4245 1.62068965517241  9.59 2.76896551724138  9.59 4.17241379310345  L 9.59 6.72413793103448  L 1.1725 6.72413793103448  C 0.816375 6.72413793103448  0.525 7.01120689655172  0.525 7.36206896551724  L 0.525 15.0172413793103  C 0.525 15.3681034482759  0.816375 15.6551724137931  1.1725 15.6551724137931  L 12.8275 15.6551724137931  C 13.183625 15.6551724137931  13.475 15.3681034482759  13.475 15.0172413793103  L 13.475 7.36206896551724  Z M 8.295 11.1896551724138  C 8.295 11.8913793103448  7.71225 12.4655172413793  7 12.4655172413793  C 6.28775 12.4655172413793  5.705 11.8913793103448  5.705 11.1896551724138  C 5.705 10.4879310344828  6.28775 9.91379310344828  7 9.91379310344828  C 7.71225 9.91379310344828  8.295 10.4879310344828  8.295 11.1896551724138  Z " fill-rule="nonzero" fill="#666666" stroke="none" transform="matrix(1 0 0 1 1 0 )" />
  </g>
</svg>