<?xml version="1.0" encoding="utf-8"?>
<svg version="1.1" xmlns:xlink="http://www.w3.org/1999/xlink" width="18px" height="18px" viewBox="533 415  18 18" xmlns="http://www.w3.org/2000/svg">
  <path d="M 533.5 418  A 2.5 2.5 0 0 1 536 415.5 L 548 415.5  A 2.5 2.5 0 0 1 550.5 418 L 550.5 430  A 2.5 2.5 0 0 1 548 432.5 L 536 432.5  A 2.5 2.5 0 0 1 533.5 430 L 533.5 418  Z " fill-rule="nonzero" fill="#f0f0f0" stroke="none" />
  <path d="M 533.5 418  A 2.5 2.5 0 0 1 536 415.5 L 548 415.5  A 2.5 2.5 0 0 1 550.5 418 L 550.5 430  A 2.5 2.5 0 0 1 548 432.5 L 536 432.5  A 2.5 2.5 0 0 1 533.5 430 L 533.5 418  Z " stroke-width="1" stroke="#797979" fill="none" />
</svg>