<?xml version="1.0" encoding="utf-8"?>
<svg version="1.1" xmlns:xlink="http://www.w3.org/1999/xlink" width="18px" height="18px" viewBox="533 355  18 18" xmlns="http://www.w3.org/2000/svg">
  <path d="M 533.5 358  A 2.5 2.5 0 0 1 536 355.5 L 548 355.5  A 2.5 2.5 0 0 1 550.5 358 L 550.5 370  A 2.5 2.5 0 0 1 548 372.5 L 536 372.5  A 2.5 2.5 0 0 1 533.5 370 L 533.5 358  Z " fill-rule="nonzero" fill="#f0f0f0" stroke="none" />
  <path d="M 533.5 358  A 2.5 2.5 0 0 1 536 355.5 L 548 355.5  A 2.5 2.5 0 0 1 550.5 358 L 550.5 370  A 2.5 2.5 0 0 1 548 372.5 L 536 372.5  A 2.5 2.5 0 0 1 533.5 370 L 533.5 358  Z " stroke-width="1" stroke="#797979" fill="none" />
  <path d="M 536.857142857143 364  L 540.714285714286 367.857142857143  L 547.142857142857 358.857142857143  " stroke-width="3.85714285714286" stroke="#797979" fill="none" />
</svg>