<?xml version="1.0" encoding="utf-8"?>
<svg version="1.1" xmlns:xlink="http://www.w3.org/1999/xlink" width="13px" height="16px" xmlns="http://www.w3.org/2000/svg">
  <g transform="matrix(1 0 0 1 -1 0 )">
    <path d="M 12.9322916666667 7.36666666666667  C 12.9322916666667 7.01833333333333  12.6428385416667 6.73333333333333  12.2890625 6.73333333333333  L 10.359375 6.73333333333333  L 10.359375 4.2  C 10.359375 2.09416666666667  8.63873697916667 0.4  6.5 0.4  C 4.36126302083333 0.4  2.640625 2.09416666666667  2.640625 4.2  L 2.640625 6.73333333333333  L 0.7109375 6.73333333333333  C 0.357161458333333 6.73333333333333  0.0677083333333333 7.01833333333333  0.0677083333333333 7.36666666666667  L 0.0677083333333333 14.9666666666667  C 0.0677083333333333 15.315  0.357161458333333 15.6  0.7109375 15.6  L 12.2890625 15.6  C 12.6428385416667 15.6  12.9322916666667 15.315  12.9322916666667 14.9666666666667  L 12.9322916666667 7.36666666666667  Z M 7.78645833333333 11.1666666666667  C 7.78645833333333 11.8633333333333  7.20755208333333 12.4333333333333  6.5 12.4333333333333  C 5.79244791666667 12.4333333333333  5.21354166666667 11.8633333333333  5.21354166666667 11.1666666666667  C 5.21354166666667 10.47  5.79244791666667 9.9  6.5 9.9  C 7.20755208333333 9.9  7.78645833333333 10.47  7.78645833333333 11.1666666666667  Z M 9.07291666666667 4.2  L 9.07291666666667 6.73333333333333  L 3.92708333333333 6.73333333333333  L 3.92708333333333 4.2  C 3.92708333333333 2.80666666666667  5.08489583333333 1.66666666666667  6.5 1.66666666666667  C 7.91510416666667 1.66666666666667  9.07291666666667 2.80666666666667  9.07291666666667 4.2  Z " fill-rule="nonzero" fill="#666666" stroke="none" transform="matrix(1 0 0 1 1 0 )" />
  </g>
</svg>