<?xml version="1.0" encoding="utf-8"?>
<svg version="1.1" xmlns:xlink="http://www.w3.org/1999/xlink" width="18px" height="18px" viewBox="533 534  18 18" xmlns="http://www.w3.org/2000/svg">
  <path d="M 533.5 537  A 2.5 2.5 0 0 1 536 534.5 L 548 534.5  A 2.5 2.5 0 0 1 550.5 537 L 550.5 549  A 2.5 2.5 0 0 1 548 551.5 L 536 551.5  A 2.5 2.5 0 0 1 533.5 549 L 533.5 537  Z " fill-rule="nonzero" fill="#409eff" stroke="none" />
  <path d="M 533.5 537  A 2.5 2.5 0 0 1 536 534.5 L 548 534.5  A 2.5 2.5 0 0 1 550.5 537 L 550.5 549  A 2.5 2.5 0 0 1 548 551.5 L 536 551.5  A 2.5 2.5 0 0 1 533.5 549 L 533.5 537  Z " stroke-width="1" stroke="#ffffff" fill="none" />
  <path d="M 536.857142857143 543  L 540.714285714286 546.857142857143  L 547.142857142857 537.857142857143  " stroke-width="3.85714285714286" stroke="#ffffff" fill="none" />
</svg>