<?xml version="1.0" encoding="utf-8"?>
<svg version="1.1" xmlns:xlink="http://www.w3.org/1999/xlink" width="18px" height="18px" viewBox="533 324  18 18" xmlns="http://www.w3.org/2000/svg">
  <path d="M 533.5 327  A 2.5 2.5 0 0 1 536 324.5 L 548 324.5  A 2.5 2.5 0 0 1 550.5 327 L 550.5 339  A 2.5 2.5 0 0 1 548 341.5 L 536 341.5  A 2.5 2.5 0 0 1 533.5 339 L 533.5 327  Z " fill-rule="nonzero" fill="#f0f0f0" stroke="none" />
  <path d="M 533.5 327  A 2.5 2.5 0 0 1 536 324.5 L 548 324.5  A 2.5 2.5 0 0 1 550.5 327 L 550.5 339  A 2.5 2.5 0 0 1 548 341.5 L 536 341.5  A 2.5 2.5 0 0 1 533.5 339 L 533.5 327  Z " stroke-width="1" stroke="#797979" fill="none" />
</svg>