<?xml version="1.0" encoding="utf-8"?>
<svg version="1.1" xmlns:xlink="http://www.w3.org/1999/xlink" width="16px" height="16px" viewBox="21 411  16 16" xmlns="http://www.w3.org/2000/svg">
  <path d="M 21.5 414  A 2.5 2.5 0 0 1 24 411.5 L 34 411.5  A 2.5 2.5 0 0 1 36.5 414 L 36.5 424  A 2.5 2.5 0 0 1 34 426.5 L 24 426.5  A 2.5 2.5 0 0 1 21.5 424 L 21.5 414  Z " fill-rule="nonzero" fill="#ffffff" stroke="none" />
  <path d="M 21.5 414  A 2.5 2.5 0 0 1 24 411.5 L 34 411.5  A 2.5 2.5 0 0 1 36.5 414 L 36.5 424  A 2.5 2.5 0 0 1 34 426.5 L 24 426.5  A 2.5 2.5 0 0 1 21.5 424 L 21.5 414  Z " stroke-width="1" stroke="#999999" fill="none" />
</svg>