<?xml version="1.0" encoding="utf-8"?>
<svg version="1.1" xmlns:xlink="http://www.w3.org/1999/xlink" width="27px" height="22px" xmlns="http://www.w3.org/2000/svg">
  <g transform="matrix(1 0 0 1 -38 -132 )">
    <path d="M 22.166015625 12.5611979166667  C 22.388671875 12.3797743055556  22.5 12.1649305555556  22.5 11.9166666666667  L 22.5 10.0833333333333  C 22.5 9.83506944444444  22.388671875 9.62022569444444  22.166015625 9.43880208333333  C 21.943359375 9.25737847222222  21.6796875 9.16666666666667  21.375 9.16666666666667  L 15.75 9.16666666666667  L 15.75 4.58333333333333  C 15.75 4.33506944444444  15.638671875 4.12022569444444  15.416015625 3.93880208333333  C 15.193359375 3.75737847222222  14.9296875 3.66666666666667  14.625 3.66666666666667  L 12.375 3.66666666666667  C 12.0703125 3.66666666666667  11.806640625 3.75737847222222  11.583984375 3.93880208333333  C 11.361328125 4.12022569444444  11.25 4.33506944444444  11.25 4.58333333333333  L 11.25 9.16666666666667  L 5.625 9.16666666666667  C 5.3203125 9.16666666666667  5.056640625 9.25737847222222  4.833984375 9.43880208333333  C 4.611328125 9.62022569444444  4.5 9.83506944444444  4.5 10.0833333333333  L 4.5 11.9166666666667  C 4.5 12.1649305555556  4.611328125 12.3797743055556  4.833984375 12.5611979166667  C 5.056640625 12.7426215277778  5.3203125 12.8333333333333  5.625 12.8333333333333  L 11.25 12.8333333333333  L 11.25 17.4166666666667  C 11.25 17.6649305555556  11.361328125 17.8797743055556  11.583984375 18.0611979166667  C 11.806640625 18.2426215277778  12.0703125 18.3333333333333  12.375 18.3333333333333  L 14.625 18.3333333333333  C 14.9296875 18.3333333333333  15.193359375 18.2426215277778  15.416015625 18.0611979166667  C 15.638671875 17.8797743055556  15.75 17.6649305555556  15.75 17.4166666666667  L 15.75 12.8333333333333  L 21.375 12.8333333333333  C 21.6796875 12.8333333333333  21.943359375 12.7426215277778  22.166015625 12.5611979166667  Z M 25.5146484375 1.21028645833333  C 26.5048828125 2.01714409722222  27 2.98871527777778  27 4.125  L 27 17.875  C 27 19.0112847222222  26.5048828125 19.9828559027778  25.5146484375 20.7897135416667  C 24.5244140625 21.5965711805556  23.33203125 22  21.9375 22  L 5.0625 22  C 3.66796875 22  2.4755859375 21.5965711805556  1.4853515625 20.7897135416667  C 0.4951171875 19.9828559027778  0 19.0112847222222  0 17.875  L 0 4.125  C 0 2.98871527777778  0.4951171875 2.01714409722222  1.4853515625 1.21028645833333  C 2.4755859375 0.403428819444443  3.66796875 0  5.0625 0  L 21.9375 0  C 23.33203125 0  24.5244140625 0.403428819444443  25.5146484375 1.21028645833333  Z " fill-rule="nonzero" fill="#000000" stroke="none" transform="matrix(1 0 0 1 38 132 )" />
  </g>
</svg>