<?xml version="1.0" encoding="utf-8"?>
<svg version="1.1" xmlns:xlink="http://www.w3.org/1999/xlink" width="250px" height="28px" viewBox="399 129  250 28" xmlns="http://www.w3.org/2000/svg">
  <path d="M 400 134  A 4 4 0 0 1 404 130 L 644 130  A 4 4 0 0 1 648 134 L 648 152  A 4 4 0 0 1 644 156 L 404 156  A 4 4 0 0 1 400 152 L 400 134  Z " fill-rule="nonzero" fill="#f0f0f0" stroke="none" />
  <path d="M 399.5 134  A 4.5 4.5 0 0 1 404 129.5 L 644 129.5  A 4.5 4.5 0 0 1 648.5 134 L 648.5 152  A 4.5 4.5 0 0 1 644 156.5 L 404 156.5  A 4.5 4.5 0 0 1 399.5 152 L 399.5 134  Z " stroke-width="1" stroke="#808080" fill="none" stroke-opacity="0.349019607843137" />
</svg>