<?xml version="1.0" encoding="utf-8"?>
<svg version="1.1" xmlns:xlink="http://www.w3.org/1999/xlink" width="226px" height="28px" viewBox="156 129  226 28" xmlns="http://www.w3.org/2000/svg">
  <path d="M 157 134  A 4 4 0 0 1 161 130 L 377 130  A 4 4 0 0 1 381 134 L 381 152  A 4 4 0 0 1 377 156 L 161 156  A 4 4 0 0 1 157 152 L 157 134  Z " fill-rule="nonzero" fill="#f0f0f0" stroke="none" />
  <path d="M 156.5 134  A 4.5 4.5 0 0 1 161 129.5 L 377 129.5  A 4.5 4.5 0 0 1 381.5 134 L 381.5 152  A 4.5 4.5 0 0 1 377 156.5 L 161 156.5  A 4.5 4.5 0 0 1 156.5 152 L 156.5 134  Z " stroke-width="1" stroke="#808080" fill="none" stroke-opacity="0.349019607843137" />
</svg>