<?xml version="1.0" encoding="utf-8"?>
<svg version="1.1" xmlns:xlink="http://www.w3.org/1999/xlink" width="18px" height="18px" viewBox="204 72  18 18" xmlns="http://www.w3.org/2000/svg">
  <path d="M 213 72  C 218.04 72  222 75.96  222 81  C 222 86.04  218.04 90  213 90  C 207.96 90  204 86.04  204 81  C 204 75.96  207.96 72  213 72  Z " fill-rule="nonzero" fill="#f0f0f0" stroke="none" />
  <path d="M 213 72.5  C 217.76 72.5  221.5 76.24  221.5 81  C 221.5 85.76  217.76 89.5  213 89.5  C 208.24 89.5  204.5 85.76  204.5 81  C 204.5 76.24  208.24 72.5  213 72.5  Z " stroke-width="1" stroke="#268aff" fill="none" />
  <path d="M 213 85.5  C 210.48 85.5  208.5 83.52  208.5 81  C 208.5 78.48  210.48 76.5  213 76.5  C 215.52 76.5  217.5 78.48  217.5 81  C 217.5 83.52  215.52 85.5  213 85.5  " fill-rule="nonzero" fill="#268aff" stroke="none" />
</svg>