<?xml version="1.0" encoding="utf-8"?>
<svg version="1.1" xmlns:xlink="http://www.w3.org/1999/xlink" width="21px" height="16px" xmlns="http://www.w3.org/2000/svg">
  <g transform="matrix(1 0 0 1 -24 -44 )">
    <path d="M 20.7248345636719 8.290260825  C 20.7381815074219 8.223029575  20.7582271230469 8.12248975  20.7582271230469 8.00227685  C 20.7582271230469 7.8771265  20.7374008488281 7.772442275  20.7314828601562 7.759983525  C 20.7270002871094 7.697971175  20.7061740128906 7.584947  20.6868083542969 7.525620825  C 20.6816206734375 7.510859625  20.6748968261719 7.495382125  20.6689788375 7.480620925  C 20.658527925 7.446596  20.6473970800781 7.41333855  20.6347552441406 7.386886075  C 18.7429886601562 3.1834512  14.6700281273438 0.358281875000002  10.5010451109375 0.358281875000002  C 6.33281757773437 0.358281875000002  2.26020959882812 3.180841775  0.377030382421875 7.361533675  C 0.35434056328125 7.4069173  0.338324216015625 7.450382225  0.3282762328125 7.4881934  C 0.323818859765625 7.50065215  0.31860597890625 7.512369  0.314526359765625 7.523343975  C 0.277305984375 7.634116875  0.276575701171875 7.7111974  0.279547283203125 7.6911662  C 0.2620703203125 7.7724423  0.24605399765625 7.934227  0.24605399765625 7.934227  C 0.241596624609375 7.98296195  0.241596624609375 8.02189875  0.246809480859375 8.07030115  C 0.246809480859375 8.07030115  0.262800628125 8.2116709  0.270632537109375 8.24037465000001  C 0.2728486359375 8.2804371  0.28251888984375 8.3386632  0.2940526640625 8.391593725  C 0.3033451640625 8.436951775  0.317120237109375 8.48080045  0.33608296640625 8.523881625  C 0.345778395703125 8.557139075  0.357312169921875 8.58814525000001  0.367360153124999 8.611578975  C 2.26169538984375 12.81573015  6.3335730609375 15.641666975  10.5010451109375 15.641666975  C 14.6707836351562 15.641666975  18.7437441679687 12.8180326  20.6139289699219 8.6584464  C 20.6429145070313 8.6040065  20.6615498824219 8.55261095  20.6741917183594 8.5079948  C 20.6801348824219 8.4944104  20.6853729386719 8.48230982500001  20.6890748285156 8.470209225  C 20.72183780625 8.37340445  20.7285113027344 8.289518925  20.7255396960938 8.289518925  L 20.7248345636719 8.290260825  Z M 19.3859591296875 8.0113587  C 19.3815017320312 8.025710575  19.3792856332031 8.03932055  19.3770443589844 8.0536724  C 19.3763140511719 8.056716725  19.3748030847656 8.060477375  19.37331729375 8.063521725  C 19.3711011949219 8.072577975  19.3673993050781 8.0831692  19.3651328308594 8.093760425  C 17.6817549644531 11.77927445  14.1275123390625 14.2521962  10.5010450863281 14.2521962  C 6.8835177796875 14.2521962  3.33557087226563 11.7861306  1.63544635078125 8.087722925  C 1.63134153164062 8.074880425  1.62836994960937 8.06275425  1.6239125765625 8.05067925  C 1.62315709335937 8.03857865  1.62094099453125 8.028754925  1.62021068671875 8.02192435  C 1.61872489570312 8.01440305  1.6172391046875 8.003811825  1.61610586757812 7.9947044  L 1.61610586757812 7.9852644  C 1.62021068671875 7.9697613  1.62315709335937 7.9542838  1.62466805976562 7.93727135  C 1.62763964179687 7.9282151  1.62988091601563 7.919516975  1.63323025195312 7.90969325  C 3.31731325078125 4.2222605  6.87455265820312 1.7482131  10.5010199109375 1.7482131  C 14.1289477792969 1.7482131  17.6854820542969 4.224511775  19.3643773476563 7.90626515  C 19.3658631386719 7.913453875  19.3673741050781 7.919516975  19.3696154039062 7.924428825  C 19.3711011949219 7.930466325  19.3725618105469 7.936529425  19.3755333925781 7.942950675  C 19.3792604578125 7.97055435  19.3822320398437 7.9977743  19.3859591296875 8.0113587  Z " fill-rule="nonzero" fill="#ffffff" stroke="none" transform="matrix(1 0 0 1 24 44 )" />
  </g>
</svg>