<?xml version="1.0" encoding="utf-8"?>
<svg version="1.1" xmlns:xlink="http://www.w3.org/1999/xlink" width="18px" height="18px" xmlns="http://www.w3.org/2000/svg">
  <g transform="matrix(1 0 0 1 -60 -42 )">
    <path d="M 14 4  L 14 15.3703125  C 14.0484375 15.975  13.556232421875 16.4671875  12.9515625 16.4671875  L 5.0484375 16.4671875  C 4.44375 16.4671875  3.9515625 15.975  4 15.3703125  L 4 4  L 14 4  Z M 6.1453125 2.41875  L 6.1453125 1.7578125  C 6.1453125 1.63125  6.24375 1.5328125  6.3703125 1.5328125  L 11.64375 1.5328125  C 11.7703125 1.5328125  11.86875 1.63125  11.86875 1.7578125  L 11.86875 2.41875  L 6.1453125 2.41875  Z M 18 3.065625  C 18 2.7  17.7046875 2.41875  17.3390625 2.41875  L 13.1765625 2.41875  L 13.1765625 1.7578125  C 13.1765625 0.914044921875  12.4875 0.225  11.64375 0.225  L 6.3703125 0.225  C 5.5265625 0.225  4.8375 0.914044921875  4.8375 1.7578125  L 4.8375 2.41875  L 0.6609375 2.41875  C 0.2953125 2.41875  0 2.7140625  0 3.0796875  C 0 3.4453125  0.2953125 3.740625  0.6609375 3.740625  L 2.6296875 3.740625  L 2.6296875 15.3703125  C 2.6296875 16.70625  3.7125 17.7890625  5.0484375 17.7890625  L 12.9515625 17.7890625  C 14.2875 17.7890625  15.3703125 16.70625  15.3703125 15.3703125  L 15.3703125 3.7265625  L 17.3390625 3.7265625  C 17.7046875 3.7265625  18 3.43125  18 3.065625  Z M 8.3390625 13.8234375  C 8.3390625 14.1890625  8.634375 14.484375  9 14.484375  C 9.365625 14.484375  9.6609375 14.1890625  9.6609375 13.8234375  L 9.6609375 6.7921875  C 9.6609375 6.4265625  9.365625 6.13125  9 6.13125  C 8.634375 6.13125  8.3390625 6.4265625  8.3390625 6.7921875  L 8.3390625 13.8234375  Z M 5.259375 13.8234375  C 5.2734375 14.1890625  5.56875 14.484375  5.9203125 14.484375  C 6.2859375 14.484375  6.58125 14.1890625  6.58125 13.8234375  L 6.58125 6.7921875  C 6.58125 6.4265625  6.2859375 6.13125  5.9203125 6.13125  C 5.5546875 6.13125  5.259375 6.4265625  5.259375 6.7921875  L 5.259375 13.8234375  Z M 11.41875 13.8234375  C 11.41875 14.1890625  11.7140625 14.484375  12.0796875 14.484375  C 12.4453125 14.484375  12.740625 14.1890625  12.740625 13.8234375  L 12.740625 6.7921875  C 12.740625 6.4265625  12.4453125 6.13125  12.0796875 6.13125  C 11.7140625 6.13125  11.41875 6.4265625  11.41875 6.7921875  L 11.41875 13.8234375  Z " fill-rule="nonzero" fill="#ffffff" stroke="none" transform="matrix(1 0 0 1 60 42 )" />
  </g>
</svg>