<?xml version="1.0" encoding="utf-8"?>
<svg version="1.1" xmlns:xlink="http://www.w3.org/1999/xlink" width="9px" height="7px" xmlns="http://www.w3.org/2000/svg">
  <g transform="matrix(1 0 0 1 -30 -48 )">
    <path d="M 8.16493868261719 3.5  C 8.16493868261719 1.7043614375  6.52078140820312 0.2436078359375  4.50109276171875 0.2436078359375  C 2.48140411523437 0.2436078359375  0.837246840820312 1.7043614375  0.837246840820312 3.5  C 0.837246840820312 5.295278796875  2.48140411523437 6.7567519296875  4.50109276171875 6.7567519296875  C 6.52078140820312 6.7567519296875  8.16493868261719 5.295278796875  8.16493868261719 3.5  Z M 6.69942730371094 3.5000239765625  C 6.69940030371094 4.5773255703125  5.7130570546875 5.4540511484375  4.50109276171875 5.4540511484375  C 3.28991094140625 5.4540511484375  2.30281219335937 4.5773255703125  2.30281219335937 3.5000239765625  C 2.30281219335937 2.4230581484375  3.28991094140625 1.5463565703125  4.50109276171875 1.5463565703125  C 5.7130570546875 1.5463565703125  6.69942730371094 2.4230821484375  6.69942730371094 3.5000239765625  Z " fill-rule="nonzero" fill="#ffffff" stroke="none" transform="matrix(1 0 0 1 30 48 )" />
  </g>
</svg>