<?xml version="1.0" encoding="utf-8"?>
<svg version="1.1" xmlns:xlink="http://www.w3.org/1999/xlink" width="104px" height="104px" xmlns="http://www.w3.org/2000/svg">
  <g>
    <path d="M 1 4  A 3 3 0 0 1 4 1 L 100 1  A 3 3 0 0 1 103 4 L 103 100  A 3 3 0 0 1 100 103 L 4 103  A 3 3 0 0 1 1 100 L 1 4  Z " fill-rule="nonzero" fill="#000000" stroke="none" fill-opacity="0.0196078431372549" />
    <path d="M 0.5 4  A 3.5 3.5 0 0 1 4 0.5 L 100 0.5  A 3.5 3.5 0 0 1 103.5 4 L 103.5 100  A 3.5 3.5 0 0 1 100 103.5 L 4 103.5  A 3.5 3.5 0 0 1 0.5 100 L 0.5 4  Z " stroke-width="1" stroke-dasharray="9,4" stroke="#d9d9d9" fill="none" stroke-dashoffset="0.5" />
  </g>
</svg>