<?xml version="1.0" encoding="utf-8"?>
<svg version="1.1" xmlns:xlink="http://www.w3.org/1999/xlink" width="18px" height="18px" viewBox="120 72  18 18" xmlns="http://www.w3.org/2000/svg">
  <path d="M 129 72  C 134.04 72  138 75.96  138 81  C 138 86.04  134.04 90  129 90  C 123.96 90  120 86.04  120 81  C 120 75.96  123.96 72  129 72  Z " fill-rule="nonzero" fill="#ffffff" stroke="none" />
  <path d="M 129 72.5  C 133.76 72.5  137.5 76.24  137.5 81  C 137.5 85.76  133.76 89.5  129 89.5  C 124.24 89.5  120.5 85.76  120.5 81  C 120.5 76.24  124.24 72.5  129 72.5  Z " stroke-width="1" stroke="#0099ff" fill="none" />
  <path d="M 129 85.5  C 126.48 85.5  124.5 83.52  124.5 81  C 124.5 78.48  126.48 76.5  129 76.5  C 131.52 76.5  133.5 78.48  133.5 81  C 133.5 83.52  131.52 85.5  129 85.5  " fill-rule="nonzero" fill="#0099ff" stroke="none" />
</svg>