<?xml version="1.0" encoding="utf-8"?>
<svg version="1.1" xmlns:xlink="http://www.w3.org/1999/xlink" width="12px" height="12px" viewBox="365 14  12 12" xmlns="http://www.w3.org/2000/svg">
  <path d="M 371 14  C 374.36 14  377 16.64  377 20  C 377 23.36  374.36 26  371 26  C 367.64 26  365 23.36  365 20  C 365 16.64  367.64 14  371 14  Z " fill-rule="nonzero" fill="#ffffff" stroke="none" />
  <path d="M 371 14.5  C 374.08 14.5  376.5 16.92  376.5 20  C 376.5 23.08  374.08 25.5  371 25.5  C 367.92 25.5  365.5 23.08  365.5 20  C 365.5 16.92  367.92 14.5  371 14.5  Z " stroke-width="1" stroke="#0099ff" fill="none" />
  <path d="M 371 23  C 369.32 23  368 21.68  368 20  C 368 18.32  369.32 17  371 17  C 372.68 17  374 18.32  374 20  C 374 21.68  372.68 23  371 23  " fill-rule="nonzero" fill="#0099ff" stroke="none" />
</svg>