<?xml version="1.0" encoding="utf-8"?>
<svg version="1.1" xmlns:xlink="http://www.w3.org/1999/xlink" width="12px" height="12px" viewBox="165 14  12 12" xmlns="http://www.w3.org/2000/svg">
  <path d="M 171 14  C 174.36 14  177 16.64  177 20  C 177 23.36  174.36 26  171 26  C 167.64 26  165 23.36  165 20  C 165 16.64  167.64 14  171 14  Z " fill-rule="nonzero" fill="#ffffff" stroke="none" />
  <path d="M 171 14.5  C 174.08 14.5  176.5 16.92  176.5 20  C 176.5 23.08  174.08 25.5  171 25.5  C 167.92 25.5  165.5 23.08  165.5 20  C 165.5 16.92  167.92 14.5  171 14.5  Z " stroke-width="1" stroke="#0099ff" fill="none" />
  <path d="M 171 23  C 169.32 23  168 21.68  168 20  C 168 18.32  169.32 17  171 17  C 172.68 17  174 18.32  174 20  C 174 21.68  172.68 23  171 23  " fill-rule="nonzero" fill="#0099ff" stroke="none" />
</svg>