<?xml version="1.0" encoding="utf-8"?>
<svg version="1.1" xmlns:xlink="http://www.w3.org/1999/xlink" width="12px" height="12px" viewBox="252 243  12 12" xmlns="http://www.w3.org/2000/svg">
  <path d="M 258 243  C 261.36 243  264 245.64  264 249  C 264 252.36  261.36 255  258 255  C 254.64 255  252 252.36  252 249  C 252 245.64  254.64 243  258 243  Z " fill-rule="nonzero" fill="#ffffff" stroke="none" />
  <path d="M 258 243.5  C 261.08 243.5  263.5 245.92  263.5 249  C 263.5 252.08  261.08 254.5  258 254.5  C 254.92 254.5  252.5 252.08  252.5 249  C 252.5 245.92  254.92 243.5  258 243.5  Z " stroke-width="1" stroke="#0099ff" fill="none" />
  <path d="M 258 252  C 256.32 252  255 250.68  255 249  C 255 247.32  256.32 246  258 246  C 259.68 246  261 247.32  261 249  C 261 250.68  259.68 252  258 252  " fill-rule="nonzero" fill="#0099ff" stroke="none" />
</svg>