<?xml version="1.0" encoding="utf-8"?>
<svg version="1.1" xmlns:xlink="http://www.w3.org/1999/xlink" width="12px" height="12px" viewBox="265 14  12 12" xmlns="http://www.w3.org/2000/svg">
  <path d="M 271 14  C 274.36 14  277 16.64  277 20  C 277 23.36  274.36 26  271 26  C 267.64 26  265 23.36  265 20  C 265 16.64  267.64 14  271 14  Z " fill-rule="nonzero" fill="#ffffff" stroke="none" />
  <path d="M 271 14.5  C 274.08 14.5  276.5 16.92  276.5 20  C 276.5 23.08  274.08 25.5  271 25.5  C 267.92 25.5  265.5 23.08  265.5 20  C 265.5 16.92  267.92 14.5  271 14.5  Z " stroke-width="1" stroke="#0099ff" fill="none" />
  <path d="M 271 23  C 269.32 23  268 21.68  268 20  C 268 18.32  269.32 17  271 17  C 272.68 17  274 18.32  274 20  C 274 21.68  272.68 23  271 23  " fill-rule="nonzero" fill="#0099ff" stroke="none" />
</svg>