<?xml version="1.0" encoding="utf-8"?>
<svg version="1.1" xmlns:xlink="http://www.w3.org/1999/xlink" width="400px" height="189px" viewBox="270 80  400 189" xmlns="http://www.w3.org/2000/svg">
  <path d="M 271 85  A 4 4 0 0 1 275 81 L 665 81  A 4 4 0 0 1 669 85 L 669 264  A 4 4 0 0 1 665 268 L 275 268  A 4 4 0 0 1 271 264 L 271 85  Z " fill-rule="nonzero" fill="#ffffff" stroke="none" />
  <path d="M 270.5 85  A 4.5 4.5 0 0 1 275 80.5 L 665 80.5  A 4.5 4.5 0 0 1 669.5 85 L 669.5 264  A 4.5 4.5 0 0 1 665 268.5 L 275 268.5  A 4.5 4.5 0 0 1 270.5 264 L 270.5 85  Z " stroke-width="1" stroke="#797979" fill="none" stroke-opacity="0.298039215686275" />
</svg>