<?xml version="1.0" encoding="utf-8"?>
<svg version="1.1" xmlns:xlink="http://www.w3.org/1999/xlink" width="12px" height="7px" xmlns="http://www.w3.org/2000/svg">
  <g transform="matrix(1 0 0 1 -500 -7 )">
    <path d="M 11.8797595190382 5.69237113402062  C 11.9599198396794 5.77209621993127  12 5.86378006872853  12 5.96742268041237  C 12 6.07106529209622  11.9599198396794 6.16274914089348  11.8797595190382 6.24247422680412  L 11.2785571142284 6.84041237113402  C 11.1983967935872 6.92013745704466  11.1062124248497 6.96000000000001  11.0020040080159 6.96000000000001  C 10.8977955911824 6.96000000000001  10.805611222445 6.92013745704466  10.7254509018036 6.84041237113402  L 6 2.14061855670102  L 1.27454909819642 6.84041237113402  C 1.19438877755499 6.92013745704466  1.10220440881756 6.96000000000001  0.997995991984112 6.96000000000001  C 0.89378757515027 6.96000000000001  0.801603206412778 6.92013745704466  0.72144288577158 6.84041237113402  L 0.120240480961797 6.24247422680412  C 0.0400801603205991 6.16274914089348  0 6.07106529209622  0 5.96742268041237  C 0 5.86378006872853  0.0400801603205991 5.77209621993127  0.120240480961797 5.69237113402062  L 5.72344689378747 0.119587628865993  C 5.80360721442878 0.0398625429553121  5.89579158316621 0  6 0  C 6.10420841683379 0  6.19639278557122 0.0398625429553121  6.27655310621253 0.119587628865993  L 11.8797595190382 5.69237113402062  Z " fill-rule="nonzero" fill="#999999" stroke="none" transform="matrix(1 0 0 1 500 7 )" />
  </g>
</svg>