<?xml version="1.0" encoding="utf-8"?>
<svg version="1.1" xmlns:xlink="http://www.w3.org/1999/xlink" width="12px" height="7px" xmlns="http://www.w3.org/2000/svg">
  <g transform="matrix(1 0 0 1 -500 -26 )">
    <path d="M 11.8797595190381 0.717525773195874  C 11.9599198396793 0.797250859106526  12 0.888934707903786  12 0.992577319587625  C 12 1.09621993127148  11.9599198396793 1.18790378006872  11.8797595190381 1.26762886597938  L 6.27655310621242 6.84041237113402  C 6.19639278557116 6.92013745704467  6.10420841683367 6.95999999999999  6 6.95999999999999  C 5.89579158316633 6.95999999999999  5.80360721442889 6.92013745704467  5.72344689378758 6.84041237113402  L 0.120240480961911 1.26762886597938  C 0.040080160320656 1.18790378006872  0 1.09621993127148  0 0.992577319587625  C 0 0.888934707903786  0.040080160320656 0.797250859106526  0.120240480961911 0.717525773195874  L 0.721442885771523 0.119587628865986  C 0.801603206412835 0.0398625429553334  0.89378757515027 0  0.997995991983998 0  C 1.10220440881767 0  1.1943887775551 0.0398625429553334  1.27454909819642 0.119587628865986  L 6 4.81938144329897  L 10.7254509018036 0.119587628865986  C 10.8056112224449 0.0398625429553334  10.8977955911823 0  11.002004008016 0  C 11.1062124248497 0  11.1983967935872 0.0398625429553334  11.2785571142285 0.119587628865986  L 11.8797595190381 0.717525773195874  Z " fill-rule="nonzero" fill="#cccccc" stroke="none" transform="matrix(1 0 0 1 500 26 )" />
  </g>
</svg>