<?xml version="1.0" encoding="utf-8"?>
<svg version="1.1" xmlns:xlink="http://www.w3.org/1999/xlink" width="16px" height="16px" viewBox="396 258  16 16" xmlns="http://www.w3.org/2000/svg">
  <path d="M 404 258  C 408.48 258  412 261.52  412 266  C 412 270.48  408.48 274  404 274  C 399.52 274  396 270.48  396 266  C 396 261.52  399.52 258  404 258  Z " fill-rule="nonzero" fill="#ffffff" stroke="none" />
  <path d="M 404 258.5  C 408.2 258.5  411.5 261.8  411.5 266  C 411.5 270.2  408.2 273.5  404 273.5  C 399.8 273.5  396.5 270.2  396.5 266  C 396.5 261.8  399.8 258.5  404 258.5  Z " stroke-width="1" stroke="#797979" fill="none" />
  <path d="M 404 270  C 401.76 270  400 268.24  400 266  C 400 263.76  401.76 262  404 262  C 406.24 262  408 263.76  408 266  C 408 268.24  406.24 270  404 270  " fill-rule="nonzero" fill="#797979" stroke="none" />
</svg>