<?xml version="1.0" encoding="utf-8"?>
<svg version="1.1" xmlns:xlink="http://www.w3.org/1999/xlink" width="16px" height="16px" viewBox="509 258  16 16" xmlns="http://www.w3.org/2000/svg">
  <path d="M 517 258  C 521.48 258  525 261.52  525 266  C 525 270.48  521.48 274  517 274  C 512.52 274  509 270.48  509 266  C 509 261.52  512.52 258  517 258  Z " fill-rule="nonzero" fill="#f0f0f0" stroke="none" />
  <path d="M 517 258.5  C 521.2 258.5  524.5 261.8  524.5 266  C 524.5 270.2  521.2 273.5  517 273.5  C 512.8 273.5  509.5 270.2  509.5 266  C 509.5 261.8  512.8 258.5  517 258.5  Z " stroke-width="1" stroke="#797979" fill="none" />
  <path d="M 517 270  C 514.76 270  513 268.24  513 266  C 513 263.76  514.76 262  517 262  C 519.24 262  521 263.76  521 266  C 521 268.24  519.24 270  517 270  " fill-rule="nonzero" fill="#797979" stroke="none" />
</svg>