<?xml version="1.0" encoding="utf-8"?>
<svg version="1.1" xmlns:xlink="http://www.w3.org/1999/xlink" width="16px" height="16px" viewBox="621 258  16 16" xmlns="http://www.w3.org/2000/svg">
  <path d="M 629 258  C 633.48 258  637 261.52  637 266  C 637 270.48  633.48 274  629 274  C 624.52 274  621 270.48  621 266  C 621 261.52  624.52 258  629 258  Z " fill-rule="nonzero" fill="#f0f0f0" stroke="none" />
  <path d="M 629 258.5  C 633.2 258.5  636.5 261.8  636.5 266  C 636.5 270.2  633.2 273.5  629 273.5  C 624.8 273.5  621.5 270.2  621.5 266  C 621.5 261.8  624.8 258.5  629 258.5  Z " stroke-width="1" stroke="#797979" fill="none" />
  <path d="M 629 270  C 626.76 270  625 268.24  625 266  C 625 263.76  626.76 262  629 262  C 631.24 262  633 263.76  633 266  C 633 268.24  631.24 270  629 270  " fill-rule="nonzero" fill="#797979" stroke="none" />
</svg>