<?xml version="1.0" encoding="utf-8"?>
<svg version="1.1" xmlns:xlink="http://www.w3.org/1999/xlink" width="16px" height="16px" viewBox="172 258  16 16" xmlns="http://www.w3.org/2000/svg">
  <path d="M 180 258  C 184.48 258  188 261.52  188 266  C 188 270.48  184.48 274  180 274  C 175.52 274  172 270.48  172 266  C 172 261.52  175.52 258  180 258  Z " fill-rule="nonzero" fill="#f0f0f0" stroke="none" />
  <path d="M 180 258.5  C 184.2 258.5  187.5 261.8  187.5 266  C 187.5 270.2  184.2 273.5  180 273.5  C 175.8 273.5  172.5 270.2  172.5 266  C 172.5 261.8  175.8 258.5  180 258.5  Z " stroke-width="1" stroke="#797979" fill="none" />
  <path d="M 180 270  C 177.76 270  176 268.24  176 266  C 176 263.76  177.76 262  180 262  C 182.24 262  184 263.76  184 266  C 184 268.24  182.24 270  180 270  " fill-rule="nonzero" fill="#797979" stroke="none" />
</svg>