<?xml version="1.0" encoding="utf-8"?>
<svg version="1.1" xmlns:xlink="http://www.w3.org/1999/xlink" width="70px" height="25px" xmlns="http://www.w3.org/2000/svg">
  <g transform="matrix(1 0 0 1 -215 -58 )">
    <path d="M 216 63  A 4 4 0 0 1 220 59 L 280 59  A 4 4 0 0 1 284 63 L 284 78  A 4 4 0 0 1 280 82 L 220 82  A 4 4 0 0 1 216 78 L 216 63  Z " fill-rule="nonzero" fill="#fef3f3" stroke="none" fill-opacity="0.996078431372549" />
    <path d="M 215.5 63  A 4.5 4.5 0 0 1 220 58.5 L 280 58.5  A 4.5 4.5 0 0 1 284.5 63 L 284.5 78  A 4.5 4.5 0 0 1 280 82.5 L 220 82.5  A 4.5 4.5 0 0 1 215.5 78 L 215.5 63  Z " stroke-width="1" stroke="#f89898" fill="none" stroke-opacity="0.996078431372549" />
  </g>
</svg>