<?xml version="1.0" encoding="utf-8"?>
<svg version="1.1" xmlns:xlink="http://www.w3.org/1999/xlink" width="70px" height="25px" xmlns="http://www.w3.org/2000/svg">
  <g transform="matrix(1 0 0 1 -215 -118 )">
    <path d="M 216 123  A 4 4 0 0 1 220 119 L 280 119  A 4 4 0 0 1 284 123 L 284 138  A 4 4 0 0 1 280 142 L 220 142  A 4 4 0 0 1 216 138 L 216 123  Z " fill-rule="nonzero" fill="#fff7eb" stroke="none" fill-opacity="0.996078431372549" />
    <path d="M 215.5 123  A 4.5 4.5 0 0 1 220 118.5 L 280 118.5  A 4.5 4.5 0 0 1 284.5 123 L 284.5 138  A 4.5 4.5 0 0 1 280 142.5 L 220 142.5  A 4.5 4.5 0 0 1 215.5 138 L 215.5 123  Z " stroke-width="1" stroke="#ffb84d" fill="none" stroke-opacity="0.996078431372549" />
  </g>
</svg>