<?xml version="1.0" encoding="utf-8"?>
<svg version="1.1" xmlns:xlink="http://www.w3.org/1999/xlink" width="80px" height="30px" xmlns="http://www.w3.org/2000/svg">
  <g transform="matrix(1 0 0 1 -260 -205 )">
    <path d="M 261 208  A 2 2 0 0 1 263 206 L 337 206  A 2 2 0 0 1 339 208 L 339 232  A 2 2 0 0 1 337 234 L 263 234  A 2 2 0 0 1 261 232 L 261 208  Z " fill-rule="nonzero" fill="#f0f7ff" stroke="none" />
    <path d="M 260.5 208  A 2.5 2.5 0 0 1 263 205.5 L 337 205.5  A 2.5 2.5 0 0 1 339.5 208 L 339.5 232  A 2.5 2.5 0 0 1 337 234.5 L 263 234.5  A 2.5 2.5 0 0 1 260.5 232 L 260.5 208  Z " stroke-width="1" stroke="#7abbff" fill="none" stroke-opacity="0.996078431372549" />
  </g>
</svg>