<?xml version="1.0" encoding="utf-8"?>
<svg version="1.1" xmlns:xlink="http://www.w3.org/1999/xlink" width="18px" height="20px" xmlns="http://www.w3.org/2000/svg">
  <g transform="matrix(1 0 0 1 -9 -7 )">
    <path d="M 7.59 16  L 13.53 10.06  L 12.47 9  L 7.59 13.88  L 5.47 11.76  L 4.41 12.82  L 7.59 16  Z M 18 4  C 18 2.9  17.1 2  16 2  L 15 2  L 15 0  L 13 0  L 13 2  L 5 2  L 5 0  L 3 0  L 3 2  L 2 2  C 0.89 2  0.00999999999999979 2.9  0 4  L 0 18  C 0 19.1  0.89 20  2 20  L 16 20  C 17.1 20  18 19.1  18 18  L 18 4  Z M 16 7  L 16 18  L 2 18  L 2 7  L 16 7  Z " fill-rule="nonzero" fill="#b3b3b3" stroke="none" transform="matrix(1 0 0 1 9 7 )" />
  </g>
</svg>