<?xml version="1.0" encoding="utf-8"?>
<svg version="1.1" xmlns:xlink="http://www.w3.org/1999/xlink" width="18px" height="18px" viewBox="154 161  18 18" xmlns="http://www.w3.org/2000/svg">
  <path d="M 154.5 164  A 2.5 2.5 0 0 1 157 161.5 L 169 161.5  A 2.5 2.5 0 0 1 171.5 164 L 171.5 176  A 2.5 2.5 0 0 1 169 178.5 L 157 178.5  A 2.5 2.5 0 0 1 154.5 176 L 154.5 164  Z " fill-rule="nonzero" fill="#f0f0f0" stroke="none" />
  <path d="M 154.5 164  A 2.5 2.5 0 0 1 157 161.5 L 169 161.5  A 2.5 2.5 0 0 1 171.5 164 L 171.5 176  A 2.5 2.5 0 0 1 169 178.5 L 157 178.5  A 2.5 2.5 0 0 1 154.5 176 L 154.5 164  Z " stroke-width="1" stroke="#797979" fill="none" />
  <path d="M 157.857142857143 170  L 161.714285714286 173.857142857143  L 168.142857142857 164.857142857143  " stroke-width="3.85714285714286" stroke="#797979" fill="none" />
</svg>