<?xml version="1.0" encoding="utf-8"?>
<svg version="1.1" xmlns:xlink="http://www.w3.org/1999/xlink" width="18px" height="18px" viewBox="154 61  18 18" xmlns="http://www.w3.org/2000/svg">
  <path d="M 154.5 64  A 2.5 2.5 0 0 1 157 61.5 L 169 61.5  A 2.5 2.5 0 0 1 171.5 64 L 171.5 76  A 2.5 2.5 0 0 1 169 78.5 L 157 78.5  A 2.5 2.5 0 0 1 154.5 76 L 154.5 64  Z " fill-rule="nonzero" fill="#ffffff" stroke="none" />
  <path d="M 154.5 64  A 2.5 2.5 0 0 1 157 61.5 L 169 61.5  A 2.5 2.5 0 0 1 171.5 64 L 171.5 76  A 2.5 2.5 0 0 1 169 78.5 L 157 78.5  A 2.5 2.5 0 0 1 154.5 76 L 154.5 64  Z " stroke-width="1" stroke="#797979" fill="none" />
</svg>