<?xml version="1.0" encoding="utf-8"?>
<svg version="1.1" xmlns:xlink="http://www.w3.org/1999/xlink" width="18px" height="18px" viewBox="154 11  18 18" xmlns="http://www.w3.org/2000/svg">
  <path d="M 154.5 14  A 2.5 2.5 0 0 1 157 11.5 L 169 11.5  A 2.5 2.5 0 0 1 171.5 14 L 171.5 26  A 2.5 2.5 0 0 1 169 28.5 L 157 28.5  A 2.5 2.5 0 0 1 154.5 26 L 154.5 14  Z " fill-rule="nonzero" fill="#f0f0f0" stroke="none" />
  <path d="M 154.5 14  A 2.5 2.5 0 0 1 157 11.5 L 169 11.5  A 2.5 2.5 0 0 1 171.5 14 L 171.5 26  A 2.5 2.5 0 0 1 169 28.5 L 157 28.5  A 2.5 2.5 0 0 1 154.5 26 L 154.5 14  Z " stroke-width="1" stroke="#797979" fill="none" />
</svg>