<?xml version="1.0" encoding="utf-8"?>
<svg version="1.1" xmlns:xlink="http://www.w3.org/1999/xlink" width="13px" height="11px" xmlns="http://www.w3.org/2000/svg">
  <g transform="matrix(1 0 0 1 -1009 -175 )">
    <path d="M 9.19140625 6.875  C 9.19140625 6.93706597222222  9.16722470238095 6.99197048611111  9.11886160714286 7.03971354166667  L 8.05970982142857 8.08528645833333  C 8.01134672619048 8.13302951388889  7.95572916666667 8.15690104166667  7.89285714285714 8.15690104166667  C 7.82998511904762 8.15690104166667  7.77436755952381 8.13302951388889  7.72600446428571 8.08528645833333  L 6.5 6.875  L 5.27399553571429 8.08528645833333  C 5.22563244047619 8.13302951388889  5.17001488095238 8.15690104166667  5.10714285714286 8.15690104166667  C 5.04427083333333 8.15690104166667  4.98865327380952 8.13302951388889  4.94029017857143 8.08528645833333  L 3.88113839285714 7.03971354166667  C 3.83277529761905 6.99197048611111  3.80859375 6.93706597222222  3.80859375 6.875  C 3.80859375 6.81293402777778  3.83277529761905 6.75802951388889  3.88113839285714 6.71028645833333  L 5.10714285714286 5.5  L 3.88113839285714 4.28971354166667  C 3.83277529761905 4.24197048611111  3.80859375 4.18706597222222  3.80859375 4.125  C 3.80859375 4.06293402777778  3.83277529761905 4.00802951388889  3.88113839285714 3.96028645833333  L 4.94029017857143 2.91471354166667  C 4.98865327380952 2.86697048611111  5.04427083333333 2.84309895833333  5.10714285714286 2.84309895833333  C 5.17001488095238 2.84309895833333  5.22563244047619 2.86697048611111  5.27399553571429 2.91471354166667  L 6.5 4.125  L 7.72600446428571 2.91471354166667  C 7.77436755952381 2.86697048611111  7.82998511904762 2.84309895833333  7.89285714285714 2.84309895833333  C 7.95572916666667 2.84309895833333  8.01134672619048 2.86697048611111  8.05970982142857 2.91471354166667  L 9.11886160714286 3.96028645833333  C 9.16722470238095 4.00802951388889  9.19140625 4.06293402777778  9.19140625 4.125  C 9.19140625 4.18706597222222  9.16722470238095 4.24197048611111  9.11886160714286 4.28971354166667  L 7.89285714285714 5.5  L 9.11886160714286 6.71028645833333  C 9.16722470238095 6.75802951388889  9.19140625 6.81293402777778  9.19140625 6.875  Z M 1.85714285714286 1.83333333333333  L 1.85714285714286 9.16666666666667  L 11.1428571428571 9.16666666666667  L 11.1428571428571 1.83333333333333  L 1.85714285714286 1.83333333333333  Z M 12.6590401785714 0.336588541666667  C 12.8863467261905 0.560980902777777  13 0.830729166666667  13 1.14583333333333  L 13 9.85416666666667  C 13 10.1692708333333  12.8863467261905 10.4390190972222  12.6590401785714 10.6634114583333  C 12.4317336309524 10.8878038194444  12.1584821428571 11  11.8392857142857 11  L 1.16071428571429 11  C 0.841517857142857 11  0.568266369047619 10.8878038194444  0.340959821428571 10.6634114583333  C 0.113653273809524 10.4390190972222  0 10.1692708333333  0 9.85416666666667  L 0 1.14583333333333  C 0 0.830729166666667  0.113653273809524 0.560980902777777  0.340959821428571 0.336588541666667  C 0.568266369047619 0.112196180555554  0.841517857142857 0  1.16071428571429 0  L 11.8392857142857 0  C 12.1584821428571 0  12.4317336309524 0.112196180555554  12.6590401785714 0.336588541666667  Z " fill-rule="nonzero" fill="#888888" stroke="none" transform="matrix(1 0 0 1 1009 175 )" />
  </g>
</svg>