<?xml version="1.0" encoding="utf-8"?>
<svg version="1.1" xmlns:xlink="http://www.w3.org/1999/xlink" width="16px" height="16px" viewBox="78 323  16 16" xmlns="http://www.w3.org/2000/svg">
  <path d="M 78.5 326  A 2.5 2.5 0 0 1 81 323.5 L 91 323.5  A 2.5 2.5 0 0 1 93.5 326 L 93.5 336  A 2.5 2.5 0 0 1 91 338.5 L 81 338.5  A 2.5 2.5 0 0 1 78.5 336 L 78.5 326  Z " fill-rule="nonzero" fill="#409eff" stroke="none" />
  <path d="M 78.5 326  A 2.5 2.5 0 0 1 81 323.5 L 91 323.5  A 2.5 2.5 0 0 1 93.5 326 L 93.5 336  A 2.5 2.5 0 0 1 91 338.5 L 81 338.5  A 2.5 2.5 0 0 1 78.5 336 L 78.5 326  Z " stroke-width="1" stroke="#f7f7f7" fill="none" />
  <path d="M 81.4285714285714 331  L 84.8571428571429 334.428571428571  L 90.5714285714286 326.428571428571  " stroke-width="3.42857142857143" stroke="#f7f7f7" fill="none" />
</svg>