<?xml version="1.0" encoding="utf-8"?>
<svg version="1.1" xmlns:xlink="http://www.w3.org/1999/xlink" width="16px" height="16px" viewBox="78 378  16 16" xmlns="http://www.w3.org/2000/svg">
  <path d="M 78.5 381  A 2.5 2.5 0 0 1 81 378.5 L 91 378.5  A 2.5 2.5 0 0 1 93.5 381 L 93.5 391  A 2.5 2.5 0 0 1 91 393.5 L 81 393.5  A 2.5 2.5 0 0 1 78.5 391 L 78.5 381  Z " fill-rule="nonzero" fill="#409eff" stroke="none" />
  <path d="M 78.5 381  A 2.5 2.5 0 0 1 81 378.5 L 91 378.5  A 2.5 2.5 0 0 1 93.5 381 L 93.5 391  A 2.5 2.5 0 0 1 91 393.5 L 81 393.5  A 2.5 2.5 0 0 1 78.5 391 L 78.5 381  Z " stroke-width="1" stroke="#f7f7f7" fill="none" />
  <path d="M 81.4285714285714 386  L 84.8571428571429 389.428571428571  L 90.5714285714286 381.428571428571  " stroke-width="3.42857142857143" stroke="#f7f7f7" fill="none" />
</svg>