<?xml version="1.0" encoding="utf-8"?>
<svg version="1.1" xmlns:xlink="http://www.w3.org/1999/xlink" width="16px" height="16px" viewBox="78 432  16 16" xmlns="http://www.w3.org/2000/svg">
  <path d="M 78.5 435  A 2.5 2.5 0 0 1 81 432.5 L 91 432.5  A 2.5 2.5 0 0 1 93.5 435 L 93.5 445  A 2.5 2.5 0 0 1 91 447.5 L 81 447.5  A 2.5 2.5 0 0 1 78.5 445 L 78.5 435  Z " fill-rule="nonzero" fill="#ffffff" stroke="none" />
  <path d="M 78.5 435  A 2.5 2.5 0 0 1 81 432.5 L 91 432.5  A 2.5 2.5 0 0 1 93.5 435 L 93.5 445  A 2.5 2.5 0 0 1 91 447.5 L 81 447.5  A 2.5 2.5 0 0 1 78.5 445 L 78.5 435  Z " stroke-width="1" stroke="#999999" fill="none" />
</svg>