<?xml version="1.0" encoding="utf-8"?>
<svg version="1.1" xmlns:xlink="http://www.w3.org/1999/xlink" width="16px" height="16px" viewBox="78 543  16 16" xmlns="http://www.w3.org/2000/svg">
  <path d="M 78.5 546  A 2.5 2.5 0 0 1 81 543.5 L 91 543.5  A 2.5 2.5 0 0 1 93.5 546 L 93.5 556  A 2.5 2.5 0 0 1 91 558.5 L 81 558.5  A 2.5 2.5 0 0 1 78.5 556 L 78.5 546  Z " fill-rule="nonzero" fill="#ffffff" stroke="none" />
  <path d="M 78.5 546  A 2.5 2.5 0 0 1 81 543.5 L 91 543.5  A 2.5 2.5 0 0 1 93.5 546 L 93.5 556  A 2.5 2.5 0 0 1 91 558.5 L 81 558.5  A 2.5 2.5 0 0 1 78.5 556 L 78.5 546  Z " stroke-width="1" stroke="#999999" fill="none" />
  <path d="M 81.4285714285714 551  L 84.8571428571429 554.428571428571  L 90.5714285714286 546.428571428571  " stroke-width="3.42857142857143" stroke="#999999" fill="none" />
</svg>