<?xml version="1.0" encoding="utf-8"?>
<svg version="1.1" xmlns:xlink="http://www.w3.org/1999/xlink" width="110px" height="35px" xmlns="http://www.w3.org/2000/svg">
  <g>
    <path d="M 0.5 5  A 4.5 4.5 0 0 1 5 0.5 L 105 0.5  A 4.5 4.5 0 0 1 109.5 5 L 109.5 30  A 4.5 4.5 0 0 1 105 34.5 L 5 34.5  A 4.5 4.5 0 0 1 0.5 30 L 0.5 5  Z " fill-rule="nonzero" fill="#f9f9f9" stroke="none" fill-opacity="0" />
    <path d="M 0.5 5  A 4.5 4.5 0 0 1 5 0.5 L 105 0.5  A 4.5 4.5 0 0 1 109.5 5 L 109.5 30  A 4.5 4.5 0 0 1 105 34.5 L 5 34.5  A 4.5 4.5 0 0 1 0.5 30 L 0.5 5  Z " stroke-width="1" stroke="#e4e4e4" fill="none" />
  </g>
</svg>