<?xml version="1.0" encoding="utf-8"?>
<svg version="1.1" xmlns:xlink="http://www.w3.org/1999/xlink" width="16px" height="16px" viewBox="78 268  16 16" xmlns="http://www.w3.org/2000/svg">
  <path d="M 78.5 271  A 2.5 2.5 0 0 1 81 268.5 L 91 268.5  A 2.5 2.5 0 0 1 93.5 271 L 93.5 281  A 2.5 2.5 0 0 1 91 283.5 L 81 283.5  A 2.5 2.5 0 0 1 78.5 281 L 78.5 271  Z " fill-rule="nonzero" fill="#f0f0f0" stroke="none" />
  <path d="M 78.5 271  A 2.5 2.5 0 0 1 81 268.5 L 91 268.5  A 2.5 2.5 0 0 1 93.5 271 L 93.5 281  A 2.5 2.5 0 0 1 91 283.5 L 81 283.5  A 2.5 2.5 0 0 1 78.5 281 L 78.5 271  Z " stroke-width="1" stroke="#999999" fill="none" />
  <path d="M 81.4285714285714 276  L 84.8571428571429 279.428571428571  L 90.5714285714286 271.428571428571  " stroke-width="3.42857142857143" stroke="#999999" fill="none" />
</svg>