<?xml version="1.0" encoding="utf-8"?>
<svg version="1.1" xmlns:xlink="http://www.w3.org/1999/xlink" width="16px" height="16px" viewBox="78 653  16 16" xmlns="http://www.w3.org/2000/svg">
  <path d="M 78.5 656  A 2.5 2.5 0 0 1 81 653.5 L 91 653.5  A 2.5 2.5 0 0 1 93.5 656 L 93.5 666  A 2.5 2.5 0 0 1 91 668.5 L 81 668.5  A 2.5 2.5 0 0 1 78.5 666 L 78.5 656  Z " fill-rule="nonzero" fill="#f0f0f0" stroke="none" />
  <path d="M 78.5 656  A 2.5 2.5 0 0 1 81 653.5 L 91 653.5  A 2.5 2.5 0 0 1 93.5 656 L 93.5 666  A 2.5 2.5 0 0 1 91 668.5 L 81 668.5  A 2.5 2.5 0 0 1 78.5 666 L 78.5 656  Z " stroke-width="1" stroke="#999999" fill="none" />
</svg>