<?xml version="1.0" encoding="utf-8"?>
<svg version="1.1" xmlns:xlink="http://www.w3.org/1999/xlink" width="16px" height="16px" viewBox="78 765  16 16" xmlns="http://www.w3.org/2000/svg">
  <path d="M 78.5 768  A 2.5 2.5 0 0 1 81 765.5 L 91 765.5  A 2.5 2.5 0 0 1 93.5 768 L 93.5 778  A 2.5 2.5 0 0 1 91 780.5 L 81 780.5  A 2.5 2.5 0 0 1 78.5 778 L 78.5 768  Z " fill-rule="nonzero" fill="#ffffff" stroke="none" />
  <path d="M 78.5 768  A 2.5 2.5 0 0 1 81 765.5 L 91 765.5  A 2.5 2.5 0 0 1 93.5 768 L 93.5 778  A 2.5 2.5 0 0 1 91 780.5 L 81 780.5  A 2.5 2.5 0 0 1 78.5 778 L 78.5 768  Z " stroke-width="1" stroke="#999999" fill="none" />
</svg>