<?xml version="1.0" encoding="utf-8"?>
<svg version="1.1" xmlns:xlink="http://www.w3.org/1999/xlink" width="16px" height="16px" viewBox="78 599  16 16" xmlns="http://www.w3.org/2000/svg">
  <path d="M 78.5 602  A 2.5 2.5 0 0 1 81 599.5 L 91 599.5  A 2.5 2.5 0 0 1 93.5 602 L 93.5 612  A 2.5 2.5 0 0 1 91 614.5 L 81 614.5  A 2.5 2.5 0 0 1 78.5 612 L 78.5 602  Z " fill-rule="nonzero" fill="#ffffff" stroke="none" />
  <path d="M 78.5 602  A 2.5 2.5 0 0 1 81 599.5 L 91 599.5  A 2.5 2.5 0 0 1 93.5 602 L 93.5 612  A 2.5 2.5 0 0 1 91 614.5 L 81 614.5  A 2.5 2.5 0 0 1 78.5 612 L 78.5 602  Z " stroke-width="1" stroke="#999999" fill="none" />
  <path d="M 81.4285714285714 607  L 84.8571428571429 610.428571428571  L 90.5714285714286 602.428571428571  " stroke-width="3.42857142857143" stroke="#999999" fill="none" />
</svg>