<?xml version="1.0" encoding="utf-8"?>
<svg version="1.1" xmlns:xlink="http://www.w3.org/1999/xlink" width="16px" height="16px" viewBox="78 820  16 16" xmlns="http://www.w3.org/2000/svg">
  <path d="M 78.5 823  A 2.5 2.5 0 0 1 81 820.5 L 91 820.5  A 2.5 2.5 0 0 1 93.5 823 L 93.5 833  A 2.5 2.5 0 0 1 91 835.5 L 81 835.5  A 2.5 2.5 0 0 1 78.5 833 L 78.5 823  Z " fill-rule="nonzero" fill="#f0f0f0" stroke="none" />
  <path d="M 78.5 823  A 2.5 2.5 0 0 1 81 820.5 L 91 820.5  A 2.5 2.5 0 0 1 93.5 823 L 93.5 833  A 2.5 2.5 0 0 1 91 835.5 L 81 835.5  A 2.5 2.5 0 0 1 78.5 833 L 78.5 823  Z " stroke-width="1" stroke="#999999" fill="none" />
  <path d="M 81.4285714285714 828  L 84.8571428571429 831.428571428571  L 90.5714285714286 823.428571428571  " stroke-width="3.42857142857143" stroke="#999999" fill="none" />
</svg>