<?xml version="1.0" encoding="utf-8"?>
<svg version="1.1" xmlns:xlink="http://www.w3.org/1999/xlink" width="50px" height="50px" xmlns="http://www.w3.org/2000/svg">
  <g transform="matrix(1 0 0 1 -356 -141 )">
    <path d="M 41.2109375 21.19140625  C 41.6015625 20.80078125  41.796875 20.3125  41.796875 19.7265625  C 41.796875 19.1189236111111  41.6015625 18.6197916666667  41.2109375 18.2291666666667  L 38.2486979166667 15.2994791666667  C 37.8363715277778 14.8871527777778  37.3480902777778 14.6809895833333  36.7838541666667 14.6809895833333  C 36.2196180555556 14.6809895833333  35.7313368055556 14.8871527777778  35.3190104166667 15.2994791666667  L 22.0377604166667 28.5481770833333  L 14.6809895833333 21.19140625  C 14.2686631944444 20.7790798611111  13.7803819444444 20.5729166666667  13.2161458333333 20.5729166666667  C 12.6519097222222 20.5729166666667  12.1636284722222 20.7790798611111  11.7513020833333 21.19140625  L 8.7890625 24.12109375  C 8.3984375 24.51171875  8.203125 25.0108506944444  8.203125 25.6184895833333  C 8.203125 26.2044270833333  8.3984375 26.6927083333333  8.7890625 27.0833333333333  L 20.5729166666667 38.8671875  C 20.9852430555556 39.2795138888889  21.4735243055556 39.4856770833333  22.0377604166667 39.4856770833333  C 22.6236979166667 39.4856770833333  23.1228298611111 39.2795138888889  23.53515625 38.8671875  L 41.2109375 21.19140625  Z M 46.6471354166667 12.451171875  C 48.8823784722222 16.2814670138889  50 20.4644097222222  50 25  C 50 29.5355902777778  48.8823784722222 33.7185329861111  46.6471354166667 37.548828125  C 44.4118923611111 41.3791232638889  41.3791232638889 44.4118923611111  37.548828125 46.6471354166667  C 33.7185329861111 48.8823784722222  29.5355902777778 50  25 50  C 20.4644097222222 50  16.2814670138889 48.8823784722222  12.451171875 46.6471354166667  C 8.62087673611111 44.4118923611111  5.58810763888889 41.3791232638889  3.35286458333333 37.548828125  C 1.11762152777778 33.7185329861111  0 29.5355902777778  0 25  C 0 20.4644097222222  1.11762152777778 16.2814670138889  3.35286458333333 12.451171875  C 5.58810763888889 8.62087673611111  8.62087673611111 5.58810763888888  12.451171875 3.35286458333333  C 16.2814670138889 1.11762152777777  20.4644097222222 0  25 0  C 29.5355902777778 0  33.7185329861111 1.11762152777777  37.548828125 3.35286458333333  C 41.3791232638889 5.58810763888888  44.4118923611111 8.62087673611111  46.6471354166667 12.451171875  Z " fill-rule="nonzero" fill="#26cbd2" stroke="none" transform="matrix(1 0 0 1 356 141 )" />
  </g>
</svg>