<?xml version="1.0" encoding="utf-8"?>
<svg version="1.1" xmlns:xlink="http://www.w3.org/1999/xlink" width="28px" height="28px" xmlns="http://www.w3.org/2000/svg">
  <g transform="matrix(1 0 0 1 -520 -112 )">
    <path d="M 20.1796875 16.9166666666667  C 20.1796875 17.0746527777778  20.1189236111111 17.2144097222222  19.9973958333333 17.3359375  L 17.3359375 19.9973958333333  C 17.2144097222222 20.1189236111111  17.0746527777778 20.1796875  16.9166666666667 20.1796875  C 16.7586805555556 20.1796875  16.6189236111111 20.1189236111111  16.4973958333333 19.9973958333333  L 14 17.5  L 11.5026041666667 19.9973958333333  C 11.3810763888889 20.1189236111111  11.2413194444444 20.1796875  11.0833333333333 20.1796875  C 10.9253472222222 20.1796875  10.7855902777778 20.1189236111111  10.6640625 19.9973958333333  L 8.00260416666667 17.3359375  C 7.88107638888889 17.2144097222222  7.8203125 17.0746527777778  7.8203125 16.9166666666667  C 7.8203125 16.7586805555556  7.88107638888889 16.6189236111111  8.00260416666667 16.4973958333333  L 10.5 14  L 8.00260416666667 11.5026041666667  C 7.88107638888889 11.3810763888889  7.8203125 11.2413194444444  7.8203125 11.0833333333333  C 7.8203125 10.9253472222222  7.88107638888889 10.7855902777778  8.00260416666667 10.6640625  L 10.6640625 8.00260416666667  C 10.7855902777778 7.88107638888889  10.9253472222222 7.8203125  11.0833333333333 7.8203125  C 11.2413194444444 7.8203125  11.3810763888889 7.88107638888889  11.5026041666667 8.00260416666667  L 14 10.5  L 16.4973958333333 8.00260416666667  C 16.6189236111111 7.88107638888889  16.7586805555556 7.8203125  16.9166666666667 7.8203125  C 17.0746527777778 7.8203125  17.2144097222222 7.88107638888889  17.3359375 8.00260416666667  L 19.9973958333333 10.6640625  C 20.1189236111111 10.7855902777778  20.1796875 10.9253472222222  20.1796875 11.0833333333333  C 20.1796875 11.2413194444444  20.1189236111111 11.3810763888889  19.9973958333333 11.5026041666667  L 17.5 14  L 19.9973958333333 16.4973958333333  C 20.1189236111111 16.6189236111111  20.1796875 16.7586805555556  20.1796875 16.9166666666667  Z M 22.5859375 18.9765625  C 23.4730902777778 17.4574652777778  23.9166666666667 15.7986111111111  23.9166666666667 14  C 23.9166666666667 12.2013888888889  23.4730902777778 10.5425347222222  22.5859375 9.0234375  C 21.6987847222222 7.50434027777778  20.4956597222222 6.30121527777778  18.9765625 5.4140625  C 17.4574652777778 4.52690972222222  15.7986111111111 4.08333333333333  14 4.08333333333333  C 12.2013888888889 4.08333333333333  10.5425347222222 4.52690972222222  9.0234375 5.4140625  C 7.50434027777778 6.30121527777778  6.30121527777778 7.50434027777778  5.4140625 9.0234375  C 4.52690972222222 10.5425347222222  4.08333333333333 12.2013888888889  4.08333333333333 14  C 4.08333333333333 15.7986111111111  4.52690972222222 17.4574652777778  5.4140625 18.9765625  C 6.30121527777778 20.4956597222222  7.50434027777778 21.6987847222222  9.0234375 22.5859375  C 10.5425347222222 23.4730902777778  12.2013888888889 23.9166666666667  14 23.9166666666667  C 15.7986111111111 23.9166666666667  17.4574652777778 23.4730902777778  18.9765625 22.5859375  C 20.4956597222222 21.6987847222222  21.6987847222222 20.4956597222222  22.5859375 18.9765625  Z M 26.1223958333333 6.97265625  C 27.3741319444444 9.11762152777778  28 11.4600694444444  28 14  C 28 16.5399305555556  27.3741319444444 18.8823784722222  26.1223958333333 21.02734375  C 24.8706597222222 23.1723090277778  23.1723090277778 24.8706597222222  21.02734375 26.1223958333333  C 18.8823784722222 27.3741319444444  16.5399305555556 28  14 28  C 11.4600694444444 28  9.11762152777778 27.3741319444444  6.97265625 26.1223958333333  C 4.82769097222222 24.8706597222222  3.12934027777778 23.1723090277778  1.87760416666667 21.02734375  C 0.625868055555555 18.8823784722222  0 16.5399305555556  0 14  C 0 11.4600694444444  0.625868055555555 9.11762152777778  1.87760416666667 6.97265625  C 3.12934027777778 4.82769097222222  4.82769097222222 3.12934027777778  6.97265625 1.87760416666667  C 9.11762152777778 0.625868055555553  11.4600694444444 0  14 0  C 16.5399305555556 0  18.8823784722222 0.625868055555553  21.02734375 1.87760416666667  C 23.1723090277778 3.12934027777778  24.8706597222222 4.82769097222222  26.1223958333333 6.97265625  Z " fill-rule="nonzero" fill="#000000" stroke="none" transform="matrix(1 0 0 1 520 112 )" />
  </g>
</svg>