<?xml version="1.0" encoding="utf-8"?>
<svg version="1.1" xmlns:xlink="http://www.w3.org/1999/xlink" width="151px" height="151px" xmlns="http://www.w3.org/2000/svg">
  <g transform="matrix(1 0 0 1 -506 -204 )">
    <path d="M 506 204  L 657 204  L 657 355  L 506 355  L 506 204  " fill-rule="nonzero" fill="#cccccc" stroke="none" />
    <path d="M 517 215  L 646 215  L 646 344  L 517 344  L 517 215  " fill-rule="nonzero" fill="#ffffff" stroke="none" />
    <path d="M 595.845 249.3  C 589.503 249.3  584.52 244.317  584.52 237.975  C 584.52 231.633  589.503 226.65  595.845 226.65  C 602.187 226.65  607.17 231.633  607.17 237.975  C 607.17 244.317  602.187 249.3  595.845 249.3  " fill-rule="nonzero" fill="#cccccc" stroke="none" />
    <path d="M 521 340  L 521 273.45  L 551.25 243.2  L 593.6 267.4  L 617.8 261.35  L 642 267.4  L 642 340  L 521 340  " fill-rule="nonzero" fill="#169bd5" stroke="none" />
  </g>
</svg>