<?xml version="1.0" encoding="utf-8"?>
<svg version="1.1" xmlns:xlink="http://www.w3.org/1999/xlink" width="46px" height="34px" xmlns="http://www.w3.org/2000/svg">
  <g transform="matrix(1 0 0 1 -559 -288 )">
    <path d="M 30.4390625 18.3160511363636  C 30.5907986111111 18.163115530303  30.6666666666667 17.9820075757576  30.6666666666667 17.7727272727273  C 30.6666666666667 17.5473484848485  30.5947916666667 17.3622159090909  30.4510416666667 17.2173295454545  L 22.0177083333333 8.71732954545454  C 21.8739583333333 8.57244318181818  21.6902777777778 8.5  21.4666666666667 8.5  C 21.2430555555556 8.5  21.059375 8.57244318181818  20.915625 8.71732954545454  L 12.50625 17.1931818181818  C 12.3465277777778 17.3863636363636  12.2666666666667 17.5795454545455  12.2666666666667 17.7727272727273  C 12.2666666666667 17.9981060606061  12.3385416666667 18.1832386363636  12.4822916666667 18.328125  C 12.6260416666667 18.4730113636364  12.8097222222222 18.5454545454545  13.0333333333333 18.5454545454545  L 18.4 18.5454545454545  L 18.4 27.0454545454545  C 18.4 27.2547348484848  18.4758680555556 27.4358428030303  18.6276041666667 27.5887784090909  C 18.7793402777778 27.7417140151515  18.9590277777778 27.8181818181818  19.1666666666667 27.8181818181818  L 23.7666666666667 27.8181818181818  C 23.9743055555556 27.8181818181818  24.1539930555556 27.7417140151515  24.3057291666667 27.5887784090909  C 24.4574652777778 27.4358428030303  24.5333333333333 27.2547348484848  24.5333333333333 27.0454545454545  L 24.5333333333333 18.5454545454545  L 29.9 18.5454545454545  C 30.1076388888889 18.5454545454545  30.2873263888889 18.4689867424242  30.4390625 18.3160511363636  Z M 43.9994791666667 18.9680397727273  C 45.3331597222222 20.6503314393939  46 22.5700757575758  46 24.7272727272727  C 46 27.2869318181818  45.1015625 29.4723011363636  43.3046875 31.2833806818182  C 41.5078125 33.0944602272727  39.3395833333333 34  36.8 34  L 10.7333333333333 34  C 7.77847222222222 34  5.25086805555556 32.9415246212121  3.15052083333333 30.8245738636364  C 1.05017361111111 28.7076231060606  0 26.1600378787879  0 23.1818181818182  C 0 21.0890151515151  0.559027777777778 19.157196969697  1.67708333333333 17.3863636363636  C 2.79513888888889 15.6155303030303  4.29652777777778 14.2874053030303  6.18125 13.4019886363636  C 6.14930555555556 12.9190340909091  6.13333333333333 12.5729166666667  6.13333333333333 12.3636363636364  C 6.13333333333333 8.95075757575757  7.33125 6.03693181818182  9.72708333333333 3.62215909090909  C 12.1229166666667 1.20738636363636  15.0138888888889 0  18.4 0  C 20.8916666666667 0  23.1717013888889 0.700284090909092  25.2401041666667 2.10085227272727  C 27.3085069444444 3.50142045454546  28.8138888888889 5.36079545454546  29.75625 7.67897727272727  C 30.8902777777778 6.68087121212121  32.2159722222222 6.18181818181818  33.7333333333333 6.18181818181818  C 35.4263888888889 6.18181818181818  36.871875 6.78551136363636  38.0697916666667 7.99289772727273  C 39.2677083333333 9.20028409090909  39.8666666666667 10.657196969697  39.8666666666667 12.3636363636364  C 39.8666666666667 13.5871212121212  39.5392361111111 14.6979166666667  38.884375 15.6960227272727  C 40.9607638888889 16.1950757575758  42.6657986111111 17.2857481060606  43.9994791666667 18.9680397727273  Z " fill-rule="nonzero" fill="#ffffff" stroke="none" transform="matrix(1 0 0 1 559 288 )" />
  </g>
</svg>