<?xml version="1.0" encoding="utf-8"?>
<svg version="1.1" xmlns:xlink="http://www.w3.org/1999/xlink" width="254px" height="34px" xmlns="http://www.w3.org/2000/svg">
  <g transform="matrix(1 0 0 1 -13 -94 )">
    <path d="M 14 97  A 2 2 0 0 1 16 95 L 264 95  A 2 2 0 0 1 266 97 L 266 125  A 2 2 0 0 1 264 127 L 16 127  A 2 2 0 0 1 14 125 L 14 97  Z " fill-rule="nonzero" fill="#2b85e4" stroke="none" fill-opacity="0.223529411764706" />
    <path d="M 13.5 97  A 2.5 2.5 0 0 1 16 94.5 L 264 94.5  A 2.5 2.5 0 0 1 266.5 97 L 266.5 125  A 2.5 2.5 0 0 1 264 127.5 L 16 127.5  A 2.5 2.5 0 0 1 13.5 125 L 13.5 97  Z " stroke-width="1" stroke="#2b85e4" fill="none" stroke-opacity="0.988235294117647" />
  </g>
</svg>