<?xml version="1.0" encoding="utf-8"?>
<svg version="1.1" xmlns:xlink="http://www.w3.org/1999/xlink" width="91px" height="40px" xmlns="http://www.w3.org/2000/svg">
  <g transform="matrix(1 0 0 1 -187 -113 )">
    <path d="M 187.5 116  A 2.5 2.5 0 0 1 190 113.5 L 275 113.5  A 2.5 2.5 0 0 1 277.5 116 L 277.5 150  A 2.5 2.5 0 0 1 275 152.5 L 190 152.5  A 2.5 2.5 0 0 1 187.5 150 L 187.5 116  Z " fill-rule="nonzero" fill="#f0f7ff" stroke="none" />
    <path d="M 187.5 116  A 2.5 2.5 0 0 1 190 113.5 L 275 113.5  A 2.5 2.5 0 0 1 277.5 116 L 277.5 150  A 2.5 2.5 0 0 1 275 152.5 L 190 152.5  A 2.5 2.5 0 0 1 187.5 150 L 187.5 116  Z " stroke-width="1" stroke="#409eff" fill="none" />
  </g>
</svg>