<?xml version="1.0" encoding="utf-8"?>
<svg version="1.1" xmlns:xlink="http://www.w3.org/1999/xlink" width="18px" height="18px" viewBox="194 257  18 18" xmlns="http://www.w3.org/2000/svg">
  <path d="M 194.5 260  A 2.5 2.5 0 0 1 197 257.5 L 209 257.5  A 2.5 2.5 0 0 1 211.5 260 L 211.5 272  A 2.5 2.5 0 0 1 209 274.5 L 197 274.5  A 2.5 2.5 0 0 1 194.5 272 L 194.5 260  Z " fill-rule="nonzero" fill="#409eff" stroke="none" />
  <path d="M 194.5 260  A 2.5 2.5 0 0 1 197 257.5 L 209 257.5  A 2.5 2.5 0 0 1 211.5 260 L 211.5 272  A 2.5 2.5 0 0 1 209 274.5 L 197 274.5  A 2.5 2.5 0 0 1 194.5 272 L 194.5 260  Z " stroke-width="1" stroke="#ffffff" fill="none" />
  <path d="M 197.857142857143 266  L 201.714285714286 269.857142857143  L 208.142857142857 260.857142857143  " stroke-width="3.85714285714286" stroke="#ffffff" fill="none" />
</svg>