<?xml version="1.0" encoding="utf-8"?>
<svg version="1.1" xmlns:xlink="http://www.w3.org/1999/xlink" width="18px" height="18px" viewBox="166 61  18 18" xmlns="http://www.w3.org/2000/svg">
  <path d="M 166.5 64  A 2.5 2.5 0 0 1 169 61.5 L 181 61.5  A 2.5 2.5 0 0 1 183.5 64 L 183.5 76  A 2.5 2.5 0 0 1 181 78.5 L 169 78.5  A 2.5 2.5 0 0 1 166.5 76 L 166.5 64  Z " fill-rule="nonzero" fill="#f0f0f0" stroke="none" />
  <path d="M 166.5 64  A 2.5 2.5 0 0 1 169 61.5 L 181 61.5  A 2.5 2.5 0 0 1 183.5 64 L 183.5 76  A 2.5 2.5 0 0 1 181 78.5 L 169 78.5  A 2.5 2.5 0 0 1 166.5 76 L 166.5 64  Z " stroke-width="1" stroke="#797979" fill="none" />
  <path d="M 169.857142857143 70  L 173.714285714286 73.8571428571428  L 180.142857142857 64.8571428571429  " stroke-width="3.85714285714286" stroke="#797979" fill="none" />
</svg>