<?xml version="1.0" encoding="utf-8"?>
<svg version="1.1" xmlns:xlink="http://www.w3.org/1999/xlink" width="18px" height="18px" viewBox="166 111  18 18" xmlns="http://www.w3.org/2000/svg">
  <path d="M 166.5 114  A 2.5 2.5 0 0 1 169 111.5 L 181 111.5  A 2.5 2.5 0 0 1 183.5 114 L 183.5 126  A 2.5 2.5 0 0 1 181 128.5 L 169 128.5  A 2.5 2.5 0 0 1 166.5 126 L 166.5 114  Z " fill-rule="nonzero" fill="#f0f0f0" stroke="none" />
  <path d="M 166.5 114  A 2.5 2.5 0 0 1 169 111.5 L 181 111.5  A 2.5 2.5 0 0 1 183.5 114 L 183.5 126  A 2.5 2.5 0 0 1 181 128.5 L 169 128.5  A 2.5 2.5 0 0 1 166.5 126 L 166.5 114  Z " stroke-width="1" stroke="#797979" fill="none" />
</svg>