<?xml version="1.0" encoding="utf-8"?>
<svg version="1.1" xmlns:xlink="http://www.w3.org/1999/xlink" width="18px" height="18px" viewBox="166 211  18 18" xmlns="http://www.w3.org/2000/svg">
  <path d="M 166.5 214  A 2.5 2.5 0 0 1 169 211.5 L 181 211.5  A 2.5 2.5 0 0 1 183.5 214 L 183.5 226  A 2.5 2.5 0 0 1 181 228.5 L 169 228.5  A 2.5 2.5 0 0 1 166.5 226 L 166.5 214  Z " fill-rule="nonzero" fill="#409eff" stroke="none" />
  <path d="M 166.5 214  A 2.5 2.5 0 0 1 169 211.5 L 181 211.5  A 2.5 2.5 0 0 1 183.5 214 L 183.5 226  A 2.5 2.5 0 0 1 181 228.5 L 169 228.5  A 2.5 2.5 0 0 1 166.5 226 L 166.5 214  Z " stroke-width="1" stroke="#ffffff" fill="none" />
  <path d="M 169.857142857143 220  L 173.714285714286 223.857142857143  L 180.142857142857 214.857142857143  " stroke-width="3.85714285714286" stroke="#ffffff" fill="none" />
</svg>