<?xml version="1.0" encoding="utf-8"?>
<svg version="1.1" xmlns:xlink="http://www.w3.org/1999/xlink" width="18px" height="18px" viewBox="149 161  18 18" xmlns="http://www.w3.org/2000/svg">
  <path d="M 149.5 164  A 2.5 2.5 0 0 1 152 161.5 L 164 161.5  A 2.5 2.5 0 0 1 166.5 164 L 166.5 176  A 2.5 2.5 0 0 1 164 178.5 L 152 178.5  A 2.5 2.5 0 0 1 149.5 176 L 149.5 164  Z " fill-rule="nonzero" fill="#ffffff" stroke="none" />
  <path d="M 149.5 164  A 2.5 2.5 0 0 1 152 161.5 L 164 161.5  A 2.5 2.5 0 0 1 166.5 164 L 166.5 176  A 2.5 2.5 0 0 1 164 178.5 L 152 178.5  A 2.5 2.5 0 0 1 149.5 176 L 149.5 164  Z " stroke-width="1" stroke="#797979" fill="none" />
</svg>