<?xml version="1.0" encoding="utf-8"?>
<svg version="1.1" xmlns:xlink="http://www.w3.org/1999/xlink" width="18px" height="18px" viewBox="264 62  18 18" xmlns="http://www.w3.org/2000/svg">
  <path d="M 264.5 65  A 2.5 2.5 0 0 1 267 62.5 L 279 62.5  A 2.5 2.5 0 0 1 281.5 65 L 281.5 77  A 2.5 2.5 0 0 1 279 79.5 L 267 79.5  A 2.5 2.5 0 0 1 264.5 77 L 264.5 65  Z " fill-rule="nonzero" fill="#ffffff" stroke="none" />
  <path d="M 264.5 65  A 2.5 2.5 0 0 1 267 62.5 L 279 62.5  A 2.5 2.5 0 0 1 281.5 65 L 281.5 77  A 2.5 2.5 0 0 1 279 79.5 L 267 79.5  A 2.5 2.5 0 0 1 264.5 77 L 264.5 65  Z " stroke-width="1" stroke="#797979" fill="none" />
</svg>