<?xml version="1.0" encoding="utf-8"?>
<svg version="1.1" xmlns:xlink="http://www.w3.org/1999/xlink" width="18px" height="18px" viewBox="149 62  18 18" xmlns="http://www.w3.org/2000/svg">
  <path d="M 149.5 65  A 2.5 2.5 0 0 1 152 62.5 L 164 62.5  A 2.5 2.5 0 0 1 166.5 65 L 166.5 77  A 2.5 2.5 0 0 1 164 79.5 L 152 79.5  A 2.5 2.5 0 0 1 149.5 77 L 149.5 65  Z " fill-rule="nonzero" fill="#f0f0f0" stroke="none" />
  <path d="M 149.5 65  A 2.5 2.5 0 0 1 152 62.5 L 164 62.5  A 2.5 2.5 0 0 1 166.5 65 L 166.5 77  A 2.5 2.5 0 0 1 164 79.5 L 152 79.5  A 2.5 2.5 0 0 1 149.5 77 L 149.5 65  Z " stroke-width="1" stroke="#797979" fill="none" />
  <path d="M 152.857142857143 71  L 156.714285714286 74.8571428571428  L 163.142857142857 65.8571428571429  " stroke-width="3.85714285714286" stroke="#797979" fill="none" />
</svg>