<?xml version="1.0" encoding="utf-8"?>
<svg version="1.1" xmlns:xlink="http://www.w3.org/1999/xlink" width="12px" height="12px" viewBox="216 118  12 12" xmlns="http://www.w3.org/2000/svg">
  <path d="M 222 118  C 225.36 118  228 120.64  228 124  C 228 127.36  225.36 130  222 130  C 218.64 130  216 127.36  216 124  C 216 120.64  218.64 118  222 118  Z " fill-rule="nonzero" fill="#ffffff" stroke="none" />
  <path d="M 222 118.5  C 225.08 118.5  227.5 120.92  227.5 124  C 227.5 127.08  225.08 129.5  222 129.5  C 218.92 129.5  216.5 127.08  216.5 124  C 216.5 120.92  218.92 118.5  222 118.5  Z " stroke-width="1" stroke="#0099ff" fill="none" />
  <path d="M 222 127  C 220.32 127  219 125.68  219 124  C 219 122.32  220.32 121  222 121  C 223.68 121  225 122.32  225 124  C 225 125.68  223.68 127  222 127  " fill-rule="nonzero" fill="#0099ff" stroke="none" />
</svg>