<?xml version="1.0" encoding="utf-8"?>
<svg version="1.1" xmlns:xlink="http://www.w3.org/1999/xlink" width="80px" height="30px" xmlns="http://www.w3.org/2000/svg">
  <g transform="matrix(1 0 0 1 -468 -731 )">
    <path d="M 468.5 736  A 4.5 4.5 0 0 1 473 731.5 L 543 731.5  A 4.5 4.5 0 0 1 547.5 736 L 547.5 756  A 4.5 4.5 0 0 1 543 760.5 L 473 760.5  A 4.5 4.5 0 0 1 468.5 756 L 468.5 736  Z " fill-rule="nonzero" fill="#f0f7ff" stroke="none" />
    <path d="M 468.5 736  A 4.5 4.5 0 0 1 473 731.5 L 543 731.5  A 4.5 4.5 0 0 1 547.5 736 L 547.5 756  A 4.5 4.5 0 0 1 543 760.5 L 473 760.5  A 4.5 4.5 0 0 1 468.5 756 L 468.5 736  Z " stroke-width="1" stroke="#409eff" fill="none" />
  </g>
</svg>