<?xml version="1.0" encoding="utf-8"?>
<svg version="1.1" xmlns:xlink="http://www.w3.org/1999/xlink" width="12px" height="12px" viewBox="290 118  12 12" xmlns="http://www.w3.org/2000/svg">
  <path d="M 296 118  C 299.36 118  302 120.64  302 124  C 302 127.36  299.36 130  296 130  C 292.64 130  290 127.36  290 124  C 290 120.64  292.64 118  296 118  Z " fill-rule="nonzero" fill="#ffffff" stroke="none" />
  <path d="M 296 118.5  C 299.08 118.5  301.5 120.92  301.5 124  C 301.5 127.08  299.08 129.5  296 129.5  C 292.92 129.5  290.5 127.08  290.5 124  C 290.5 120.92  292.92 118.5  296 118.5  Z " stroke-width="1" stroke="#0099ff" fill="none" />
  <path d="M 296 127  C 294.32 127  293 125.68  293 124  C 293 122.32  294.32 121  296 121  C 297.68 121  299 122.32  299 124  C 299 125.68  297.68 127  296 127  " fill-rule="nonzero" fill="#0099ff" stroke="none" />
</svg>