<?xml version="1.0" encoding="utf-8"?>
<svg version="1.1" xmlns:xlink="http://www.w3.org/1999/xlink" width="12px" height="12px" viewBox="83 6  12 12" xmlns="http://www.w3.org/2000/svg">
  <path d="M 89 6  C 92.36 6  95 8.64  95 12  C 95 15.36  92.36 18  89 18  C 85.64 18  83 15.36  83 12  C 83 8.64  85.64 6  89 6  Z " fill-rule="nonzero" fill="#f0f0f0" stroke="none" />
  <path d="M 89 6.5  C 92.08 6.5  94.5 8.92  94.5 12  C 94.5 15.08  92.08 17.5  89 17.5  C 85.92 17.5  83.5 15.08  83.5 12  C 83.5 8.92  85.92 6.5  89 6.5  Z " stroke-width="1" stroke="#797979" fill="none" />
  <path d="M 89 15  C 87.32 15  86 13.68  86 12  C 86 10.32  87.32 9  89 9  C 90.68 9  92 10.32  92 12  C 92 13.68  90.68 15  89 15  " fill-rule="nonzero" fill="#797979" stroke="none" />
</svg>