<?xml version="1.0" encoding="utf-8"?>
<svg version="1.1" xmlns:xlink="http://www.w3.org/1999/xlink" width="12px" height="12px" viewBox="180 6  12 12" xmlns="http://www.w3.org/2000/svg">
  <path d="M 186 6  C 189.36 6  192 8.64  192 12  C 192 15.36  189.36 18  186 18  C 182.64 18  180 15.36  180 12  C 180 8.64  182.64 6  186 6  Z " fill-rule="nonzero" fill="#ffffff" stroke="none" />
  <path d="M 186 6.5  C 189.08 6.5  191.5 8.92  191.5 12  C 191.5 15.08  189.08 17.5  186 17.5  C 182.92 17.5  180.5 15.08  180.5 12  C 180.5 8.92  182.92 6.5  186 6.5  Z " stroke-width="1" stroke="#0099ff" fill="none" />
  <path d="M 186 15  C 184.32 15  183 13.68  183 12  C 183 10.32  184.32 9  186 9  C 187.68 9  189 10.32  189 12  C 189 13.68  187.68 15  186 15  " fill-rule="nonzero" fill="#0099ff" stroke="none" />
</svg>