<?xml version="1.0" encoding="utf-8"?>
<svg version="1.1" xmlns:xlink="http://www.w3.org/1999/xlink" width="5px" height="7px" xmlns="http://www.w3.org/2000/svg">
  <g transform="matrix(1 0 0 1 -17 -15 )">
    <path d="M 0.8078125 6.34375  C 1.0453125 6.34375  1.253125 6.1619140625  1.253125 5.9541015625  L 1.253125 0.4990234375  C 1.253125 0.2912109375  1.0453125 0.109375  0.8078125 0.109375  C 0.5703125 0.109375  0.3625 0.2912109375  0.3625 0.4990234375  L 0.3625 5.9541015625  C 0.3625 6.1619140625  0.5703125 6.34375  0.8078125 6.34375  Z M 4.1921875 6.34375  C 4.4296875 6.34375  4.6375 6.1619140625  4.6375 5.9541015625  L 4.6375 0.4990234375  C 4.6375 0.2912109375  4.4296875 0.109375  4.1921875 0.109375  C 3.9546875 0.109375  3.746875 0.2912109375  3.746875 0.4990234375  L 3.746875 5.9541015625  C 3.746875 6.1619140625  3.9546875 6.34375  4.1921875 6.34375  Z " fill-rule="nonzero" fill="#999999" stroke="none" transform="matrix(1 0 0 1 17 15 )" />
  </g>
</svg>