<?xml version="1.0" encoding="utf-8"?>
<svg version="1.1" xmlns:xlink="http://www.w3.org/1999/xlink" width="15px" height="15px" xmlns="http://www.w3.org/2000/svg">
  <g transform="matrix(1 0 0 1 -12 -10 )">
    <path d="M 14.03125 3.7890625  C 14.03125 3.5515625  13.8234375 3.34375  13.5859375 3.34375  L 10.765625 3.34375  L 10.765625 2.3046875  C 10.765625 1.5625  10.171875 0.96875  9.4296875 0.96875  L 5.5703125 0.96875  C 4.828125 0.96875  4.234375 1.5625  4.234375 2.3046875  L 4.234375 3.34375  L 1.4140625 3.34375  C 1.1765625 3.34375  0.96875 3.5515625  0.96875 3.7890625  C 0.96875 4.0265625  1.1765625 4.234375  1.4140625 4.234375  L 13.5859375 4.234375  C 13.8234375 4.234375  14.03125 4.0265625  14.03125 3.7890625  Z M 9.875 3.34375  L 5.125 3.34375  L 5.125 2.3046875  C 5.125 2.0671875  5.3328125 1.859375  5.5703125 1.859375  L 9.4296875 1.859375  C 9.6671875 1.859375  9.875 2.0671875  9.875 2.3046875  L 9.875 3.34375  Z M 12.546875 5.5703125  C 12.5171875 5.3328125  12.309375 5.125  12.071875 5.125  C 11.834375 5.125  11.6265625 5.3328125  11.6265625 5.5703125  L 11.6265625 12.309375  C 11.6265625 12.7546875  11.2703125 13.140625  10.7953125 13.140625  L 4.175 13.140625  C 3.7296875 13.140625  3.34375 12.784375  3.34375 12.309375  L 3.34375 5.5703125  C 3.34375 5.3328125  3.1359375 5.125  2.8984375 5.125  C 2.6609375 5.125  2.453125 5.3328125  2.453125 5.5703125  L 2.453125 12.309375  C 2.453125 13.259375  3.225 14.03125  4.175 14.03125  L 10.825 14.03125  C 11.775 14.03125  12.546875 13.259375  12.546875 12.309375  L 12.546875 5.5703125  Z " fill-rule="nonzero" fill="#999999" stroke="none" transform="matrix(1 0 0 1 12 10 )" />
  </g>
</svg>