<?xml version="1.0" encoding="utf-8"?>
<svg version="1.1" xmlns:xlink="http://www.w3.org/1999/xlink" width="5px" height="8px" xmlns="http://www.w3.org/2000/svg">
  <g transform="matrix(1 0 0 1 -17 -15 )">
    <path d="M 0.8078125 7.25  C 1.0453125 7.25  1.253125 7.0421875  1.253125 6.8046875  L 1.253125 0.5703125  C 1.253125 0.3328125  1.0453125 0.125  0.8078125 0.125  C 0.5703125 0.125  0.3625 0.3328125  0.3625 0.5703125  L 0.3625 6.8046875  C 0.3625 7.0421875  0.5703125 7.25  0.8078125 7.25  Z M 4.1921875 7.25  C 4.4296875 7.25  4.6375 7.0421875  4.6375 6.8046875  L 4.6375 0.5703125  C 4.6375 0.3328125  4.4296875 0.125  4.1921875 0.125  C 3.9546875 0.125  3.746875 0.3328125  3.746875 0.5703125  L 3.746875 6.8046875  C 3.746875 7.0421875  3.9546875 7.25  4.1921875 7.25  Z " fill-rule="nonzero" fill="#f56c6c" stroke="none" transform="matrix(1 0 0 1 17 15 )" />
  </g>
</svg>