<?xml version="1.0" encoding="utf-8"?>
<svg version="1.1" xmlns:xlink="http://www.w3.org/1999/xlink" width="16px" height="4px" xmlns="http://www.w3.org/2000/svg">
  <g transform="matrix(1 0 0 1 -1578 -296 )">
    <path d="M 4 2  C 4 0.9  3.1 0  2 0  C 0.9 0  0 0.9  0 2  C 0 3.1  0.9 4  2 4  C 3.1 4  4 3.1  4 2  Z M 16 2  C 16 0.9  15.1 0  14 0  C 12.9 0  12 0.9  12 2  C 12 3.1  12.9 4  14 4  C 15.1 4  16 3.1  16 2  Z M 10 2  C 10 0.9  9.1 0  8 0  C 6.9 0  6 0.9  6 2  C 6 3.1  6.9 4  8 4  C 9.1 4  10 3.1  10 2  Z " fill-rule="nonzero" fill="#666666" stroke="none" transform="matrix(1 0 0 1 1578 296 )" />
  </g>
</svg>