<?xml version="1.0" encoding="utf-8"?>
<svg version="1.1" xmlns:xlink="http://www.w3.org/1999/xlink" width="16px" height="16px" viewBox="90 601  16 16" xmlns="http://www.w3.org/2000/svg">
  <path d="M 90.5 604  A 2.5 2.5 0 0 1 93 601.5 L 103 601.5  A 2.5 2.5 0 0 1 105.5 604 L 105.5 614  A 2.5 2.5 0 0 1 103 616.5 L 93 616.5  A 2.5 2.5 0 0 1 90.5 614 L 90.5 604  Z " fill-rule="nonzero" fill="#f0f0f0" stroke="none" />
  <path d="M 90.5 604  A 2.5 2.5 0 0 1 93 601.5 L 103 601.5  A 2.5 2.5 0 0 1 105.5 604 L 105.5 614  A 2.5 2.5 0 0 1 103 616.5 L 93 616.5  A 2.5 2.5 0 0 1 90.5 614 L 90.5 604  Z " stroke-width="1" stroke="#999999" fill="none" />
</svg>