<?xml version="1.0" encoding="utf-8"?>
<svg version="1.1" xmlns:xlink="http://www.w3.org/1999/xlink" width="28px" height="30px" xmlns="http://www.w3.org/2000/svg">
  <g transform="matrix(1 0 0 1 -99 -102 )">
    <path d="M 27.0100000097656 17.6049999902344  C 27.1965000195312 10.6129999804688  21.3120000195313 4.7835  13.8659999902344 4.584  C 13.7414999902344 4.58049999023438  13.6194999804688 4.58750000976562  13.4954999902344 4.58799999023437  L 13.4954999902344 1.65999999023437  C 13.4954999902344 0.857499990234375  12.5975 0.381999990234375  11.9335000097656 0.8325  L 1.42450000976563 7.9695  C 1.15042511401077 8.15564033090423  0.986333996760067 8.46544157681675  0.986333996760067 8.79675  C 0.986333996760067 9.12805842318324  1.15042511401077 9.43785966909577  1.42450000976562 9.624  L 11.9345 16.7604999902344  C 12.5984999902344 17.2114999804688  13.4965000097656 16.7359999804687  13.4965000097656 15.933  L 13.4965000097656 12.972  C 18.56 12.9105  22.7710000097656 16.4450000097656  22.9745 21.0155000097656  C 23.1305 24.5215000195312  20.882 27.6295000195312  17.5484999902344 29.0649999902344  C 17.4879999804688 29.091  17.4245 29.142  17.4299999902344 29.2460000097656  C 17.4344999902344 29.331  17.5209999804688 29.3560000195313  17.5979999902344 29.3330000097656  C 22.9334999902344 27.7640000097656  26.8615000097656 23.1534999902344  27.0100000097656 17.6049999902344  Z " fill-rule="nonzero" fill="#7f7f7f" stroke="none" fill-opacity="0.996078431372549" transform="matrix(1 0 0 1 99 102 )" />
  </g>
</svg>