<?xml version="1.0" encoding="utf-8"?>
<svg version="1.1" xmlns:xlink="http://www.w3.org/1999/xlink" width="18px" height="18px" viewBox="194 106  18 18" xmlns="http://www.w3.org/2000/svg">
  <path d="M 194.5 109  A 2.5 2.5 0 0 1 197 106.5 L 209 106.5  A 2.5 2.5 0 0 1 211.5 109 L 211.5 121  A 2.5 2.5 0 0 1 209 123.5 L 197 123.5  A 2.5 2.5 0 0 1 194.5 121 L 194.5 109  Z " fill-rule="nonzero" fill="#ffffff" stroke="none" />
  <path d="M 194.5 109  A 2.5 2.5 0 0 1 197 106.5 L 209 106.5  A 2.5 2.5 0 0 1 211.5 109 L 211.5 121  A 2.5 2.5 0 0 1 209 123.5 L 197 123.5  A 2.5 2.5 0 0 1 194.5 121 L 194.5 109  Z " stroke-width="1" stroke="#797979" fill="none" />
</svg>