<?xml version="1.0" encoding="utf-8"?>
<svg version="1.1" xmlns:xlink="http://www.w3.org/1999/xlink" width="18px" height="18px" viewBox="625 316  18 18" xmlns="http://www.w3.org/2000/svg">
  <path d="M 634 316  C 639.04 316  643 319.96  643 325  C 643 330.04  639.04 334  634 334  C 628.96 334  625 330.04  625 325  C 625 319.96  628.96 316  634 316  Z " fill-rule="nonzero" fill="#ffffff" stroke="none" />
  <path d="M 634 316.5  C 638.76 316.5  642.5 320.24  642.5 325  C 642.5 329.76  638.76 333.5  634 333.5  C 629.24 333.5  625.5 329.76  625.5 325  C 625.5 320.24  629.24 316.5  634 316.5  Z " stroke-width="1" stroke="#0099ff" fill="none" />
  <path d="M 634 329.5  C 631.48 329.5  629.5 327.52  629.5 325  C 629.5 322.48  631.48 320.5  634 320.5  C 636.52 320.5  638.5 322.48  638.5 325  C 638.5 327.52  636.52 329.5  634 329.5  " fill-rule="nonzero" fill="#0099ff" stroke="none" />
</svg>