<?xml version="1.0" encoding="utf-8"?>
<svg version="1.1" xmlns:xlink="http://www.w3.org/1999/xlink" width="18px" height="18px" viewBox="541 316  18 18" xmlns="http://www.w3.org/2000/svg">
  <path d="M 550 320  C 552.8 320  555 322.2  555 325  C 555 327.8  552.8 330  550 330  C 547.2 330  545 327.8  545 325  C 545 322.2  547.2 320  550 320  Z " fill-rule="nonzero" fill="#ffffff" stroke="none" />
  <path d="M 550 318.5  C 553.64 318.5  556.5 321.36  556.5 325  C 556.5 328.64  553.64 331.5  550 331.5  C 546.36 331.5  543.5 328.64  543.5 325  C 543.5 321.36  546.36 318.5  550 318.5  Z " stroke-width="5" stroke="#0099ff" fill="none" />
  <path d="M 550 329.5  C 547.48 329.5  545.5 327.52  545.5 325  C 545.5 322.48  547.48 320.5  550 320.5  C 552.52 320.5  554.5 322.48  554.5 325  C 554.5 327.52  552.52 329.5  550 329.5  " fill-rule="nonzero" fill="#0099ff" stroke="none" />
</svg>