<?xml version="1.0" encoding="utf-8"?>
<svg version="1.1" xmlns:xlink="http://www.w3.org/1999/xlink" width="18px" height="18px" viewBox="194 206  18 18" xmlns="http://www.w3.org/2000/svg">
  <path d="M 194.5 209  A 2.5 2.5 0 0 1 197 206.5 L 209 206.5  A 2.5 2.5 0 0 1 211.5 209 L 211.5 221  A 2.5 2.5 0 0 1 209 223.5 L 197 223.5  A 2.5 2.5 0 0 1 194.5 221 L 194.5 209  Z " fill-rule="nonzero" fill="#f0f0f0" stroke="none" />
  <path d="M 194.5 209  A 2.5 2.5 0 0 1 197 206.5 L 209 206.5  A 2.5 2.5 0 0 1 211.5 209 L 211.5 221  A 2.5 2.5 0 0 1 209 223.5 L 197 223.5  A 2.5 2.5 0 0 1 194.5 221 L 194.5 209  Z " stroke-width="1" stroke="#797979" fill="none" />
</svg>