<?xml version="1.0" encoding="utf-8"?>
<svg version="1.1" xmlns:xlink="http://www.w3.org/1999/xlink" width="16px" height="16px" viewBox="84 504  16 16" xmlns="http://www.w3.org/2000/svg">
  <path d="M 84.5 507  A 2.5 2.5 0 0 1 87 504.5 L 97 504.5  A 2.5 2.5 0 0 1 99.5 507 L 99.5 517  A 2.5 2.5 0 0 1 97 519.5 L 87 519.5  A 2.5 2.5 0 0 1 84.5 517 L 84.5 507  Z " fill-rule="nonzero" fill="#ffffff" stroke="none" />
  <path d="M 84.5 507  A 2.5 2.5 0 0 1 87 504.5 L 97 504.5  A 2.5 2.5 0 0 1 99.5 507 L 99.5 517  A 2.5 2.5 0 0 1 97 519.5 L 87 519.5  A 2.5 2.5 0 0 1 84.5 517 L 84.5 507  Z " stroke-width="1" stroke="#999999" fill="none" />
</svg>