<?xml version="1.0" encoding="utf-8"?>
<svg version="1.1" xmlns:xlink="http://www.w3.org/1999/xlink" width="16px" height="16px" viewBox="84 504  16 16" xmlns="http://www.w3.org/2000/svg">
  <path d="M 84.5 507  A 2.5 2.5 0 0 1 87 504.5 L 97 504.5  A 2.5 2.5 0 0 1 99.5 507 L 99.5 517  A 2.5 2.5 0 0 1 97 519.5 L 87 519.5  A 2.5 2.5 0 0 1 84.5 517 L 84.5 507  Z " fill-rule="nonzero" fill="#f0f0f0" stroke="none" />
  <path d="M 84.5 507  A 2.5 2.5 0 0 1 87 504.5 L 97 504.5  A 2.5 2.5 0 0 1 99.5 507 L 99.5 517  A 2.5 2.5 0 0 1 97 519.5 L 87 519.5  A 2.5 2.5 0 0 1 84.5 517 L 84.5 507  Z " stroke-width="1" stroke="#999999" fill="none" />
  <path d="M 87.4285714285714 512  L 90.8571428571429 515.428571428571  L 96.5714285714286 507.428571428571  " stroke-width="3.42857142857143" stroke="#999999" fill="none" />
</svg>