<?xml version="1.0" encoding="utf-8"?>
<svg version="1.1" xmlns:xlink="http://www.w3.org/1999/xlink" width="16px" height="16px" viewBox="84 284  16 16" xmlns="http://www.w3.org/2000/svg">
  <path d="M 84.5 287  A 2.5 2.5 0 0 1 87 284.5 L 97 284.5  A 2.5 2.5 0 0 1 99.5 287 L 99.5 297  A 2.5 2.5 0 0 1 97 299.5 L 87 299.5  A 2.5 2.5 0 0 1 84.5 297 L 84.5 287  Z " fill-rule="nonzero" fill="#ffffff" stroke="none" />
  <path d="M 84.5 287  A 2.5 2.5 0 0 1 87 284.5 L 97 284.5  A 2.5 2.5 0 0 1 99.5 287 L 99.5 297  A 2.5 2.5 0 0 1 97 299.5 L 87 299.5  A 2.5 2.5 0 0 1 84.5 297 L 84.5 287  Z " stroke-width="1" stroke="#999999" fill="none" />
</svg>