<?xml version="1.0" encoding="utf-8"?>
<svg version="1.1" xmlns:xlink="http://www.w3.org/1999/xlink" width="16px" height="16px" viewBox="84 779  16 16" xmlns="http://www.w3.org/2000/svg">
  <path d="M 84.5 782  A 2.5 2.5 0 0 1 87 779.5 L 97 779.5  A 2.5 2.5 0 0 1 99.5 782 L 99.5 792  A 2.5 2.5 0 0 1 97 794.5 L 87 794.5  A 2.5 2.5 0 0 1 84.5 792 L 84.5 782  Z " fill-rule="nonzero" fill="#f0f0f0" stroke="none" />
  <path d="M 84.5 782  A 2.5 2.5 0 0 1 87 779.5 L 97 779.5  A 2.5 2.5 0 0 1 99.5 782 L 99.5 792  A 2.5 2.5 0 0 1 97 794.5 L 87 794.5  A 2.5 2.5 0 0 1 84.5 792 L 84.5 782  Z " stroke-width="1" stroke="#999999" fill="none" />
  <path d="M 87.4285714285714 787  L 90.8571428571429 790.428571428571  L 96.5714285714286 782.428571428571  " stroke-width="3.42857142857143" stroke="#999999" fill="none" />
</svg>