<?xml version="1.0" encoding="utf-8"?>
<svg version="1.1" xmlns:xlink="http://www.w3.org/1999/xlink" width="16px" height="16px" viewBox="84 559  16 16" xmlns="http://www.w3.org/2000/svg">
  <path d="M 84.5 562  A 2.5 2.5 0 0 1 87 559.5 L 97 559.5  A 2.5 2.5 0 0 1 99.5 562 L 99.5 572  A 2.5 2.5 0 0 1 97 574.5 L 87 574.5  A 2.5 2.5 0 0 1 84.5 572 L 84.5 562  Z " fill-rule="nonzero" fill="#ffffff" stroke="none" />
  <path d="M 84.5 562  A 2.5 2.5 0 0 1 87 559.5 L 97 559.5  A 2.5 2.5 0 0 1 99.5 562 L 99.5 572  A 2.5 2.5 0 0 1 97 574.5 L 87 574.5  A 2.5 2.5 0 0 1 84.5 572 L 84.5 562  Z " stroke-width="1" stroke="#999999" fill="none" />
  <path d="M 87.4285714285714 567  L 90.8571428571429 570.428571428571  L 96.5714285714286 562.428571428571  " stroke-width="3.42857142857143" stroke="#999999" fill="none" />
</svg>