<?xml version="1.0" encoding="utf-8"?>
<svg version="1.1" xmlns:xlink="http://www.w3.org/1999/xlink" width="16px" height="16px" viewBox="84 669  16 16" xmlns="http://www.w3.org/2000/svg">
  <path d="M 84.5 672  A 2.5 2.5 0 0 1 87 669.5 L 97 669.5  A 2.5 2.5 0 0 1 99.5 672 L 99.5 682  A 2.5 2.5 0 0 1 97 684.5 L 87 684.5  A 2.5 2.5 0 0 1 84.5 682 L 84.5 672  Z " fill-rule="nonzero" fill="#f0f0f0" stroke="none" />
  <path d="M 84.5 672  A 2.5 2.5 0 0 1 87 669.5 L 97 669.5  A 2.5 2.5 0 0 1 99.5 672 L 99.5 682  A 2.5 2.5 0 0 1 97 684.5 L 87 684.5  A 2.5 2.5 0 0 1 84.5 682 L 84.5 672  Z " stroke-width="1" stroke="#999999" fill="none" />
</svg>