<?xml version="1.0" encoding="utf-8"?>
<svg version="1.1" xmlns:xlink="http://www.w3.org/1999/xlink" width="18px" height="18px" viewBox="545 332  18 18" xmlns="http://www.w3.org/2000/svg">
  <path d="M 554 332  C 559.04 332  563 335.96  563 341  C 563 346.04  559.04 350  554 350  C 548.96 350  545 346.04  545 341  C 545 335.96  548.96 332  554 332  Z " fill-rule="nonzero" fill="#ffffff" stroke="none" />
  <path d="M 554 332.5  C 558.76 332.5  562.5 336.24  562.5 341  C 562.5 345.76  558.76 349.5  554 349.5  C 549.24 349.5  545.5 345.76  545.5 341  C 545.5 336.24  549.24 332.5  554 332.5  Z " stroke-width="1" stroke="#0099ff" fill="none" />
  <path d="M 554 345.5  C 551.48 345.5  549.5 343.52  549.5 341  C 549.5 338.48  551.48 336.5  554 336.5  C 556.52 336.5  558.5 338.48  558.5 341  C 558.5 343.52  556.52 345.5  554 345.5  " fill-rule="nonzero" fill="#0099ff" stroke="none" />
</svg>