<?xml version="1.0" encoding="utf-8"?>
<svg version="1.1" xmlns:xlink="http://www.w3.org/1999/xlink" width="16px" height="16px" viewBox="19 513  16 16" xmlns="http://www.w3.org/2000/svg">
  <path d="M 19.5 516  A 2.5 2.5 0 0 1 22 513.5 L 32 513.5  A 2.5 2.5 0 0 1 34.5 516 L 34.5 526  A 2.5 2.5 0 0 1 32 528.5 L 22 528.5  A 2.5 2.5 0 0 1 19.5 526 L 19.5 516  Z " fill-rule="nonzero" fill="#f0f0f0" stroke="none" />
  <path d="M 19.5 516  A 2.5 2.5 0 0 1 22 513.5 L 32 513.5  A 2.5 2.5 0 0 1 34.5 516 L 34.5 526  A 2.5 2.5 0 0 1 32 528.5 L 22 528.5  A 2.5 2.5 0 0 1 19.5 526 L 19.5 516  Z " stroke-width="1" stroke="#999999" fill="none" />
</svg>