<?xml version="1.0" encoding="utf-8"?>
<svg version="1.1" xmlns:xlink="http://www.w3.org/1999/xlink" width="16px" height="16px" viewBox="19 348  16 16" xmlns="http://www.w3.org/2000/svg">
  <path d="M 19.5 351  A 2.5 2.5 0 0 1 22 348.5 L 32 348.5  A 2.5 2.5 0 0 1 34.5 351 L 34.5 361  A 2.5 2.5 0 0 1 32 363.5 L 22 363.5  A 2.5 2.5 0 0 1 19.5 361 L 19.5 351  Z " fill-rule="nonzero" fill="#ffffff" stroke="none" />
  <path d="M 19.5 351  A 2.5 2.5 0 0 1 22 348.5 L 32 348.5  A 2.5 2.5 0 0 1 34.5 351 L 34.5 361  A 2.5 2.5 0 0 1 32 363.5 L 22 363.5  A 2.5 2.5 0 0 1 19.5 361 L 19.5 351  Z " stroke-width="1" stroke="#999999" fill="none" />
  <path d="M 22.4285714285714 356  L 25.8571428571429 359.428571428571  L 31.5714285714286 351.428571428571  " stroke-width="3.42857142857143" stroke="#999999" fill="none" />
</svg>