<?xml version="1.0" encoding="utf-8"?>
<svg version="1.1" xmlns:xlink="http://www.w3.org/1999/xlink" width="16px" height="16px" viewBox="19 237  16 16" xmlns="http://www.w3.org/2000/svg">
  <path d="M 19.5 240  A 2.5 2.5 0 0 1 22 237.5 L 32 237.5  A 2.5 2.5 0 0 1 34.5 240 L 34.5 250  A 2.5 2.5 0 0 1 32 252.5 L 22 252.5  A 2.5 2.5 0 0 1 19.5 250 L 19.5 240  Z " fill-rule="nonzero" fill="#f0f0f0" stroke="none" />
  <path d="M 19.5 240  A 2.5 2.5 0 0 1 22 237.5 L 32 237.5  A 2.5 2.5 0 0 1 34.5 240 L 34.5 250  A 2.5 2.5 0 0 1 32 252.5 L 22 252.5  A 2.5 2.5 0 0 1 19.5 250 L 19.5 240  Z " stroke-width="1" stroke="#999999" fill="none" />
  <path d="M 22.4285714285714 245  L 25.8571428571429 248.428571428571  L 31.5714285714286 240.428571428571  " stroke-width="3.42857142857143" stroke="#999999" fill="none" />
</svg>