<?xml version="1.0" encoding="utf-8"?>
<svg version="1.1" xmlns:xlink="http://www.w3.org/1999/xlink" width="16px" height="16px" viewBox="19 73  16 16" xmlns="http://www.w3.org/2000/svg">
  <path d="M 19.5 76  A 2.5 2.5 0 0 1 22 73.5 L 32 73.5  A 2.5 2.5 0 0 1 34.5 76 L 34.5 86  A 2.5 2.5 0 0 1 32 88.5 L 22 88.5  A 2.5 2.5 0 0 1 19.5 86 L 19.5 76  Z " fill-rule="nonzero" fill="#ffffff" stroke="none" />
  <path d="M 19.5 76  A 2.5 2.5 0 0 1 22 73.5 L 32 73.5  A 2.5 2.5 0 0 1 34.5 76 L 34.5 86  A 2.5 2.5 0 0 1 32 88.5 L 22 88.5  A 2.5 2.5 0 0 1 19.5 86 L 19.5 76  Z " stroke-width="1" stroke="#999999" fill="none" />
  <path d="M 22.4285714285714 81  L 25.8571428571429 84.4285714285714  L 31.5714285714286 76.4285714285714  " stroke-width="3.42857142857143" stroke="#999999" fill="none" />
</svg>