<?xml version="1.0" encoding="utf-8"?>
<svg version="1.1" xmlns:xlink="http://www.w3.org/1999/xlink" width="16px" height="16px" viewBox="19 403  16 16" xmlns="http://www.w3.org/2000/svg">
  <path d="M 19.5 406  A 2.5 2.5 0 0 1 22 403.5 L 32 403.5  A 2.5 2.5 0 0 1 34.5 406 L 34.5 416  A 2.5 2.5 0 0 1 32 418.5 L 22 418.5  A 2.5 2.5 0 0 1 19.5 416 L 19.5 406  Z " fill-rule="nonzero" fill="#f0f0f0" stroke="none" />
  <path d="M 19.5 406  A 2.5 2.5 0 0 1 22 403.5 L 32 403.5  A 2.5 2.5 0 0 1 34.5 406 L 34.5 416  A 2.5 2.5 0 0 1 32 418.5 L 22 418.5  A 2.5 2.5 0 0 1 19.5 416 L 19.5 406  Z " stroke-width="1" stroke="#999999" fill="none" />
  <path d="M 22.4285714285714 411  L 25.8571428571429 414.428571428571  L 31.5714285714286 406.428571428571  " stroke-width="3.42857142857143" stroke="#999999" fill="none" />
</svg>