<?xml version="1.0" encoding="utf-8"?>
<svg version="1.1" xmlns:xlink="http://www.w3.org/1999/xlink" width="16px" height="16px" viewBox="19 187  16 16" xmlns="http://www.w3.org/2000/svg">
  <path d="M 19.5 190  A 2.5 2.5 0 0 1 22 187.5 L 32 187.5  A 2.5 2.5 0 0 1 34.5 190 L 34.5 200  A 2.5 2.5 0 0 1 32 202.5 L 22 202.5  A 2.5 2.5 0 0 1 19.5 200 L 19.5 190  Z " fill-rule="nonzero" fill="#f0f0f0" stroke="none" />
  <path d="M 19.5 190  A 2.5 2.5 0 0 1 22 187.5 L 32 187.5  A 2.5 2.5 0 0 1 34.5 190 L 34.5 200  A 2.5 2.5 0 0 1 32 202.5 L 22 202.5  A 2.5 2.5 0 0 1 19.5 200 L 19.5 190  Z " stroke-width="1" stroke="#999999" fill="none" />
</svg>