<?xml version="1.0" encoding="utf-8"?>
<svg version="1.1" xmlns:xlink="http://www.w3.org/1999/xlink" width="16px" height="16px" viewBox="19 293  16 16" xmlns="http://www.w3.org/2000/svg">
  <path d="M 19.5 296  A 2.5 2.5 0 0 1 22 293.5 L 32 293.5  A 2.5 2.5 0 0 1 34.5 296 L 34.5 306  A 2.5 2.5 0 0 1 32 308.5 L 22 308.5  A 2.5 2.5 0 0 1 19.5 306 L 19.5 296  Z " fill-rule="nonzero" fill="#ffffff" stroke="none" />
  <path d="M 19.5 296  A 2.5 2.5 0 0 1 22 293.5 L 32 293.5  A 2.5 2.5 0 0 1 34.5 296 L 34.5 306  A 2.5 2.5 0 0 1 32 308.5 L 22 308.5  A 2.5 2.5 0 0 1 19.5 306 L 19.5 296  Z " stroke-width="1" stroke="#999999" fill="none" />
</svg>