<?xml version="1.0" encoding="utf-8"?>
<svg version="1.1" xmlns:xlink="http://www.w3.org/1999/xlink" width="16px" height="16px" viewBox="375 378  16 16" xmlns="http://www.w3.org/2000/svg">
  <path d="M 375.5 381  A 2.5 2.5 0 0 1 378 378.5 L 388 378.5  A 2.5 2.5 0 0 1 390.5 381 L 390.5 391  A 2.5 2.5 0 0 1 388 393.5 L 378 393.5  A 2.5 2.5 0 0 1 375.5 391 L 375.5 381  Z " fill-rule="nonzero" fill="#ffffff" stroke="none" />
  <path d="M 375.5 381  A 2.5 2.5 0 0 1 378 378.5 L 388 378.5  A 2.5 2.5 0 0 1 390.5 381 L 390.5 391  A 2.5 2.5 0 0 1 388 393.5 L 378 393.5  A 2.5 2.5 0 0 1 375.5 391 L 375.5 381  Z " stroke-width="1" stroke="#999999" fill="none" />
</svg>