<?xml version="1.0" encoding="utf-8"?>
<svg version="1.1" xmlns:xlink="http://www.w3.org/1999/xlink" width="16px" height="16px" viewBox="375 437  16 16" xmlns="http://www.w3.org/2000/svg">
  <path d="M 375.5 440  A 2.5 2.5 0 0 1 378 437.5 L 388 437.5  A 2.5 2.5 0 0 1 390.5 440 L 390.5 450  A 2.5 2.5 0 0 1 388 452.5 L 378 452.5  A 2.5 2.5 0 0 1 375.5 450 L 375.5 440  Z " fill-rule="nonzero" fill="#ffffff" stroke="none" />
  <path d="M 375.5 440  A 2.5 2.5 0 0 1 378 437.5 L 388 437.5  A 2.5 2.5 0 0 1 390.5 440 L 390.5 450  A 2.5 2.5 0 0 1 388 452.5 L 378 452.5  A 2.5 2.5 0 0 1 375.5 450 L 375.5 440  Z " stroke-width="1" stroke="#999999" fill="none" />
</svg>