<?xml version="1.0" encoding="utf-8"?>
<svg version="1.1" xmlns:xlink="http://www.w3.org/1999/xlink" width="16px" height="16px" viewBox="375 708  16 16" xmlns="http://www.w3.org/2000/svg">
  <path d="M 375.5 711  A 2.5 2.5 0 0 1 378 708.5 L 388 708.5  A 2.5 2.5 0 0 1 390.5 711 L 390.5 721  A 2.5 2.5 0 0 1 388 723.5 L 378 723.5  A 2.5 2.5 0 0 1 375.5 721 L 375.5 711  Z " fill-rule="nonzero" fill="#f0f0f0" stroke="none" />
  <path d="M 375.5 711  A 2.5 2.5 0 0 1 378 708.5 L 388 708.5  A 2.5 2.5 0 0 1 390.5 711 L 390.5 721  A 2.5 2.5 0 0 1 388 723.5 L 378 723.5  A 2.5 2.5 0 0 1 375.5 721 L 375.5 711  Z " stroke-width="1" stroke="#999999" fill="none" />
</svg>