<?xml version="1.0" encoding="utf-8"?>
<svg version="1.1" xmlns:xlink="http://www.w3.org/1999/xlink" width="16px" height="16px" viewBox="375 763  16 16" xmlns="http://www.w3.org/2000/svg">
  <path d="M 375.5 766  A 2.5 2.5 0 0 1 378 763.5 L 388 763.5  A 2.5 2.5 0 0 1 390.5 766 L 390.5 776  A 2.5 2.5 0 0 1 388 778.5 L 378 778.5  A 2.5 2.5 0 0 1 375.5 776 L 375.5 766  Z " fill-rule="nonzero" fill="#ffffff" stroke="none" />
  <path d="M 375.5 766  A 2.5 2.5 0 0 1 378 763.5 L 388 763.5  A 2.5 2.5 0 0 1 390.5 766 L 390.5 776  A 2.5 2.5 0 0 1 388 778.5 L 378 778.5  A 2.5 2.5 0 0 1 375.5 776 L 375.5 766  Z " stroke-width="1" stroke="#999999" fill="none" />
</svg>