<?xml version="1.0" encoding="utf-8"?>
<svg version="1.1" xmlns:xlink="http://www.w3.org/1999/xlink" width="16px" height="16px" viewBox="375 818  16 16" xmlns="http://www.w3.org/2000/svg">
  <path d="M 375.5 821  A 2.5 2.5 0 0 1 378 818.5 L 388 818.5  A 2.5 2.5 0 0 1 390.5 821 L 390.5 831  A 2.5 2.5 0 0 1 388 833.5 L 378 833.5  A 2.5 2.5 0 0 1 375.5 831 L 375.5 821  Z " fill-rule="nonzero" fill="#f0f0f0" stroke="none" />
  <path d="M 375.5 821  A 2.5 2.5 0 0 1 378 818.5 L 388 818.5  A 2.5 2.5 0 0 1 390.5 821 L 390.5 831  A 2.5 2.5 0 0 1 388 833.5 L 378 833.5  A 2.5 2.5 0 0 1 375.5 831 L 375.5 821  Z " stroke-width="1" stroke="#999999" fill="none" />
</svg>