<?xml version="1.0" encoding="utf-8"?>
<svg version="1.1" xmlns:xlink="http://www.w3.org/1999/xlink" width="14px" height="14px" viewBox="39 188  14 14" xmlns="http://www.w3.org/2000/svg">
  <path d="M 39.5 190  A 1.5 1.5 0 0 1 41 188.5 L 51 188.5  A 1.5 1.5 0 0 1 52.5 190 L 52.5 200  A 1.5 1.5 0 0 1 51 201.5 L 41 201.5  A 1.5 1.5 0 0 1 39.5 200 L 39.5 190  Z " fill-rule="nonzero" fill="#f0f0f0" stroke="none" />
  <path d="M 39.5 190  A 1.5 1.5 0 0 1 41 188.5 L 51 188.5  A 1.5 1.5 0 0 1 52.5 190 L 52.5 200  A 1.5 1.5 0 0 1 51 201.5 L 41 201.5  A 1.5 1.5 0 0 1 39.5 200 L 39.5 190  Z " stroke-width="1" stroke="#797979" fill="none" />
</svg>