<?xml version="1.0" encoding="utf-8"?>
<svg version="1.1" xmlns:xlink="http://www.w3.org/1999/xlink" width="14px" height="14px" viewBox="39 149  14 14" xmlns="http://www.w3.org/2000/svg">
  <path d="M 39.5 151  A 1.5 1.5 0 0 1 41 149.5 L 51 149.5  A 1.5 1.5 0 0 1 52.5 151 L 52.5 161  A 1.5 1.5 0 0 1 51 162.5 L 41 162.5  A 1.5 1.5 0 0 1 39.5 161 L 39.5 151  Z " fill-rule="nonzero" fill="#f0f0f0" stroke="none" />
  <path d="M 39.5 151  A 1.5 1.5 0 0 1 41 149.5 L 51 149.5  A 1.5 1.5 0 0 1 52.5 151 L 52.5 161  A 1.5 1.5 0 0 1 51 162.5 L 41 162.5  A 1.5 1.5 0 0 1 39.5 161 L 39.5 151  Z " stroke-width="1" stroke="#797979" fill="none" />
</svg>