<?xml version="1.0" encoding="utf-8"?>
<svg version="1.1" xmlns:xlink="http://www.w3.org/1999/xlink" width="14px" height="14px" viewBox="39 228  14 14" xmlns="http://www.w3.org/2000/svg">
  <path d="M 39.5 230  A 1.5 1.5 0 0 1 41 228.5 L 51 228.5  A 1.5 1.5 0 0 1 52.5 230 L 52.5 240  A 1.5 1.5 0 0 1 51 241.5 L 41 241.5  A 1.5 1.5 0 0 1 39.5 240 L 39.5 230  Z " fill-rule="nonzero" fill="#f0f0f0" stroke="none" />
  <path d="M 39.5 230  A 1.5 1.5 0 0 1 41 228.5 L 51 228.5  A 1.5 1.5 0 0 1 52.5 230 L 52.5 240  A 1.5 1.5 0 0 1 51 241.5 L 41 241.5  A 1.5 1.5 0 0 1 39.5 240 L 39.5 230  Z " stroke-width="1" stroke="#797979" fill="none" />
</svg>