<?xml version="1.0" encoding="utf-8"?>
<svg version="1.1" xmlns:xlink="http://www.w3.org/1999/xlink" width="18px" height="18px" viewBox="164 225  18 18" xmlns="http://www.w3.org/2000/svg">
  <path d="M 164.5 230  A 4.5 4.5 0 0 1 169 225.5 L 177 225.5  A 4.5 4.5 0 0 1 181.5 230 L 181.5 238  A 4.5 4.5 0 0 1 177 242.5 L 169 242.5  A 4.5 4.5 0 0 1 164.5 238 L 164.5 230  Z " fill-rule="nonzero" fill="#f0f0f0" stroke="none" />
  <path d="M 164.5 230  A 4.5 4.5 0 0 1 169 225.5 L 177 225.5  A 4.5 4.5 0 0 1 181.5 230 L 181.5 238  A 4.5 4.5 0 0 1 177 242.5 L 169 242.5  A 4.5 4.5 0 0 1 164.5 238 L 164.5 230  Z " stroke-width="1" stroke="#797979" fill="none" />
</svg>