<?xml version="1.0" encoding="utf-8"?>
<svg version="1.1" xmlns:xlink="http://www.w3.org/1999/xlink" width="18px" height="18px" viewBox="164 273  18 18" xmlns="http://www.w3.org/2000/svg">
  <path d="M 164.5 278  A 4.5 4.5 0 0 1 169 273.5 L 177 273.5  A 4.5 4.5 0 0 1 181.5 278 L 181.5 286  A 4.5 4.5 0 0 1 177 290.5 L 169 290.5  A 4.5 4.5 0 0 1 164.5 286 L 164.5 278  Z " fill-rule="nonzero" fill="#ffffff" stroke="none" />
  <path d="M 164.5 278  A 4.5 4.5 0 0 1 169 273.5 L 177 273.5  A 4.5 4.5 0 0 1 181.5 278 L 181.5 286  A 4.5 4.5 0 0 1 177 290.5 L 169 290.5  A 4.5 4.5 0 0 1 164.5 286 L 164.5 278  Z " stroke-width="1" stroke="#797979" fill="none" />
</svg>