<?xml version="1.0" encoding="utf-8"?>
<svg version="1.1" xmlns:xlink="http://www.w3.org/1999/xlink" width="18px" height="18px" viewBox="164 321  18 18" xmlns="http://www.w3.org/2000/svg">
  <path d="M 164.5 326  A 4.5 4.5 0 0 1 169 321.5 L 177 321.5  A 4.5 4.5 0 0 1 181.5 326 L 181.5 334  A 4.5 4.5 0 0 1 177 338.5 L 169 338.5  A 4.5 4.5 0 0 1 164.5 334 L 164.5 326  Z " fill-rule="nonzero" fill="#ffffff" stroke="none" />
  <path d="M 164.5 326  A 4.5 4.5 0 0 1 169 321.5 L 177 321.5  A 4.5 4.5 0 0 1 181.5 326 L 181.5 334  A 4.5 4.5 0 0 1 177 338.5 L 169 338.5  A 4.5 4.5 0 0 1 164.5 334 L 164.5 326  Z " stroke-width="1" stroke="#797979" fill="none" />
</svg>