<?xml version="1.0" encoding="utf-8"?>
<svg version="1.1" xmlns:xlink="http://www.w3.org/1999/xlink" width="18px" height="18px" viewBox="164 369  18 18" xmlns="http://www.w3.org/2000/svg">
  <path d="M 164.5 374  A 4.5 4.5 0 0 1 169 369.5 L 177 369.5  A 4.5 4.5 0 0 1 181.5 374 L 181.5 382  A 4.5 4.5 0 0 1 177 386.5 L 169 386.5  A 4.5 4.5 0 0 1 164.5 382 L 164.5 374  Z " fill-rule="nonzero" fill="#f0f0f0" stroke="none" />
  <path d="M 164.5 374  A 4.5 4.5 0 0 1 169 369.5 L 177 369.5  A 4.5 4.5 0 0 1 181.5 374 L 181.5 382  A 4.5 4.5 0 0 1 177 386.5 L 169 386.5  A 4.5 4.5 0 0 1 164.5 382 L 164.5 374  Z " stroke-width="1" stroke="#797979" fill="none" />
  <path d="M 167.857142857143 378  L 171.714285714286 381.857142857143  L 178.142857142857 372.857142857143  " stroke-width="3.85714285714286" stroke="#797979" fill="none" />
</svg>