<?xml version="1.0" encoding="utf-8"?>
<svg version="1.1" xmlns:xlink="http://www.w3.org/1999/xlink" width="18px" height="18px" viewBox="164 417  18 18" xmlns="http://www.w3.org/2000/svg">
  <path d="M 164.5 422  A 4.5 4.5 0 0 1 169 417.5 L 177 417.5  A 4.5 4.5 0 0 1 181.5 422 L 181.5 430  A 4.5 4.5 0 0 1 177 434.5 L 169 434.5  A 4.5 4.5 0 0 1 164.5 430 L 164.5 422  Z " fill-rule="nonzero" fill="#f0f0f0" stroke="none" />
  <path d="M 164.5 422  A 4.5 4.5 0 0 1 169 417.5 L 177 417.5  A 4.5 4.5 0 0 1 181.5 422 L 181.5 430  A 4.5 4.5 0 0 1 177 434.5 L 169 434.5  A 4.5 4.5 0 0 1 164.5 430 L 164.5 422  Z " stroke-width="1" stroke="#797979" fill="none" />
  <path d="M 167.857142857143 426  L 171.714285714286 429.857142857143  L 178.142857142857 420.857142857143  " stroke-width="3.85714285714286" stroke="#797979" fill="none" />
</svg>