<?xml version="1.0" encoding="utf-8"?>
<svg version="1.1" xmlns:xlink="http://www.w3.org/1999/xlink" width="18px" height="18px" viewBox="164 609  18 18" xmlns="http://www.w3.org/2000/svg">
  <path d="M 164.5 614  A 4.5 4.5 0 0 1 169 609.5 L 177 609.5  A 4.5 4.5 0 0 1 181.5 614 L 181.5 622  A 4.5 4.5 0 0 1 177 626.5 L 169 626.5  A 4.5 4.5 0 0 1 164.5 622 L 164.5 614  Z " fill-rule="nonzero" fill="#409eff" stroke="none" />
  <path d="M 164.5 614  A 4.5 4.5 0 0 1 169 609.5 L 177 609.5  A 4.5 4.5 0 0 1 181.5 614 L 181.5 622  A 4.5 4.5 0 0 1 177 626.5 L 169 626.5  A 4.5 4.5 0 0 1 164.5 622 L 164.5 614  Z " stroke-width="1" stroke="#ffffff" fill="none" />
  <path d="M 167.857142857143 618  L 171.714285714286 621.857142857143  L 178.142857142857 612.857142857143  " stroke-width="3.85714285714286" stroke="#ffffff" fill="none" />
</svg>