<?xml version="1.0" encoding="utf-8"?>
<svg version="1.1" xmlns:xlink="http://www.w3.org/1999/xlink" width="18px" height="18px" viewBox="164 465  18 18" xmlns="http://www.w3.org/2000/svg">
  <path d="M 164.5 470  A 4.5 4.5 0 0 1 169 465.5 L 177 465.5  A 4.5 4.5 0 0 1 181.5 470 L 181.5 478  A 4.5 4.5 0 0 1 177 482.5 L 169 482.5  A 4.5 4.5 0 0 1 164.5 478 L 164.5 470  Z " fill-rule="nonzero" fill="#f0f0f0" stroke="none" />
  <path d="M 164.5 470  A 4.5 4.5 0 0 1 169 465.5 L 177 465.5  A 4.5 4.5 0 0 1 181.5 470 L 181.5 478  A 4.5 4.5 0 0 1 177 482.5 L 169 482.5  A 4.5 4.5 0 0 1 164.5 478 L 164.5 470  Z " stroke-width="1" stroke="#797979" fill="none" />
</svg>