<?xml version="1.0" encoding="utf-8"?>
<svg version="1.1" xmlns:xlink="http://www.w3.org/1999/xlink" width="18px" height="18px" viewBox="164 513  18 18" xmlns="http://www.w3.org/2000/svg">
  <path d="M 164.5 518  A 4.5 4.5 0 0 1 169 513.5 L 177 513.5  A 4.5 4.5 0 0 1 181.5 518 L 181.5 526  A 4.5 4.5 0 0 1 177 530.5 L 169 530.5  A 4.5 4.5 0 0 1 164.5 526 L 164.5 518  Z " fill-rule="nonzero" fill="#ffffff" stroke="none" />
  <path d="M 164.5 518  A 4.5 4.5 0 0 1 169 513.5 L 177 513.5  A 4.5 4.5 0 0 1 181.5 518 L 181.5 526  A 4.5 4.5 0 0 1 177 530.5 L 169 530.5  A 4.5 4.5 0 0 1 164.5 526 L 164.5 518  Z " stroke-width="1" stroke="#797979" fill="none" />
</svg>