<?xml version="1.0" encoding="utf-8"?>
<svg version="1.1" xmlns:xlink="http://www.w3.org/1999/xlink" width="16px" height="16px" viewBox="17 460  16 16" xmlns="http://www.w3.org/2000/svg">
  <path d="M 17.5 463  A 2.5 2.5 0 0 1 20 460.5 L 30 460.5  A 2.5 2.5 0 0 1 32.5 463 L 32.5 473  A 2.5 2.5 0 0 1 30 475.5 L 20 475.5  A 2.5 2.5 0 0 1 17.5 473 L 17.5 463  Z " fill-rule="nonzero" fill="#ffffff" stroke="none" />
  <path d="M 17.5 463  A 2.5 2.5 0 0 1 20 460.5 L 30 460.5  A 2.5 2.5 0 0 1 32.5 463 L 32.5 473  A 2.5 2.5 0 0 1 30 475.5 L 20 475.5  A 2.5 2.5 0 0 1 17.5 473 L 17.5 463  Z " stroke-width="1" stroke="#999999" fill="none" />
</svg>