<?xml version="1.0" encoding="utf-8"?>
<svg version="1.1" xmlns:xlink="http://www.w3.org/1999/xlink" width="16px" height="16px" viewBox="17 189  16 16" xmlns="http://www.w3.org/2000/svg">
  <path d="M 17.5 192  A 2.5 2.5 0 0 1 20 189.5 L 30 189.5  A 2.5 2.5 0 0 1 32.5 192 L 32.5 202  A 2.5 2.5 0 0 1 30 204.5 L 20 204.5  A 2.5 2.5 0 0 1 17.5 202 L 17.5 192  Z " fill-rule="nonzero" fill="#ffffff" stroke="none" />
  <path d="M 17.5 192  A 2.5 2.5 0 0 1 20 189.5 L 30 189.5  A 2.5 2.5 0 0 1 32.5 192 L 32.5 202  A 2.5 2.5 0 0 1 30 204.5 L 20 204.5  A 2.5 2.5 0 0 1 17.5 202 L 17.5 192  Z " stroke-width="1" stroke="#999999" fill="none" />
  <path d="M 20.4285714285714 197  L 23.8571428571429 200.428571428571  L 29.5714285714286 192.428571428571  " stroke-width="3.42857142857143" stroke="#999999" fill="none" />
</svg>