<?xml version="1.0" encoding="utf-8"?>
<svg version="1.1" xmlns:xlink="http://www.w3.org/1999/xlink" width="16px" height="16px" viewBox="17 350  16 16" xmlns="http://www.w3.org/2000/svg">
  <path d="M 17.5 353  A 2.5 2.5 0 0 1 20 350.5 L 30 350.5  A 2.5 2.5 0 0 1 32.5 353 L 32.5 363  A 2.5 2.5 0 0 1 30 365.5 L 20 365.5  A 2.5 2.5 0 0 1 17.5 363 L 17.5 353  Z " fill-rule="nonzero" fill="#f0f0f0" stroke="none" />
  <path d="M 17.5 353  A 2.5 2.5 0 0 1 20 350.5 L 30 350.5  A 2.5 2.5 0 0 1 32.5 353 L 32.5 363  A 2.5 2.5 0 0 1 30 365.5 L 20 365.5  A 2.5 2.5 0 0 1 17.5 363 L 17.5 353  Z " stroke-width="1" stroke="#999999" fill="none" />
</svg>