<?xml version="1.0" encoding="utf-8"?>
<svg version="1.1" xmlns:xlink="http://www.w3.org/1999/xlink" width="16px" height="16px" viewBox="17 239  16 16" xmlns="http://www.w3.org/2000/svg">
  <path d="M 17.5 242  A 2.5 2.5 0 0 1 20 239.5 L 30 239.5  A 2.5 2.5 0 0 1 32.5 242 L 32.5 252  A 2.5 2.5 0 0 1 30 254.5 L 20 254.5  A 2.5 2.5 0 0 1 17.5 252 L 17.5 242  Z " fill-rule="nonzero" fill="#f0f0f0" stroke="none" />
  <path d="M 17.5 242  A 2.5 2.5 0 0 1 20 239.5 L 30 239.5  A 2.5 2.5 0 0 1 32.5 242 L 32.5 252  A 2.5 2.5 0 0 1 30 254.5 L 20 254.5  A 2.5 2.5 0 0 1 17.5 252 L 17.5 242  Z " stroke-width="1" stroke="#999999" fill="none" />
</svg>