<?xml version="1.0" encoding="utf-8"?>
<svg version="1.1" xmlns:xlink="http://www.w3.org/1999/xlink" width="16px" height="16px" viewBox="17 405  16 16" xmlns="http://www.w3.org/2000/svg">
  <path d="M 17.5 408  A 2.5 2.5 0 0 1 20 405.5 L 30 405.5  A 2.5 2.5 0 0 1 32.5 408 L 32.5 418  A 2.5 2.5 0 0 1 30 420.5 L 20 420.5  A 2.5 2.5 0 0 1 17.5 418 L 17.5 408  Z " fill-rule="nonzero" fill="#ffffff" stroke="none" />
  <path d="M 17.5 408  A 2.5 2.5 0 0 1 20 405.5 L 30 405.5  A 2.5 2.5 0 0 1 32.5 408 L 32.5 418  A 2.5 2.5 0 0 1 30 420.5 L 20 420.5  A 2.5 2.5 0 0 1 17.5 418 L 17.5 408  Z " stroke-width="1" stroke="#999999" fill="none" />
  <path d="M 20.4285714285714 413  L 23.8571428571429 416.428571428571  L 29.5714285714286 408.428571428571  " stroke-width="3.42857142857143" stroke="#999999" fill="none" />
</svg>