<?xml version="1.0" encoding="utf-8"?>
<svg version="1.1" xmlns:xlink="http://www.w3.org/1999/xlink" width="16px" height="16px" viewBox="17 75  16 16" xmlns="http://www.w3.org/2000/svg">
  <path d="M 17.5 78  A 2.5 2.5 0 0 1 20 75.5 L 30 75.5  A 2.5 2.5 0 0 1 32.5 78 L 32.5 88  A 2.5 2.5 0 0 1 30 90.5 L 20 90.5  A 2.5 2.5 0 0 1 17.5 88 L 17.5 78  Z " fill-rule="nonzero" fill="#ffffff" stroke="none" />
  <path d="M 17.5 78  A 2.5 2.5 0 0 1 20 75.5 L 30 75.5  A 2.5 2.5 0 0 1 32.5 78 L 32.5 88  A 2.5 2.5 0 0 1 30 90.5 L 20 90.5  A 2.5 2.5 0 0 1 17.5 88 L 17.5 78  Z " stroke-width="1" stroke="#999999" fill="none" />
  <path d="M 20.4285714285714 83  L 23.8571428571429 86.4285714285714  L 29.5714285714286 78.4285714285714  " stroke-width="3.42857142857143" stroke="#999999" fill="none" />
</svg>