<?xml version="1.0" encoding="utf-8"?>
<svg version="1.1" xmlns:xlink="http://www.w3.org/1999/xlink" width="16px" height="16px" viewBox="17 295  16 16" xmlns="http://www.w3.org/2000/svg">
  <path d="M 17.5 298  A 2.5 2.5 0 0 1 20 295.5 L 30 295.5  A 2.5 2.5 0 0 1 32.5 298 L 32.5 308  A 2.5 2.5 0 0 1 30 310.5 L 20 310.5  A 2.5 2.5 0 0 1 17.5 308 L 17.5 298  Z " fill-rule="nonzero" fill="#ffffff" stroke="none" />
  <path d="M 17.5 298  A 2.5 2.5 0 0 1 20 295.5 L 30 295.5  A 2.5 2.5 0 0 1 32.5 298 L 32.5 308  A 2.5 2.5 0 0 1 30 310.5 L 20 310.5  A 2.5 2.5 0 0 1 17.5 308 L 17.5 298  Z " stroke-width="1" stroke="#999999" fill="none" />
</svg>