<?xml version="1.0" encoding="utf-8"?>
<svg version="1.1" xmlns:xlink="http://www.w3.org/1999/xlink" width="73px" height="35px" xmlns="http://www.w3.org/2000/svg">
  <g>
    <path d="M 1 5  A 4 4 0 0 1 5 1 L 68 1  A 4 4 0 0 1 72 5 L 72 30  A 4 4 0 0 1 68 34 L 5 34  A 4 4 0 0 1 1 30 L 1 5  Z " fill-rule="nonzero" fill="#e4e4e4" stroke="none" fill-opacity="0" />
    <path d="M 0.5 5  A 4.5 4.5 0 0 1 5 0.5 L 68 0.5  A 4.5 4.5 0 0 1 72.5 5 L 72.5 30  A 4.5 4.5 0 0 1 68 34.5 L 5 34.5  A 4.5 4.5 0 0 1 0.5 30 L 0.5 5  Z " stroke-width="1" stroke="#e4e4e4" fill="none" stroke-opacity="0.996078431372549" />
  </g>
</svg>