<?xml version="1.0" encoding="utf-8"?>
<svg version="1.1" xmlns:xlink="http://www.w3.org/1999/xlink" width="15px" height="16px" xmlns="http://www.w3.org/2000/svg">
  <g transform="matrix(1 0 0 1 -12 -10 )">
    <path d="M 14.1898269230769 3.22811428571429  L 14.1859038461538 3.232  C 14.0169247396429 3.23016861949165  13.8560513693933 3.15997423935336  13.7406346153846 3.03771428571428  L 12.33225 1.54268571428571  L 10.9238653846154 3.03674285714286  C 10.8079286836824 3.16227462373448  10.6440678091277 3.23377080455009  10.4723004002264 3.23377080455009  C 10.13430213333 3.23377080455009  9.86030040022644 2.96237861176181  9.86030040022644 2.62759937597866  C 9.86030040022644 2.46939191419141  9.92274772808148 2.31745359528666  10.0343076923077 2.20422857142857  L 11.9134615384615 0.220571428571429  C 12.0288782924702 0.0983114749323499  12.1897516627198 0.0281170947940664  12.3587307692308 0.0262857142857144  C 12.5287672540472 0.023091580588395  12.6916133669347 0.0941467336838703  12.804 0.220571428571429  L 14.6821730769231 2.20325714285714  C 14.9090726813164 2.44707616874555  14.8990779605871 2.82541049180414  14.6596153846154 3.05714285714286  C 14.5201746952011 3.15263930250478  14.3585193773321 3.21147097440605  14.1898269230769 3.22811428571429  Z M 12.3106730769231 15.0057142857143  L 12.3057692307692 15.0057142857143  C 12.1357327459528 15.0089084194116  11.9728866330653 14.9378532663161  11.8605 14.8114285714286  L 9.98232692307692 12.8287428571429  C 9.8747282859902 12.7159655994719  9.81477984818435 12.5666809815152  9.81477984818435 12.4115142857143  C 9.81477984818435 12.0760202578194  10.0893666064523 11.804048611535  10.4280865384615 11.804048611535  C 10.5967628469961 11.804048611535  10.7579933933774 11.8728570700851  10.8738461538462 11.9942857142857  L 12.2822307692308 13.4873714285714  L 13.6915961538462 11.9942857142857  C 13.806767541724 11.8773953653985  13.9646894308873 11.8114850902644  14.1295888617649 11.8114850902644  C 14.4675871286613 11.8114850902644  14.7415888617649 12.0828772830527  14.7415888617649 12.4176565188358  C 14.7415888617649 12.5690996486974  14.6843552749381 12.7150574925298  14.5811538461538 12.8268  L 12.7029807692308 14.8114285714286  C 12.6539423076923 14.9338285714286  12.4803461538462 15.0057142857143  12.3106730769231 15.0057142857143  Z M 12.3116824135944 14.0284854382268  C 12.3097113181494 14.0284854382268  12.3077402342058 14.0284760063269  12.3057692307692 14.0284571428571  C 12.3037982273327 14.0284760063269  12.301827143389 14.0284854382268  12.2998560479441 14.0284854382268  C 11.9618577810476 14.0284854382268  11.6878560479441 13.7570932454385  11.6878560479441 13.4223140096554  C 11.6878560479441 13.4203616865481  11.6878655705354 13.4184093748323  11.6878846153846 13.4164571428571  L 11.6878846153846 1.5184  C 11.6878846153846 1.18040173310355  11.9645209805372 0.9064  12.3057692307692 0.9064  C 12.6470174810012 0.9064  12.9236538461538 1.18040173310355  12.9236538461538 1.5184  C 12.9236538461538 1.5184  12.9236538461538 1.5184  13 1.5184  L 13 13.4164571428571  C 12.9236728910031 13.4184093748325  12.9236824135944 13.4203616865479  12.9236824135944 13.4223140096554  C 12.9236824135944 13.7570932454385  12.6496806804908 14.0284854382268  12.3116824135944 14.0284854382268  Z M 8.08061538461538 4.2112  C 8.07535790429256 4.547017637868  7.8017774228475 4.81799259091835  7.46273076923077 4.8232  L 0.962192307692308 4.8232  C 0.62094405746032 4.8232  0.344307692307692 4.54919826689645  0.344307692307692 4.2112  C 0.344307692307692 3.87320173310355  0.62094405746032 3.5992  0.962192307692308 3.5992  L 7.46273076923077 3.5992  C 7.46470177266725 3.59918113653028  7.46667285661102 3.59917170463032  7.46864395205592 3.59917170463032  C 7.80664221895237 3.59917170463032  8.08064395205593 3.8705638974186  8.08064395205593 4.20534313320175  C 8.08064395205593 4.20729545630915  8.08063442946462 4.20924776802474  8.08061538461538 4.2112  Z M 8.08061538461538 7.29645714285715  C 8.07535790429256 7.63227478072515  7.8017774228475 7.90324973377549  7.46273076923077 7.90845714285714  L 0.962192307692308 7.90845714285714  C 0.620944083502209 7.90845714285714  0.344307718349581 7.63445540975359  0.344307718349581 7.29645714285714  C 0.344307718349581 6.9584588759607  0.620944083502209 6.68445714285714  0.962192333734197 6.68445714285714  L 7.46273076923077 6.68445714285714  C 7.46470177266725 6.68443827938743  7.46667285661102 6.68442884748746  7.46864395205592 6.68442884748746  C 7.80664221895237 6.68442884748746  8.08064395205593 6.95582104027575  8.08064395205593 7.29060027605889  C 8.08064395205593 7.2925525991663  8.08063442946462 7.29450491088189  8.08061538461538 7.29645714285715  Z M 8.05609615384615 10.8217714285714  C 8.05083867352334 11.1575890664394  7.77725819207827 11.4285640194898  7.43821153846154 11.4337714285714  L 0.937673076923078 11.4337714285714  C 0.59642482669109 11.4337714285714  0.319788461538462 11.1597696954679  0.319788461538462 10.8217714285714  C 0.319788461538462 10.483773161675  0.59642482669109 10.2097714285714  0.937673076923078 10.2097714285714  L 7.43821153846154 10.2097714285714  C 7.44018254189802 10.2097525651017  7.44215362584179 10.2097431332018  7.4441247212867 10.2097431332018  C 7.78212298818314 10.2097431332018  8.05612472128669 10.48113532599  8.05612472128669 10.8159145617732  C 8.05612472128669 10.8178668848806  8.05611519869539 10.8198191965962  8.05609615384615 10.8217714285714  Z " fill-rule="nonzero" fill="#409eff" stroke="none" transform="matrix(1 0 0 1 12 10 )" />
  </g>
</svg>