<?xml version="1.0" encoding="utf-8"?>
<svg version="1.1" xmlns:xlink="http://www.w3.org/1999/xlink" width="16px" height="16px" xmlns="http://www.w3.org/2000/svg">
  <g transform="matrix(1 0 0 1 -767 -349 )">
    <path d="M 15.2222222222222 8  C 15.2222222222222 11.9887231932224  11.9887231932224 15.2222222222222  8 15.2222222222222  C 4.0112768067776 15.2222222222222  0.777777777777778 11.9887231932224  0.777777777777778 8  C 0.777777777777778 4.0112768067776  4.0112768067776 0.777777777777778  8 0.777777777777778  C 11.9887231932224 0.777777777777778  15.2222222222222 4.0112768067776  15.2222222222222 8  Z M 14.1111111111111 8  C 14.1111111111111 4.62492652881182  11.3750734711882 1.88888888888889  8 1.88888888888889  C 4.62492652881182 1.88888888888889  1.88888888888889 4.62492652881182  1.88888888888889 8  C 1.88888888888889 11.3750734711882  4.62492652881182 14.1111111111111  8 14.1111111111111  C 11.3750734711882 14.1111111111111  14.1111111111111 11.3750734711882  14.1111111111111 8  Z M 10.58 8.35666666666667  L 7.09222222222222 10.6933333333333  C 7.00924663565192 10.748452313805  6.91183671543117 10.7778299087922  6.81222222222222 10.7777777777778  C 6.8058461170312 10.7780432907569  6.79946517695905 10.778176090368  6.79308354593327 10.778176090368  C 6.54493290132383 10.778176090368  6.34151002814278 10.5813492281507  6.33333333333333 10.3333333333333  L 6.33333333333333 5.66666666666667  C 6.3338556241773 5.5726023600767  6.3659398221603 5.48143628532013  6.42444444444444 5.40777777777778  C 6.58970678912639 5.21063300411255  6.87666025217238 5.16902475197088  7.09111111111111 5.31111111111111  L 10.58 7.64444444444445  C 10.6223181088746 7.67049454533293  10.6598920269554 7.70355959324402  10.6911111111111 7.74222222222222  C 10.7488021952312 7.81578036216219  10.7801555995321 7.90656227020026  10.7801555995321 8.00004521590896  C 10.7801555995321 8.1456800880827  10.704316136851 8.28080485735846  10.58 8.35666666666667  Z " fill-rule="nonzero" fill="#b7b7b7" stroke="none" transform="matrix(1 0 0 1 767 349 )" />
  </g>
</svg>