<svg class="icon" viewBox="0 0 1024 1024" version="1.1" xmlns="http://www.w3.org/2000/svg" p-id="16896" height="128" width="128"><path d="M512 512m-512 0a512 512 0 1 0 1024 0 512 512 0 1 0-1024 0Z" fill="#2FA5A3" p-id="16897"></path><path d="M345.3952 490.112a20.8896 20.8896 0 0 1 13.8496 5.12l2.56 2.7904 150.2464 186.5984h196.992v-21.4528a18.7392 18.7392 0 0 1 4.1728-11.8528l2.2016-2.304 2.56-1.8944a17.92 17.92 0 0 1 14.6688-1.6128l3.5072 1.6128 73.8048 43.2128a18.6624 18.6624 0 0 1 1.7152 30.1824l-2.56 1.6128-72.8576 43.136a17.92 17.92 0 0 1-18.1504 0 18.4832 18.4832 0 0 1-8.7808-12.8l-0.2816-3.2v-21.5296h-206.6432a20.608 20.608 0 0 1-10.9568-2.9952l-3.0208-2.2272-2.56-2.7904-150.5792-186.5472h-109.3632a21.0176 21.0176 0 0 1-13.6448-5.12l-2.56-2.56-2.1248-3.1232a22.0416 22.0416 0 0 1 0-21.6064 21.248 21.248 0 0 1 14.6688-10.4448l3.7632-0.3584h119.3216z m386.56-39.296l1.2288 0.4096 3.1488 1.3824 71.68 42.1632a18.4064 18.4064 0 0 1 11.3152 17.0752 17.92 17.92 0 0 1-5.12 12.416l-2.8672 2.7136-2.2016 1.3312-72.8576 42.496a17.92 17.92 0 0 1-18.1504 0 17.6384 17.6384 0 0 1-7.68-9.1392l-1.1008-3.4048-0.3328-3.4816v-21.4528h-206.9504a21.3248 21.3248 0 0 1-19.9424-14.08l-0.9472-3.6352-0.3328-3.8912a21.5296 21.5296 0 0 1 17.408-21.248l3.84-0.3584h206.8992v-21.4528a18.432 18.432 0 0 1 2.1248-8.576l1.792-2.7136 2.3296-2.56 2.816-2.0992a18.3552 18.3552 0 0 1 10.24-2.56l3.5584 0.64z m-3.5072-194.8928l3.5072 0.5632 1.2288 0.4096 3.2256 1.4592 72.3712 42.8544a18.3808 18.3808 0 0 1 9.8816 15.616 17.92 17.92 0 0 1-3.5584 11.4944l-2.2528 2.7136-3.0208 2.3808-73.472 43.136a17.92 17.92 0 0 1-18.1504 0 17.6384 17.6384 0 0 1-7.68-9.1392l-1.1008-3.4048-0.3328-3.4816v-21.4528h-197.12l-110.4896 129.1776a21.0176 21.0176 0 0 1-8.9088 6.1952l-3.5072 0.9728-3.712 0.3584a20.8896 20.8896 0 0 1-13.7728-5.12 21.6832 21.6832 0 0 1-4.2496-27.7248l1.9968-2.7136 116.6592-136.3712a21.1712 21.1712 0 0 1 12.544-7.5264l3.7632-0.3584h206.9248v-21.4528a18.432 18.432 0 0 1 2.1248-8.576l1.792-2.7136 2.3296-2.56 2.816-2.0992a17.3824 17.3824 0 0 1 10.24-2.56z" fill="#FFFFFF" p-id="16898"></path></svg>