<?xml version="1.0" encoding="utf-8"?>
<svg version="1.1" xmlns:xlink="http://www.w3.org/1999/xlink" width="6px" height="10px" xmlns="http://www.w3.org/2000/svg">
  <g transform="matrix(1 0 0 1 -15 -13 )">
    <path d="M 5.2721341171875 9.5224969765625  C 5.1626327109375 9.6327442578125  5.01861980859375 9.6874949609375  4.8746270625 9.6874949609375  C 4.73063431640625 9.6874949609375  4.5866214140625 9.6327442578125  4.4767571484375 9.5228799921875  L 0.3521300859375 5.39825291796875  C 0.1323813984375 5.17888724609375  0.1323813984375 4.82262463671875  0.3521300859375 4.60287594921875  L 4.47675716015625 0.4778658828125  C 4.69650584765625 0.2581171953125  5.05238544140625 0.2581171953125  5.27213412890625 0.4778658828125  C 5.49188281640625 0.6972315546875  5.49188281640625 1.0534941640625  5.27213412890625 1.2732428515625  L 1.54537696875 5.000362859375  L 5.2721341171875 8.7271200078125  C 5.4918828046875 8.9468686953125  5.4918828046875 9.3027482890625  5.2721341171875 9.5224969765625  Z " fill-rule="nonzero" fill="#999999" stroke="none" transform="matrix(1 0 0 1 15 13 )" />
  </g>
</svg>