<?xml version="1.0" encoding="utf-8"?>
<svg version="1.1" xmlns:xlink="http://www.w3.org/1999/xlink" width="13px" height="17px" xmlns="http://www.w3.org/2000/svg">
  <g transform="matrix(1 0 0 1 -10 -10 )">
    <path d="M 0.5 16  L 0.5 6.16666667382813  L 12.4166666738281 6.16666667382813  L 12.4166666738281 16  L 0.5 16  Z M 11.5 7  L 1.41666667382813 7  L 1.41666667382813 15  L 11.5 15  L 11.5 7  Z M 3.25 7.08333332617187  L 2.33333332617188 7.08333332617187  L 0.5 7.08333332617187  L 0.5 6.16666667382813  L 2.33333332617187 6.16666667382813  L 2.33333332617187 4.79166667382813  C 2.33333332617187 2.5  4.16666667382813 0.666666673828125  6.45833332617187 0.666666673828125  C 8.74999997851563 0.666666673828125  10.5833333261719 2.5  10.5833333261719 4.79166667382813  L 10.5833333261719 6.16666667382813  L 12.4166666738281 6.16666667382813  L 12.4166666738281 7.08333332617187  L 9.66666667382813 7.08333332617187  L 9.66666667382813 4.79166667382813  C 9.66666667382813 3.05  8.2 1.58333332617187  6.45833332617187 1.58333332617187  C 4.71666665234375 1.58333332617187  3.25 3.05  3.25 4.79166667382813  L 3.25 7.08333332617187  Z M 7.83333332617188 11.2083333261719  C 7.83333332617188 11.9416666523437  7.19166665234375 12.5833333261719  6.45833332617187 12.5833333261719  C 5.725 12.5833333261719  5.08333332617187 11.9416666523437  5.08333332617187 11.2083333261719  C 5.08333332617187 10.475  5.725 9.83333332617187  6.45833332617187 9.83333332617187  C 7.19166665234375 9.83333332617187  7.83333332617188 10.475  7.83333332617188 11.2083333261719  Z " fill-rule="nonzero" fill="#444444" stroke="none" transform="matrix(1 0 0 1 10 10 )" />
  </g>
</svg>