<?xml version="1.0" encoding="utf-8"?>
<svg version="1.1" xmlns:xlink="http://www.w3.org/1999/xlink" width="18px" height="18px" xmlns="http://www.w3.org/2000/svg">
  <g transform="matrix(1 0 0 1 -400 -9 )">
    <path d="M 17.6675161966463 9.032958984375  C 17.6675161966463 13.9726318359375  13.7467368521341 17.9914306640625  8.92754382621951 17.9914306640625  C 4.10835080030488 17.9914306640625  0.187571455792684 13.9726318359375  0.187571455792684 9.032958984375  C 0.187571455792684 4.0932861328125  4.10727896341463 0.0744873046875  8.92754382621951 0.0744873046875  C 13.7478086890244 0.0744873046875  17.6675161966463 4.0932861328125  17.6675161966463 9.032958984375  Z M 8.92754382621951 1.4240478515625  C 4.8344131097561 1.4240478515625  1.50443025914634 4.8372802734375  1.50443025914634 9.032958984375  C 1.50443025914634 13.2286376953125  4.83419874237805 16.6418701171875  8.92754382621951 16.6418701171875  C 13.020888910061 16.6418701171875  16.3506573932927 13.2286376953125  16.3506573932927 9.032958984375  C 16.3506573932927 4.8372802734375  13.0206745426829 1.424267578125  8.92754382621951 1.424267578125  Z M 6.21172351371951 11.8166748046875  L 6.21172351371951 6.2492431640625  L 11.6433641387195 6.2492431640625  L 11.6433641387195 11.8166748046875  L 6.21172351371951 11.8166748046875  Z " fill-rule="nonzero" fill="#0ab0f9" stroke="none" transform="matrix(1 0 0 1 400 9 )" />
  </g>
</svg>