<?xml version="1.0" encoding="utf-8"?>
<svg version="1.1" xmlns:xlink="http://www.w3.org/1999/xlink" width="11px" height="13px" xmlns="http://www.w3.org/2000/svg">
  <g transform="matrix(1 0 0 1 -222 -12 )">
    <path d="M 1.23046875 1.675390625  L 8.7158203125 1.675390625  C 9.06099828114425 1.675390625  9.3408203125 1.39556859364425  9.3408203125 1.050390625  C 9.3408203125 0.705212656355754  9.06099828114425 0.425390624999999  8.7158203125 0.425390624999999  L 1.23046875 0.425390624999999  C 0.885290781355755 0.425390624999999  0.60546875 0.705212656355754  0.60546875 1.050390625  C 0.60546875 1.39556859364425  0.885290781355755 1.675390625  1.23046875 1.675390625  Z M 1.23046875 4.1720703125  L 8.7158203125 4.1720703125  C 9.06099828114425 4.1720703125  9.3408203125 3.89224828114425  9.3408203125 3.5470703125  C 9.3408203125 3.20189234385575  9.06099828114425 2.9220703125  8.7158203125 2.9220703125  L 1.23046875 2.9220703125  C 0.885290781355755 2.9220703125  0.60546875 3.20189234385575  0.60546875 3.5470703125  C 0.60546875 3.89224828114425  0.885290781355755 4.1720703125  1.23046875 4.1720703125  Z M 10 7.4095703125  L 8.301953125 5.7240234375  L 8.2982421875 5.7205078125  L 8.284765625 5.7078125  L 8.2765625 5.70078125  L 8.2666015625 5.6923828125  L 8.2560546875 5.6841796875  L 8.248046875 5.6779296875  L 8.2359375 5.6693359375  L 8.2287109375 5.6642578125  L 8.2158203125 5.6560546875  L 8.20859375 5.6515625  L 8.1955078125 5.6439453125  L 8.187890625 5.6396484375  L 8.18359375 5.6373046875  L 8.175 5.6330078125  L 8.1662109375 5.6287109375  L 8.1541015625 5.6232421875  L 8.1439453125 5.6189453125  L 8.1400390625 5.6171875  L 8.1328125 5.614453125  L 8.1212890625 5.61015625  L 8.1111328125 5.606640625  L 8.0984375 5.6025390625  L 8.0953125 5.6015625  L 8.0888671875 5.5998046875  L 8.0751953125 5.59609375  L 8.0658203125 5.5939453125  L 8.051953125 5.591015625  L 8.0494140625 5.591015625  L 8.0421875 5.58984375  L 8.02871093749999 5.5876953125  L 8.01738281249999 5.586328125  L 8.00507812499999 5.5849609375  L 7.99121093749999 5.583984375  L 7.92519531249999 5.583984375  L 7.90839843749999 5.5853515625  L 7.89589843749999 5.5869140625  L 7.88476562499999 5.58828125  L 7.87070312499999 5.590625  L 7.86132812499999 5.5923828125  L 7.84707031249999 5.5955078125  L 7.83808593749999 5.59765625  L 7.82441406249999 5.6013671875  L 7.81503906249999 5.6041015625  L 7.80253906249999 5.608203125  L 7.79218749999999 5.61171875  L 7.78124999999999 5.6158203125  L 7.76953124999999 5.6205078125  L 7.76035156249999 5.624609375  L 7.74746093749999 5.63046875  L 7.73984374999999 5.634375  L 7.72949218749999 5.639453125  L 7.72597656249999 5.64140625  L 7.71972656249999 5.644921875  L 7.70527343749999 5.6533203125  L 7.69999999999999 5.656640625  L 7.68535156249999 5.6662109375  L 7.68027343749999 5.6697265625  L 7.66601562499999 5.6798828125  L 7.66054687499999 5.6841796875  L 7.64746093749999 5.69453125  L 7.64003906249999 5.7009765625  L 7.62949218749999 5.71015625  C 7.62363281249999 5.71549479166667  7.61790364583333 5.72096354166666  7.61230468749999 5.7265625  L 5.93554687499999 7.4119140625  C 5.84526602407918 7.50330679242771  5.79463920596683 7.62659648841583  5.79463920596683 7.75506151527772  C 5.79463920596683 8.02473180328104  6.01325016796351 8.24334276527772  6.28292045596683 8.24334276527772  C 6.41258160888349 8.24334276527772  6.53691857593367 8.19177142898538  6.62851562499999 8.1  L 7.47128906249999 7.2513671875  L 7.48183593749999 11.973046875  C 7.4824820494296 12.2422594041329  7.70090388303278 12.4601570253354  7.97011718749999 12.46015625  L 7.97128906249999 12.46015625  C 8.24050159481281 12.459510915259  8.45839984712093 12.2410897086551  8.45839984712093 11.971876402871  C 8.45839984712093 11.9714853098238  8.45839937724695 11.9710942169181  8.45839843749999 11.970703125  L 8.44785156249999 7.244140625  L 9.31093749999999 8.1013671875  C 9.40289966636674 8.19618462500184  9.52935301901342 8.24969921652347  9.66144157452555 8.24969921652347  C 9.93111186252887 8.24969921652347  10.1497228245256 8.03108825452679  10.1497228245256 7.76141796652347  C 10.1497228245256 7.62865814726968  10.0956646009918 7.50162167710357  10 7.4095703125  Z " fill-rule="nonzero" fill="#b7b7b7" stroke="none" transform="matrix(1 0 0 1 222 12 )" />
  </g>
</svg>