<?xml version="1.0" encoding="utf-8"?>
<svg version="1.1" xmlns:xlink="http://www.w3.org/1999/xlink" width="18px" height="18px" xmlns="http://www.w3.org/2000/svg">
  <g transform="matrix(1 0 0 1 -218 -9 )">
    <path d="M 17 1.5421875  C 17.103430828793 0.852677461493091  16.5449787885069 0.294225421206966  15.85546875 0.2921875  L 2.14453125 0.2921875  C 1.45502121149309 0.294225421206964  0.896569171206964 0.852677461493092  1 1.5421875  L 1 16.5359375  C 0.896569171206966 17.2254475385069  1.45502121149309 17.783899578793  2.14453125 17.7859375  L 15.85546875 17.7859375  C 16.5449787885069 17.783899578793  17.103430828793 17.2254475385069  17 16.5359375  L 17 1.5421875  Z M 15.8552734375 1.5443359375  L 15.85546875 16.533984375  L 15.8533203125 16.5361328125  L 2.146875 16.5361328125  L 2.1447265625 16.533984375  L 2.1447265625 1.5443359375  L 2.146875 1.5421875  L 15.853125 1.5421875  L 15.8552734375 1.5443359375  Z " fill-rule="nonzero" fill="#b7b7b7" stroke="none" transform="matrix(1 0 0 1 218 9 )" />
  </g>
</svg>