<?xml version="1.0" encoding="utf-8"?>
<svg version="1.1" xmlns:xlink="http://www.w3.org/1999/xlink" width="18px" height="18px" xmlns="http://www.w3.org/2000/svg">
  <g transform="matrix(1 0 0 1 -416 -9 )">
    <path d="M 10.8220408163265 0  L 10.8205714285714 0  C 10.9763265306122 0  11.1276734693878 0.0608661104029068  11.2378775510204 0.172206315775282  C 11.3486359542949 0.281577527494893  11.411132691986 0.431403708668897  11.4112653061225 0.587876415832149  L 11.4112653061225 4.44767020207449  L 17.0096326530612 4.44767020207449  C 17.165387755102 4.44618566600286  17.3167346938776 4.50705164493976  17.4269387755102 4.61839185031213  C 17.5376971787847 4.72776306203174  17.6001939164758 4.87758924320575  17.6003265306123 5.034061950369  L 17.6003265306123 9.81278356495134  C 17.5979139711497 10.1389977623105  17.3354823312041 10.4021612112044  17.0125878347427 10.4021612112044  C 17.0111129625922 10.4021612112044  17.0096380956659 10.4021556025596  17.0081632653061 10.4021443853891  L 16.6011428571429 10.4021443853891  L 17.8075102040816 17.1285773259522  C 17.8379538510311 17.2999243207293  17.7904678599347 17.4760163487505  17.6782040816327 17.6080824770892  C 17.5648282314553 17.7410804912697  17.3993626516731 17.8170674954881  17.2256326530612 17.8159175271177  L 0.774367346938776 17.8159175271177  C 0.601192347520698 17.8164320568978  0.436428907625016 17.7405210330602  0.32326530612245 17.6080824770892  C 0.209954235009335 17.4765266222304  0.161373243020244 17.3003774001009  0.191020408163266 17.1285773259522  L 1.39885714285714 10.4006598493175  L 0.991836734693877 10.4006598493175  C 0.989872162981597 10.4006798036735  0.987907504400104 10.4006897810406  0.985942833408708 10.4006897810406  C 0.663854795895363 10.4006897810406  0.402078908143554 10.1381830203666  0.399673469387755 9.81278356495134  L 0.399673469387755 5.034061950369  C 0.399673469387755 4.87818566284767  0.46138775510204 4.72824751961288  0.571591836734694 4.61839185031213  C 0.683685974440984 4.50720140877546  0.834748811453152 4.4452995156671  0.991836734693877 4.44618566600286  L 6.58726530612245 4.44618566600286  L 6.58726530612245 0.587876415832149  C 6.58726530612245 0.432000128310824  6.64897959183673 0.282061985076026  6.76065306122449 0.172206315775282  C 6.87202244665074 0.0617396313467104  7.02188788591972 -0.000104070597777481  7.17795918367347 0  L 10.8220408163265 0  Z M 16.1691428571429 16.3284123833427  L 15.105306122449 10.3917526328877  L 2.89322448979592 10.3917526328877  L 1.82791836734694 16.3284123833427  L 6.06122448979592 16.3284123833427  L 6.06122448979592 13.6577319904774  C 6.06122448979592 13.4944330225979  6.1934693877551 13.360824776151  6.35510204081633 13.360824776151  L 7.23673469387755 13.360824776151  C 7.39836734693877 13.360824776151  7.53061224489796 13.4944330225979  7.53061224489796 13.6577319904774  L 7.53061224489796 16.3284123833427  L 10.469387755102 16.3284123833427  L 10.469387755102 13.6577319904774  C 10.469387755102 13.4944330225979  10.6016326530612 13.360824776151  10.7632653061224 13.360824776151  L 11.6448979591837 13.360824776151  C 11.8065306122449 13.360824776151  11.9387755102041 13.4944330225979  11.9387755102041 13.6577319904774  L 11.9387755102041 16.3284123833427  L 16.1691428571429 16.3284123833427  Z M 9.94040816326531 1.48453620309768  L 8.05665306122449 1.48305166702605  L 8.05665306122449 5.93072173763453  L 1.86759183673469 5.9292372015629  L 1.86759183673469 9  L 15.1890612244898 9  L 16.1309387755102 8.91463924161418  L 16.1309387755102 5.93072173763453  L 9.94187755102041 5.93072173763453  L 9.94040816326531 1.48453620309768  Z " fill-rule="nonzero" fill="#333333" stroke="none" transform="matrix(1 0 0 1 416 9 )" />
  </g>
</svg>