<?xml version="1.0" encoding="utf-8"?>
<svg version="1.1" xmlns:xlink="http://www.w3.org/1999/xlink" width="14px" height="12px" xmlns="http://www.w3.org/2000/svg">
  <g transform="matrix(1 0 0 1 -923 -177 )">
    <path d="M 12.8339014492754 7  C 13.3717787708497 7  13.8078144927536 6.57019335983756  13.8078144927536 6.04  C 13.8078144927536 5.50980664016244  13.3717787708497 5.08  12.8339014492754 5  L 1.14694492753623 5  C 1.14694492753623 5.08  1.1469449685836 5.08  1.1469449685836 5.08  C 0.609067647009261 5.08  0.173031925105338 5.50980664016244  0.173031925105338 6.04  C 0.173031925105338 6.57019335983756  0.609067647009261 7  1.1469449685836 7  L 12.8339014492754 7  Z M 1.14694492753623 2.07072  L 8.93824927536232 2.07072  C 9.47612659693666 2.07072  9.91216231884058 1.64091335983756  9.91216231884058 1.11072  C 9.91216231884058 0.580526640162439  9.47612659693666 0.15072  8.93824927536232 0.15072  L 1.14694492753623 0.15072  C 0.609067605961893 0.15072  0.173031884057969 0.580526640162439  0.173031884057969 1.11072  C 0.173031884057969 1.64091335983756  0.609067605961893 2.07072  1.14694492753623 2.07072  Z M 6.34114782608696 10.00928  L 1.14694492753623 10.00928  C 0.609067605961894 10.00928  0.173031884057971 10.4390866401624  0.173031884057971 10.96928  C 0.173031884057971 11.4994733598376  0.609067605961894 11.92928  1.14694492753623 11.92928  L 6.34114782608696 11.92928  C 6.87902514766129 11.92928  7.31506086956522 11.4994733598376  7.31506086956522 10.96928  C 7.31506086956522 10.4390866401624  6.87902514766129 10.00928  6.34114782608696 10.00928  Z " fill-rule="nonzero" fill="#409eff" stroke="none" transform="matrix(1 0 0 1 923 177 )" />
  </g>
</svg>