<?xml version="1.0" encoding="utf-8"?>
<svg version="1.1" xmlns:xlink="http://www.w3.org/1999/xlink" width="26px" height="26px" xmlns="http://www.w3.org/2000/svg">
  <g transform="matrix(1 0 0 1 -874 -170 )">
    <path d="M 25.7616666666667 10.9788095238095  L 25.7585714285714 10.9788095238095  C 25.7585714285714 10.4340476190476  25.3159523809524 9.99142857142857  24.7711904761905 9.99142857142857  C 24.2264285714286 9.99142857142857  23.7838095238095 10.4340476190476  23.7838095238095 10.9788095238095  L 23.7838095238095 13.4735714285714  C 23.7838095238095 13.507619047619  23.7869047619048 13.5447619047619  23.79 13.5788095238095  L 23.79 23.7930952380952  L 2 23.7930952380952  L 2 2  L 23.79 2  L 23.79 2.23166666666667  C 23.7869047619048 2.26571428571429  23.7838095238095 2.2997619047619  23.7838095238095 2.33690476190476  L 23.7838095238095 4.90904761904762  C 23.7838095238095 5.45380952380952  24.2264285714286 5.89642857142857  24.7711904761905 5.89642857142857  C 25.3159523809524 5.89642857142857  25.7585714285714 5.45380952380952  25.7585714285714 4.90904761904762  L 25.7585714285714 3.22833333333333  L 25.7647619047619 3.22833333333333  L 25.7647619047619 2.04285714285714  C 25.7647619047619 0.953333333333333  24.8764285714286 0.0649999999999998  23.7869047619048 0  L 2.0397619047619 0  C 0.950238095238095 0.0680952380952382  0.0619047619047619 0.953333333333333  0 2.04285714285714  L 0 23.7930952380952  C 0.0619047619047619 24.882619047619  0.950238095238095 25.7709523809524  2.0397619047619 25.7709523809524  L 23.79 25.7709523809524  C 24.8795238095238 25.7709523809524  25.7678571428571 24.882619047619  25.7678571428571 23.7930952380952  L 25.7678571428571 12.0435714285714  L 25.7616666666667 12.0435714285714  L 25.7616666666667 10.9788095238095  Z " fill-rule="nonzero" fill="#409eff" stroke="none" transform="matrix(1 0 0 1 874 170 )" />
  </g>
</svg>