<?xml version="1.0" encoding="utf-8"?>
<svg version="1.1" xmlns:xlink="http://www.w3.org/1999/xlink" width="26px" height="26px" xmlns="http://www.w3.org/2000/svg">
  <g transform="matrix(1 0 0 1 -918 -170 )">
    <path d="M 0.123809523809524 13  C 0.123809523809524 20.0997333333333  5.90026666666667 25.8761904761905  13 25.8761904761905  C 17.9182223707617 25.8951038883914  22.4125701878278 23.0951190389059  24.5634793650794 18.672126984127  C 24.6303297481492 18.5361036215967  24.6650917052173 18.3865597788869  24.6650917052173 18.2349968253968  C 24.6650917052173 17.6876495237707  24.2213790476579 17.2439368662112  23.6740317460317 17.2439368662112  C 23.2961980170217 17.2439368662112  22.9512365241524 17.458771834362  22.7845841269841 17.7978666666667  C 20.9648983601784 21.5409446147539  17.1619282085233 23.9108073749363  13 23.8952380952381  C 6.99243174603174 23.8952380952381  2.10476190476191 19.0075682539683  2.10476190476191 13  C 2.10476190476191 6.99243174603175  6.99243174603175 2.1047619047619  13 2.1047619047619  C 19.0075682539683 2.1047619047619  23.8952380952381 6.99243174603174  23.8952380952381 13  C 23.8952380952381 13.5470248950705  24.3386893906438 13.9904761904762  24.8857142857143 13.9904761904762  C 25.4327391807848 13.9904761904762  25.8761904761905 13.5470248950705  25.8761904761905 13  C 25.8761904761905 5.90026666666667  20.0997333333333 0.123809523809524  13 0.123809523809524  C 5.90026666666667 0.123809523809524  0.123809523809524 5.90026666666667  0.123809523809524 13  Z " fill-rule="nonzero" fill="#409eff" stroke="none" transform="matrix(1 0 0 1 918 170 )" />
  </g>
</svg>