<?xml version="1.0" encoding="utf-8"?>
<svg version="1.1" xmlns:xlink="http://www.w3.org/1999/xlink" width="13px" height="13px" xmlns="http://www.w3.org/2000/svg">
  <g transform="matrix(1 0 0 1 -881 -177 )">
    <path d="M 5.39117647058824 11.8741071428571  C 5.39436274509804 12.3877232142857  5.85 12.8026785714286  6.41078431372549 12.8026785714286  C 6.97156862745098 12.8026785714286  7.42720588235294 12.3877232142857  7.42720588235294 11.8770089285714  L 7.42720588235294 6.54352678571429  L 11.7414215686275 6.54352678571429  C 12.3022058823529 6.54352678571429  12.7578431372549 6.12857142857143  12.7578431372549 5.61785714285714  C 12.7578431372549 5.10714285714286  12.3022058823529 4.6921875  11.7414215686275 4.6921875  L 7.43039215686275 4.6921875  L 7.43039215686275 1.08236607142857  C 7.43039215686275 0.571651785714285  6.97475490196079 0.15669642857143  6.4139705882353 0.15669642857143  C 5.85318627450981 0.15669642857143  5.39754901960785 0.571651785714287  5.39754901960785 1.08236607142857  L 5.39754901960785 4.68928571428571  L 1.07696078431373 4.68928571428571  C 0.516176470588235 4.68928571428571  0.0605392156862756 5.10424107142857  0.0605392156862756 5.61495535714286  C 0.0605392156862756 6.12566964285714  0.516176470588237 6.540625  1.07696078431373 6.540625  L 5.39117647058824 6.540625  L 5.39117647058824 11.8741071428571  Z " fill-rule="nonzero" fill="#409eff" stroke="none" transform="matrix(1 0 0 1 881 177 )" />
  </g>
</svg>