<?xml version="1.0" encoding="utf-8"?>
<svg version="1.1" xmlns:xlink="http://www.w3.org/1999/xlink" width="10px" height="16px" xmlns="http://www.w3.org/2000/svg">
  <g transform="matrix(1 0 0 1 -311 -507 )">
    <path d="M 8.7868901953125 15.5374949609375  C 8.6043878515625 15.7212404296875  8.36436634765625 15.8124916015625  8.1243784375 15.8124916015625  C 7.88439052734375 15.8124916015625  7.6443690234375 15.7212404296875  7.4612619140625 15.5381333203125  L 0.5868834765625 8.66375486328125  C 0.2206356640625 8.29814541015625  0.2206356640625 7.70437439453125  0.5868834765625 7.33812658203125  L 7.46126193359375 0.4631098046875  C 7.82750974609375 0.0968619921874998  8.42064240234375 0.0968619921874998  8.78689021484375 0.4631098046875  C 9.15313802734375 0.8287192578125  9.15313802734375 1.4224902734375  8.78689021484375 1.7887380859375  L 2.57562828125 8.000604765625  L 8.7868901953125 14.2118666796875  C 9.1531380078125 14.5781144921875  9.1531380078125 15.1712471484375  8.7868901953125 15.5374949609375  Z " fill-rule="nonzero" fill="#888888" stroke="none" transform="matrix(1 0 0 1 311 507 )" />
  </g>
</svg>