<?xml version="1.0" encoding="utf-8"?>
<svg version="1.1" xmlns:xlink="http://www.w3.org/1999/xlink" width="7px" height="7px" xmlns="http://www.w3.org/2000/svg">
  <g transform="matrix(1 0 0 1 -223 -10 )">
    <path d="M 5.011875 0.744375  L 5.180625 0.729375  C 5.63342308248078 0.72922404632875  6.02162136578666 1.05272261575032  6.103125 1.498125  L 6.118125 1.666875  L 6.118125 5.39625  C 6.11827595367125 5.84904808248078  5.79477738424968 6.23724636578666  5.349375 6.31875  L 5.180625 6.33375  L 1.49625 6.33375  C 1.49567471970558 6.33375105903465  1.49509943855929 6.33375158855231  1.49452415729009 6.33375158855231  C 0.976757204323718 6.33375158855231  0.557024157290087 5.91401854151868  0.557024157290087 5.39625158855231  C 0.557024157290087 4.94290981634038  0.881410927975868 4.55451696263263  1.3275 4.47375  L 1.49625 4.45875  L 4.243125 4.456875  L 4.243125 1.666875  C 4.24297404632875 1.21407691751922  4.56647261575032 0.825878634213339  5.011875 0.744375  Z " fill-rule="nonzero" fill="#409eff" stroke="none" transform="matrix(1 0 0 1 223 10 )" />
  </g>
</svg>