<?xml version="1.0" encoding="utf-8"?>
<svg version="1.1" xmlns:xlink="http://www.w3.org/1999/xlink" width="20px" height="20px" xmlns="http://www.w3.org/2000/svg">
  <g transform="matrix(1 0 0 1 -212 -10 )">
    <path d="M 0.626818765878615 9.99999982357817  C 0.626818765878615 4.82304055190735  4.8230408257509 0.626004338867018  10 0.625  C 12.4609375 0.625  14.771875 1.578125  16.503125 3.246875  L 16.8015625 3.5484375  L 15.7546875 4.540625  C 14.2568967074317 2.96278241222665  12.1768296013033 2.06930979472989  10.001291853965 2.06930979472989  C 5.62012048694792 2.06930979472989  2.06847935396501 5.6209509277128  2.06847935396501 10.0021222947299  C 2.06847935396501 14.383293661747  5.62012048694792 17.9349347947299  10.001291853965 17.9349347947299  C 14.3824632209821 17.9349347947299  17.934104353965 14.383293661747  17.934104353965 10.0021222947299  C 17.934104353965 9.25653785984611  17.8289936079768 8.51467630917662  17.621875 7.7984375  L 17.4890625 7.378125  L 18.85 6.9015625  C 19.1987102274802 7.89737134449635  19.3768187658786 8.944900739356  19.3768187658786 9.99999982357817  C 19.3768187658786 15.1776693532419  15.1794882955423 19.3749998235782  10.0018187658786 19.3749998235782  C 4.82414923621493 19.3749998235782  0.626818765878615 15.1776693532419  0.626818765878615 9.99999982357817  Z " fill-rule="nonzero" fill="#409eff" stroke="none" transform="matrix(1 0 0 1 212 10 )" />
  </g>
</svg>