<?xml version="1.0" encoding="utf-8"?>
<svg version="1.1" xmlns:xlink="http://www.w3.org/1999/xlink" width="18px" height="20px" xmlns="http://www.w3.org/2000/svg">
  <g transform="matrix(1 0 0 1 -146 -10 )">
    <path d="M 9.29605263157895 18.5565476190476  L 9.29605263157895 17.0684523809524  L 1.74671052631579 17.0684523809524  C 2.41282894736842 13.6458333333333  5.44736842105263 11.1160714285714  9 11.1160714285714  C 10.7023026315789 11.1160714285714  12.1825657894737 11.6369047619048  13.4407894736842 12.6041666666667  L 15.6611842105263 12.6041666666667  C 14.6990131578947 11.4880952380952  13.4407894736842 10.6696428571429  12.0345394736842 10.1488095238095  C 13.3667763157895 9.18154761904762  14.2549342105263 7.69345238095238  14.2549342105263 5.90773809523809  C 14.2549342105263 3.00595238095238  11.9605263157895 0.699404761904762  9.07401315789474 0.699404761904762  C 6.1875 0.699404761904762  3.89309210526316 3.00595238095238  3.89309210526316 5.90773809523809  C 3.89309210526316 7.69345238095238  4.78125 9.18154761904762  6.11348684210527 10.1488095238095  C 2.93092105263158 11.264880952381  0.562500000000001 14.1666666666667  0.266447368421053 17.7380952380952  L 0.118421052631579 18.5565476190476  L 9.29605263157895 18.5565476190476  Z M 9 9.62797619047619  C 6.92763157894737 9.62797619047619  5.29934210526316 7.99107142857143  5.29934210526316 5.90773809523809  C 5.29934210526316 3.82440476190476  6.92763157894737 2.1875  9 2.1875  C 11.0723684210526 2.1875  12.7006578947368 3.82440476190476  12.7006578947368 5.90773809523809  C 12.7006578947368 7.99107142857143  11.0723684210526 9.62797619047619  9 9.62797619047619  Z M 11.2203947368421 14.2410714285714  C 11.2203947368421 14.1666666666667  11.2944078947368 14.0922619047619  11.3684210526316 14.0922619047619  L 17.7335526315789 14.0922619047619  C 17.8075657894737 14.0922619047619  17.8815789473684 14.1666666666667  17.8815789473684 14.2410714285714  L 17.8815789473684 15.4315476190476  C 17.8815789473684 15.5059523809524  17.8075657894737 15.5803571428571  17.7335526315789 15.5803571428571  L 11.3684210526316 15.5803571428571  C 11.2944078947368 15.5803571428571  11.2203947368421 15.5059523809524  11.2203947368421 15.4315476190476  L 11.2203947368421 14.2410714285714  Z M 11.2203947368421 17.9613095238095  C 11.2203947368421 17.8869047619048  11.2944078947368 17.8125  11.3684210526316 17.8125  L 17.7335526315789 17.8125  C 17.8075657894737 17.8125  17.8815789473684 17.8869047619048  17.8815789473684 17.9613095238095  L 17.8815789473684 19.1517857142857  C 17.8815789473684 19.2261904761905  17.8075657894737 19.3005952380952  17.7335526315789 19.3005952380952  L 11.3684210526316 19.3005952380952  C 11.2944078947368 19.3005952380952  11.2203947368421 19.2261904761905  11.2203947368421 19.1517857142857  L 11.2203947368421 17.9613095238095  Z " fill-rule="nonzero" fill="#409eff" stroke="none" transform="matrix(1 0 0 1 146 10 )" />
  </g>
</svg>