<?xml version="1.0" encoding="utf-8"?>
<svg version="1.1" xmlns:xlink="http://www.w3.org/1999/xlink" width="17px" height="20px" xmlns="http://www.w3.org/2000/svg">
  <g transform="matrix(1 0 0 1 -250 -10 )">
    <path d="M 5.66666666666667 5.22727272727273  C 5.66800848021306 6.35641065435802  6.61861782019472 7.27143568749545  7.79166666666667 7.27272727272727  L 14.875 7.27272727272727  C 16.0480488464719 7.27143568749544  16.9986581864536 6.35641065435802  17 5.22727272727273  L 17 2.5  C 16.9986581864536 1.37086207291471  16.0480488464719 0.455837039777283  14.875 0.454545454545455  L 7.79166666666667 0.454545454545455  C 6.61861782019472 0.455837039777282  5.66800848021306 1.37086207291471  5.66666666666667 2.5  L 5.66666666666667 3.18181818181818  L 2.125 3.18181818181818  C 0.951951153528059 3.18310976705001  0.00134181354639833 4.09813480018744  0 5.22727272727273  L 0 8.63636363636364  C 0.00134181354639917 9.76550156344893  0.951951153528059 10.6805265965864  2.125 10.6818181818182  L 14.875 10.6818181818182  C 15.2662016977968 10.6818181818182  15.5833333333333 10.9870785796608  15.5833333333333 11.3636363636364  L 15.5833333333333 14.7727272727273  C 15.5833333333333 15.1492850567028  15.2662016977968 15.4545454545455  14.875 15.4545454545455  L 11.3333333333333 15.4545454545455  L 11.3333333333333 14.7727272727273  C 11.3319915197869 13.643589345642  10.3813821798053 12.7285643125046  9.20833333333333 12.7272727272727  L 2.125 12.7272727272727  C 0.951951153528059 12.7285643125046  0.00134181354639833 13.643589345642  0 14.7727272727273  L 0 17.5  C 0.00134181354639917 18.6291379270853  0.951951153528059 19.5441629602227  2.125 19.5454545454545  L 9.20833333333333 19.5454545454545  C 10.3813821798053 19.5441629602227  11.3319915197869 18.6291379270853  11.3333333333333 17.5  L 11.3333333333333 16.8181818181818  L 14.875 16.8181818181818  C 16.0480488464719 16.81689023295  16.9986581864536 15.9018651998126  17 14.7727272727273  L 17 11.3636363636364  C 16.9986581864536 10.2344984365511  16.0480488464719 9.31947340341365  14.875 9.31818181818182  L 2.125 9.31818181818182  C 1.73379830220319 9.31818181818182  1.41666666666667 9.01292142033918  1.41666666666667 8.63636363636364  L 1.41666666666667 5.22727272727273  C 1.41666666666667 4.85071494329719  1.73379830220319 4.54545454545454  2.125 4.54545454545454  L 5.66666666666667 4.54545454545454  L 5.66666666666667 5.22727272727273  Z M 9.91666666666667 14.7727272727273  L 9.91666666666667 17.5  C 9.91666666666667 17.8765577839755  9.59953503113014 18.1818181818182  9.20833333333333 18.1818181818182  L 2.125 18.1818181818182  C 1.73379830220319 18.1818181818182  1.41666666666667 17.8765577839755  1.41666666666667 17.5  L 1.41666666666667 14.7727272727273  C 1.41666666666667 14.3961694887517  1.73379830220319 14.0909090909091  2.125 14.0909090909091  L 9.20833333333333 14.0909090909091  C 9.59953503113014 14.0909090909091  9.91666666666667 14.3961694887517  9.91666666666667 14.7727272727273  Z M 7.08333333333333 5.22727272727273  L 7.08333333333333 2.5  C 7.08333333333333 2.12344221602446  7.40046496886985 1.81818181818182  7.79166666666667 1.81818181818182  L 14.875 1.81818181818182  C 15.2662016977968 1.81818181818182  15.5833333333333 2.12344221602446  15.5833333333333 2.5  L 15.5833333333333 5.22727272727273  C 15.5833333333333 5.60383051124827  15.2662016977968 5.90909090909091  14.875 5.90909090909091  L 7.79166666666667 5.90909090909091  C 7.40046496886985 5.90909090909091  7.08333333333333 5.60383051124827  7.08333333333333 5.22727272727273  Z " fill-rule="nonzero" fill="#409eff" stroke="none" transform="matrix(1 0 0 1 250 10 )" />
  </g>
</svg>