<?xml version="1.0" encoding="utf-8"?>
<svg version="1.1" xmlns:xlink="http://www.w3.org/1999/xlink" width="18px" height="18px" xmlns="http://www.w3.org/2000/svg">
  <g transform="matrix(1 0 0 1 -179 -11 )">
    <path d="M 188 12  C 192.48 12  196 15.52  196 20  C 196 24.48  192.48 28  188 28  C 183.52 28  180 24.48  180 20  C 180 15.52  183.52 12  188 12  Z " fill-rule="nonzero" fill="#ffffff" stroke="none" fill-opacity="0" />
    <path d="M 188 12  C 192.48 12  196 15.52  196 20  C 196 24.48  192.48 28  188 28  C 183.52 28  180 24.48  180 20  C 180 15.52  183.52 12  188 12  Z " stroke-width="2" stroke="#409eff" fill="none" />
  </g>
</svg>