<?xml version="1.0" encoding="utf-8"?>
<svg version="1.1" xmlns:xlink="http://www.w3.org/1999/xlink" width="14px" height="14px" xmlns="http://www.w3.org/2000/svg">
  <g transform="matrix(1 0 0 1 -120 -95 )">
    <path d="M 6.3 6.3  L 6.3 10.5  L 7.7 10.5  L 7.7 6.3  L 6.3 6.3  Z M 14 7  C 14 3.136  10.864 0  7 0  C 3.136 0  0 3.136  0 7  C 0 10.864  3.136 14  7 14  C 10.864 14  14 10.864  14 7  Z M 12.6 7  C 12.6 10.087  10.087 12.6  7 12.6  C 3.913 12.6  1.4 10.087  1.4 7  C 1.4 3.913  3.913 1.4  7 1.4  C 10.087 1.4  12.6 3.913  12.6 7  Z M 6.3 3.5  L 6.3 4.9  L 7.7 4.9  L 7.7 3.5  L 6.3 3.5  Z " fill-rule="nonzero" fill="#919191" stroke="none" transform="matrix(1 0 0 1 120 95 )" />
  </g>
</svg>