<?xml version="1.0" encoding="utf-8"?>
<svg version="1.1" xmlns:xlink="http://www.w3.org/1999/xlink" width="20px" height="20px" xmlns="http://www.w3.org/2000/svg">
  <g transform="matrix(1 0 0 1 -81 -2419 )">
    <path d="M 19.0277777777778 10  C 19.0277777777778 14.985903991528  14.985903991528 19.0277777777778  10 19.0277777777778  C 5.014096008472 19.0277777777778  0.972222222222223 14.985903991528  0.972222222222223 10  C 0.972222222222223 5.014096008472  5.014096008472 0.972222222222223  10 0.972222222222223  C 14.985903991528 0.972222222222223  19.0277777777778 5.014096008472  19.0277777777778 10  Z M 17.6388888888889 10  C 17.6388888888889 5.78115816101477  14.2188418389852 2.36111111111111  10 2.36111111111111  C 5.78115816101477 2.36111111111111  2.36111111111111 5.78115816101477  2.36111111111111 10  C 2.36111111111111 14.2188418389852  5.78115816101477 17.6388888888889  10 17.6388888888889  C 14.2188418389852 17.6388888888889  17.6388888888889 14.2188418389852  17.6388888888889 10  Z M 13.225 10.4458333333333  L 8.86527777777778 13.3666666666667  C 8.76155829456489 13.4355653922562  8.63979589428896 13.4722873859902  8.51527777777778 13.4722222222222  C 8.507307646289 13.4725541134461  8.49933147119881 13.47272011296  8.49135443241659 13.47272011296  C 8.18116612665479 13.47272011296  7.92688753517848 13.2266865351884  7.91666666666667 12.9166666666667  L 7.91666666666667 7.08333333333333  C 7.91731953022162 6.96575295009587  7.95742477770037 6.85179535665016  8.03055555555556 6.75972222222222  C 8.23713348640798 6.51329125514068  8.59582531521547 6.4612809399636  8.86388888888889 6.63888888888889  L 13.225 9.55555555555556  C 13.2778976360933 9.58811818166616  13.3248650336943 9.62944949155503  13.3638888888889 9.67777777777778  C 13.436002744039 9.76972545270274  13.4751944994151 9.88320283775032  13.4751944994151 10.0000565198862  C 13.4751944994151 10.1821001101034  13.3803951710637 10.3510060716981  13.225 10.4458333333333  Z " fill-rule="nonzero" fill="#666666" stroke="none" transform="matrix(1 0 0 1 81 2419 )" />
  </g>
</svg>