<?xml version="1.0" encoding="utf-8"?>
<svg version="1.1" xmlns:xlink="http://www.w3.org/1999/xlink" width="16px" height="20px" xmlns="http://www.w3.org/2000/svg">
  <g transform="matrix(1 0 0 1 -886 -1136 )">
    <path d="M 13.9435897512019 7.48529411764706  C 15.0153846153846 7.20588235294118  15.7948717872596 6.27450979664522  15.7948717872596 5.15686273782169  C 15.7948717872596 3.66666667394301  14.6256410180288 2.54901961511949  13.0666666742788 2.54901961511949  C 11.5076923305288 2.54901961511949  10.3384615384615 3.66666667394301  10.3384615384615 5.15686273782169  C 10.3384615384615 6.36764705882353  11.2153846153846 7.39215685546875  12.4820512896635 7.67156862017463  L 12.4820512896635 7.76470588235294  C 12.4820512896635 9.16176470588235  11.3128205204327 10.3725490268842  9.75384615384615 10.3725490268842  L 8 10.3725490268842  L 6.73333332572115 10.3725490268842  C 5.46666665144231 10.3725490268842  4.39487178725962 10.8382352941176  3.61538461538462 11.583333326057  L 3.61538461538462 5.71568626723346  C 4.78461538461538 5.43627450252757  5.56410255649038 4.41176470588235  5.56410255649038 3.29411764705882  C 5.56410255649038 1.8039215613511  4.39487178725962 0.686274502527573  2.93333332572115 0.686274502527573  C 1.47179486418269 0.686274502527573  0.205128212740384 1.8039215613511  0.205128212740384 3.29411764705882  C 0.205128212740384 4.41176470588235  0.984615384615384 5.43627450252757  2.15384615384615 5.71568626723346  L 2.15384615384615 14.2843137327665  C 0.984615384615385 14.5637254974724  0.205128212740385 15.5882352941176  0.205128212740385 16.7058823529412  C 0.205128212740384 18.1960784386489  1.37435898197115 19.3137254974724  2.93333332572115 19.3137254974724  C 4.49230766947115 19.3137254974724  5.66153846153846 18.1960784386489  5.66153846153846 16.7058823529412  C 5.66153846153846 15.5882352941176  4.88205128966346 14.5637254974724  3.71282052043269 14.2843137327665  C 3.90769230769231 12.7941176470588  5.17435898197115 11.583333347886  6.83076923076923 11.583333326057  L 9.85128205889423 11.583333326057  C 12.0923076923077 11.583333326057  13.9435897512019 9.81372547564338  13.9435897512019 7.67156862017463  L 13.9435897512019 7.48529411764706  Z M 2.93333332572115 4.41176470588235  C 2.34871794110577 4.41176470588235  1.66666665144231 3.85294117647059  1.66666667427885 3.29411764705882  C 1.66666667427885 2.64215685546875  2.25128205889423 2.17647058823529  2.83589744350962 2.17647058823529  C 3.420512828125 2.17647058823529  4.10256409495192 2.64215685546875  4.10256409495192 3.29411764705882  C 4.10256409495192 3.9460784386489  3.51794871033654 4.41176470588235  2.93333332572115 4.41176470588235  Z M 2.93333332572115 15.5882352941176  C 3.61538461538462 15.5882352941176  4.10256409495192 16.1470588235294  4.10256409495192 16.7058823529412  C 4.10256409495192 17.3578431445313  3.51794871033654 17.8235294117647  2.93333332572115 17.8235294117647  C 2.34871794110577 17.8235294117647  1.76410255649038 17.2647058823529  1.76410255649038 16.7058823529412  C 1.76410255649038 16.1470588235294  2.25128203605769 15.5882352941176  2.93333332572115 15.5882352941176  Z M 14.2358974435096 5.15686273782169  C 14.2358974435096 5.71568626723345  13.7487179411058 6.27450979664522  13.0666666742788 6.27450979664522  C 12.4820512896635 6.27450979664522  11.8974359050481 5.71568626723345  11.8974359050481 5.15686273782169  C 11.8974359050481 4.59803920840993  12.4820512896635 4.03921567899816  13.0666666742788 4.03921567899816  C 13.6512820588942 4.03921567899816  14.2358974435096 4.59803920840993  14.2358974435096 5.15686273782169  Z " fill-rule="nonzero" fill="#409eff" stroke="none" transform="matrix(1 0 0 1 886 1136 )" />
  </g>
</svg>