<?xml version="1.0" encoding="utf-8"?>
<svg version="1.1" xmlns:xlink="http://www.w3.org/1999/xlink" width="18px" height="18px" viewBox="154 213  18 18" xmlns="http://www.w3.org/2000/svg">
  <path d="M 154.5 216  A 2.5 2.5 0 0 1 157 213.5 L 169 213.5  A 2.5 2.5 0 0 1 171.5 216 L 171.5 228  A 2.5 2.5 0 0 1 169 230.5 L 157 230.5  A 2.5 2.5 0 0 1 154.5 228 L 154.5 216  Z " fill-rule="nonzero" fill="#409eff" stroke="none" />
  <path d="M 154.5 216  A 2.5 2.5 0 0 1 157 213.5 L 169 213.5  A 2.5 2.5 0 0 1 171.5 216 L 171.5 228  A 2.5 2.5 0 0 1 169 230.5 L 157 230.5  A 2.5 2.5 0 0 1 154.5 228 L 154.5 216  Z " stroke-width="1" stroke="#ffffff" fill="none" />
  <path d="M 157.857142857143 222  L 161.714285714286 225.857142857143  L 168.142857142857 216.857142857143  " stroke-width="3.85714285714286" stroke="#ffffff" fill="none" />
</svg>