<?xml version="1.0" encoding="utf-8"?>
<svg version="1.1" xmlns:xlink="http://www.w3.org/1999/xlink" width="18px" height="18px" viewBox="154 157  18 18" xmlns="http://www.w3.org/2000/svg">
  <path d="M 154.5 160  A 2.5 2.5 0 0 1 157 157.5 L 169 157.5  A 2.5 2.5 0 0 1 171.5 160 L 171.5 172  A 2.5 2.5 0 0 1 169 174.5 L 157 174.5  A 2.5 2.5 0 0 1 154.5 172 L 154.5 160  Z " fill-rule="nonzero" fill="#409eff" stroke="none" />
  <path d="M 154.5 160  A 2.5 2.5 0 0 1 157 157.5 L 169 157.5  A 2.5 2.5 0 0 1 171.5 160 L 171.5 172  A 2.5 2.5 0 0 1 169 174.5 L 157 174.5  A 2.5 2.5 0 0 1 154.5 172 L 154.5 160  Z " stroke-width="1" stroke="#ffffff" fill="none" />
  <path d="M 157.857142857143 166  L 161.714285714286 169.857142857143  L 168.142857142857 160.857142857143  " stroke-width="3.85714285714286" stroke="#ffffff" fill="none" />
</svg>