<?xml version="1.0" encoding="utf-8"?>
<svg version="1.1" xmlns:xlink="http://www.w3.org/1999/xlink" width="12px" height="12px" viewBox="223 192  12 12" xmlns="http://www.w3.org/2000/svg">
  <path d="M 229 192  C 232.36 192  235 194.64  235 198  C 235 201.36  232.36 204  229 204  C 225.64 204  223 201.36  223 198  C 223 194.64  225.64 192  229 192  Z " fill-rule="nonzero" fill="#ffffff" stroke="none" />
  <path d="M 229 192.5  C 232.08 192.5  234.5 194.92  234.5 198  C 234.5 201.08  232.08 203.5  229 203.5  C 225.92 203.5  223.5 201.08  223.5 198  C 223.5 194.92  225.92 192.5  229 192.5  Z " stroke-width="1" stroke="#797979" fill="none" />
  <path d="M 229 201  C 227.32 201  226 199.68  226 198  C 226 196.32  227.32 195  229 195  C 230.68 195  232 196.32  232 198  C 232 199.68  230.68 201  229 201  " fill-rule="nonzero" fill="#797979" stroke="none" />
</svg>