<?xml version="1.0" encoding="utf-8"?>
<svg version="1.1" xmlns:xlink="http://www.w3.org/1999/xlink" width="14px" height="14px" viewBox="233 62.5  14 14" xmlns="http://www.w3.org/2000/svg">
  <path d="M 240 62.5  C 243.92 62.5  247 65.58  247 69.5  C 247 73.42  243.92 76.5  240 76.5  C 236.08 76.5  233 73.42  233 69.5  C 233 65.58  236.08 62.5  240 62.5  Z " fill-rule="nonzero" fill="#ffffff" stroke="none" />
  <path d="M 240 63  C 243.64 63  246.5 65.86  246.5 69.5  C 246.5 73.14  243.64 76  240 76  C 236.36 76  233.5 73.14  233.5 69.5  C 233.5 65.86  236.36 63  240 63  Z " stroke-width="1" stroke="#409eff" fill="none" />
  <path d="M 240 73  C 238.04 73  236.5 71.46  236.5 69.5  C 236.5 67.54  238.04 66  240 66  C 241.96 66  243.5 67.54  243.5 69.5  C 243.5 71.46  241.96 73  240 73  " fill-rule="nonzero" fill="#409eff" stroke="none" />
</svg>