<?xml version="1.0" encoding="utf-8"?>
<svg version="1.1" xmlns:xlink="http://www.w3.org/1999/xlink" width="14px" height="14px" viewBox="233 64  14 14" xmlns="http://www.w3.org/2000/svg">
  <path d="M 240 64  C 243.92 64  247 67.08  247 71  C 247 74.92  243.92 78  240 78  C 236.08 78  233 74.92  233 71  C 233 67.08  236.08 64  240 64  Z " fill-rule="nonzero" fill="#ffffff" stroke="none" />
  <path d="M 240 64.5  C 243.64 64.5  246.5 67.36  246.5 71  C 246.5 74.64  243.64 77.5  240 77.5  C 236.36 77.5  233.5 74.64  233.5 71  C 233.5 67.36  236.36 64.5  240 64.5  Z " stroke-width="1" stroke="#409eff" fill="none" />
  <path d="M 240 74.5  C 238.04 74.5  236.5 72.96  236.5 71  C 236.5 69.04  238.04 67.5  240 67.5  C 241.96 67.5  243.5 69.04  243.5 71  C 243.5 72.96  241.96 74.5  240 74.5  " fill-rule="nonzero" fill="#409eff" stroke="none" />
</svg>