<?xml version="1.0" encoding="utf-8"?>
<svg version="1.1" xmlns:xlink="http://www.w3.org/1999/xlink" width="14px" height="14px" viewBox="154 64  14 14" xmlns="http://www.w3.org/2000/svg">
  <path d="M 161 64  C 164.92 64  168 67.08  168 71  C 168 74.92  164.92 78  161 78  C 157.08 78  154 74.92  154 71  C 154 67.08  157.08 64  161 64  Z " fill-rule="nonzero" fill="#ffffff" stroke="none" />
  <path d="M 161 64.5  C 164.64 64.5  167.5 67.36  167.5 71  C 167.5 74.64  164.64 77.5  161 77.5  C 157.36 77.5  154.5 74.64  154.5 71  C 154.5 67.36  157.36 64.5  161 64.5  Z " stroke-width="1" stroke="#409eff" fill="none" />
  <path d="M 161 74.5  C 159.04 74.5  157.5 72.96  157.5 71  C 157.5 69.04  159.04 67.5  161 67.5  C 162.96 67.5  164.5 69.04  164.5 71  C 164.5 72.96  162.96 74.5  161 74.5  " fill-rule="nonzero" fill="#409eff" stroke="none" />
</svg>