<?xml version="1.0" encoding="utf-8"?>
<svg version="1.1" xmlns:xlink="http://www.w3.org/1999/xlink" width="16px" height="16px" viewBox="17 573  16 16" xmlns="http://www.w3.org/2000/svg">
  <path d="M 17.5 576  A 2.5 2.5 0 0 1 20 573.5 L 30 573.5  A 2.5 2.5 0 0 1 32.5 576 L 32.5 586  A 2.5 2.5 0 0 1 30 588.5 L 20 588.5  A 2.5 2.5 0 0 1 17.5 586 L 17.5 576  Z " fill-rule="nonzero" fill="#ffffff" stroke="none" />
  <path d="M 17.5 576  A 2.5 2.5 0 0 1 20 573.5 L 30 573.5  A 2.5 2.5 0 0 1 32.5 576 L 32.5 586  A 2.5 2.5 0 0 1 30 588.5 L 20 588.5  A 2.5 2.5 0 0 1 17.5 586 L 17.5 576  Z " stroke-width="1" stroke="#999999" fill="none" />
</svg>