<?xml version="1.0" encoding="utf-8"?>
<svg version="1.1" xmlns:xlink="http://www.w3.org/1999/xlink" width="17px" height="17px" xmlns="http://www.w3.org/2000/svg">
  <g transform="matrix(1 0 0 1 -272 -161 )">
    <path d="M 15.2237205689446 3.83710024803287  C 15.090598251075 3.83710024803287  14.9598204506696 3.87213611353133  14.8445275 3.9386875  C 14.4833885008774 4.1482519414838  14.3555246282284 4.60774681450906  14.556505 4.9737325  C 15.0690906210141 5.95573525306023  15.3341877042723 7.0480297729341  15.3287725 8.15575  C 15.3287725 10.264855  14.386675 12.215605  12.6987025 13.565065  C 11.7207715199794 14.3377131552812  10.5470495613828 14.822856862609  9.3089875 14.9661625  C 7.22050960963962 15.221804016125  5.13060439017479 14.5018913433203  3.6426325 13.014265  C 2.35400121133618 11.7317337722935  1.63282620595615 9.98644893119331  1.640245 8.1683725  C 1.64280596797131 6.53278956630921  2.23242283086915 4.95246978391522  3.301825 3.714925  C 3.35461 3.66214  3.43264 3.66214  3.471655 3.714925  L 4.0488475 4.449325  C 4.19505885975523 4.63480947571499  4.4312364137296 4.72513857751489  4.6639075 4.6845625  C 4.75741356284487 4.67280701356712  4.84468741971813 4.63138209532774  4.912915 4.56637  C 5.01593233654424 4.4826926944846  5.0891803817344 4.36799108525825  5.12176 4.2393325  L 5.8802575 1.26616  C 5.92735156448392 1.07451369274199  5.88377379417422 0.871855906544465  5.762065 0.7165075  C 5.64564285244375 0.559613248127713  5.46171604848379 0.467224089657084  5.266345 0.4675  L 2.2036675 0.4675  C 2.07206358426652 0.466173554422543  1.94359341133987 0.507654519348703  1.837615 0.5856925  C 1.75992603885329 0.641150824425933  1.70074496111983 0.718726020914385  1.667785 0.8083075  C 1.575985 1.0183  1.6023775 1.2673075  1.745815 1.46353  L 2.3872675 2.301205  C 2.4262825 2.34022  2.41366 2.4056275  2.374645 2.44579  C 0.607495 4.3449025  -0.29444 7.08169  0.32062 9.989455  C 1.0538725 13.4078575  3.9065575 16.01383  7.3743025 16.45906  C 7.74514758576002 16.5090106184785  8.1189215543906 16.5340700301517  8.49311554407876 16.5340700301517  C 13.1208224816143 16.5340700301517  16.872787541644 12.7834566371257  16.874455 8.15575  C 16.8787441239063 6.78893457026547  16.541495897797 5.44270276241653  15.8933425 4.2393325  C 15.761640596212 3.99179086178196  15.5041171704095 3.83710024803287  15.2237205689446 3.83710024803287  Z " fill-rule="nonzero" fill="#ffffff" stroke="none" transform="matrix(1 0 0 1 272 161 )" />
  </g>
</svg>