<?xml version="1.0" encoding="utf-8"?>
<svg version="1.1" xmlns:xlink="http://www.w3.org/1999/xlink" width="17px" height="17px" xmlns="http://www.w3.org/2000/svg">
  <g transform="matrix(1 0 0 1 -179 -161 )">
    <path d="M 6.059814421875 6.07194860351562  L 6.059814421875 10.9207708808594  L 10.9086366826172 10.9207708808594  L 10.9086366826172 6.07194860351562  L 6.059814421875 6.07194860351562  Z M 8.48422556054688 15.7708065664063  C 12.4848679667969 15.7708065664063  15.7574589599609 12.4970021484375  15.7574589599609 8.4963597421875  C 15.7574589599609 4.49693076074219  12.4848679501953 1.22312634277344  8.48422556054688 1.22312634277344  C 4.48358315429688 1.22312634277344  1.21099216113281 4.49693076074219  1.21099214453125 8.4963597421875  C 1.21099214453125 12.4970021484375  4.48358315429688 15.7708065664063  8.48422556054688 15.7708065664063  Z M 0 8.50606709082031  C 0 3.83440398828125  3.82226980664062 0.0121341816406251  8.49393290917969 0.012134181640625  C 13.1655960117187 0.012134181640625  16.9878658183594 3.83440398828125  16.9878658183594 8.50606709082031  C 16.9878658183594 13.1777301933594  13.1655960117187 17  8.49393290917969 17  C 3.82226980664062 17  0 13.1777301933594  0 8.50606709082031  Z " fill-rule="nonzero" fill="#ffffff" stroke="none" transform="matrix(1 0 0 1 179 161 )" />
  </g>
</svg>