<?xml version="1.0" encoding="utf-8"?>
<svg version="1.1" xmlns:xlink="http://www.w3.org/1999/xlink" width="18px" height="19px" xmlns="http://www.w3.org/2000/svg">
  <g transform="matrix(1 0 0 1 -85 -160 )">
    <path d="M 17.3046875 9.53369140625  C 17.3046875 14.258125  13.460947265625 18.1025390625  8.7362890625 18.1025390625  C 4.01185546875 18.1025390625  0.1669921875 14.258349609375  0.1669921875 9.53369140625  C 0.1669921875 4.809033203125  4.01185546875 0.96484375  8.7362890625 0.96484375  C 13.46072265625 0.96484375  17.3046875 4.8092578125  17.3046875 9.53369140625  Z M 8.7362890625 2.255  C 4.72251953125 2.255  1.456923828125 5.52037109375  1.456923828125 9.534365234375  C 1.456923828125 13.548359375  4.72251953125 16.813056640625  8.7362890625 16.813056640625  C 12.75005859375 16.813056640625  16.015654296875 13.5474609375  16.015654296875 9.53369140625  C 16.015654296875 5.519921875  12.750283203125 2.25455078125  8.7362890625 2.25455078125  Z M 6.99690087121877 13.3113443067044  C 6.92604604555786 13.3113443067044  6.86832536901623 13.2544413637107  6.867314453125 13.18359375  L 6.867314453125 5.888056640625  C 6.86825142429408 5.81715483070496  6.92599474678657 5.76016954741588  6.99690274749812 5.76016954741588  C 7.02085472463032 5.76016954741588  7.04433816158247 5.76680722182993  7.06474609375 5.779345703125  L 12.60361328125 9.4290234375  C 12.6394706207434 9.45272655474079  12.6610404459929 9.4928416337747  12.6610404459929 9.5358251953125  C 12.6610404459929 9.5788087568503  12.6394706207434 9.61892383588421  12.60361328125 9.642626953125  L 7.064521484375 13.2923046875  C 7.04416403046353 13.304755697252  7.02076409760587 13.3113443067044  6.99690087121877 13.3113443067044  Z " fill-rule="nonzero" fill="#ffffff" stroke="none" transform="matrix(1 0 0 1 85 160 )" />
  </g>
</svg>