<?xml version="1.0" encoding="utf-8"?>
<svg version="1.1" xmlns:xlink="http://www.w3.org/1999/xlink" width="18px" height="18px" viewBox="1581 -252  18 18" xmlns="http://www.w3.org/2000/svg">
  <path d="M 1581.5 -249  A 2.5 2.5 0 0 1 1584 -251.5 L 1596 -251.5  A 2.5 2.5 0 0 1 1598.5 -249 L 1598.5 -237  A 2.5 2.5 0 0 1 1596 -234.5 L 1584 -234.5  A 2.5 2.5 0 0 1 1581.5 -237 L 1581.5 -249  Z " fill-rule="nonzero" fill="#ffffff" stroke="none" />
  <path d="M 1581.5 -249  A 2.5 2.5 0 0 1 1584 -251.5 L 1596 -251.5  A 2.5 2.5 0 0 1 1598.5 -249 L 1598.5 -237  A 2.5 2.5 0 0 1 1596 -234.5 L 1584 -234.5  A 2.5 2.5 0 0 1 1581.5 -237 L 1581.5 -249  Z " stroke-width="1" stroke="#797979" fill="none" />
</svg>