<?xml version="1.0" encoding="utf-8"?>
<svg version="1.1" xmlns:xlink="http://www.w3.org/1999/xlink" width="16px" height="16px" viewBox="92 704  16 16" xmlns="http://www.w3.org/2000/svg">
  <path d="M 92.5 707  A 2.5 2.5 0 0 1 95 704.5 L 105 704.5  A 2.5 2.5 0 0 1 107.5 707 L 107.5 717  A 2.5 2.5 0 0 1 105 719.5 L 95 719.5  A 2.5 2.5 0 0 1 92.5 717 L 92.5 707  Z " fill-rule="nonzero" fill="#ffffff" stroke="none" />
  <path d="M 92.5 707  A 2.5 2.5 0 0 1 95 704.5 L 105 704.5  A 2.5 2.5 0 0 1 107.5 707 L 107.5 717  A 2.5 2.5 0 0 1 105 719.5 L 95 719.5  A 2.5 2.5 0 0 1 92.5 717 L 92.5 707  Z " stroke-width="1" stroke="#999999" fill="none" />
</svg>