<?xml version="1.0" encoding="utf-8"?>
<svg version="1.1" xmlns:xlink="http://www.w3.org/1999/xlink" width="16px" height="16px" viewBox="92 594  16 16" xmlns="http://www.w3.org/2000/svg">
  <path d="M 92.5 597  A 2.5 2.5 0 0 1 95 594.5 L 105 594.5  A 2.5 2.5 0 0 1 107.5 597 L 107.5 607  A 2.5 2.5 0 0 1 105 609.5 L 95 609.5  A 2.5 2.5 0 0 1 92.5 607 L 92.5 597  Z " fill-rule="nonzero" fill="#ffffff" stroke="none" />
  <path d="M 92.5 597  A 2.5 2.5 0 0 1 95 594.5 L 105 594.5  A 2.5 2.5 0 0 1 107.5 597 L 107.5 607  A 2.5 2.5 0 0 1 105 609.5 L 95 609.5  A 2.5 2.5 0 0 1 92.5 607 L 92.5 597  Z " stroke-width="1" stroke="#999999" fill="none" />
  <path d="M 95.4285714285714 602  L 98.8571428571429 605.428571428571  L 104.571428571429 597.428571428571  " stroke-width="3.42857142857143" stroke="#999999" fill="none" />
</svg>