<?xml version="1.0" encoding="utf-8"?>
<svg version="1.1" xmlns:xlink="http://www.w3.org/1999/xlink" width="16px" height="16px" viewBox="92 374  16 16" xmlns="http://www.w3.org/2000/svg">
  <path d="M 92.5 377  A 2.5 2.5 0 0 1 95 374.5 L 105 374.5  A 2.5 2.5 0 0 1 107.5 377 L 107.5 387  A 2.5 2.5 0 0 1 105 389.5 L 95 389.5  A 2.5 2.5 0 0 1 92.5 387 L 92.5 377  Z " fill-rule="nonzero" fill="#f0f0f0" stroke="none" />
  <path d="M 92.5 377  A 2.5 2.5 0 0 1 95 374.5 L 105 374.5  A 2.5 2.5 0 0 1 107.5 377 L 107.5 387  A 2.5 2.5 0 0 1 105 389.5 L 95 389.5  A 2.5 2.5 0 0 1 92.5 387 L 92.5 377  Z " stroke-width="1" stroke="#999999" fill="none" />
  <path d="M 95.4285714285714 382  L 98.8571428571429 385.428571428571  L 104.571428571429 377.428571428571  " stroke-width="3.42857142857143" stroke="#999999" fill="none" />
</svg>