<?xml version="1.0" encoding="utf-8"?>
<svg version="1.1" xmlns:xlink="http://www.w3.org/1999/xlink" width="16px" height="16px" viewBox="92 759  16 16" xmlns="http://www.w3.org/2000/svg">
  <path d="M 92.5 762  A 2.5 2.5 0 0 1 95 759.5 L 105 759.5  A 2.5 2.5 0 0 1 107.5 762 L 107.5 772  A 2.5 2.5 0 0 1 105 774.5 L 95 774.5  A 2.5 2.5 0 0 1 92.5 772 L 92.5 762  Z " fill-rule="nonzero" fill="#ffffff" stroke="none" />
  <path d="M 92.5 762  A 2.5 2.5 0 0 1 95 759.5 L 105 759.5  A 2.5 2.5 0 0 1 107.5 762 L 107.5 772  A 2.5 2.5 0 0 1 105 774.5 L 95 774.5  A 2.5 2.5 0 0 1 92.5 772 L 92.5 762  Z " stroke-width="1" stroke="#999999" fill="none" />
  <path d="M 95.4285714285714 767  L 98.8571428571429 770.428571428571  L 104.571428571429 762.428571428571  " stroke-width="3.42857142857143" stroke="#999999" fill="none" />
</svg>