<?xml version="1.0" encoding="utf-8"?>
<svg version="1.1" xmlns:xlink="http://www.w3.org/1999/xlink" width="16px" height="16px" viewBox="92 649  16 16" xmlns="http://www.w3.org/2000/svg">
  <path d="M 92.5 652  A 2.5 2.5 0 0 1 95 649.5 L 105 649.5  A 2.5 2.5 0 0 1 107.5 652 L 107.5 662  A 2.5 2.5 0 0 1 105 664.5 L 95 664.5  A 2.5 2.5 0 0 1 92.5 662 L 92.5 652  Z " fill-rule="nonzero" fill="#f0f0f0" stroke="none" />
  <path d="M 92.5 652  A 2.5 2.5 0 0 1 95 649.5 L 105 649.5  A 2.5 2.5 0 0 1 107.5 652 L 107.5 662  A 2.5 2.5 0 0 1 105 664.5 L 95 664.5  A 2.5 2.5 0 0 1 92.5 662 L 92.5 652  Z " stroke-width="1" stroke="#999999" fill="none" />
</svg>