<?xml version="1.0" encoding="utf-8"?>
<svg version="1.1" xmlns:xlink="http://www.w3.org/1999/xlink" width="16px" height="16px" viewBox="92 813  16 16" xmlns="http://www.w3.org/2000/svg">
  <path d="M 92.5 816  A 2.5 2.5 0 0 1 95 813.5 L 105 813.5  A 2.5 2.5 0 0 1 107.5 816 L 107.5 826  A 2.5 2.5 0 0 1 105 828.5 L 95 828.5  A 2.5 2.5 0 0 1 92.5 826 L 92.5 816  Z " fill-rule="nonzero" fill="#ffffff" stroke="none" />
  <path d="M 92.5 816  A 2.5 2.5 0 0 1 95 813.5 L 105 813.5  A 2.5 2.5 0 0 1 107.5 816 L 107.5 826  A 2.5 2.5 0 0 1 105 828.5 L 95 828.5  A 2.5 2.5 0 0 1 92.5 826 L 92.5 816  Z " stroke-width="1" stroke="#999999" fill="none" />
</svg>