<?xml version="1.0" encoding="utf-8"?>
<svg version="1.1" xmlns:xlink="http://www.w3.org/1999/xlink" width="16px" height="16px" viewBox="92 539  16 16" xmlns="http://www.w3.org/2000/svg">
  <path d="M 92.5 542  A 2.5 2.5 0 0 1 95 539.5 L 105 539.5  A 2.5 2.5 0 0 1 107.5 542 L 107.5 552  A 2.5 2.5 0 0 1 105 554.5 L 95 554.5  A 2.5 2.5 0 0 1 92.5 552 L 92.5 542  Z " fill-rule="nonzero" fill="#ffffff" stroke="none" />
  <path d="M 92.5 542  A 2.5 2.5 0 0 1 95 539.5 L 105 539.5  A 2.5 2.5 0 0 1 107.5 542 L 107.5 552  A 2.5 2.5 0 0 1 105 554.5 L 95 554.5  A 2.5 2.5 0 0 1 92.5 552 L 92.5 542  Z " stroke-width="1" stroke="#999999" fill="none" />
  <path d="M 95.4285714285714 547  L 98.8571428571429 550.428571428571  L 104.571428571429 542.428571428571  " stroke-width="3.42857142857143" stroke="#999999" fill="none" />
</svg>