<?xml version="1.0" encoding="utf-8"?>
<svg version="1.1" xmlns:xlink="http://www.w3.org/1999/xlink" width="16px" height="16px" viewBox="92 264  16 16" xmlns="http://www.w3.org/2000/svg">
  <path d="M 92.5 267  A 2.5 2.5 0 0 1 95 264.5 L 105 264.5  A 2.5 2.5 0 0 1 107.5 267 L 107.5 277  A 2.5 2.5 0 0 1 105 279.5 L 95 279.5  A 2.5 2.5 0 0 1 92.5 277 L 92.5 267  Z " fill-rule="nonzero" fill="#f0f0f0" stroke="none" />
  <path d="M 92.5 267  A 2.5 2.5 0 0 1 95 264.5 L 105 264.5  A 2.5 2.5 0 0 1 107.5 267 L 107.5 277  A 2.5 2.5 0 0 1 105 279.5 L 95 279.5  A 2.5 2.5 0 0 1 92.5 277 L 92.5 267  Z " stroke-width="1" stroke="#999999" fill="none" />
</svg>