<?xml version="1.0" encoding="utf-8"?>
<svg version="1.1" xmlns:xlink="http://www.w3.org/1999/xlink" width="12px" height="12px" viewBox="538 678  12 12" xmlns="http://www.w3.org/2000/svg">
  <path d="M 544 678  C 547.36 678  550 680.64  550 684  C 550 687.36  547.36 690  544 690  C 540.64 690  538 687.36  538 684  C 538 680.64  540.64 678  544 678  Z " fill-rule="nonzero" fill="#ffffff" stroke="none" />
  <path d="M 544 678.5  C 547.08 678.5  549.5 680.92  549.5 684  C 549.5 687.08  547.08 689.5  544 689.5  C 540.92 689.5  538.5 687.08  538.5 684  C 538.5 680.92  540.92 678.5  544 678.5  Z " stroke-width="1" stroke="#268aff" fill="none" />
  <path d="M 544 687  C 542.32 687  541 685.68  541 684  C 541 682.32  542.32 681  544 681  C 545.68 681  547 682.32  547 684  C 547 685.68  545.68 687  544 687  " fill-rule="nonzero" fill="#268aff" stroke="none" />
</svg>