<?xml version="1.0" encoding="utf-8"?>
<svg version="1.1" xmlns:xlink="http://www.w3.org/1999/xlink" width="12px" height="12px" viewBox="538 638  12 12" xmlns="http://www.w3.org/2000/svg">
  <path d="M 544 638  C 547.36 638  550 640.64  550 644  C 550 647.36  547.36 650  544 650  C 540.64 650  538 647.36  538 644  C 538 640.64  540.64 638  544 638  Z " fill-rule="nonzero" fill="#ffffff" stroke="none" />
  <path d="M 544 638.5  C 547.08 638.5  549.5 640.92  549.5 644  C 549.5 647.08  547.08 649.5  544 649.5  C 540.92 649.5  538.5 647.08  538.5 644  C 538.5 640.92  540.92 638.5  544 638.5  Z " stroke-width="1" stroke="#268aff" fill="none" />
  <path d="M 544 647  C 542.32 647  541 645.68  541 644  C 541 642.32  542.32 641  544 641  C 545.68 641  547 642.32  547 644  C 547 645.68  545.68 647  544 647  " fill-rule="nonzero" fill="#268aff" stroke="none" />
</svg>