<?xml version="1.0" encoding="utf-8"?>
<svg version="1.1" xmlns:xlink="http://www.w3.org/1999/xlink" width="25px" height="28px" xmlns="http://www.w3.org/2000/svg">
  <g transform="matrix(1 0 0 1 -106 -133 )">
    <path d="M 5.28971354166667 11.328125  C 7.52495659722222 11.7760416666667  9.92838541666667 12  12.5 12  C 15.0716145833333 12  17.4750434027778 11.7760416666667  19.7102864583333 11.328125  C 21.9455295138889 10.8802083333333  23.7087673611111 10.21875  25 9.34375  L 25 12  C 25 12.71875  24.4411892361111 13.3854166666667  23.3235677083333 14  C 22.2059461805556 14.6145833333333  20.6868489583333 15.1015625  18.7662760416667 15.4609375  C 16.845703125 15.8203125  14.7569444444444 16  12.5 16  C 10.2430555555556 16  8.154296875 15.8203125  6.23372395833333 15.4609375  C 4.31315104166667 15.1015625  2.79405381944444 14.6145833333333  1.67643229166667 14  C 0.558810763888889 13.3854166666667  0 12.71875  0 12  L 0 9.34375  C 1.29123263888889 10.21875  3.05447048611111 10.8802083333333  5.28971354166667 11.328125  Z M 5.28971354166667 23.328125  C 7.52495659722222 23.7760416666667  9.92838541666667 24  12.5 24  C 15.0716145833333 24  17.4750434027778 23.7760416666667  19.7102864583333 23.328125  C 21.9455295138889 22.8802083333333  23.7087673611111 22.21875  25 21.34375  L 25 24  C 25 24.71875  24.4411892361111 25.3854166666667  23.3235677083333 26  C 22.2059461805556 26.6145833333333  20.6868489583333 27.1015625  18.7662760416667 27.4609375  C 16.845703125 27.8203125  14.7569444444444 28  12.5 28  C 10.2430555555556 28  8.154296875 27.8203125  6.23372395833333 27.4609375  C 4.31315104166667 27.1015625  2.79405381944444 26.6145833333333  1.67643229166667 26  C 0.558810763888889 25.3854166666667  0 24.71875  0 24  L 0 21.34375  C 1.29123263888889 22.21875  3.05447048611111 22.8802083333333  5.28971354166667 23.328125  Z M 5.28971354166667 17.328125  C 7.52495659722222 17.7760416666667  9.92838541666667 18  12.5 18  C 15.0716145833333 18  17.4750434027778 17.7760416666667  19.7102864583333 17.328125  C 21.9455295138889 16.8802083333333  23.7087673611111 16.21875  25 15.34375  L 25 18  C 25 18.71875  24.4411892361111 19.3854166666667  23.3235677083333 20  C 22.2059461805556 20.6145833333333  20.6868489583333 21.1015625  18.7662760416667 21.4609375  C 16.845703125 21.8203125  14.7569444444444 22  12.5 22  C 10.2430555555556 22  8.154296875 21.8203125  6.23372395833333 21.4609375  C 4.31315104166667 21.1015625  2.79405381944444 20.6145833333333  1.67643229166667 20  C 0.558810763888889 19.3854166666667  0 18.71875  0 18  L 0 15.34375  C 1.29123263888889 16.21875  3.05447048611111 16.8802083333333  5.28971354166667 17.328125  Z M 6.23372395833333 0.539062499999999  C 8.154296875 0.1796875  10.2430555555556 0  12.5 0  C 14.7569444444444 0  16.845703125 0.1796875  18.7662760416667 0.539062499999999  C 20.6868489583333 0.898437500000001  22.2059461805556 1.38541666666667  23.3235677083333 2  C 24.4411892361111 2.61458333333333  25 3.28125  25 4  L 25 6  C 25 6.71875  24.4411892361111 7.38541666666666  23.3235677083333 8  C 22.2059461805556 8.61458333333333  20.6868489583333 9.1015625  18.7662760416667 9.4609375  C 16.845703125 9.8203125  14.7569444444444 10  12.5 10  C 10.2430555555556 10  8.154296875 9.8203125  6.23372395833333 9.4609375  C 4.31315104166667 9.1015625  2.79405381944444 8.61458333333333  1.67643229166667 8  C 0.558810763888889 7.38541666666666  0 6.71875  0 6  L 0 4  C 0 3.28125  0.558810763888889 2.61458333333333  1.67643229166667 2  C 2.79405381944444 1.38541666666667  4.31315104166667 0.898437500000001  6.23372395833333 0.539062499999999  Z " fill-rule="nonzero" fill="#ffffff" stroke="none" transform="matrix(1 0 0 1 106 133 )" />
  </g>
</svg>