<?xml version="1.0" encoding="utf-8"?>
<svg version="1.1" xmlns:xlink="http://www.w3.org/1999/xlink" width="18px" height="18px" viewBox="43 419  18 18" xmlns="http://www.w3.org/2000/svg">
  <path d="M 52 420  C 56.48 420  60 423.52  60 428  C 60 432.48  56.48 436  52 436  C 47.52 436  44 432.48  44 428  C 44 423.52  47.52 420  52 420  Z " fill-rule="nonzero" fill="#f0f0f0" stroke="none" />
  <path d="M 52 420  C 56.48 420  60 423.52  60 428  C 60 432.48  56.48 436  52 436  C 47.52 436  44 432.48  44 428  C 44 423.52  47.52 420  52 420  Z " stroke-width="2" stroke="#797979" fill="none" />
  <path d="M 52 432.5  C 49.48 432.5  47.5 430.52  47.5 428  C 47.5 425.48  49.48 423.5  52 423.5  C 54.52 423.5  56.5 425.48  56.5 428  C 56.5 430.52  54.52 432.5  52 432.5  " fill-rule="nonzero" fill="#797979" stroke="none" />
</svg>