<?xml version="1.0" encoding="utf-8"?>
<svg version="1.1" xmlns:xlink="http://www.w3.org/1999/xlink" width="18px" height="18px" viewBox="43 199  18 18" xmlns="http://www.w3.org/2000/svg">
  <path d="M 52 200  C 56.48 200  60 203.52  60 208  C 60 212.48  56.48 216  52 216  C 47.52 216  44 212.48  44 208  C 44 203.52  47.52 200  52 200  Z " fill-rule="nonzero" fill="#f0f0f0" stroke="none" />
  <path d="M 52 200  C 56.48 200  60 203.52  60 208  C 60 212.48  56.48 216  52 216  C 47.52 216  44 212.48  44 208  C 44 203.52  47.52 200  52 200  Z " stroke-width="2" stroke="#409eff" fill="none" />
  <path d="M 52 212.5  C 49.48 212.5  47.5 210.52  47.5 208  C 47.5 205.48  49.48 203.5  52 203.5  C 54.52 203.5  56.5 205.48  56.5 208  C 56.5 210.52  54.52 212.5  52 212.5  " fill-rule="nonzero" fill="#409eff" stroke="none" />
</svg>