<?xml version="1.0" encoding="utf-8"?>
<svg version="1.1" xmlns:xlink="http://www.w3.org/1999/xlink" width="18px" height="18px" viewBox="43 531  18 18" xmlns="http://www.w3.org/2000/svg">
  <path d="M 52 532  C 56.48 532  60 535.52  60 540  C 60 544.48  56.48 548  52 548  C 47.52 548  44 544.48  44 540  C 44 535.52  47.52 532  52 532  Z " fill-rule="nonzero" fill="#ffffff" stroke="none" />
  <path d="M 52 532  C 56.48 532  60 535.52  60 540  C 60 544.48  56.48 548  52 548  C 47.52 548  44 544.48  44 540  C 44 535.52  47.52 532  52 532  Z " stroke-width="2" stroke="#409eff" fill="none" />
  <path d="M 52 544.5  C 49.48 544.5  47.5 542.52  47.5 540  C 47.5 537.48  49.48 535.5  52 535.5  C 54.52 535.5  56.5 537.48  56.5 540  C 56.5 542.52  54.52 544.5  52 544.5  " fill-rule="nonzero" fill="#409eff" stroke="none" />
</svg>