<?xml version="1.0" encoding="utf-8"?>
<svg version="1.1" xmlns:xlink="http://www.w3.org/1999/xlink" width="18px" height="18px" viewBox="43 639  18 18" xmlns="http://www.w3.org/2000/svg">
  <path d="M 52 640  C 56.48 640  60 643.52  60 648  C 60 652.48  56.48 656  52 656  C 47.52 656  44 652.48  44 648  C 44 643.52  47.52 640  52 640  Z " fill-rule="nonzero" fill="#f0f0f0" stroke="none" />
  <path d="M 52 640  C 56.48 640  60 643.52  60 648  C 60 652.48  56.48 656  52 656  C 47.52 656  44 652.48  44 648  C 44 643.52  47.52 640  52 640  Z " stroke-width="2" stroke="#797979" fill="none" />
  <path d="M 52 652.5  C 49.48 652.5  47.5 650.52  47.5 648  C 47.5 645.48  49.48 643.5  52 643.5  C 54.52 643.5  56.5 645.48  56.5 648  C 56.5 650.52  54.52 652.5  52 652.5  " fill-rule="nonzero" fill="#797979" stroke="none" />
</svg>