<?xml version="1.0" encoding="utf-8"?>
<svg version="1.1" xmlns:xlink="http://www.w3.org/1999/xlink" width="18px" height="18px" viewBox="43 584  18 18" xmlns="http://www.w3.org/2000/svg">
  <path d="M 52 585  C 56.48 585  60 588.52  60 593  C 60 597.48  56.48 601  52 601  C 47.52 601  44 597.48  44 593  C 44 588.52  47.52 585  52 585  Z " fill-rule="nonzero" fill="#f0f0f0" stroke="none" />
  <path d="M 52 585  C 56.48 585  60 588.52  60 593  C 60 597.48  56.48 601  52 601  C 47.52 601  44 597.48  44 593  C 44 588.52  47.52 585  52 585  Z " stroke-width="2" stroke="#797979" fill="none" />
  <path d="M 52 597.5  C 49.48 597.5  47.5 595.52  47.5 593  C 47.5 590.48  49.48 588.5  52 588.5  C 54.52 588.5  56.5 590.48  56.5 593  C 56.5 595.52  54.52 597.5  52 597.5  " fill-rule="nonzero" fill="#797979" stroke="none" />
</svg>