<?xml version="1.0" encoding="utf-8"?>
<svg version="1.1" xmlns:xlink="http://www.w3.org/1999/xlink" width="18px" height="18px" viewBox="43 475  18 18" xmlns="http://www.w3.org/2000/svg">
  <path d="M 52 476  C 56.48 476  60 479.52  60 484  C 60 488.48  56.48 492  52 492  C 47.52 492  44 488.48  44 484  C 44 479.52  47.52 476  52 476  Z " fill-rule="nonzero" fill="#ffffff" stroke="none" />
  <path d="M 52 476  C 56.48 476  60 479.52  60 484  C 60 488.48  56.48 492  52 492  C 47.52 492  44 488.48  44 484  C 44 479.52  47.52 476  52 476  Z " stroke-width="2" stroke="#409eff" fill="none" />
  <path d="M 52 488.5  C 49.48 488.5  47.5 486.52  47.5 484  C 47.5 481.48  49.48 479.5  52 479.5  C 54.52 479.5  56.5 481.48  56.5 484  C 56.5 486.52  54.52 488.5  52 488.5  " fill-rule="nonzero" fill="#409eff" stroke="none" />
</svg>