<?xml version="1.0" encoding="utf-8"?>
<svg version="1.1" xmlns:xlink="http://www.w3.org/1999/xlink" width="18px" height="18px" viewBox="43 308  18 18" xmlns="http://www.w3.org/2000/svg">
  <path d="M 52 309  C 56.48 309  60 312.52  60 317  C 60 321.48  56.48 325  52 325  C 47.52 325  44 321.48  44 317  C 44 312.52  47.52 309  52 309  Z " fill-rule="nonzero" fill="#f0f0f0" stroke="none" />
  <path d="M 52 309  C 56.48 309  60 312.52  60 317  C 60 321.48  56.48 325  52 325  C 47.52 325  44 321.48  44 317  C 44 312.52  47.52 309  52 309  Z " stroke-width="2" stroke="#797979" fill="none" />
  <path d="M 52 321.5  C 49.48 321.5  47.5 319.52  47.5 317  C 47.5 314.48  49.48 312.5  52 312.5  C 54.52 312.5  56.5 314.48  56.5 317  C 56.5 319.52  54.52 321.5  52 321.5  " fill-rule="nonzero" fill="#797979" stroke="none" />
</svg>