<?xml version="1.0" encoding="utf-8"?>
<svg version="1.1" xmlns:xlink="http://www.w3.org/1999/xlink" width="18px" height="18px" viewBox="43 256  18 18" xmlns="http://www.w3.org/2000/svg">
  <path d="M 52 257  C 56.48 257  60 260.52  60 265  C 60 269.48  56.48 273  52 273  C 47.52 273  44 269.48  44 265  C 44 260.52  47.52 257  52 257  Z " fill-rule="nonzero" fill="#ffffff" stroke="none" />
  <path d="M 52 257  C 56.48 257  60 260.52  60 265  C 60 269.48  56.48 273  52 273  C 47.52 273  44 269.48  44 265  C 44 260.52  47.52 257  52 257  Z " stroke-width="2" stroke="#409eff" fill="none" />
  <path d="M 52 269.5  C 49.48 269.5  47.5 267.52  47.5 265  C 47.5 262.48  49.48 260.5  52 260.5  C 54.52 260.5  56.5 262.48  56.5 265  C 56.5 267.52  54.52 269.5  52 269.5  " fill-rule="nonzero" fill="#409eff" stroke="none" />
</svg>