<?xml version="1.0" encoding="utf-8"?>
<svg version="1.1" xmlns:xlink="http://www.w3.org/1999/xlink" width="18px" height="18px" viewBox="43 692  18 18" xmlns="http://www.w3.org/2000/svg">
  <path d="M 52 693  C 56.48 693  60 696.52  60 701  C 60 705.48  56.48 709  52 709  C 47.52 709  44 705.48  44 701  C 44 696.52  47.52 693  52 693  Z " fill-rule="nonzero" fill="#f0f0f0" stroke="none" />
  <path d="M 52 693  C 56.48 693  60 696.52  60 701  C 60 705.48  56.48 709  52 709  C 47.52 709  44 705.48  44 701  C 44 696.52  47.52 693  52 693  Z " stroke-width="2" stroke="#797979" fill="none" />
  <path d="M 52 705.5  C 49.48 705.5  47.5 703.52  47.5 701  C 47.5 698.48  49.48 696.5  52 696.5  C 54.52 696.5  56.5 698.48  56.5 701  C 56.5 703.52  54.52 705.5  52 705.5  " fill-rule="nonzero" fill="#797979" stroke="none" />
</svg>