<?xml version="1.0" encoding="utf-8"?>
<svg version="1.1" xmlns:xlink="http://www.w3.org/1999/xlink" width="12px" height="12px" viewBox="254 294  12 12" xmlns="http://www.w3.org/2000/svg">
  <path d="M 260 294  C 263.36 294  266 296.64  266 300  C 266 303.36  263.36 306  260 306  C 256.64 306  254 303.36  254 300  C 254 296.64  256.64 294  260 294  Z " fill-rule="nonzero" fill="#ffffff" stroke="none" />
  <path d="M 260 294.5  C 263.08 294.5  265.5 296.92  265.5 300  C 265.5 303.08  263.08 305.5  260 305.5  C 256.92 305.5  254.5 303.08  254.5 300  C 254.5 296.92  256.92 294.5  260 294.5  Z " stroke-width="1" stroke="#797979" fill="none" />
  <path d="M 260 303  C 258.32 303  257 301.68  257 300  C 257 298.32  258.32 297  260 297  C 261.68 297  263 298.32  263 300  C 263 301.68  261.68 303  260 303  " fill-rule="nonzero" fill="#797979" stroke="none" />
</svg>