<?xml version="1.0" encoding="utf-8"?>
<svg version="1.1" xmlns:xlink="http://www.w3.org/1999/xlink" width="12px" height="12px" viewBox="114 294  12 12" xmlns="http://www.w3.org/2000/svg">
  <path d="M 120 294  C 123.36 294  126 296.64  126 300  C 126 303.36  123.36 306  120 306  C 116.64 306  114 303.36  114 300  C 114 296.64  116.64 294  120 294  Z " fill-rule="nonzero" fill="#ffffff" stroke="none" />
  <path d="M 120 294.5  C 123.08 294.5  125.5 296.92  125.5 300  C 125.5 303.08  123.08 305.5  120 305.5  C 116.92 305.5  114.5 303.08  114.5 300  C 114.5 296.92  116.92 294.5  120 294.5  Z " stroke-width="1" stroke="#797979" fill="none" />
  <path d="M 120 303  C 118.32 303  117 301.68  117 300  C 117 298.32  118.32 297  120 297  C 121.68 297  123 298.32  123 300  C 123 301.68  121.68 303  120 303  " fill-rule="nonzero" fill="#797979" stroke="none" />
</svg>