<?xml version="1.0" encoding="utf-8"?>
<svg version="1.1" xmlns:xlink="http://www.w3.org/1999/xlink" width="12px" height="12px" viewBox="1844 1270  12 12" xmlns="http://www.w3.org/2000/svg">
  <path d="M 1850 1270  C 1853.36 1270  1856 1272.64  1856 1276  C 1856 1279.36  1853.36 1282  1850 1282  C 1846.64 1282  1844 1279.36  1844 1276  C 1844 1272.64  1846.64 1270  1850 1270  Z " fill-rule="nonzero" fill="#ffffff" stroke="none" />
  <path d="M 1850 1270.5  C 1853.08 1270.5  1855.5 1272.92  1855.5 1276  C 1855.5 1279.08  1853.08 1281.5  1850 1281.5  C 1846.92 1281.5  1844.5 1279.08  1844.5 1276  C 1844.5 1272.92  1846.92 1270.5  1850 1270.5  Z " stroke-width="1" stroke="#268aff" fill="none" />
  <path d="M 1850 1279  C 1848.32 1279  1847 1277.68  1847 1276  C 1847 1274.32  1848.32 1273  1850 1273  C 1851.68 1273  1853 1274.32  1853 1276  C 1853 1277.68  1851.68 1279  1850 1279  " fill-rule="nonzero" fill="#268aff" stroke="none" />
</svg>