<?xml version="1.0" encoding="utf-8"?>
<svg version="1.1" xmlns:xlink="http://www.w3.org/1999/xlink" width="12px" height="12px" viewBox="1844 1240  12 12" xmlns="http://www.w3.org/2000/svg">
  <path d="M 1850 1240  C 1853.36 1240  1856 1242.64  1856 1246  C 1856 1249.36  1853.36 1252  1850 1252  C 1846.64 1252  1844 1249.36  1844 1246  C 1844 1242.64  1846.64 1240  1850 1240  Z " fill-rule="nonzero" fill="#ffffff" stroke="none" />
  <path d="M 1850 1240.5  C 1853.08 1240.5  1855.5 1242.92  1855.5 1246  C 1855.5 1249.08  1853.08 1251.5  1850 1251.5  C 1846.92 1251.5  1844.5 1249.08  1844.5 1246  C 1844.5 1242.92  1846.92 1240.5  1850 1240.5  Z " stroke-width="1" stroke="#268aff" fill="none" />
  <path d="M 1850 1249  C 1848.32 1249  1847 1247.68  1847 1246  C 1847 1244.32  1848.32 1243  1850 1243  C 1851.68 1243  1853 1244.32  1853 1246  C 1853 1247.68  1851.68 1249  1850 1249  " fill-rule="nonzero" fill="#268aff" stroke="none" />
</svg>