<?xml version="1.0" encoding="utf-8"?>
<svg version="1.1" xmlns:xlink="http://www.w3.org/1999/xlink" width="12px" height="12px" viewBox="282 276  12 12" xmlns="http://www.w3.org/2000/svg">
  <path d="M 288 276  C 291.36 276  294 278.64  294 282  C 294 285.36  291.36 288  288 288  C 284.64 288  282 285.36  282 282  C 282 278.64  284.64 276  288 276  Z " fill-rule="nonzero" fill="#f0f0f0" stroke="none" />
  <path d="M 288 276.5  C 291.08 276.5  293.5 278.92  293.5 282  C 293.5 285.08  291.08 287.5  288 287.5  C 284.92 287.5  282.5 285.08  282.5 282  C 282.5 278.92  284.92 276.5  288 276.5  Z " stroke-width="1" stroke="#797979" fill="none" />
  <path d="M 288 285  C 286.32 285  285 283.68  285 282  C 285 280.32  286.32 279  288 279  C 289.68 279  291 280.32  291 282  C 291 283.68  289.68 285  288 285  " fill-rule="nonzero" fill="#797979" stroke="none" />
</svg>