<?xml version="1.0" encoding="utf-8"?>
<svg version="1.1" xmlns:xlink="http://www.w3.org/1999/xlink" width="12px" height="12px" viewBox="113 16  12 12" xmlns="http://www.w3.org/2000/svg">
  <path d="M 119 16  C 122.36 16  125 18.64  125 22  C 125 25.36  122.36 28  119 28  C 115.64 28  113 25.36  113 22  C 113 18.64  115.64 16  119 16  Z " fill-rule="nonzero" fill="#f0f0f0" stroke="none" />
  <path d="M 119 16.5  C 122.08 16.5  124.5 18.92  124.5 22  C 124.5 25.08  122.08 27.5  119 27.5  C 115.92 27.5  113.5 25.08  113.5 22  C 113.5 18.92  115.92 16.5  119 16.5  Z " stroke-width="1" stroke="#797979" fill="none" />
  <path d="M 119 25  C 117.32 25  116 23.68  116 22  C 116 20.32  117.32 19  119 19  C 120.68 19  122 20.32  122 22  C 122 23.68  120.68 25  119 25  " fill-rule="nonzero" fill="#797979" stroke="none" />
</svg>