<?xml version="1.0" encoding="utf-8"?>
<svg version="1.1" xmlns:xlink="http://www.w3.org/1999/xlink" width="12px" height="12px" viewBox="113 76  12 12" xmlns="http://www.w3.org/2000/svg">
  <path d="M 119 76  C 122.36 76  125 78.64  125 82  C 125 85.36  122.36 88  119 88  C 115.64 88  113 85.36  113 82  C 113 78.64  115.64 76  119 76  Z " fill-rule="nonzero" fill="#f0f0f0" stroke="none" />
  <path d="M 119 76.5  C 122.08 76.5  124.5 78.92  124.5 82  C 124.5 85.08  122.08 87.5  119 87.5  C 115.92 87.5  113.5 85.08  113.5 82  C 113.5 78.92  115.92 76.5  119 76.5  Z " stroke-width="1" stroke="#797979" fill="none" />
  <path d="M 119 85  C 117.32 85  116 83.68  116 82  C 116 80.32  117.32 79  119 79  C 120.68 79  122 80.32  122 82  C 122 83.68  120.68 85  119 85  " fill-rule="nonzero" fill="#797979" stroke="none" />
</svg>