<?xml version="1.0" encoding="utf-8"?>
<svg version="1.1" xmlns:xlink="http://www.w3.org/1999/xlink" width="247px" height="139px" xmlns="http://www.w3.org/2000/svg">
  <defs>
    <filter x="1146px" y="-228px" width="247px" height="139px" filterUnits="userSpaceOnUse" id="filter18">
      <feOffset dx="0" dy="0" in="SourceAlpha" result="shadowOffsetInner" />
      <feGaussianBlur stdDeviation="5" in="shadowOffsetInner" result="shadowGaussian" />
      <feComposite in2="shadowGaussian" operator="atop" in="SourceAlpha" result="shadowComposite" />
      <feColorMatrix type="matrix" values="0 0 0 0 0  0 0 0 0 0  0 0 0 0 0  0 0 0 0.349019607843137 0  " in="shadowComposite" />
    </filter>
    <g id="widget19">
      <path d="M 1156.5 -210  A 7.5 7.5 0 0 1 1164 -217.5 L 1375 -217.5  A 7.5 7.5 0 0 1 1382.5 -210 L 1382.5 -107  A 7.5 7.5 0 0 1 1375 -99.5 L 1164 -99.5  A 7.5 7.5 0 0 1 1156.5 -107 L 1156.5 -210  Z " fill-rule="nonzero" fill="#f2f2f2" stroke="none" fill-opacity="0" />
      <path d="M 1156.5 -210  A 7.5 7.5 0 0 1 1164 -217.5 L 1375 -217.5  A 7.5 7.5 0 0 1 1382.5 -210 L 1382.5 -107  A 7.5 7.5 0 0 1 1375 -99.5 L 1164 -99.5  A 7.5 7.5 0 0 1 1156.5 -107 L 1156.5 -210  Z " stroke-width="1" stroke="#ac7625" fill="none" />
    </g>
  </defs>
  <g transform="matrix(1 0 0 1 -1146 228 )">
    <use xlink:href="#widget19" filter="url(#filter18)" />
    <use xlink:href="#widget19" />
  </g>
</svg>