<?xml version="1.0" encoding="utf-8"?>
<svg version="1.1" xmlns:xlink="http://www.w3.org/1999/xlink" width="385px" height="139px" xmlns="http://www.w3.org/2000/svg">
  <defs>
    <filter x="1237px" y="101px" width="385px" height="139px" filterUnits="userSpaceOnUse" id="filter14">
      <feOffset dx="0" dy="0" in="SourceAlpha" result="shadowOffsetInner" />
      <feGaussianBlur stdDeviation="5" in="shadowOffsetInner" result="shadowGaussian" />
      <feComposite in2="shadowGaussian" operator="atop" in="SourceAlpha" result="shadowComposite" />
      <feColorMatrix type="matrix" values="0 0 0 0 0  0 0 0 0 0  0 0 0 0 0  0 0 0 0.349019607843137 0  " in="shadowComposite" />
    </filter>
    <g id="widget15">
      <path d="M 1247.5 119  A 7.5 7.5 0 0 1 1255 111.5 L 1604 111.5  A 7.5 7.5 0 0 1 1611.5 119 L 1611.5 222  A 7.5 7.5 0 0 1 1604 229.5 L 1255 229.5  A 7.5 7.5 0 0 1 1247.5 222 L 1247.5 119  Z " fill-rule="nonzero" fill="#f2f2f2" stroke="none" fill-opacity="0" />
      <path d="M 1247.5 119  A 7.5 7.5 0 0 1 1255 111.5 L 1604 111.5  A 7.5 7.5 0 0 1 1611.5 119 L 1611.5 222  A 7.5 7.5 0 0 1 1604 229.5 L 1255 229.5  A 7.5 7.5 0 0 1 1247.5 222 L 1247.5 119  Z " stroke-width="1" stroke="#1989fa" fill="none" />
    </g>
  </defs>
  <g transform="matrix(1 0 0 1 -1237 -101 )">
    <use xlink:href="#widget15" filter="url(#filter14)" />
    <use xlink:href="#widget15" />
  </g>
</svg>