<?xml version="1.0" encoding="utf-8"?>
<svg version="1.1" xmlns:xlink="http://www.w3.org/1999/xlink" width="247px" height="139px" xmlns="http://www.w3.org/2000/svg">
  <defs>
    <filter x="899px" y="-228px" width="247px" height="139px" filterUnits="userSpaceOnUse" id="filter16">
      <feOffset dx="0" dy="0" in="SourceAlpha" result="shadowOffsetInner" />
      <feGaussianBlur stdDeviation="5" in="shadowOffsetInner" result="shadowGaussian" />
      <feComposite in2="shadowGaussian" operator="atop" in="SourceAlpha" result="shadowComposite" />
      <feColorMatrix type="matrix" values="0 0 0 0 0  0 0 0 0 0  0 0 0 0 0  0 0 0 0.349019607843137 0  " in="shadowComposite" />
    </filter>
    <g id="widget17">
      <path d="M 909.5 -210  A 7.5 7.5 0 0 1 917 -217.5 L 1128 -217.5  A 7.5 7.5 0 0 1 1135.5 -210 L 1135.5 -107  A 7.5 7.5 0 0 1 1128 -99.5 L 917 -99.5  A 7.5 7.5 0 0 1 909.5 -107 L 909.5 -210  Z " fill-rule="nonzero" fill="#f2f2f2" stroke="none" fill-opacity="0" />
      <path d="M 909.5 -210  A 7.5 7.5 0 0 1 917 -217.5 L 1128 -217.5  A 7.5 7.5 0 0 1 1135.5 -210 L 1135.5 -107  A 7.5 7.5 0 0 1 1128 -99.5 L 917 -99.5  A 7.5 7.5 0 0 1 909.5 -107 L 909.5 -210  Z " stroke-width="1" stroke="#4d7082" fill="none" />
    </g>
  </defs>
  <g transform="matrix(1 0 0 1 -899 228 )">
    <use xlink:href="#widget17" filter="url(#filter16)" />
    <use xlink:href="#widget17" />
  </g>
</svg>