<?xml version="1.0" encoding="utf-8"?>
<svg version="1.1" xmlns:xlink="http://www.w3.org/1999/xlink" width="18px" height="18px" xmlns="http://www.w3.org/2000/svg">
  <g transform="matrix(1 0 0 1 -1387 -112 )">
    <path d="M 12.28 0.909999999999999  C 13.3466666666667 1.33  14.3066666666667 1.96666666666666  15.16 2.82  C 16.0133333333333 3.67333333333333  16.65 4.63333333333333  17.07 5.7  C 17.49 6.76666666666667  17.7 7.86  17.7 8.98  C 17.7 10.1  17.49 11.1933333333333  17.07 12.26  C 16.65 13.3266666666667  16.0133333333333 14.2866666666667  15.16 15.14  C 14.3066666666667 15.9933333333333  13.3466666666667 16.6333333333333  12.28 17.06  C 11.2133333333333 17.4866666666667  10.12 17.7  9 17.7  C 7.88 17.7  6.78333333333333 17.4866666666667  5.71 17.06  C 4.63666666666667 16.6333333333333  3.67333333333334 15.9933333333333  2.82 15.14  C 1.96666666666667 14.2866666666667  1.32666666666667 13.3266666666667  0.900000000000001 12.26  C 0.473333333333335 11.1933333333333  0.260000000000002 10.1  0.260000000000001 8.98  C 0.259999999999999 7.86  0.473333333333333 6.76666666666667  0.900000000000001 5.7  C 1.32666666666667 4.63333333333333  1.96666666666667 3.67333333333333  2.82 2.82  C 3.67333333333333 1.96666666666667  4.63666666666667 1.33  5.71 0.909999999999999  C 6.78333333333333 0.489999999999997  7.88 0.279999999999997  9 0.279999999999999  C 10.12 0.280000000000002  11.2133333333333 0.490000000000002  12.28 0.909999999999999  Z M 12.07 13.4  C 12.4633333333333 13.4  12.8 13.26  13.08 12.98  C 13.36 12.7  13.4833333333333 12.38  13.45 12.02  C 13.4166666666667 11.66  13.26 11.34  12.98 11.06  L 10.88 8.96  L 12.98 6.86  C 13.26 6.58  13.4166666666667 6.26  13.45 5.9  C 13.4833333333333 5.54  13.36 5.22  13.08 4.94  C 12.8 4.66  12.4633333333333 4.52  12.07 4.52  C 11.6766666666667 4.52  11.34 4.66  11.06 4.94  L 8.96 7.02  L 6.92 4.98  C 6.64 4.71333333333333  6.32 4.56333333333333  5.96 4.53  C 5.6 4.49666666666667  5.28 4.61333333333333  5 4.88  C 4.72 5.16  4.58 5.5  4.58 5.9  C 4.58 6.3  4.72 6.64  5 6.92  L 7.04 8.96  L 5 11  C 4.72 11.28  4.58 11.6166666666667  4.58 12.01  C 4.58 12.4033333333333  4.72 12.74  5 13.02  C 5.28 13.3  5.6 13.4233333333333  5.96 13.39  C 6.32 13.3566666666667  6.64 13.2  6.92 12.92  L 8.96 10.88  L 11.06 12.98  C 11.34 13.26  11.6766666666667 13.4  12.07 13.4  Z " fill-rule="nonzero" fill="#d7d7d7" stroke="none" transform="matrix(1 0 0 1 1387 112 )" />
  </g>
</svg>