<?xml version="1.0" encoding="utf-8"?>
<svg version="1.1" xmlns:xlink="http://www.w3.org/1999/xlink" width="15px" height="16px" xmlns="http://www.w3.org/2000/svg">
  <g transform="matrix(1 0 0 1 -1418 -156 )">
    <path d="M 7.6700439453125 1.1078125  C 7.64557625845075 1.3708329063627  7.72030211737425 1.633420008017  7.8777099609375 1.83755208333333  L 12.2854248046875 7.99015625  L 7.7286376953125 14.14265625  C 7.59172149391461 14.3188575505531  7.51600002269495 14.5400563436916  7.5142578125 14.76890625  C 7.51385694592968 15.0645859195155  7.63681917580831 15.345124355842  7.8497802734375 15.5344010416667  C 8.01725918282599 15.683261122339  8.22836318035801 15.7647824241143  8.44636582509746 15.7647824241143  C 8.72376430829273 15.7647824241143  8.98674381174092 15.6329678748844  9.1637939453125 15.4051822916667  L 14.2051025390625 8.62630208333333  C 14.487841796875 8.25953125  14.487841796875 7.73067708333333  14.2051025390625 7.36395833333333  L 9.3221435546875 0.585078125  C 9.14527064053534 0.350187222362376  8.87806590714089 0.213541943481951  8.59561844425326 0.213541943481951  C 8.38165735800392 0.213541943481951  8.1742133887398 0.292079675458131  8.0081298828125 0.435963541666666  C 7.81615954184415 0.603046348438189  7.69449622518628 0.844817340655117  7.6700439453125 1.1078125  Z M 2.25859375 15.4051822916667  L 7.29990234375 8.62630208333333  C 7.5826171875 8.25953125  7.5826171875 7.73067708333333  7.29990234375 7.36395833333333  L 2.416943359375 0.585078125  C 2.24006514144365 0.350200797421895  1.97286508723714 0.213565422617849  1.69042422509312 0.213565422617849  C 1.47647249100646 0.213565422617849  1.26903665598034 0.292094249336515  1.1029541015625 0.435963541666666  C 0.882787004961361 0.624645141783162  0.754713289321668 0.909645218272123  0.754713289321668 1.21089739620111  C 0.754713289321668 1.43913032758341  0.828341651889559 1.66041206489599  0.963232421875 1.837578125  L 5.380224609375 7.99018229166667  L 0.8234130859375 14.14265625  C 0.686505680430549 14.3188610997514  0.610792953728745 14.5400595388372  0.6090576171875 14.76890625  C 0.609056932911423 14.7693981065241  0.609056590773241 14.7698899635215  0.609056590773241 14.7703818205871  C 0.609056590773241 15.3195455862847  1.02641770886921 15.7647307789204  1.54125873921074 15.7647307789204  C 1.5697790257506 15.7647307789204  1.59828428806054 15.7633346756904  1.6266845703125 15.760546875  C 1.87320639563633 15.7363070375429  2.10056004730657 15.6084509495287  2.25859375 15.4051822916667  Z " fill-rule="nonzero" fill="#7f7f7f" stroke="none" transform="matrix(1 0 0 1 1418 156 )" />
  </g>
</svg>