<?xml version="1.0" encoding="utf-8"?>
<svg version="1.1" xmlns:xlink="http://www.w3.org/1999/xlink" width="15px" height="16px" xmlns="http://www.w3.org/2000/svg">
  <g transform="matrix(1 0 0 1 -1155 -156 )">
    <path d="M 7.3299560546875 1.1078125  C 7.35442374154925 1.3708329063627  7.27969788262575 1.633420008017  7.1222900390625 1.83755208333333  L 2.7145751953125 7.99015625  L 7.2713623046875 14.14265625  C 7.40827850608539 14.3188575505531  7.48399997730505 14.5400563436916  7.4857421875 14.76890625  C 7.48614305407032 15.0645859195155  7.36318082419169 15.345124355842  7.1502197265625 15.5344010416667  C 6.98274081717401 15.683261122339  6.77163681964199 15.7647824241143  6.55363417490254 15.7647824241143  C 6.27623569170727 15.7647824241143  6.01325618825908 15.6329678748844  5.8362060546875 15.4051822916667  L 0.7948974609375 8.62630208333333  C 0.512158203125002 8.25953125  0.512158203125002 7.73067708333333  0.7948974609375 7.36395833333333  L 5.6778564453125 0.585078125  C 5.85472935946466 0.350187222362376  6.12193409285911 0.213541943481951  6.40438155574674 0.213541943481951  C 6.61834264199608 0.213541943481951  6.8257866112602 0.292079675458131  6.9918701171875 0.435963541666666  C 7.18384045815585 0.603046348438189  7.30550377481372 0.844817340655117  7.3299560546875 1.1078125  Z M 12.74140625 15.4051822916667  L 7.70009765625 8.62630208333333  C 7.4173828125 8.25953125  7.4173828125 7.73067708333333  7.70009765625 7.36395833333333  L 12.583056640625 0.585078125  C 12.7599348585564 0.350200797421895  13.0271349127629 0.213565422617849  13.3095757749069 0.213565422617849  C 13.5235275089935 0.213565422617849  13.7309633440197 0.292094249336515  13.8970458984375 0.435963541666666  C 14.1172129950386 0.624645141783162  14.2452867106783 0.909645218272123  14.2452867106783 1.21089739620111  C 14.2452867106783 1.43913032758341  14.1716583481104 1.66041206489599  14.036767578125 1.837578125  L 9.619775390625 7.99018229166667  L 14.1765869140625 14.14265625  C 14.3134943195695 14.3188610997514  14.3892070462713 14.5400595388372  14.3909423828125 14.76890625  C 14.3909430670886 14.7693981065241  14.3909434092268 14.7698899635215  14.3909434092268 14.7703818205871  C 14.3909434092268 15.3195455862847  13.9735822911308 15.7647307789204  13.4587412607893 15.7647307789204  C 13.4302209742494 15.7647307789204  13.4017157119395 15.7633346756904  13.3733154296875 15.760546875  C 13.1267936043637 15.7363070375429  12.8994399526934 15.6084509495287  12.74140625 15.4051822916667  Z " fill-rule="nonzero" fill="#2196f3" stroke="none" transform="matrix(1 0 0 1 1155 156 )" />
  </g>
</svg>