<?xml version="1.0" encoding="utf-8"?>
<svg version="1.1" xmlns:xlink="http://www.w3.org/1999/xlink" width="18px" height="18px" viewBox="1165 245  18 18" xmlns="http://www.w3.org/2000/svg">
  <path d="M 1174 245  C 1179.04 245  1183 248.96  1183 254  C 1183 259.04  1179.04 263  1174 263  C 1168.96 263  1165 259.04  1165 254  C 1165 248.96  1168.96 245  1174 245  Z " fill-rule="nonzero" fill="#ffffff" stroke="none" />
  <path d="M 1174 245.5  C 1178.76 245.5  1182.5 249.24  1182.5 254  C 1182.5 258.76  1178.76 262.5  1174 262.5  C 1169.24 262.5  1165.5 258.76  1165.5 254  C 1165.5 249.24  1169.24 245.5  1174 245.5  Z " stroke-width="1" stroke="#0099ff" fill="none" />
  <path d="M 1174 258.5  C 1171.48 258.5  1169.5 256.52  1169.5 254  C 1169.5 251.48  1171.48 249.5  1174 249.5  C 1176.52 249.5  1178.5 251.48  1178.5 254  C 1178.5 256.52  1176.52 258.5  1174 258.5  " fill-rule="nonzero" fill="#0099ff" stroke="none" />
</svg>