<?xml version="1.0" encoding="utf-8"?>
<svg version="1.1" xmlns:xlink="http://www.w3.org/1999/xlink" width="18px" height="18px" viewBox="1081 245  18 18" xmlns="http://www.w3.org/2000/svg">
  <path d="M 1090 245  C 1095.04 245  1099 248.96  1099 254  C 1099 259.04  1095.04 263  1090 263  C 1084.96 263  1081 259.04  1081 254  C 1081 248.96  1084.96 245  1090 245  Z " fill-rule="nonzero" fill="#ffffff" stroke="none" />
  <path d="M 1090 245.5  C 1094.76 245.5  1098.5 249.24  1098.5 254  C 1098.5 258.76  1094.76 262.5  1090 262.5  C 1085.24 262.5  1081.5 258.76  1081.5 254  C 1081.5 249.24  1085.24 245.5  1090 245.5  Z " stroke-width="1" stroke="#0099ff" fill="none" />
  <path d="M 1090 258.5  C 1087.48 258.5  1085.5 256.52  1085.5 254  C 1085.5 251.48  1087.48 249.5  1090 249.5  C 1092.52 249.5  1094.5 251.48  1094.5 254  C 1094.5 256.52  1092.52 258.5  1090 258.5  " fill-rule="nonzero" fill="#0099ff" stroke="none" />
</svg>