<?xml version="1.0" encoding="utf-8"?>
<svg version="1.1" xmlns:xlink="http://www.w3.org/1999/xlink" width="18px" height="18px" viewBox="1080 222  18 18" xmlns="http://www.w3.org/2000/svg">
  <path d="M 1089 222  C 1094.04 222  1098 225.96  1098 231  C 1098 236.04  1094.04 240  1089 240  C 1083.96 240  1080 236.04  1080 231  C 1080 225.96  1083.96 222  1089 222  Z " fill-rule="nonzero" fill="#ffffff" stroke="none" />
  <path d="M 1089 222.5  C 1093.76 222.5  1097.5 226.24  1097.5 231  C 1097.5 235.76  1093.76 239.5  1089 239.5  C 1084.24 239.5  1080.5 235.76  1080.5 231  C 1080.5 226.24  1084.24 222.5  1089 222.5  Z " stroke-width="1" stroke="#0099ff" fill="none" />
  <path d="M 1089 235.5  C 1086.48 235.5  1084.5 233.52  1084.5 231  C 1084.5 228.48  1086.48 226.5  1089 226.5  C 1091.52 226.5  1093.5 228.48  1093.5 231  C 1093.5 233.52  1091.52 235.5  1089 235.5  " fill-rule="nonzero" fill="#0099ff" stroke="none" />
</svg>