<?xml version="1.0" encoding="utf-8"?>
<svg version="1.1" xmlns:xlink="http://www.w3.org/1999/xlink" width="18px" height="18px" viewBox="996 222  18 18" xmlns="http://www.w3.org/2000/svg">
  <path d="M 1005 222  C 1010.04 222  1014 225.96  1014 231  C 1014 236.04  1010.04 240  1005 240  C 999.96 240  996 236.04  996 231  C 996 225.96  999.96 222  1005 222  Z " fill-rule="nonzero" fill="#f0f0f0" stroke="none" />
  <path d="M 1005 222.5  C 1009.76 222.5  1013.5 226.24  1013.5 231  C 1013.5 235.76  1009.76 239.5  1005 239.5  C 1000.24 239.5  996.5 235.76  996.5 231  C 996.5 226.24  1000.24 222.5  1005 222.5  Z " stroke-width="1" stroke="#797979" fill="none" />
  <path d="M 1005 235.5  C 1002.48 235.5  1000.5 233.52  1000.5 231  C 1000.5 228.48  1002.48 226.5  1005 226.5  C 1007.52 226.5  1009.5 228.48  1009.5 231  C 1009.5 233.52  1007.52 235.5  1005 235.5  " fill-rule="nonzero" fill="#797979" stroke="none" />
</svg>