<?xml version="1.0" encoding="utf-8"?>
<svg version="1.1" xmlns:xlink="http://www.w3.org/1999/xlink" width="763px" height="338px" viewBox="0 0  763 338" xmlns="http://www.w3.org/2000/svg">
  <path d="M 1 5  A 4 4 0 0 1 5 1 L 758 1  A 4 4 0 0 1 762 5 L 762 333  A 4 4 0 0 1 758 337 L 5 337  A 4 4 0 0 1 1 333 L 1 5  Z " fill-rule="nonzero" fill="#f0f0f0" stroke="none" />
  <path d="M 0.5 5  A 4.5 4.5 0 0 1 5 0.5 L 758 0.5  A 4.5 4.5 0 0 1 762.5 5 L 762.5 333  A 4.5 4.5 0 0 1 758 337.5 L 5 337.5  A 4.5 4.5 0 0 1 0.5 333 L 0.5 5  Z " stroke-width="1" stroke="#797979" fill="none" stroke-opacity="0.298039215686275" />
</svg>