<?xml version="1.0" encoding="utf-8"?>
<svg version="1.1" xmlns:xlink="http://www.w3.org/1999/xlink" width="12px" height="12px" viewBox="538 674  12 12" xmlns="http://www.w3.org/2000/svg">
  <path d="M 544 674  C 547.36 674  550 676.64  550 680  C 550 683.36  547.36 686  544 686  C 540.64 686  538 683.36  538 680  C 538 676.64  540.64 674  544 674  Z " fill-rule="nonzero" fill="#ffffff" stroke="none" />
  <path d="M 544 674.5  C 547.08 674.5  549.5 676.92  549.5 680  C 549.5 683.08  547.08 685.5  544 685.5  C 540.92 685.5  538.5 683.08  538.5 680  C 538.5 676.92  540.92 674.5  544 674.5  Z " stroke-width="1" stroke="#268aff" fill="none" />
  <path d="M 544 683  C 542.32 683  541 681.68  541 680  C 541 678.32  542.32 677  544 677  C 545.68 677  547 678.32  547 680  C 547 681.68  545.68 683  544 683  " fill-rule="nonzero" fill="#268aff" stroke="none" />
</svg>