<?xml version="1.0" encoding="utf-8"?>
<svg version="1.1" xmlns:xlink="http://www.w3.org/1999/xlink" width="12px" height="12px" viewBox="538 634  12 12" xmlns="http://www.w3.org/2000/svg">
  <path d="M 544 634  C 547.36 634  550 636.64  550 640  C 550 643.36  547.36 646  544 646  C 540.64 646  538 643.36  538 640  C 538 636.64  540.64 634  544 634  Z " fill-rule="nonzero" fill="#f0f0f0" stroke="none" />
  <path d="M 544 634.5  C 547.08 634.5  549.5 636.92  549.5 640  C 549.5 643.08  547.08 645.5  544 645.5  C 540.92 645.5  538.5 643.08  538.5 640  C 538.5 636.92  540.92 634.5  544 634.5  Z " stroke-width="1" stroke="#797979" fill="none" />
  <path d="M 544 643  C 542.32 643  541 641.68  541 640  C 541 638.32  542.32 637  544 637  C 545.68 637  547 638.32  547 640  C 547 641.68  545.68 643  544 643  " fill-rule="nonzero" fill="#797979" stroke="none" />
</svg>