<?xml version="1.0" encoding="utf-8"?>
<svg version="1.1" xmlns:xlink="http://www.w3.org/1999/xlink" width="22px" height="22px" xmlns="http://www.w3.org/2000/svg">
  <g>
    <path d="M 11 21.4535143203125  C 5.23625857812499 21.4535143203125  0.546485679687521 16.7645074765625  0.546485679687521 11  C 0.546485679687521 5.23625857812499  5.23621824218753 0.546485679687521  11 0.546485679687521  C 16.7645074531249 0.546485679687521  21.4535143203125 5.23549252343753  21.4535143203125 11  C 21.4535143203125 16.7645074765625  16.7645074531249 21.4535143203125  11 21.4535143203125  Z M 11 2.04648567968752  C 6.06276038281248 2.04648567968752  2.04648567968752 6.06272004687497  2.04648567968752 11  C 2.04648567968752 15.9365138984375  6.06272004687503 19.9535143203125  11 19.9535143203125  C 15.9365138984374 19.9535143203125  19.9535143203125 15.937279953125  19.9535143203125 11  C 19.9535143203125 6.06272004687497  15.9365138984374 2.04648567968752  11 2.04648567968752  Z M 9.87498992187511 6.125010078125  C 9.87498992187511 5.50368230468752  10.3786722265625 5  11 5  C 11.6213277734375 5  12.1250100781249 5.50368230468752  12.1250100781249 6.125010078125  C 12.1250100781249 6.74633785156249  11.6213277734375 7.25002015625  11 7.25002015625  C 10.3786722265625 7.25002015625  9.87498992187511 6.74633785156249  9.87498992187511 6.125010078125  Z M 11 8.74997984375  C 11.4140169218749 8.74997984375  11.75002015625 9.08598307812503  11.75002015625 9.5  L 11.75002015625 16.24997984375  C 11.75002015625 16.664762796875  11.4140169218749 17  11 17  C 10.5859830781251 17  10.24997984375 16.664762796875  10.24997984375 16.24997984375  L 10.24997984375 9.5  C 10.24997984375 9.08598307812503  10.5859830781251 8.74997984375  11 8.74997984375  Z " fill-rule="nonzero" fill="#575b66" stroke="none" />
  </g>
</svg>