<?xml version="1.0" encoding="utf-8"?>
<svg version="1.1" xmlns:xlink="http://www.w3.org/1999/xlink" width="18px" height="18px" viewBox="285 1640  18 18" xmlns="http://www.w3.org/2000/svg">
  <path d="M 294 1640  C 299.04 1640  303 1643.96  303 1649  C 303 1654.04  299.04 1658  294 1658  C 288.96 1658  285 1654.04  285 1649  C 285 1643.96  288.96 1640  294 1640  Z " fill-rule="nonzero" fill="#ffffff" stroke="none" />
  <path d="M 294 1640.5  C 298.76 1640.5  302.5 1644.24  302.5 1649  C 302.5 1653.76  298.76 1657.5  294 1657.5  C 289.24 1657.5  285.5 1653.76  285.5 1649  C 285.5 1644.24  289.24 1640.5  294 1640.5  Z " stroke-width="1" stroke="#797979" fill="none" />
  <path d="M 294 1653.5  C 291.48 1653.5  289.5 1651.52  289.5 1649  C 289.5 1646.48  291.48 1644.5  294 1644.5  C 296.52 1644.5  298.5 1646.48  298.5 1649  C 298.5 1651.52  296.52 1653.5  294 1653.5  " fill-rule="nonzero" fill="#797979" stroke="none" />
</svg>