<?xml version="1.0" encoding="utf-8"?>
<svg version="1.1" xmlns:xlink="http://www.w3.org/1999/xlink" width="16px" height="16px" viewBox="375 324  16 16" xmlns="http://www.w3.org/2000/svg">
  <path d="M 375.5 327  A 2.5 2.5 0 0 1 378 324.5 L 388 324.5  A 2.5 2.5 0 0 1 390.5 327 L 390.5 337  A 2.5 2.5 0 0 1 388 339.5 L 378 339.5  A 2.5 2.5 0 0 1 375.5 337 L 375.5 327  Z " fill-rule="nonzero" fill="#ffffff" stroke="none" />
  <path d="M 375.5 327  A 2.5 2.5 0 0 1 378 324.5 L 388 324.5  A 2.5 2.5 0 0 1 390.5 327 L 390.5 337  A 2.5 2.5 0 0 1 388 339.5 L 378 339.5  A 2.5 2.5 0 0 1 375.5 337 L 375.5 327  Z " stroke-width="1" stroke="#999999" fill="none" />
</svg>