<?xml version="1.0" encoding="utf-8"?>
<svg version="1.1" xmlns:xlink="http://www.w3.org/1999/xlink" width="16px" height="15px" xmlns="http://www.w3.org/2000/svg">
  <g transform="matrix(1 0 0 1 -266 -134 )">
    <path d="M 12.125 13.564453125  C 12.2467948717949 13.4407552083333  12.3076923076923 13.2942708333333  12.3076923076923 13.125  C 12.3076923076923 12.9557291666667  12.2467948717949 12.8092447916667  12.125 12.685546875  C 12.0032051282051 12.5618489583333  11.8589743589744 12.5  11.6923076923077 12.5  C 11.525641025641 12.5  11.3814102564103 12.5618489583333  11.2596153846154 12.685546875  C 11.1378205128205 12.8092447916667  11.0769230769231 12.9557291666667  11.0769230769231 13.125  C 11.0769230769231 13.2942708333333  11.1378205128205 13.4407552083333  11.2596153846154 13.564453125  C 11.3814102564103 13.6881510416667  11.525641025641 13.75  11.6923076923077 13.75  C 11.8589743589744 13.75  12.0032051282051 13.6881510416667  12.125 13.564453125  Z M 14.5865384615385 13.564453125  C 14.7083333333333 13.4407552083333  14.7692307692308 13.2942708333333  14.7692307692308 13.125  C 14.7692307692308 12.9557291666667  14.7083333333333 12.8092447916667  14.5865384615385 12.685546875  C 14.4647435897436 12.5618489583333  14.3205128205128 12.5  14.1538461538462 12.5  C 13.9871794871795 12.5  13.8429487179487 12.5618489583333  13.7211538461538 12.685546875  C 13.599358974359 12.8092447916667  13.5384615384615 12.9557291666667  13.5384615384615 13.125  C 13.5384615384615 13.2942708333333  13.599358974359 13.4407552083333  13.7211538461538 13.564453125  C 13.8429487179487 13.6881510416667  13.9871794871795 13.75  14.1538461538462 13.75  C 14.3205128205128 13.75  14.4647435897436 13.6881510416667  14.5865384615385 13.564453125  Z M 15.7307692307692 10.2734375  C 15.9102564102564 10.4557291666667  16 10.6770833333333  16 10.9375  L 16 14.0625  C 16 14.3229166666667  15.9102564102564 14.5442708333333  15.7307692307692 14.7265625  C 15.5512820512821 14.9088541666667  15.3333333333333 15  15.0769230769231 15  L 0.923076923076923 15  C 0.666666666666667 15  0.448717948717949 14.9088541666667  0.269230769230769 14.7265625  C 0.0897435897435897 14.5442708333333  0 14.3229166666667  0 14.0625  L 0 10.9375  C 0 10.6770833333333  0.0897435897435897 10.4557291666667  0.269230769230769 10.2734375  C 0.448717948717949 10.0911458333333  0.666666666666667 10  0.923076923076923 10  L 5.39423076923077 10  L 6.69230769230769 11.328125  C 7.06410256410256 11.6927083333333  7.5 11.875  8 11.875  C 8.5 11.875  8.93589743589744 11.6927083333333  9.30769230769231 11.328125  L 10.6153846153846 10  L 15.0769230769231 10  C 15.3333333333333 10  15.5512820512821 10.0911458333333  15.7307692307692 10.2734375  Z M 12.3076923076923 5  C 12.5769230769231 5  12.7660256410256 5.126953125  12.875 5.380859375  C 12.9839743589744 5.64778645833333  12.9391025641026 5.87565104166667  12.7403846153846 6.064453125  L 8.43269230769231 10.439453125  C 8.31730769230769 10.5631510416667  8.17307692307692 10.625  8 10.625  C 7.82692307692308 10.625  7.68269230769231 10.5631510416667  7.56730769230769 10.439453125  L 3.25961538461538 6.064453125  C 3.06089743589744 5.87565104166667  3.01602564102564 5.64778645833333  3.125 5.380859375  C 3.23397435897436 5.126953125  3.42307692307692 5  3.69230769230769 5  L 6.15384615384615 5  L 6.15384615384615 0.624999999999999  C 6.15384615384615 0.455729166666665  6.21474358974359 0.309244791666665  6.33653846153846 0.185546874999999  C 6.45833333333333 0.0618489583333343  6.6025641025641 0  6.76923076923077 0  L 9.23076923076923 0  C 9.3974358974359 0  9.54166666666667 0.0618489583333343  9.66346153846154 0.185546874999999  C 9.78525641025641 0.309244791666665  9.84615384615385 0.455729166666665  9.84615384615385 0.624999999999999  L 9.84615384615385 5  L 12.3076923076923 5  Z " fill-rule="nonzero" fill="#409eff" stroke="none" transform="matrix(1 0 0 1 266 134 )" />
  </g>
</svg>