<?xml version="1.0" encoding="utf-8"?>
<svg version="1.1" xmlns:xlink="http://www.w3.org/1999/xlink" width="16px" height="16px" viewBox="375 764  16 16" xmlns="http://www.w3.org/2000/svg">
  <path d="M 375.5 767  A 2.5 2.5 0 0 1 378 764.5 L 388 764.5  A 2.5 2.5 0 0 1 390.5 767 L 390.5 777  A 2.5 2.5 0 0 1 388 779.5 L 378 779.5  A 2.5 2.5 0 0 1 375.5 777 L 375.5 767  Z " fill-rule="nonzero" fill="#f0f0f0" stroke="none" />
  <path d="M 375.5 767  A 2.5 2.5 0 0 1 378 764.5 L 388 764.5  A 2.5 2.5 0 0 1 390.5 767 L 390.5 777  A 2.5 2.5 0 0 1 388 779.5 L 378 779.5  A 2.5 2.5 0 0 1 375.5 777 L 375.5 767  Z " stroke-width="1" stroke="#999999" fill="none" />
  <path d="M 378.428571428571 772  L 381.857142857143 775.428571428571  L 387.571428571429 767.428571428571  " stroke-width="3.42857142857143" stroke="#999999" fill="none" />
</svg>