<?xml version="1.0" encoding="utf-8"?>
<svg version="1.1" xmlns:xlink="http://www.w3.org/1999/xlink" width="16px" height="16px" viewBox="375 599  16 16" xmlns="http://www.w3.org/2000/svg">
  <path d="M 375.5 602  A 2.5 2.5 0 0 1 378 599.5 L 388 599.5  A 2.5 2.5 0 0 1 390.5 602 L 390.5 612  A 2.5 2.5 0 0 1 388 614.5 L 378 614.5  A 2.5 2.5 0 0 1 375.5 612 L 375.5 602  Z " fill-rule="nonzero" fill="#ffffff" stroke="none" />
  <path d="M 375.5 602  A 2.5 2.5 0 0 1 378 599.5 L 388 599.5  A 2.5 2.5 0 0 1 390.5 602 L 390.5 612  A 2.5 2.5 0 0 1 388 614.5 L 378 614.5  A 2.5 2.5 0 0 1 375.5 612 L 375.5 602  Z " stroke-width="1" stroke="#999999" fill="none" />
</svg>