<?xml version="1.0" encoding="utf-8"?>
<svg version="1.1" xmlns:xlink="http://www.w3.org/1999/xlink" width="15px" height="15px" xmlns="http://www.w3.org/2000/svg">
  <g transform="matrix(1 0 0 1 -276 -192 )">
    <path d="M 6.75 6.75  L 6.75 11.25  L 8.25 11.25  L 8.25 6.75  L 6.75 6.75  Z M 15 7.5  C 15 3.36  11.64 0  7.5 0  C 3.36 0  0 3.36  0 7.5  C 0 11.64  3.36 15  7.5 15  C 11.64 15  15 11.64  15 7.5  Z M 13.5 7.5  C 13.5 10.8075  10.8075 13.5  7.5 13.5  C 4.1925 13.5  1.5 10.8075  1.5 7.5  C 1.5 4.1925  4.1925 1.5  7.5 1.5  C 10.8075 1.5  13.5 4.1925  13.5 7.5  Z M 6.75 3.75  L 6.75 5.25  L 8.25 5.25  L 8.25 3.75  L 6.75 3.75  Z " fill-rule="nonzero" fill="#333333" stroke="none" transform="matrix(1 0 0 1 276 192 )" />
  </g>
</svg>