<?xml version="1.0" encoding="utf-8"?>
<svg version="1.1" xmlns:xlink="http://www.w3.org/1999/xlink" width="16px" height="16px" viewBox="103 190  16 16" xmlns="http://www.w3.org/2000/svg">
  <path d="M 103.5 193  A 2.5 2.5 0 0 1 106 190.5 L 116 190.5  A 2.5 2.5 0 0 1 118.5 193 L 118.5 203  A 2.5 2.5 0 0 1 116 205.5 L 106 205.5  A 2.5 2.5 0 0 1 103.5 203 L 103.5 193  Z " fill-rule="nonzero" fill="#f0f0f0" stroke="none" />
  <path d="M 103.5 193  A 2.5 2.5 0 0 1 106 190.5 L 116 190.5  A 2.5 2.5 0 0 1 118.5 193 L 118.5 203  A 2.5 2.5 0 0 1 116 205.5 L 106 205.5  A 2.5 2.5 0 0 1 103.5 203 L 103.5 193  Z " stroke-width="1" stroke="#999999" fill="none" />
  <path d="M 106.428571428571 198  L 109.857142857143 201.428571428571  L 115.571428571429 193.428571428571  " stroke-width="3.42857142857143" stroke="#999999" fill="none" />
</svg>