<?xml version="1.0" encoding="utf-8"?>
<svg version="1.1" xmlns:xlink="http://www.w3.org/1999/xlink" width="50px" height="31px" xmlns="http://www.w3.org/2000/svg">
  <g transform="matrix(1 0 0 1 -1249 -234 )">
    <path d="M 1.2451171875 21.518359375  C 0.4150390625 19.605078125  0 17.5989583333333  0 15.5  C 0 13.4010416666667  0.4150390625 11.394921875  1.2451171875 9.481640625  C 2.0751953125 7.568359375  3.18603515625 5.921484375  4.57763671875 4.541015625  C 5.96923828125 3.160546875  7.62939453125 2.05859375  9.55810546875 1.23515625  C 11.48681640625 0.411718750000001  13.5091145833333 0  15.625 0  L 34.375 0  C 36.4908854166667 0  38.51318359375 0.411718750000001  40.44189453125 1.23515625  C 42.37060546875 2.05859375  44.03076171875 3.160546875  45.42236328125 4.541015625  C 46.81396484375 5.921484375  47.9248046875 7.568359375  48.7548828125 9.481640625  C 49.5849609375 11.394921875  50 13.4010416666667  50 15.5  C 50 17.5989583333333  49.5849609375 19.605078125  48.7548828125 21.518359375  C 47.9248046875 23.431640625  46.81396484375 25.078515625  45.42236328125 26.458984375  C 44.03076171875 27.839453125  42.37060546875 28.94140625  40.44189453125 29.76484375  C 38.51318359375 30.58828125  36.4908854166667 31  34.375 31  L 15.625 31  C 13.5091145833333 31  11.48681640625 30.58828125  9.55810546875 29.76484375  C 7.62939453125 28.94140625  5.96923828125 27.839453125  4.57763671875 26.458984375  C 3.18603515625 25.078515625  2.0751953125 23.431640625  1.2451171875 21.518359375  Z M 29.52880859375 26.919140625  C 31.06689453125 27.573046875  32.6822916666667 27.9  34.375 27.9  C 36.0677083333333 27.9  37.68310546875 27.573046875  39.22119140625 26.919140625  C 40.75927734375 26.265234375  42.08984375 25.38125  43.212890625 24.2671875  C 44.3359375 23.153125  45.22705078125 21.833203125  45.88623046875 20.307421875  C 46.54541015625 18.781640625  46.875 17.1791666666667  46.875 15.5  C 46.875 13.8208333333333  46.54541015625 12.218359375  45.88623046875 10.692578125  C 45.22705078125 9.166796875  44.3359375 7.846875  43.212890625 6.7328125  C 42.08984375 5.61875  40.75927734375 4.734765625  39.22119140625 4.080859375  C 37.68310546875 3.426953125  36.0677083333333 3.1  34.375 3.1  C 32.6822916666667 3.1  31.06689453125 3.426953125  29.52880859375 4.080859375  C 27.99072265625 4.734765625  26.66015625 5.61875  25.537109375 6.7328125  C 24.4140625 7.846875  23.52294921875 9.166796875  22.86376953125 10.692578125  C 22.20458984375 12.218359375  21.875 13.8208333333333  21.875 15.5  C 21.875 17.1791666666667  22.20458984375 18.781640625  22.86376953125 20.307421875  C 23.52294921875 21.833203125  24.4140625 23.153125  25.537109375 24.2671875  C 26.66015625 25.38125  27.99072265625 26.265234375  29.52880859375 26.919140625  Z " fill-rule="nonzero" fill="#409eff" stroke="none" transform="matrix(1 0 0 1 1249 234 )" />
  </g>
</svg>