<?xml version="1.0" encoding="utf-8"?>
<svg version="1.1" xmlns:xlink="http://www.w3.org/1999/xlink" width="13px" height="15px" xmlns="http://www.w3.org/2000/svg">
  <g transform="matrix(1 0 0 1 -315 -133 )">
    <path d="M 9.57894736842105 1.36363636363636  L 9.57894736842105 0  L 1.36842105263158 0  C 0.61578947368421 0  0 0.613636363636364  0 1.36363636363636  L 0 10.9090909090909  L 1.36842105263158 10.9090909090909  L 1.36842105263158 1.36363636363636  L 9.57894736842105 1.36363636363636  Z M 13 4.09090909090909  C 13 3.34090909090909  12.3842105263158 2.72727272727273  11.6315789473684 2.72727272727273  L 4.10526315789474 2.72727272727273  C 3.35263157894737 2.72727272727273  2.73684210526316 3.34090909090909  2.73684210526316 4.09090909090909  L 2.73684210526316 13.6363636363636  C 2.73684210526316 14.3863636363636  3.35263157894737 15  4.10526315789474 15  L 11.6315789473684 15  C 12.3842105263158 15  13 14.3863636363636  13 13.6363636363636  L 13 4.09090909090909  Z M 11.6315789473684 4.09090909090909  L 11.6315789473684 13.6363636363636  L 4.10526315789474 13.6363636363636  L 4.10526315789474 4.09090909090909  L 11.6315789473684 4.09090909090909  Z " fill-rule="nonzero" fill="#999999" stroke="none" transform="matrix(1 0 0 1 315 133 )" />
  </g>
</svg>