<?xml version="1.0" encoding="utf-8"?>
<svg version="1.1" xmlns:xlink="http://www.w3.org/1999/xlink" width="16px" height="16px" xmlns="http://www.w3.org/2000/svg">
  <g transform="matrix(1 0 0 1 -314 -94 )">
    <path d="M 10.14105734375 11.7479302176339  C 10.1410573270089 12.0445393638393  9.9020421875 12.28643421875  9.60543304129464 12.28643421875  C 9.30882389508929 12.28643421875  9.06980873883928 12.0474190792411  9.06980873883928 11.7508099162946  L 9.06980873883928 5.85606297433036  C 9.06980873883928 5.559453828125  9.30882387834821 5.320438671875  9.60543304129464 5.320438671875  C 9.90204220424107 5.320438671875  10.14105734375 5.55945381138393  10.14105734375 5.85606297433036  L 10.14105734375 11.7479302176339  Z M 6.92731157924107 11.7479302176339  C 6.9273115625 12.0445393638393  6.68829642299107 12.28643421875  6.39168726004464 12.28643421875  C 6.09507811383929 12.28643421875  5.85606295758929 12.0474190792411  5.85606295758929 11.7508099162946  L 5.85606297433036 5.85606297433036  C 5.85606297433036 5.559453828125  6.09507811383929 5.320438671875  6.39168727678571 5.320438671875  C 6.68829642299107 5.320438671875  6.92731157924107 5.55945381138393  6.92731157924107 5.85606297433036  L 6.92731157924107 11.7479302176339  Z M 15.5001799832589 3.71356579799107  C 15.5001799832589 3.41695663504464  15.26116484375 3.17794149553571  14.9645556808036 3.17794149553571  L 12.2864342020089 3.17794149553571  L 12.28643421875 2.10669290736607  C 12.28643421875 1.21974515066964  11.5722684988839 0.499820016741071  10.6910801395089 0.499820016741071  L 5.320438671875 0.499820016741071  C 4.43349091517857 0.499820016741071  3.71356578125 1.21974515066964  3.71356578125 2.10669290736607  L 3.71356578125 3.17794149553571  L 1.03544430245536 3.17794149553571  C 0.73883515625 3.17794149553571  0.49982 3.41695663504464  0.49982 3.71356579799107  C 0.49982 4.0101749609375  0.738835139508929 4.24919010044643  1.03544430245536 4.24919010044643  L 14.9645556808036 4.24919010044643  C 15.2611648270089 4.24919010044643  15.5001799832589 4.0101749609375  15.5001799832589 3.71356579799107  Z M 4.78481438616071 2.10669290736607  C 4.78481438616071 1.81296345982143  5.02670922433036 1.57106860491071  5.32043868861607 1.57106860491071  L 10.6910801395089 1.57106860491071  C 10.9848095870536 1.57106860491071  11.2151856305804 1.80720404575893  11.2151856305804 2.10669290736607  L 11.2151856305804 3.17794149553571  L 4.78481438616071 3.17794149553571  L 4.78481438616071 2.10669290736607  Z M 13.3605625223214 13.8933070926339  C 13.3576828069196 14.7773751506696  12.6377576729911 15.5001799832589  11.7508099162946 15.5001799832589  L 4.25206978236607 15.5001799832589  C 3.36512202566964 15.5001799832589  2.64519689174107 14.7802548493304  2.64519689174107 13.8933070926339  L 2.64519689174107 5.85030356026786  C 2.64519689174107 5.5536944140625  2.88421203125 5.3146792578125  3.18082119419643 5.3146792578125  C 3.47743035714286 5.3146792578125  3.71644549665179 5.55369439732143  3.71644549665179 5.85030356026786  L 3.71644549665179 13.8933070926339  C 3.71644549665179 14.1899162388393  3.95834033482143 14.4289313950893  4.25206979910714 14.4289313950893  L 11.7536896316964 14.4289313950893  C 12.0502987779018 14.4289313950893  12.2893139341518 14.1899162555804  12.2893139341518 13.8933070926339  L 12.2893139174107 5.87046146763393  C 12.2893139174107 5.57385232142857  12.5283290569196 5.33483716517857  12.8249382198661 5.33483716517857  C 13.1215473828125 5.33483716517857  13.3605625223214 5.5738523046875  13.3605625223214 5.87046146763393  L 13.3605625223214 13.8933070926339  Z " fill-rule="nonzero" fill="#999999" stroke="none" transform="matrix(1 0 0 1 314 94 )" />
  </g>
</svg>