<?xml version="1.0" encoding="utf-8"?>
<svg version="1.1" xmlns:xlink="http://www.w3.org/1999/xlink" width="16px" height="16px" xmlns="http://www.w3.org/2000/svg">
  <g transform="matrix(1 0 0 1 -314 -52 )">
    <path d="M 16 8  C 16 3.58892307692308  12.4110769230769 0  8 0  C 3.58892307692308 0  0 3.58892307692308  0 8  C 0 12.4110769230769  3.58892307692308 16  8 16  C 12.4110769230769 16  16 12.4110769230769  16 8  Z M 14.7692307692308 8  C 14.7692307692308 11.7323076923077  11.7323076923077 14.7692307692308  8 14.7692307692308  C 4.26769230769231 14.7692307692308  1.23076923076923 11.7323076923077  1.23076923076923 8  C 1.23076923076923 4.26769230769231  4.26769230769231 1.23076923076923  8 1.23076923076923  C 11.7323076923077 1.23076923076923  14.7692307692308 4.26769230769231  14.7692307692308 8  Z M 11.6233846153846 7.66953846153846  L 7.13107692307692 4.40307692307692  C 7.02591506409827 4.32662969644819  6.89924305132548 4.28545287412118  6.76923076327904 4.28545287412118  C 6.42936322492163 4.28545287412118  6.15384614789443 4.56096995114839  6.15384614789443 4.9008374895058  L 6.15384615384615 11.4350769230769  C 6.15413848564469 11.7747375183777  6.4295698202133 12.0499319026213  6.769230541313 12.0499319026213  C 6.89924292312877 12.0499319026213  7.02591502234203 12.0087550209676  7.13107692307692 11.9323076923077  L 11.6233846153846 8.66523076923077  C 11.7827425900505 8.54944338389939  11.8770408354881 8.36436604266007  11.8770408354881 8.16738461538461  C 11.8770408354881 7.97040318810916  11.7827425900505 7.78532584686983  11.6233846153846 7.66953846153846  Z " fill-rule="nonzero" fill="#999999" stroke="none" transform="matrix(1 0 0 1 314 52 )" />
  </g>
</svg>