<?xml version="1.0" encoding="utf-8"?>
<svg version="1.1" xmlns:xlink="http://www.w3.org/1999/xlink" width="16px" height="16px" xmlns="http://www.w3.org/2000/svg">
  <g transform="matrix(1 0 0 1 -314 -173 )">
    <path d="M 9.2140625 11.6421875  C 9.2140625 11.9773125  8.94215625 12.24921875  8.60703125 12.24921875  L 1.32265625 12.24921875  C 0.98753125 12.24921875  0.715625 11.9773125  0.715625 11.6421875  L 0.715625 4.3578125  C 0.715625 4.0226875  0.98753125 3.75078125  1.32265625 3.75078125  L 8.60703125 3.75078125  C 8.94215625 3.75078125  9.2140625 4.0226875  9.2140625 4.3578125  C 9.2140625 4.6929375  8.94215625 4.96484375  8.60703125 4.96484375  L 1.9296875 4.96484375  L 1.9296875 11.03515625  L 8.60703125 11.03515625  C 8.94215625 11.03515625  9.2140625 11.3070625  9.2140625 11.6421875  Z M 7.39296875 7.39296875  L 3.75078125 7.39296875  C 3.41565625 7.39296875  3.14375 7.664875  3.14375 8  C 3.14375 8.335125  3.41565625 8.60703125  3.75078125 8.60703125  L 7.39296875 8.60703125  C 7.72809375 8.60703125  8 8.335125  8 8  C 8 7.664875  7.72809375 7.39296875  7.39296875 7.39296875  Z M 14.0703125 15.284375  C 14.0703125 14.94925  13.79840625 14.67734375  13.46328125 14.67734375  L 11.6421875 14.67734375  L 11.6421875 1.32265625  L 13.46328125 1.32265625  C 13.79840625 1.32265625  14.0703125 1.05075  14.0703125 0.715625  C 14.0703125 0.3805  13.79840625 0.10859375  13.46328125 0.10859375  L 8.60703125 0.10859375  C 8.27190625 0.10859375  8 0.3805  8 0.715625  C 8 1.05075  8.27190625 1.32265625  8.60703125 1.32265625  L 10.428125 1.32265625  L 10.428125 14.67734375  L 8.60703125 14.67734375  C 8.27190625 14.67734375  8 14.94925  8 15.284375  C 8 15.6195  8.27190625 15.89140625  8.60703125 15.89140625  L 13.46328125 15.89140625  C 13.79840625 15.89140625  14.0703125 15.6195  14.0703125 15.284375  Z M 15.284375 4.3578125  C 15.284375 4.0226875  15.01246875 3.75078125  14.67734375 3.75078125  L 13.46328125 3.75078125  C 13.12815625 3.75078125  12.85625 4.0226875  12.85625 4.3578125  C 12.85625 4.6929375  13.12815625 4.96484375  13.46328125 4.96484375  L 14.0703125 4.96484375  L 14.0703125 11.03515625  L 13.46328125 11.03515625  C 13.12815625 11.03515625  12.85625 11.3070625  12.85625 11.6421875  C 12.85625 11.9773125  13.12815625 12.24921875  13.46328125 12.24921875  L 14.67734375 12.24921875  C 15.01246875 12.24921875  15.284375 11.9773125  15.284375 11.6421875  L 15.284375 4.3578125  Z M 14.10575 15.28459375  C 14.10575 15.63853125  13.8174375 15.92684375  13.46328125 15.92684375  L 8.60703125 15.92684375  C 8.252875 15.92684375  7.9645625 15.63875  7.9645625 15.284375  C 7.9645625 14.93021875  8.25265625 14.64190625  8.60703125 14.64190625  L 10.3926875 14.64190625  L 10.3926875 1.35809375  L 8.60703125 1.35809375  C 8.252875 1.35809375  7.9645625 1.07  7.9645625 0.715625  C 7.9645625 0.36125  8.25265625 0.07315625  8.60703125 0.07315625  L 13.46328125 0.07315625  C 13.8174375 0.07315625  14.10575 0.36125  14.10575 0.715625  C 14.10575 1.07  13.81765625 1.35809375  13.46328125 1.35809375  L 11.677625 1.35809375  L 11.677625 14.642125  L 13.46328125 14.642125  C 13.8174375 14.642125  14.10575 14.93021875  14.10575 15.28459375  Z M 10.4635625 14.71278125  L 8.60703125 14.71278125  C 8.2918125 14.71278125  8.0354375 14.96915625  8.0354375 15.284375  C 8.0354375 15.59959375  8.2918125 15.85596875  8.60703125 15.85596875  L 13.46328125 15.85596875  C 13.7785 15.85596875  14.034875 15.59959375  14.034875 15.284375  C 14.034875 14.96915625  13.7785 14.71278125  13.46328125 14.71278125  L 11.60675 14.71278125  L 11.60675 1.28721875  L 13.46328125 1.28721875  C 13.7785 1.28721875  14.034875 1.03084375  14.034875 0.715625  C 14.034875 0.40040625  13.7785 0.14403125  13.46328125 0.14403125  L 8.60703125 0.14403125  C 8.2918125 0.14403125  8.0354375 0.40040625  8.0354375 0.715625  C 8.0354375 1.03084375  8.2918125 1.28721875  8.60703125 1.28721875  L 10.4635625 1.28721875  L 10.4635625 14.71278125  Z M 15.3198125 11.6421875  C 15.3198125 11.99634375  15.0315 12.28465625  14.67734375 12.28465625  L 13.46328125 12.28465625  C 13.109125 12.28465625  12.8208125 11.9965625  12.8208125 11.6421875  C 12.8208125 11.28803125  13.10890625 10.99971875  13.46328125 10.99971875  L 14.034875 10.99971875  L 14.034875 5.00028125  L 13.46328125 5.00028125  C 13.109125 5.00028125  12.8208125 4.7121875  12.8208125 4.3578125  C 12.8208125 4.00365625  13.10890625 3.71534375  13.46328125 3.71534375  L 14.67734375 3.71534375  C 15.0315 3.71534375  15.3198125 4.0034375  15.3198125 4.3578125  L 15.3198125 11.6421875  Z M 14.10575 11.07059375  L 13.46328125 11.07059375  C 13.1480625 11.07059375  12.8916875 11.32696875  12.8916875 11.6421875  C 12.8916875 11.95740625  13.1480625 12.21378125  13.46328125 12.21378125  L 14.67734375 12.21378125  C 14.9925625 12.21378125  15.2489375 11.95740625  15.2489375 11.6421875  L 15.2489375 4.3578125  C 15.2489375 4.04259375  14.9925625 3.78621875  14.67734375 3.78621875  L 13.46328125 3.78621875  C 13.1480625 3.78621875  12.8916875 4.04259375  12.8916875 4.3578125  C 12.8916875 4.67303125  13.1480625 4.92940625  13.46328125 4.92940625  L 14.10575 4.92940625  L 14.10575 11.07059375  Z M 9.2495 11.6421875  C 9.2495 11.99634375  8.9611875 12.28465625  8.60703125 12.28465625  L 1.32265625 12.28465625  C 0.9685 12.28465625  0.6801875 11.9965625  0.6801875 11.6421875  L 0.6801875 4.3578125  C 0.6801875 4.00365625  0.96828125 3.71534375  1.32265625 3.71534375  L 8.60703125 3.71534375  C 8.9611875 3.71534375  9.2495 4.0034375  9.2495 4.3578125  C 9.2495 4.71196875  8.96140625 5.00028125  8.60703125 5.00028125  L 1.965125 5.00028125  L 1.965125 10.99971875  L 8.60703125 10.99971875  C 8.9611875 10.99971875  9.2495 11.2878125  9.2495 11.6421875  Z M 8.60703125 3.78621875  L 1.32265625 3.78621875  C 1.0074375 3.78621875  0.7510625 4.04259375  0.7510625 4.3578125  L 0.7510625 11.6421875  C 0.7510625 11.95740625  1.0074375 12.21378125  1.32265625 12.21378125  L 8.60703125 12.21378125  C 8.92225 12.21378125  9.178625 11.95740625  9.178625 11.6421875  C 9.178625 11.32696875  8.92225 11.07059375  8.60703125 11.07059375  L 1.89425 11.07059375  L 1.89425 4.92940625  L 8.60703125 4.92940625  C 8.92225 4.92940625  9.178625 4.67303125  9.178625 4.3578125  C 9.178625 4.04259375  8.92225 3.78621875  8.60703125 3.78621875  Z M 8.0354375 8  C 8.0354375 8.35415625  7.747125 8.64246875  7.39296875 8.64246875  L 3.75078125 8.64246875  C 3.396625 8.64246875  3.1083125 8.354375  3.1083125 8  C 3.1083125 7.64584375  3.39640625 7.35753125  3.75078125 7.35753125  L 7.39296875 7.35753125  C 7.747125 7.35753125  8.0354375 7.645625  8.0354375 8  Z M 7.39296875 7.42840625  L 3.75078125 7.42840625  C 3.4355625 7.42840625  3.1791875 7.68478125  3.1791875 8  C 3.1791875 8.31521875  3.4355625 8.57159375  3.75078125 8.57159375  L 7.39296875 8.57159375  C 7.7081875 8.57159375  7.9645625 8.31521875  7.9645625 8  C 7.9645625 7.68478125  7.7081875 7.42840625  7.39296875 7.42840625  Z " fill-rule="nonzero" fill="#999999" stroke="none" transform="matrix(1 0 0 1 314 173 )" />
  </g>
</svg>