<?xml version="1.0" encoding="utf-8"?>
<svg version="1.1" xmlns:xlink="http://www.w3.org/1999/xlink" width="90px" height="40px" xmlns="http://www.w3.org/2000/svg">
  <defs>
    <filter x="451px" y="698px" width="90px" height="40px" filterUnits="userSpaceOnUse" id="filter23">
      <feOffset dx="0" dy="0" in="SourceAlpha" result="shadowOffsetInner" />
      <feGaussianBlur stdDeviation="2.5" in="shadowOffsetInner" result="shadowGaussian" />
      <feComposite in2="shadowGaussian" operator="atop" in="SourceAlpha" result="shadowComposite" />
      <feColorMatrix type="matrix" values="0 0 0 0 0.176470588235294  0 0 0 0 0.176470588235294  0 0 0 0 0.176470588235294  0 0 0 0.313725490196078 0  " in="shadowComposite" />
    </filter>
    <g id="widget24">
      <path d="M 456.5 708  A 4.5 4.5 0 0 1 461 703.5 L 531 703.5  A 4.5 4.5 0 0 1 535.5 708 L 535.5 728  A 4.5 4.5 0 0 1 531 732.5 L 461 732.5  A 4.5 4.5 0 0 1 456.5 728 L 456.5 708  Z " fill-rule="nonzero" fill="#f9f9f9" stroke="none" />
      <path d="M 456.5 708  A 4.5 4.5 0 0 1 461 703.5 L 531 703.5  A 4.5 4.5 0 0 1 535.5 708 L 535.5 728  A 4.5 4.5 0 0 1 531 732.5 L 461 732.5  A 4.5 4.5 0 0 1 456.5 728 L 456.5 708  Z " stroke-width="1" stroke="#e4e4e4" fill="none" />
    </g>
  </defs>
  <g transform="matrix(1 0 0 1 -451 -698 )">
    <use xlink:href="#widget24" filter="url(#filter23)" />
    <use xlink:href="#widget24" />
  </g>
</svg>