<?xml version="1.0" encoding="utf-8"?>
<svg version="1.1" xmlns:xlink="http://www.w3.org/1999/xlink" width="12px" height="12px" viewBox="204 90  12 12" xmlns="http://www.w3.org/2000/svg">
  <path d="M 210 90  C 213.36 90  216 92.64  216 96  C 216 99.36  213.36 102  210 102  C 206.64 102  204 99.36  204 96  C 204 92.64  206.64 90  210 90  Z " fill-rule="nonzero" fill="#f0f0f0" stroke="none" />
  <path d="M 210 90.5  C 213.08 90.5  215.5 92.92  215.5 96  C 215.5 99.08  213.08 101.5  210 101.5  C 206.92 101.5  204.5 99.08  204.5 96  C 204.5 92.92  206.92 90.5  210 90.5  Z " stroke-width="1" stroke="#797979" fill="none" />
  <path d="M 210 99  C 208.32 99  207 97.68  207 96  C 207 94.32  208.32 93  210 93  C 211.68 93  213 94.32  213 96  C 213 97.68  211.68 99  210 99  " fill-rule="nonzero" fill="#797979" stroke="none" />
</svg>