<?xml version="1.0" encoding="utf-8"?>
<svg version="1.1" xmlns:xlink="http://www.w3.org/1999/xlink" width="12px" height="12px" viewBox="84 11  12 12" xmlns="http://www.w3.org/2000/svg">
  <path d="M 90 11  C 93.36 11  96 13.64  96 17  C 96 20.36  93.36 23  90 23  C 86.64 23  84 20.36  84 17  C 84 13.64  86.64 11  90 11  Z " fill-rule="nonzero" fill="#f0f0f0" stroke="none" />
  <path d="M 90 11.5  C 93.08 11.5  95.5 13.92  95.5 17  C 95.5 20.08  93.08 22.5  90 22.5  C 86.92 22.5  84.5 20.08  84.5 17  C 84.5 13.92  86.92 11.5  90 11.5  Z " stroke-width="1" stroke="#797979" fill="none" />
  <path d="M 90 20  C 88.32 20  87 18.68  87 17  C 87 15.32  88.32 14  90 14  C 91.68 14  93 15.32  93 17  C 93 18.68  91.68 20  90 20  " fill-rule="nonzero" fill="#797979" stroke="none" />
</svg>