<?xml version="1.0" encoding="utf-8"?>
<svg version="1.1" xmlns:xlink="http://www.w3.org/1999/xlink" width="20px" height="20px" xmlns="http://www.w3.org/2000/svg">
  <g transform="matrix(1 0 0 1 -574 -167 )">
    <path d="M 19.54 12.63  L 17.43 10.98  C 17.47 10.66  17.5 10.34  17.5 10  C 17.5 9.66  17.47 9.34  17.43 9.02  L 19.54 7.37  C 19.73 7.22  19.78 6.95  19.66 6.73  L 17.66 3.27  C 17.54 3.05  17.27 2.97  17.05 3.05  L 14.56 4.05  C 14.04 3.65  13.48 3.32  12.87 3.07  L 12.49 0.419999999999998  C 12.46 0.18  12.25 0  12 0  L 8 0  C 7.75 0  7.54 0.18  7.51 0.42  L 7.13 3.07  C 6.52 3.32  5.96 3.66  5.44 4.05  L 2.95 3.05  C 2.72 2.96  2.46 3.05  2.34 3.27  L 0.339999999999999 6.73  C 0.209999999999999 6.95  0.269999999999999 7.22  0.459999999999999 7.37  L 2.57 9.02  C 2.53 9.34  2.5 9.67  2.5 10  C 2.5 10.33  2.53 10.66  2.57 10.98  L 0.459999999999999 12.63  C 0.269999999999999 12.78  0.219999999999999 13.05  0.339999999999999 13.27  L 2.34 16.73  C 2.46 16.95  2.73 17.03  2.95 16.95  L 5.44 15.95  C 5.96 16.35  6.52 16.68  7.13 16.93  L 7.51 19.58  C 7.54 19.82  7.75 20  8 20  L 12 20  C 12.25 20  12.46 19.82  12.49 19.58  L 12.87 16.93  C 13.48 16.68  14.04 16.34  14.56 15.95  L 17.05 16.95  C 17.28 17.04  17.54 16.95  17.66 16.73  L 19.66 13.27  C 19.78 13.05  19.73 12.78  19.54 12.63  Z M 13.5 10  C 13.5 11.93  11.93 13.5  10 13.5  C 8.07 13.5  6.5 11.93  6.5 10  C 6.5 8.07  8.07 6.5  10 6.5  C 11.93 6.5  13.5 8.07  13.5 10  Z " fill-rule="nonzero" fill="#c3c3c3" stroke="none" transform="matrix(1 0 0 1 574 167 )" />
  </g>
</svg>