<?xml version="1.0" encoding="utf-8"?>
<svg version="1.1" xmlns:xlink="http://www.w3.org/1999/xlink" width="18px" height="18px" viewBox="80 475  18 18" xmlns="http://www.w3.org/2000/svg">
  <path d="M 89 476  C 93.48 476  97 479.52  97 484  C 97 488.48  93.48 492  89 492  C 84.52 492  81 488.48  81 484  C 81 479.52  84.52 476  89 476  Z " fill-rule="nonzero" fill="#ffffff" stroke="none" />
  <path d="M 89 476  C 93.48 476  97 479.52  97 484  C 97 488.48  93.48 492  89 492  C 84.52 492  81 488.48  81 484  C 81 479.52  84.52 476  89 476  Z " stroke-width="2" stroke="#409eff" fill="none" />
  <path d="M 89 488.5  C 86.48 488.5  84.5 486.52  84.5 484  C 84.5 481.48  86.48 479.5  89 479.5  C 91.52 479.5  93.5 481.48  93.5 484  C 93.5 486.52  91.52 488.5  89 488.5  " fill-rule="nonzero" fill="#409eff" stroke="none" />
</svg>