<?xml version="1.0" encoding="utf-8"?>
<svg version="1.1" xmlns:xlink="http://www.w3.org/1999/xlink" width="18px" height="18px" viewBox="80 692  18 18" xmlns="http://www.w3.org/2000/svg">
  <path d="M 89 693  C 93.48 693  97 696.52  97 701  C 97 705.48  93.48 709  89 709  C 84.52 709  81 705.48  81 701  C 81 696.52  84.52 693  89 693  Z " fill-rule="nonzero" fill="#ffffff" stroke="none" />
  <path d="M 89 693  C 93.48 693  97 696.52  97 701  C 97 705.48  93.48 709  89 709  C 84.52 709  81 705.48  81 701  C 81 696.52  84.52 693  89 693  Z " stroke-width="2" stroke="#409eff" fill="none" />
  <path d="M 89 705.5  C 86.48 705.5  84.5 703.52  84.5 701  C 84.5 698.48  86.48 696.5  89 696.5  C 91.52 696.5  93.5 698.48  93.5 701  C 93.5 703.52  91.52 705.5  89 705.5  " fill-rule="nonzero" fill="#409eff" stroke="none" />
</svg>