<?xml version="1.0" encoding="utf-8"?>
<svg version="1.1" xmlns:xlink="http://www.w3.org/1999/xlink" width="18px" height="18px" viewBox="80 584  18 18" xmlns="http://www.w3.org/2000/svg">
  <path d="M 89 585  C 93.48 585  97 588.52  97 593  C 97 597.48  93.48 601  89 601  C 84.52 601  81 597.48  81 593  C 81 588.52  84.52 585  89 585  Z " fill-rule="nonzero" fill="#f0f0f0" stroke="none" />
  <path d="M 89 585  C 93.48 585  97 588.52  97 593  C 97 597.48  93.48 601  89 601  C 84.52 601  81 597.48  81 593  C 81 588.52  84.52 585  89 585  Z " stroke-width="2" stroke="#797979" fill="none" />
  <path d="M 89 597.5  C 86.48 597.5  84.5 595.52  84.5 593  C 84.5 590.48  86.48 588.5  89 588.5  C 91.52 588.5  93.5 590.48  93.5 593  C 93.5 595.52  91.52 597.5  89 597.5  " fill-rule="nonzero" fill="#797979" stroke="none" />
</svg>