<?xml version="1.0" encoding="utf-8"?>
<svg version="1.1" xmlns:xlink="http://www.w3.org/1999/xlink" width="18px" height="18px" viewBox="80 256  18 18" xmlns="http://www.w3.org/2000/svg">
  <path d="M 89 257  C 93.48 257  97 260.52  97 265  C 97 269.48  93.48 273  89 273  C 84.52 273  81 269.48  81 265  C 81 260.52  84.52 257  89 257  Z " fill-rule="nonzero" fill="#ffffff" stroke="none" />
  <path d="M 89 257  C 93.48 257  97 260.52  97 265  C 97 269.48  93.48 273  89 273  C 84.52 273  81 269.48  81 265  C 81 260.52  84.52 257  89 257  Z " stroke-width="2" stroke="#409eff" fill="none" />
  <path d="M 89 269.5  C 86.48 269.5  84.5 267.52  84.5 265  C 84.5 262.48  86.48 260.5  89 260.5  C 91.52 260.5  93.5 262.48  93.5 265  C 93.5 267.52  91.52 269.5  89 269.5  " fill-rule="nonzero" fill="#409eff" stroke="none" />
</svg>