<?xml version="1.0" encoding="utf-8"?>
<svg version="1.1" xmlns:xlink="http://www.w3.org/1999/xlink" width="18px" height="18px" viewBox="80 419  18 18" xmlns="http://www.w3.org/2000/svg">
  <path d="M 89 420  C 93.48 420  97 423.52  97 428  C 97 432.48  93.48 436  89 436  C 84.52 436  81 432.48  81 428  C 81 423.52  84.52 420  89 420  Z " fill-rule="nonzero" fill="#f0f0f0" stroke="none" />
  <path d="M 89 420  C 93.48 420  97 423.52  97 428  C 97 432.48  93.48 436  89 436  C 84.52 436  81 432.48  81 428  C 81 423.52  84.52 420  89 420  Z " stroke-width="2" stroke="#797979" fill="none" />
  <path d="M 89 432.5  C 86.48 432.5  84.5 430.52  84.5 428  C 84.5 425.48  86.48 423.5  89 423.5  C 91.52 423.5  93.5 425.48  93.5 428  C 93.5 430.52  91.52 432.5  89 432.5  " fill-rule="nonzero" fill="#797979" stroke="none" />
</svg>