<?xml version="1.0" encoding="utf-8"?>
<svg version="1.1" xmlns:xlink="http://www.w3.org/1999/xlink" width="18px" height="18px" viewBox="80 308  18 18" xmlns="http://www.w3.org/2000/svg">
  <path d="M 89 309  C 93.48 309  97 312.52  97 317  C 97 321.48  93.48 325  89 325  C 84.52 325  81 321.48  81 317  C 81 312.52  84.52 309  89 309  Z " fill-rule="nonzero" fill="#ffffff" stroke="none" />
  <path d="M 89 309  C 93.48 309  97 312.52  97 317  C 97 321.48  93.48 325  89 325  C 84.52 325  81 321.48  81 317  C 81 312.52  84.52 309  89 309  Z " stroke-width="2" stroke="#409eff" fill="none" />
  <path d="M 89 321.5  C 86.48 321.5  84.5 319.52  84.5 317  C 84.5 314.48  86.48 312.5  89 312.5  C 91.52 312.5  93.5 314.48  93.5 317  C 93.5 319.52  91.52 321.5  89 321.5  " fill-rule="nonzero" fill="#409eff" stroke="none" />
</svg>