<?xml version="1.0" encoding="utf-8"?>
<svg version="1.1" xmlns:xlink="http://www.w3.org/1999/xlink" width="18px" height="18px" viewBox="80 364  18 18" xmlns="http://www.w3.org/2000/svg">
  <path d="M 89 365  C 93.48 365  97 368.52  97 373  C 97 377.48  93.48 381  89 381  C 84.52 381  81 377.48  81 373  C 81 368.52  84.52 365  89 365  Z " fill-rule="nonzero" fill="#ffffff" stroke="none" />
  <path d="M 89 365  C 93.48 365  97 368.52  97 373  C 97 377.48  93.48 381  89 381  C 84.52 381  81 377.48  81 373  C 81 368.52  84.52 365  89 365  Z " stroke-width="2" stroke="#409eff" fill="none" />
  <path d="M 89 377.5  C 86.48 377.5  84.5 375.52  84.5 373  C 84.5 370.48  86.48 368.5  89 368.5  C 91.52 368.5  93.5 370.48  93.5 373  C 93.5 375.52  91.52 377.5  89 377.5  " fill-rule="nonzero" fill="#409eff" stroke="none" />
</svg>