<?xml version="1.0" encoding="utf-8"?>
<svg version="1.1" xmlns:xlink="http://www.w3.org/1999/xlink" width="18px" height="18px" viewBox="80 639  18 18" xmlns="http://www.w3.org/2000/svg">
  <path d="M 89 640  C 93.48 640  97 643.52  97 648  C 97 652.48  93.48 656  89 656  C 84.52 656  81 652.48  81 648  C 81 643.52  84.52 640  89 640  Z " fill-rule="nonzero" fill="#ffffff" stroke="none" />
  <path d="M 89 640  C 93.48 640  97 643.52  97 648  C 97 652.48  93.48 656  89 656  C 84.52 656  81 652.48  81 648  C 81 643.52  84.52 640  89 640  Z " stroke-width="2" stroke="#409eff" fill="none" />
  <path d="M 89 652.5  C 86.48 652.5  84.5 650.52  84.5 648  C 84.5 645.48  86.48 643.5  89 643.5  C 91.52 643.5  93.5 645.48  93.5 648  C 93.5 650.52  91.52 652.5  89 652.5  " fill-rule="nonzero" fill="#409eff" stroke="none" />
</svg>