<?xml version="1.0" encoding="utf-8"?>
<svg version="1.1" xmlns:xlink="http://www.w3.org/1999/xlink" width="16px" height="16px" viewBox="16 75  16 16" xmlns="http://www.w3.org/2000/svg">
  <path d="M 16.5 78  A 2.5 2.5 0 0 1 19 75.5 L 29 75.5  A 2.5 2.5 0 0 1 31.5 78 L 31.5 88  A 2.5 2.5 0 0 1 29 90.5 L 19 90.5  A 2.5 2.5 0 0 1 16.5 88 L 16.5 78  Z " fill-rule="nonzero" fill="#409eff" stroke="none" />
  <path d="M 16.5 78  A 2.5 2.5 0 0 1 19 75.5 L 29 75.5  A 2.5 2.5 0 0 1 31.5 78 L 31.5 88  A 2.5 2.5 0 0 1 29 90.5 L 19 90.5  A 2.5 2.5 0 0 1 16.5 88 L 16.5 78  Z " stroke-width="1" stroke="#f7f7f7" fill="none" />
  <path d="M 19.4285714285714 83  L 22.8571428571429 86.4285714285714  L 28.5714285714286 78.4285714285714  " stroke-width="3.42857142857143" stroke="#f7f7f7" fill="none" />
</svg>