<?xml version="1.0" encoding="utf-8"?>
<svg version="1.1" xmlns:xlink="http://www.w3.org/1999/xlink" width="16px" height="16px" viewBox="16 184  16 16" xmlns="http://www.w3.org/2000/svg">
  <path d="M 16.5 187  A 2.5 2.5 0 0 1 19 184.5 L 29 184.5  A 2.5 2.5 0 0 1 31.5 187 L 31.5 197  A 2.5 2.5 0 0 1 29 199.5 L 19 199.5  A 2.5 2.5 0 0 1 16.5 197 L 16.5 187  Z " fill-rule="nonzero" fill="#ffffff" stroke="none" />
  <path d="M 16.5 187  A 2.5 2.5 0 0 1 19 184.5 L 29 184.5  A 2.5 2.5 0 0 1 31.5 187 L 31.5 197  A 2.5 2.5 0 0 1 29 199.5 L 19 199.5  A 2.5 2.5 0 0 1 16.5 197 L 16.5 187  Z " stroke-width="1" stroke="#999999" fill="none" />
</svg>