<?xml version="1.0" encoding="utf-8"?>
<svg version="1.1" xmlns:xlink="http://www.w3.org/1999/xlink" width="16px" height="16px" viewBox="16 184  16 16" xmlns="http://www.w3.org/2000/svg">
  <path d="M 16.5 187  A 2.5 2.5 0 0 1 19 184.5 L 29 184.5  A 2.5 2.5 0 0 1 31.5 187 L 31.5 197  A 2.5 2.5 0 0 1 29 199.5 L 19 199.5  A 2.5 2.5 0 0 1 16.5 197 L 16.5 187  Z " fill-rule="nonzero" fill="#409eff" stroke="none" />
  <path d="M 16.5 187  A 2.5 2.5 0 0 1 19 184.5 L 29 184.5  A 2.5 2.5 0 0 1 31.5 187 L 31.5 197  A 2.5 2.5 0 0 1 29 199.5 L 19 199.5  A 2.5 2.5 0 0 1 16.5 197 L 16.5 187  Z " stroke-width="1" stroke="#f7f7f7" fill="none" />
  <path d="M 19.4285714285714 192  L 22.8571428571429 195.428571428571  L 28.5714285714286 187.428571428571  " stroke-width="3.42857142857143" stroke="#f7f7f7" fill="none" />
</svg>