<?xml version="1.0" encoding="utf-8"?>
<svg version="1.1" xmlns:xlink="http://www.w3.org/1999/xlink" width="16px" height="16px" viewBox="16 572  16 16" xmlns="http://www.w3.org/2000/svg">
  <path d="M 16.5 575  A 2.5 2.5 0 0 1 19 572.5 L 29 572.5  A 2.5 2.5 0 0 1 31.5 575 L 31.5 585  A 2.5 2.5 0 0 1 29 587.5 L 19 587.5  A 2.5 2.5 0 0 1 16.5 585 L 16.5 575  Z " fill-rule="nonzero" fill="#f0f0f0" stroke="none" />
  <path d="M 16.5 575  A 2.5 2.5 0 0 1 19 572.5 L 29 572.5  A 2.5 2.5 0 0 1 31.5 575 L 31.5 585  A 2.5 2.5 0 0 1 29 587.5 L 19 587.5  A 2.5 2.5 0 0 1 16.5 585 L 16.5 575  Z " stroke-width="1" stroke="#999999" fill="none" />
  <path d="M 19.4285714285714 580  L 22.8571428571429 583.428571428571  L 28.5714285714286 575.428571428571  " stroke-width="3.42857142857143" stroke="#999999" fill="none" />
</svg>