<?xml version="1.0" encoding="utf-8"?>
<svg version="1.1" xmlns:xlink="http://www.w3.org/1999/xlink" width="16px" height="16px" viewBox="16 517  16 16" xmlns="http://www.w3.org/2000/svg">
  <path d="M 16.5 520  A 2.5 2.5 0 0 1 19 517.5 L 29 517.5  A 2.5 2.5 0 0 1 31.5 520 L 31.5 530  A 2.5 2.5 0 0 1 29 532.5 L 19 532.5  A 2.5 2.5 0 0 1 16.5 530 L 16.5 520  Z " fill-rule="nonzero" fill="#f0f0f0" stroke="none" />
  <path d="M 16.5 520  A 2.5 2.5 0 0 1 19 517.5 L 29 517.5  A 2.5 2.5 0 0 1 31.5 520 L 31.5 530  A 2.5 2.5 0 0 1 29 532.5 L 19 532.5  A 2.5 2.5 0 0 1 16.5 530 L 16.5 520  Z " stroke-width="1" stroke="#999999" fill="none" />
</svg>