<?xml version="1.0" encoding="utf-8"?>
<svg version="1.1" xmlns:xlink="http://www.w3.org/1999/xlink" width="160px" height="35px" xmlns="http://www.w3.org/2000/svg">
  <g>
    <path d="M 1 5  A 4 4 0 0 1 5 1 L 155 1  A 4 4 0 0 1 159 5 L 159 30  A 4 4 0 0 1 155 34 L 5 34  A 4 4 0 0 1 1 30 L 1 5  Z " fill-rule="nonzero" fill="#f0f7ff" stroke="none" />
    <path d="M 0.5 5  A 4.5 4.5 0 0 1 5 0.5 L 155 0.5  A 4.5 4.5 0 0 1 159.5 5 L 159.5 30  A 4.5 4.5 0 0 1 155 34.5 L 5 34.5  A 4.5 4.5 0 0 1 0.5 30 L 0.5 5  Z " stroke-width="1" stroke="#7abbff" fill="none" stroke-opacity="0.996078431372549" />
  </g>
</svg>