<?xml version="1.0" encoding="utf-8"?>
<svg version="1.1" xmlns:xlink="http://www.w3.org/1999/xlink" width="16px" height="16px" viewBox="90 646  16 16" xmlns="http://www.w3.org/2000/svg">
  <path d="M 90.5 649  A 2.5 2.5 0 0 1 93 646.5 L 103 646.5  A 2.5 2.5 0 0 1 105.5 649 L 105.5 659  A 2.5 2.5 0 0 1 103 661.5 L 93 661.5  A 2.5 2.5 0 0 1 90.5 659 L 90.5 649  Z " fill-rule="nonzero" fill="#ffffff" stroke="none" />
  <path d="M 90.5 649  A 2.5 2.5 0 0 1 93 646.5 L 103 646.5  A 2.5 2.5 0 0 1 105.5 649 L 105.5 659  A 2.5 2.5 0 0 1 103 661.5 L 93 661.5  A 2.5 2.5 0 0 1 90.5 659 L 90.5 649  Z " stroke-width="1" stroke="#999999" fill="none" />
</svg>