<?xml version="1.0" encoding="utf-8"?>
<svg version="1.1" xmlns:xlink="http://www.w3.org/1999/xlink" width="16px" height="16px" viewBox="90 339  16 16" xmlns="http://www.w3.org/2000/svg">
  <path d="M 90.5 342  A 2.5 2.5 0 0 1 93 339.5 L 103 339.5  A 2.5 2.5 0 0 1 105.5 342 L 105.5 352  A 2.5 2.5 0 0 1 103 354.5 L 93 354.5  A 2.5 2.5 0 0 1 90.5 352 L 90.5 342  Z " fill-rule="nonzero" fill="#ffffff" stroke="none" />
  <path d="M 90.5 342  A 2.5 2.5 0 0 1 93 339.5 L 103 339.5  A 2.5 2.5 0 0 1 105.5 342 L 105.5 352  A 2.5 2.5 0 0 1 103 354.5 L 93 354.5  A 2.5 2.5 0 0 1 90.5 352 L 90.5 342  Z " stroke-width="1" stroke="#999999" fill="none" />
  <path d="M 93.4285714285714 347  L 96.8571428571429 350.428571428571  L 102.571428571429 342.428571428571  " stroke-width="3.42857142857143" stroke="#999999" fill="none" />
</svg>