<?xml version="1.0" encoding="utf-8"?>
<svg version="1.1" xmlns:xlink="http://www.w3.org/1999/xlink" width="16px" height="16px" viewBox="90 523  16 16" xmlns="http://www.w3.org/2000/svg">
  <path d="M 90.5 526  A 2.5 2.5 0 0 1 93 523.5 L 103 523.5  A 2.5 2.5 0 0 1 105.5 526 L 105.5 536  A 2.5 2.5 0 0 1 103 538.5 L 93 538.5  A 2.5 2.5 0 0 1 90.5 536 L 90.5 526  Z " fill-rule="nonzero" fill="#ffffff" stroke="none" />
  <path d="M 90.5 526  A 2.5 2.5 0 0 1 93 523.5 L 103 523.5  A 2.5 2.5 0 0 1 105.5 526 L 105.5 536  A 2.5 2.5 0 0 1 103 538.5 L 93 538.5  A 2.5 2.5 0 0 1 90.5 536 L 90.5 526  Z " stroke-width="1" stroke="#999999" fill="none" />
  <path d="M 93.4285714285714 531  L 96.8571428571429 534.428571428571  L 102.571428571429 526.428571428571  " stroke-width="3.42857142857143" stroke="#999999" fill="none" />
</svg>