<?xml version="1.0" encoding="utf-8"?>
<svg version="1.1" xmlns:xlink="http://www.w3.org/1999/xlink" width="24px" height="18px" xmlns="http://www.w3.org/2000/svg">
  <g transform="matrix(1 0 0 1 -597 -180 )">
    <path d="M 1.71428571428571 9  C 3.20535714285714 11.3035714285714  5.11160714285714 12.9776785714286  7.43303571428572 14.0223214285714  L 8.47767857142857 12.1339285714286  C 7.70089285714286 11.5714285714286  7.09375 10.8616071428571  6.65625 10.0044642857143  C 6.21875 9.14732142857143  6 8.24107142857143  6 7.28571428571429  C 6 6.20535714285714  6.27232142857143 5.20089285714286  6.81696428571428 4.27232142857143  C 4.77232142857143 5.31696428571429  3.07142857142857 6.89285714285714  1.71428571428571 9  Z M 12.4553571428571 4.3125  C 12.5803571428571 4.1875  12.6428571428571 4.03571428571429  12.6428571428571 3.85714285714286  C 12.6428571428571 3.67857142857143  12.5803571428571 3.52678571428571  12.4553571428571 3.40178571428571  C 12.3303571428571 3.27678571428571  12.1785714285714 3.21428571428571  12 3.21428571428571  C 10.8839285714286 3.21428571428571  9.92633928571429 3.61383928571429  9.12723214285714 4.41294642857143  C 8.328125 5.21205357142857  7.92857142857143 6.16964285714286  7.92857142857143 7.28571428571429  C 7.92857142857143 7.46428571428571  7.99107142857143 7.61607142857143  8.11607142857143 7.74107142857143  C 8.24107142857143 7.86607142857143  8.39285714285714 7.92857142857143  8.57142857142857 7.92857142857143  C 8.75 7.92857142857143  8.90178571428572 7.86607142857143  9.02678571428572 7.74107142857143  C 9.15178571428572 7.61607142857143  9.21428571428572 7.46428571428571  9.21428571428572 7.28571428571429  C 9.21428571428572 6.51785714285714  9.48660714285714 5.86160714285714  10.03125 5.31696428571429  C 10.5758928571429 4.77232142857143  11.2321428571429 4.5  12 4.5  C 12.1785714285714 4.5  12.3303571428571 4.4375  12.4553571428571 4.3125  Z M 17.2901785714286 0.937500000000001  C 17.4330357142857 1.02678571428571  17.5044642857143 1.14732142857143  17.5044642857143 1.29910714285714  C 17.5044642857143 1.36160714285714  17.5 1.40178571428571  17.4910714285714 1.41964285714286  C 16.5446428571429 3.10714285714286  15.1339285714286 5.63839285714286  13.2589285714286 9.01339285714286  C 11.3839285714286 12.3883928571429  9.97767857142857 14.9151785714286  9.04017857142857 16.59375  L 8.38392857142857 17.7857142857143  C 8.29464285714286 17.9285714285714  8.16964285714286 18  8.00892857142857 18  C 7.90178571428572 18  7.30357142857143 17.6875  6.21428571428572 17.0625  C 6.07142857142857 16.9732142857143  6 16.8482142857143  6 16.6875  C 6 16.5803571428571  6.19642857142857 16.1919642857143  6.58928571428572 15.5223214285714  C 5.3125 14.9419642857143  4.13616071428572 14.1696428571429  3.06026785714286 13.2053571428571  C 1.984375 12.2410714285714  1.05357142857143 11.1473214285714  0.267857142857143 9.92410714285714  C 0.0892857142857143 9.64732142857143  0 9.33928571428571  0 9  C 0 8.66071428571428  0.0892857142857143 8.35267857142857  0.267857142857143 8.07589285714286  C 1.63392857142857 5.97767857142857  3.33035714285714 4.32142857142857  5.35714285714286 3.10714285714286  C 7.38392857142857 1.89285714285714  9.59821428571429 1.28571428571429  12 1.28571428571429  C 12.7946428571429 1.28571428571429  13.5982142857143 1.36160714285714  14.4107142857143 1.51339285714286  L 15.1339285714286 0.214285714285714  C 15.2232142857143 0.0714285714285712  15.3482142857143 0  15.5089285714286 0  C 15.5535714285714 0  15.6339285714286 0.0267857142857142  15.75 0.0803571428571426  C 15.8660714285714 0.133928571428571  16.0044642857143 0.203124999999998  16.1651785714286 0.287946428571429  C 16.3258928571429 0.372767857142856  16.4732142857143 0.455357142857143  16.6071428571429 0.535714285714286  C 16.7410714285714 0.616071428571428  16.8816964285714 0.698660714285711  17.0290178571429 0.783482142857143  C 17.1763392857143 0.86830357142857  17.2633928571429 0.919642857142856  17.2901785714286 0.937500000000001  Z M 17.8928571428571 6.16071428571429  C 17.9642857142857 6.5625  18 6.9375  18 7.28571428571429  C 18 8.52678571428571  17.6473214285714 9.65848214285714  16.9419642857143 10.6808035714286  C 16.2366071428571 11.703125  15.3035714285714 12.4375  14.1428571428571 12.8839285714286  L 17.8928571428571 6.16071428571429  Z M 23.7321428571429 8.07589285714286  C 23.9107142857143 8.37946428571428  24 8.6875  24 9  C 24 9.3125  23.9107142857143 9.62053571428571  23.7321428571429 9.92410714285714  C 23.3839285714286 10.4955357142857  22.8973214285714 11.1428571428571  22.2723214285714 11.8660714285714  C 20.9330357142857 13.4017857142857  19.3816964285714 14.59375  17.6183035714286 15.4419642857143  C 15.8549107142857 16.2901785714286  13.9821428571429 16.7142857142857  12 16.7142857142857  L 12.9910714285714 14.9464285714286  C 14.8839285714286 14.7857142857143  16.6361607142857 14.1741071428571  18.2477678571429 13.1116071428571  C 19.859375 12.0491071428571  21.2053571428571 10.6785714285714  22.2857142857143 9  C 21.2589285714286 7.40178571428571  20 6.08928571428571  18.5089285714286 5.0625  L 19.3526785714286 3.5625  C 20.2008928571429 4.13392857142857  21.015625 4.81696428571428  21.796875 5.61160714285714  C 22.578125 6.40625  23.2232142857143 7.22767857142857  23.7321428571429 8.07589285714286  Z " fill-rule="nonzero" fill="#797979" stroke="none" fill-opacity="0.717647058823529" transform="matrix(1 0 0 1 597 180 )" />
  </g>
</svg>