<?xml version="1.0" encoding="utf-8"?>
<svg version="1.1" xmlns:xlink="http://www.w3.org/1999/xlink" width="50px" height="50px" xmlns="http://www.w3.org/2000/svg">
  <g transform="matrix(1 0 0 1 -369 -211 )">
    <path d="M 50 25  C 50 11.1928427419355  38.8071572580645 0  25 0  C 11.1928427419355 0  0 11.1928427419355  0 25  C 0 38.8071572580645  11.1928427419355 50  25 50  C 38.8071572580645 50  50 38.8071572580645  50 25  Z M 4.83870967741935 25  C 4.83870967741935 13.8576612903226  13.8559475806452 4.83870967741935  25 4.83870967741935  C 36.1423387096774 4.83870967741935  45.1612903225806 13.8559475806452  45.1612903225806 25  C 45.1612903225806 36.1423387096774  36.1440524193548 45.1612903225806  25 45.1612903225806  C 13.8576612903226 45.1612903225806  4.83870967741935 36.1440524193548  4.83870967741935 25  Z M 39.1267137096774 19.68125  C 39.6009072580645 19.210685483871  39.6039314516129 18.4447580645161  39.1334677419355 17.9704637096774  L 36.8616935483871 15.6803427419355  C 36.3912298387097 15.2060483870968  35.6253024193548 15.2029233870968  35.1510080645161 15.6734879032258  L 20.901814516129 29.8081653225806  L 14.8743951612903 23.7318548387097  C 14.4039314516129 23.257560483871  13.6380040322581 23.254435483871  13.1637096774194 23.7248991935484  L 10.8734879032258 25.9966733870968  C 10.3991935483871 26.4671370967742  10.3960685483871 27.233064516129  10.8666330645161 27.7074596774194  L 20.0179435483871 36.9328629032258  C 20.4884072580645 37.4071572580645  21.2543346774194 37.4102822580645  21.7286290322581 36.9397177419355  L 39.1267137096774 19.68125  Z " fill-rule="nonzero" fill="#000000" stroke="none" transform="matrix(1 0 0 1 369 211 )" />
  </g>
</svg>