<?xml version="1.0" encoding="utf-8"?>
<svg version="1.1" xmlns:xlink="http://www.w3.org/1999/xlink" width="130px" height="30px" xmlns="http://www.w3.org/2000/svg">
  <g transform="matrix(1 0 0 1 -454 -109 )">
    <path d="M 572.701626123751 110.5  C 572.701626123751 110.5  574.200439062116 110.672939954427  574.200439062116 110.672939954427  C 574.200439062116 110.672939954427  582.385562554673 124  582.385562554673 124  C 582.385562554673 124  574.200439062116 137.327060045573  574.200439062116 137.327060045573  C 574.200439062116 137.327060045573  572.701626123751 137.5  572.701626123751 137.5  C 572.701626123751 137.5  455.5 137.5  455.5 137.5  C 455.5 137.5  455.5 110.5  455.5 110.5  C 455.5 110.5  572.701626123751 110.5  572.701626123751 110.5  Z " fill-rule="nonzero" fill="#e4e4e4" stroke="none" />
    <path d="M 572.467750749167 110  C 572.467750749167 110  574.466959374744 110.230677918336  574.466959374744 110.230677918336  C 574.466959374744 110.230677918336  582.923708369782 124  582.923708369782 124  C 582.923708369782 124  574.466959374744 137.769322081664  574.466959374744 137.769322081664  C 574.466959374744 137.769322081664  572.467750749167 138  572.467750749167 138  C 572.467750749167 138  455 138  455 138  C 455 138  455 110  455 110  C 455 110  572.467750749167 110  572.467750749167 110  Z " stroke-width="2" stroke="#e4e4e4" fill="none" />
  </g>
</svg>