<?xml version="1.0" encoding="utf-8"?>
<svg version="1.1" xmlns:xlink="http://www.w3.org/1999/xlink" width="12px" height="12px" viewBox="252 35  12 12" xmlns="http://www.w3.org/2000/svg">
  <path d="M 258 35  C 261.36 35  264 37.64  264 41  C 264 44.36  261.36 47  258 47  C 254.64 47  252 44.36  252 41  C 252 37.64  254.64 35  258 35  Z " fill-rule="nonzero" fill="#ffffff" stroke="none" />
  <path d="M 258 35.5  C 261.08 35.5  263.5 37.92  263.5 41  C 263.5 44.08  261.08 46.5  258 46.5  C 254.92 46.5  252.5 44.08  252.5 41  C 252.5 37.92  254.92 35.5  258 35.5  Z " stroke-width="1" stroke="#0099ff" fill="none" />
  <path d="M 258 44  C 256.32 44  255 42.68  255 41  C 255 39.32  256.32 38  258 38  C 259.68 38  261 39.32  261 41  C 261 42.68  259.68 44  258 44  " fill-rule="nonzero" fill="#0099ff" stroke="none" />
</svg>