<?xml version="1.0" encoding="utf-8"?>
<svg version="1.1" xmlns:xlink="http://www.w3.org/1999/xlink" width="18px" height="18px" viewBox="193 61  18 18" xmlns="http://www.w3.org/2000/svg">
  <path d="M 193.5 64  A 2.5 2.5 0 0 1 196 61.5 L 208 61.5  A 2.5 2.5 0 0 1 210.5 64 L 210.5 76  A 2.5 2.5 0 0 1 208 78.5 L 196 78.5  A 2.5 2.5 0 0 1 193.5 76 L 193.5 64  Z " fill-rule="nonzero" fill="#409eff" stroke="none" />
  <path d="M 193.5 64  A 2.5 2.5 0 0 1 196 61.5 L 208 61.5  A 2.5 2.5 0 0 1 210.5 64 L 210.5 76  A 2.5 2.5 0 0 1 208 78.5 L 196 78.5  A 2.5 2.5 0 0 1 193.5 76 L 193.5 64  Z " stroke-width="1" stroke="#ffffff" fill="none" />
  <path d="M 196.857142857143 70  L 200.714285714286 73.8571428571428  L 207.142857142857 64.8571428571429  " stroke-width="3.85714285714286" stroke="#ffffff" fill="none" />
</svg>