<?xml version="1.0" encoding="utf-8"?>
<svg version="1.1" xmlns:xlink="http://www.w3.org/1999/xlink" width="18px" height="18px" viewBox="193 61  18 18" xmlns="http://www.w3.org/2000/svg">
  <path d="M 193.5 64  A 2.5 2.5 0 0 1 196 61.5 L 208 61.5  A 2.5 2.5 0 0 1 210.5 64 L 210.5 76  A 2.5 2.5 0 0 1 208 78.5 L 196 78.5  A 2.5 2.5 0 0 1 193.5 76 L 193.5 64  Z " fill-rule="nonzero" fill="#f0f0f0" stroke="none" />
  <path d="M 193.5 64  A 2.5 2.5 0 0 1 196 61.5 L 208 61.5  A 2.5 2.5 0 0 1 210.5 64 L 210.5 76  A 2.5 2.5 0 0 1 208 78.5 L 196 78.5  A 2.5 2.5 0 0 1 193.5 76 L 193.5 64  Z " stroke-width="1" stroke="#797979" fill="none" />
</svg>