<?xml version="1.0" encoding="utf-8"?>
<svg version="1.1" xmlns:xlink="http://www.w3.org/1999/xlink" width="18px" height="18px" viewBox="193 11  18 18" xmlns="http://www.w3.org/2000/svg">
  <path d="M 193.5 14  A 2.5 2.5 0 0 1 196 11.5 L 208 11.5  A 2.5 2.5 0 0 1 210.5 14 L 210.5 26  A 2.5 2.5 0 0 1 208 28.5 L 196 28.5  A 2.5 2.5 0 0 1 193.5 26 L 193.5 14  Z " fill-rule="nonzero" fill="#ffffff" stroke="none" />
  <path d="M 193.5 14  A 2.5 2.5 0 0 1 196 11.5 L 208 11.5  A 2.5 2.5 0 0 1 210.5 14 L 210.5 26  A 2.5 2.5 0 0 1 208 28.5 L 196 28.5  A 2.5 2.5 0 0 1 193.5 26 L 193.5 14  Z " stroke-width="1" stroke="#797979" fill="none" />
</svg>