<?xml version="1.0" encoding="utf-8"?>
<svg version="1.1" xmlns:xlink="http://www.w3.org/1999/xlink" width="18px" height="18px" viewBox="173 11  18 18" xmlns="http://www.w3.org/2000/svg">
  <path d="M 173.5 14  A 2.5 2.5 0 0 1 176 11.5 L 188 11.5  A 2.5 2.5 0 0 1 190.5 14 L 190.5 26  A 2.5 2.5 0 0 1 188 28.5 L 176 28.5  A 2.5 2.5 0 0 1 173.5 26 L 173.5 14  Z " fill-rule="nonzero" fill="#ffffff" stroke="none" />
  <path d="M 173.5 14  A 2.5 2.5 0 0 1 176 11.5 L 188 11.5  A 2.5 2.5 0 0 1 190.5 14 L 190.5 26  A 2.5 2.5 0 0 1 188 28.5 L 176 28.5  A 2.5 2.5 0 0 1 173.5 26 L 173.5 14  Z " stroke-width="1" stroke="#797979" fill="none" />
</svg>