<?xml version="1.0" encoding="utf-8"?>
<svg version="1.1" xmlns:xlink="http://www.w3.org/1999/xlink" width="18px" height="18px" viewBox="267 176  18 18" xmlns="http://www.w3.org/2000/svg">
  <path d="M 267.5 179  A 2.5 2.5 0 0 1 270 176.5 L 282 176.5  A 2.5 2.5 0 0 1 284.5 179 L 284.5 191  A 2.5 2.5 0 0 1 282 193.5 L 270 193.5  A 2.5 2.5 0 0 1 267.5 191 L 267.5 179  Z " fill-rule="nonzero" fill="#ffffff" stroke="none" />
  <path d="M 267.5 179  A 2.5 2.5 0 0 1 270 176.5 L 282 176.5  A 2.5 2.5 0 0 1 284.5 179 L 284.5 191  A 2.5 2.5 0 0 1 282 193.5 L 270 193.5  A 2.5 2.5 0 0 1 267.5 191 L 267.5 179  Z " stroke-width="1" stroke="#797979" fill="none" />
</svg>