<?xml version="1.0" encoding="utf-8"?>
<svg version="1.1" xmlns:xlink="http://www.w3.org/1999/xlink" width="18px" height="18px" viewBox="338 440  18 18" xmlns="http://www.w3.org/2000/svg">
  <path d="M 338.5 443  A 2.5 2.5 0 0 1 341 440.5 L 353 440.5  A 2.5 2.5 0 0 1 355.5 443 L 355.5 455  A 2.5 2.5 0 0 1 353 457.5 L 341 457.5  A 2.5 2.5 0 0 1 338.5 455 L 338.5 443  Z " fill-rule="nonzero" fill="#409eff" stroke="none" />
  <path d="M 338.5 443  A 2.5 2.5 0 0 1 341 440.5 L 353 440.5  A 2.5 2.5 0 0 1 355.5 443 L 355.5 455  A 2.5 2.5 0 0 1 353 457.5 L 341 457.5  A 2.5 2.5 0 0 1 338.5 455 L 338.5 443  Z " stroke-width="1" stroke="#ffffff" fill="none" />
  <path d="M 341.857142857143 449  L 345.714285714286 452.857142857143  L 352.142857142857 443.857142857143  " stroke-width="3.85714285714286" stroke="#ffffff" fill="none" />
</svg>