<?xml version="1.0" encoding="utf-8"?>
<svg version="1.1" xmlns:xlink="http://www.w3.org/1999/xlink" width="32px" height="18px" xmlns="http://www.w3.org/2000/svg">
  <g transform="matrix(1 0 0 1 -235 -137 )">
    <path d="M 236 146  A 8 8 0 0 1 244 138 L 258 138  A 8 8 0 0 1 266 146 A 8 8 0 0 1 258 154 L 244 154  A 8 8 0 0 1 236 146 Z " fill-rule="nonzero" fill="#2b85e4" stroke="none" fill-opacity="0.149019607843137" />
    <path d="M 235.5 146  A 8.5 8.5 0 0 1 244 137.5 L 258 137.5  A 8.5 8.5 0 0 1 266.5 146 A 8.5 8.5 0 0 1 258 154.5 L 244 154.5  A 8.5 8.5 0 0 1 235.5 146 Z " stroke-width="1" stroke="#2b85e4" fill="none" stroke-opacity="0.988235294117647" />
  </g>
</svg>