<?xml version="1.0" encoding="utf-8"?>
<svg version="1.1" xmlns:xlink="http://www.w3.org/1999/xlink" width="16px" height="16px" xmlns="http://www.w3.org/2000/svg">
  <g transform="matrix(1 0 0 1 -16 -11 )">
    <path d="M 8 5.75  C 8.41421356560914 5.75  8.75000000585937 6.08578644025024  8.75000000585937 6.50000000585938  L 8.75000000585937 12.5  L 11.0524999941406 12.5  C 11.145080108948 12.5002224757287  11.2343056241524 12.5346838266033  11.303 12.59675  L 11.35025 12.6477499941406  C 11.4755048630512 12.8122594872906  11.4439674552167 13.0471125074583  11.2797499941406 13.17275  L 8.36675 15.39575  C 8.16477010334778 15.5500760630117  7.88439097438136 15.5497686273544  7.68275 15.3949999941406  L 4.7915 13.1719999941406  C 4.69939652632071 13.1010018788118  4.64544386370345 12.9912906041664  4.64544386370345 12.87499880633  C 4.64544386370345 12.6682605298997  4.81276238427158 12.5005203475615  5.01950000585937 12.5  L 7.24999999414062 12.5  L 7.24999999414063 6.50000000585938  C 7.24999999414063 6.08578644025024  7.58578643439086 5.75  8 5.75  Z M 12.1250000058594 11.0000000058594  L 12.0372500058594 10.99475  C 11.6599601404251 10.9498744777071  11.3758319339334 10.6299488181798  11.3758319339334 10.2499995385905  C 11.3758319339334 9.83611082615178  11.7111115480503 9.50045909822305  12.1250000058594 9.49999999414063  L 13.9999999941406 9.49999999414063  L 13.9999999941406 2  L 2.00000000585937 2  L 2.00000000585937 9.49999999414063  L 3.87499999414062 9.49999999414063  C 4.28921355974976 9.49999999414063  4.625 9.83578643439086  4.625 10.25  C 4.625 10.6642135656091  4.28921355974976 11.0000000058594  3.87499999414062 11.0000000058594  L 2.00000000585937 11.0000000058594  C 1.1715728667711 11.0000000058594  0.499999994140625 10.3284271332289  0.499999994140625 9.50000001171875  L 0.499999994140625 2.00000000585937  C 0.499999994140625 1.1715728667711  1.1715728667711 0.499999994140625  1.99999998828125 0.499999994140625  L 13.9999999941406 0.499999994140625  C 14.8284271332289 0.499999994140625  15.5000000058594 1.1715728667711  15.5000000058594 1.99999998828125  L 15.5000000058594 9.49999999414062  C 15.5000000058594 10.3284271332289  14.8284271332289 11.0000000058594  14.0000000117187 11.0000000058594  L 12.1250000058594 11.0000000058594  Z " fill-rule="nonzero" fill="#409eff" stroke="none" transform="matrix(1 0 0 1 16 11 )" />
  </g>
</svg>