<?xml version="1.0" encoding="utf-8"?>
<svg version="1.1" xmlns:xlink="http://www.w3.org/1999/xlink" width="16px" height="16px" viewBox="371 813  16 16" xmlns="http://www.w3.org/2000/svg">
  <path d="M 371.5 816  A 2.5 2.5 0 0 1 374 813.5 L 384 813.5  A 2.5 2.5 0 0 1 386.5 816 L 386.5 826  A 2.5 2.5 0 0 1 384 828.5 L 374 828.5  A 2.5 2.5 0 0 1 371.5 826 L 371.5 816  Z " fill-rule="nonzero" fill="#ffffff" stroke="none" />
  <path d="M 371.5 816  A 2.5 2.5 0 0 1 374 813.5 L 384 813.5  A 2.5 2.5 0 0 1 386.5 816 L 386.5 826  A 2.5 2.5 0 0 1 384 828.5 L 374 828.5  A 2.5 2.5 0 0 1 371.5 826 L 371.5 816  Z " stroke-width="1" stroke="#999999" fill="none" />
</svg>