<?xml version="1.0" encoding="utf-8"?>
<svg version="1.1" xmlns:xlink="http://www.w3.org/1999/xlink" width="16px" height="16px" viewBox="371 538  16 16" xmlns="http://www.w3.org/2000/svg">
  <path d="M 371.5 541  A 2.5 2.5 0 0 1 374 538.5 L 384 538.5  A 2.5 2.5 0 0 1 386.5 541 L 386.5 551  A 2.5 2.5 0 0 1 384 553.5 L 374 553.5  A 2.5 2.5 0 0 1 371.5 551 L 371.5 541  Z " fill-rule="nonzero" fill="#ffffff" stroke="none" />
  <path d="M 371.5 541  A 2.5 2.5 0 0 1 374 538.5 L 384 538.5  A 2.5 2.5 0 0 1 386.5 541 L 386.5 551  A 2.5 2.5 0 0 1 384 553.5 L 374 553.5  A 2.5 2.5 0 0 1 371.5 551 L 371.5 541  Z " stroke-width="1" stroke="#999999" fill="none" />
  <path d="M 374.428571428571 546  L 377.857142857143 549.428571428571  L 383.571428571429 541.428571428571  " stroke-width="3.42857142857143" stroke="#999999" fill="none" />
</svg>