<?xml version="1.0" encoding="utf-8"?>
<svg version="1.1" xmlns:xlink="http://www.w3.org/1999/xlink" width="16px" height="16px" viewBox="371 648  16 16" xmlns="http://www.w3.org/2000/svg">
  <path d="M 371.5 651  A 2.5 2.5 0 0 1 374 648.5 L 384 648.5  A 2.5 2.5 0 0 1 386.5 651 L 386.5 661  A 2.5 2.5 0 0 1 384 663.5 L 374 663.5  A 2.5 2.5 0 0 1 371.5 661 L 371.5 651  Z " fill-rule="nonzero" fill="#f0f0f0" stroke="none" />
  <path d="M 371.5 651  A 2.5 2.5 0 0 1 374 648.5 L 384 648.5  A 2.5 2.5 0 0 1 386.5 651 L 386.5 661  A 2.5 2.5 0 0 1 384 663.5 L 374 663.5  A 2.5 2.5 0 0 1 371.5 661 L 371.5 651  Z " stroke-width="1" stroke="#999999" fill="none" />
</svg>