<?xml version="1.0" encoding="utf-8"?>
<svg version="1.1" xmlns:xlink="http://www.w3.org/1999/xlink" width="18px" height="18px" viewBox="245 223  18 18" xmlns="http://www.w3.org/2000/svg">
  <path d="M 254 223  C 259.04 223  263 226.96  263 232  C 263 237.04  259.04 241  254 241  C 248.96 241  245 237.04  245 232  C 245 226.96  248.96 223  254 223  Z " fill-rule="nonzero" fill="#f0f0f0" stroke="none" />
  <path d="M 254 223.5  C 258.76 223.5  262.5 227.24  262.5 232  C 262.5 236.76  258.76 240.5  254 240.5  C 249.24 240.5  245.5 236.76  245.5 232  C 245.5 227.24  249.24 223.5  254 223.5  Z " stroke-width="1" stroke="#797979" fill="none" />
  <path d="M 254 236.5  C 251.48 236.5  249.5 234.52  249.5 232  C 249.5 229.48  251.48 227.5  254 227.5  C 256.52 227.5  258.5 229.48  258.5 232  C 258.5 234.52  256.52 236.5  254 236.5  " fill-rule="nonzero" fill="#797979" stroke="none" />
</svg>