<?xml version="1.0" encoding="utf-8"?>
<svg version="1.1" xmlns:xlink="http://www.w3.org/1999/xlink" width="16px" height="16px" viewBox="371 263  16 16" xmlns="http://www.w3.org/2000/svg">
  <path d="M 371.5 266  A 2.5 2.5 0 0 1 374 263.5 L 384 263.5  A 2.5 2.5 0 0 1 386.5 266 L 386.5 276  A 2.5 2.5 0 0 1 384 278.5 L 374 278.5  A 2.5 2.5 0 0 1 371.5 276 L 371.5 266  Z " fill-rule="nonzero" fill="#ffffff" stroke="none" />
  <path d="M 371.5 266  A 2.5 2.5 0 0 1 374 263.5 L 384 263.5  A 2.5 2.5 0 0 1 386.5 266 L 386.5 276  A 2.5 2.5 0 0 1 384 278.5 L 374 278.5  A 2.5 2.5 0 0 1 371.5 276 L 371.5 266  Z " stroke-width="1" stroke="#999999" fill="none" />
</svg>