<?xml version="1.0" encoding="utf-8"?>
<svg version="1.1" xmlns:xlink="http://www.w3.org/1999/xlink" width="19px" height="14px" xmlns="http://www.w3.org/2000/svg">
  <g transform="matrix(1 0 0 1 -6 -11 )">
    <path d="M 12.5677083333333 8.19318181818182  C 12.6336805555556 8.11363636363636  12.6666666666667 8.03409090909091  12.6666666666667 7.95454545454545  C 12.6666666666667 7.86174242424242  12.6369791666667 7.78551136363636  12.5776041666667 7.72585227272727  C 12.5182291666667 7.66619318181818  12.4423611111111 7.63636363636364  12.35 7.63636363636364  L 10.1333333333333 7.63636363636364  L 10.1333333333333 4.13636363636364  C 10.1333333333333 4.05018939393939  10.1019965277778 3.97561553030303  10.0393229166667 3.91264204545454  C 9.97664930555556 3.84966856060606  9.90243055555556 3.81818181818182  9.81666666666667 3.81818181818182  L 7.91666666666667 3.81818181818182  C 7.83090277777778 3.81818181818182  7.75668402777778 3.84966856060606  7.69401041666667 3.91264204545454  C 7.63133680555556 3.97561553030303  7.6 4.05018939393939  7.6 4.13636363636364  L 7.6 7.63636363636364  L 5.38333333333333 7.63636363636364  C 5.29756944444444 7.63636363636364  5.22335069444444 7.66785037878788  5.16067708333333 7.73082386363636  C 5.09800347222222 7.79379734848485  5.06666666666667 7.86837121212121  5.06666666666667 7.95454545454545  C 5.06666666666667 8.04734848484848  5.09635416666667 8.12357954545455  5.15572916666667 8.18323863636364  L 8.6390625 11.6832386363636  C 8.6984375 11.7428977272727  8.77430555555556 11.7727272727273  8.86666666666667 11.7727272727273  C 8.95902777777778 11.7727272727273  9.03489583333333 11.7428977272727  9.09427083333333 11.6832386363636  L 12.5677083333333 8.19318181818182  Z M 18.1736979166667 7.81036931818182  C 18.7245659722222 8.50307765151515  19 9.2935606060606  19 10.1818181818182  C 19 11.2357954545455  18.62890625 12.1356534090909  17.88671875 12.8813920454545  C 17.14453125 13.6271306818182  16.2489583333333 14  15.2 14  L 4.43333333333333 14  C 3.21284722222222 14  2.16883680555556 13.5641571969697  1.30130208333333 12.6924715909091  C 0.433767361111111 11.8207859848485  0 10.7717803030303  0 9.54545454545455  C 0 8.68371212121212  0.230902777777778 7.88825757575758  0.692708333333333 7.15909090909091  C 1.15451388888889 6.42992424242424  1.77465277777778 5.88304924242424  2.553125 5.51846590909091  C 2.53993055555556 5.31960227272727  2.53333333333333 5.17708333333333  2.53333333333333 5.09090909090909  C 2.53333333333333 3.68560606060606  3.028125 2.48579545454546  4.01770833333333 1.49147727272727  C 5.00729166666667 0.497159090909091  6.20138888888889 0  7.6 0  C 8.62916666666667 0  9.57092013888889 0.288352272727273  10.4252604166667 0.865056818181818  C 11.2796006944444 1.44176136363636  11.9013888888889 2.20738636363636  12.290625 3.16193181818182  C 12.7590277777778 2.75094696969697  13.3065972222222 2.54545454545454  13.9333333333333 2.54545454545454  C 14.6326388888889 2.54545454545454  15.2296875 2.79403409090909  15.7244791666667 3.29119318181818  C 16.2192708333333 3.78835227272727  16.4666666666667 4.38825757575757  16.4666666666667 5.09090909090909  C 16.4666666666667 5.59469696969697  16.3314236111111 6.05208333333333  16.0609375 6.46306818181818  C 16.9185763888889 6.66856060606061  17.6228298611111 7.11766098484848  18.1736979166667 7.81036931818182  Z " fill-rule="nonzero" fill="#2b85e4" stroke="none" transform="matrix(1 0 0 1 6 11 )" />
  </g>
</svg>