<?xml version="1.0" encoding="utf-8"?>
<svg version="1.1" xmlns:xlink="http://www.w3.org/1999/xlink" width="80px" height="35px" xmlns="http://www.w3.org/2000/svg">
  <g transform="matrix(1 0 0 1 -825 -118 )">
    <path d="M 826 123  A 4 4 0 0 1 830 119 L 900 119  A 4 4 0 0 1 904 123 L 904 148  A 4 4 0 0 1 900 152 L 830 152  A 4 4 0 0 1 826 148 L 826 123  Z " fill-rule="nonzero" fill="#f0f7ff" stroke="none" />
    <path d="M 825.5 123  A 4.5 4.5 0 0 1 830 118.5 L 900 118.5  A 4.5 4.5 0 0 1 904.5 123 L 904.5 148  A 4.5 4.5 0 0 1 900 152.5 L 830 152.5  A 4.5 4.5 0 0 1 825.5 148 L 825.5 123  Z " stroke-width="1" stroke="#7abbff" fill="none" stroke-opacity="0.996078431372549" />
  </g>
</svg>