<?xml version="1.0" encoding="utf-8"?>
<svg version="1.1" xmlns:xlink="http://www.w3.org/1999/xlink" width="80px" height="35px" xmlns="http://www.w3.org/2000/svg">
  <g transform="matrix(1 0 0 1 -825 -118 )">
    <path d="M 825.5 123  A 4.5 4.5 0 0 1 830 118.5 L 900 118.5  A 4.5 4.5 0 0 1 904.5 123 L 904.5 148  A 4.5 4.5 0 0 1 900 152.5 L 830 152.5  A 4.5 4.5 0 0 1 825.5 148 L 825.5 123  Z " fill-rule="nonzero" fill="#f9f9f9" stroke="none" fill-opacity="0" />
    <path d="M 825.5 123  A 4.5 4.5 0 0 1 830 118.5 L 900 118.5  A 4.5 4.5 0 0 1 904.5 123 L 904.5 148  A 4.5 4.5 0 0 1 900 152.5 L 830 152.5  A 4.5 4.5 0 0 1 825.5 148 L 825.5 123  Z " stroke-width="1" stroke="#e4e4e4" fill="none" />
  </g>
</svg>