<?xml version="1.0" encoding="utf-8"?>
<svg version="1.1" xmlns:xlink="http://www.w3.org/1999/xlink" width="76px" height="35px" xmlns="http://www.w3.org/2000/svg">
  <g transform="matrix(1 0 0 1 -1767 -174 )">
    <path d="M 1767.5 179  A 4.5 4.5 0 0 1 1772 174.5 L 1838 174.5  A 4.5 4.5 0 0 1 1842.5 179 L 1842.5 204  A 4.5 4.5 0 0 1 1838 208.5 L 1772 208.5  A 4.5 4.5 0 0 1 1767.5 204 L 1767.5 179  Z " fill-rule="nonzero" fill="#f9f9f9" stroke="none" fill-opacity="0" />
    <path d="M 1767.5 179  A 4.5 4.5 0 0 1 1772 174.5 L 1838 174.5  A 4.5 4.5 0 0 1 1842.5 179 L 1842.5 204  A 4.5 4.5 0 0 1 1838 208.5 L 1772 208.5  A 4.5 4.5 0 0 1 1767.5 204 L 1767.5 179  Z " stroke-width="1" stroke="#e4e4e4" fill="none" />
  </g>
</svg>