<?xml version="1.0" encoding="utf-8"?>
<svg version="1.1" xmlns:xlink="http://www.w3.org/1999/xlink" width="130px" height="74px" xmlns="http://www.w3.org/2000/svg">
  <g transform="matrix(1 0 0 1 -195 -379 )">
    <path d="M 195 379  L 325 379  L 325 453  L 195 453  L 195 379  " fill-rule="nonzero" fill="#cccccc" stroke="none" />
    <path d="M 200 384  L 320 384  L 320 448  L 200 448  L 200 384  " fill-rule="nonzero" fill="#ffffff" stroke="none" />
    <path d="M 268.15 401.2  C 265.042 401.2  262.6 398.758  262.6 395.65  C 262.6 392.542  265.042 390.1  268.15 390.1  C 271.258 390.1  273.7 392.542  273.7 395.65  C 273.7 398.758  271.258 401.2  268.15 401.2  " fill-rule="nonzero" fill="#cccccc" stroke="none" />
    <path d="M 202 446  L 202 413  L 231 398  L 271.6 425.507692307692  L 294.8 407  L 318 425.507692307692  L 318 446  L 202 446  " fill-rule="nonzero" fill="#169bd5" stroke="none" />
  </g>
</svg>