<?xml version="1.0" encoding="utf-8"?>
<svg version="1.1" xmlns:xlink="http://www.w3.org/1999/xlink" width="691px" height="241px" xmlns="http://www.w3.org/2000/svg">
  <g transform="matrix(1 0 0 1 -170 -200 )">
    <path d="M 171 204  A 3 3 0 0 1 174 201 L 857 201  A 3 3 0 0 1 860 204 L 860 437  A 3 3 0 0 1 857 440 L 174 440  A 3 3 0 0 1 171 437 L 171 204  Z " fill-rule="nonzero" fill="#ffffff" stroke="none" />
    <path d="M 170.5 204  A 3.5 3.5 0 0 1 174 200.5 L 857 200.5  A 3.5 3.5 0 0 1 860.5 204 L 860.5 437  A 3.5 3.5 0 0 1 857 440.5 L 174 440.5  A 3.5 3.5 0 0 1 170.5 437 L 170.5 204  Z " stroke-width="1" stroke-dasharray="9,4" stroke="#797979" fill="none" stroke-dashoffset="0.5" />
  </g>
</svg>