<?xml version="1.0" encoding="utf-8"?>
<svg version="1.1" xmlns:xlink="http://www.w3.org/1999/xlink" width="27px" height="33px" xmlns="http://www.w3.org/2000/svg">
  <defs>
    <filter x="61px" y="1px" width="27px" height="33px" filterUnits="userSpaceOnUse" id="filter64">
      <feOffset dx="1" dy="1" in="SourceAlpha" result="shadowOffsetInner" />
      <feGaussianBlur stdDeviation="2.5" in="shadowOffsetInner" result="shadowGaussian" />
      <feComposite in2="shadowGaussian" operator="atop" in="SourceAlpha" result="shadowComposite" />
      <feColorMatrix type="matrix" values="0 0 0 0 0  0 0 0 0 0  0 0 0 0 0  0 0 0 0.698039215686274 0  " in="shadowComposite" />
    </filter>
    <g id="widget65">
      <path d="M 73.5 27.0273589976496  C 70.3 21.6514516908613  65.5 18.4259073067883  65.5 13.05  C 65.5 10.2457142857143  67.1 5.5  73.5 5.5  C 79.9 5.5  81.5 10.2457142857143  81.5 13.05  C 81.5 18.4259073067883  76.7 21.6514516908613  73.5 27.0273589976496  Z " fill-rule="nonzero" fill="#009dd9" stroke="none" />
      <path d="M 73.5 28  C 70.1 22.25  65 18.8  65 13.05  C 65 10.06  66.7 5  73.5 5  C 80.3 5  82 10.06  82 13.05  C 82 18.8  76.9 22.25  73.5 28  Z M 73.5 26.0547179952993  C 76.5 21.0529033817226  81 18.0518146135766  81 13.05  C 81 10.4314285714286  79.5 6  73.5 6  C 67.5 6  66 10.4314285714286  66 13.05  C 66 18.0518146135766  70.5 21.0529033817226  73.5 26.0547179952993  Z " fill-rule="nonzero" fill="#ffffff" stroke="none" />
    </g>
  </defs>
  <g transform="matrix(1 0 0 1 -61 -1 )">
    <use xlink:href="#widget65" filter="url(#filter64)" />
    <use xlink:href="#widget65" />
  </g>
</svg>