<?xml version="1.0" encoding="utf-8"?>
<svg version="1.1" xmlns:xlink="http://www.w3.org/1999/xlink" width="40px" height="39px" xmlns="http://www.w3.org/2000/svg">
  <g transform="matrix(1 0 0 1 -496 -226 )">
    <path d="M 30.3125 35.416875  C 30.6169871794872 35.108125  30.7692307692308 34.7425  30.7692307692308 34.32  C 30.7692307692308 33.8975  30.6169871794872 33.531875  30.3125 33.223125  C 30.0080128205128 32.914375  29.6474358974359 32.76  29.2307692307692 32.76  C 28.8141025641026 32.76  28.4535256410256 32.914375  28.1490384615385 33.223125  C 27.8445512820513 33.531875  27.6923076923077 33.8975  27.6923076923077 34.32  C 27.6923076923077 34.7425  27.8445512820513 35.108125  28.1490384615385 35.416875  C 28.4535256410256 35.725625  28.8141025641026 35.88  29.2307692307692 35.88  C 29.6474358974359 35.88  30.0080128205128 35.725625  30.3125 35.416875  Z M 36.4663461538462 35.416875  C 36.7708333333333 35.108125  36.9230769230769 34.7425  36.9230769230769 34.32  C 36.9230769230769 33.8975  36.7708333333333 33.531875  36.4663461538462 33.223125  C 36.161858974359 32.914375  35.8012820512821 32.76  35.3846153846154 32.76  C 34.9679487179487 32.76  34.6073717948718 32.914375  34.3028846153846 33.223125  C 33.9983974358974 33.531875  33.8461538461538 33.8975  33.8461538461538 34.32  C 33.8461538461538 34.7425  33.9983974358974 35.108125  34.3028846153846 35.416875  C 34.6073717948718 35.725625  34.9679487179487 35.88  35.3846153846154 35.88  C 35.8012820512821 35.88  36.161858974359 35.725625  36.4663461538462 35.416875  Z M 39.3269230769231 27.2025  C 39.775641025641 27.6575  40 28.21  40 28.86  L 40 36.66  C 40 37.31  39.775641025641 37.8625  39.3269230769231 38.3175  C 38.8782051282051 38.7725  38.3333333333333 39  37.6923076923077 39  L 2.30769230769231 39  C 1.66666666666667 39  1.12179487179487 38.7725  0.673076923076923 38.3175  C 0.224358974358974 37.8625  0 37.31  0 36.66  L 0 28.86  C 0 28.21  0.224358974358974 27.6575  0.673076923076923 27.2025  C 1.12179487179487 26.7475  1.66666666666667 26.52  2.30769230769231 26  L 12.5721153846154 26  C 12.9086538461538 27.43  13.4735576923077 28.1775  14.2668269230769 28.7625  C 15.0600961538462 29.3475  15.9455128205128 29.64  16.9230769230769 29.64  L 23.0769230769231 29.64  C 24.0544871794872 29.64  24.9399038461538 29.3475  25.7331730769231 28.7625  C 26.5264423076923 28.1775  27.0913461538462 27.43  27.4278846153846 26  L 37.6923076923077 26  C 38.3333333333333 26.52  38.8782051282051 26.7475  39.3269230769231 27.2025  Z M 31.8509615384615 11.383125  C 32.3477564102564 11.870625  32.4599358974359 12.43125  32.1875 13.065  C 31.9150641025641 13.715  31.4423076923077 14.04  30.7692307692308 14.04  L 24 14.04  L 24 24.96  C 24.6153846153846 25.3825  24.463141025641 25.748125  24.1586538461538 26.056875  C 23.8541666666667 26.365625  23.4935897435897 26.52  23.0769230769231 26.52  L 16.9230769230769 26.52  C 16.5064102564103 26.52  16.1458333333333 26.365625  15.8413461538462 26.056875  C 15.536858974359 25.748125  15.3846153846154 25.3825  16 24.96  L 16 14.04  L 9.23076923076923 14.04  C 8.55769230769231 14.04  8.0849358974359 13.715  7.8125 13.065  C 7.5400641025641 12.43125  7.65224358974359 11.870625  8.14903846153846 11.383125  L 18.9182692307692 0.463124999999999  C 19.2067307692308 0.154374999999998  19.5673076923077 0  20 0  C 20.4326923076923 0  20.7932692307692 0.154374999999998  21.0817307692308 0.463124999999999  L 31.8509615384615 11.383125  Z " fill-rule="nonzero" fill="#c4c4c4" stroke="none" transform="matrix(1 0 0 1 496 226 )" />
  </g>
</svg>