<?xml version="1.0" encoding="utf-8"?>
<svg version="1.1" xmlns:xlink="http://www.w3.org/1999/xlink" width="825px" height="571px" xmlns="http://www.w3.org/2000/svg">
  <g transform="matrix(1 0 0 1 -26 -71 )">
    <path d="M 26 71  L 851 71  L 851 642  L 26 642  L 26 71  " fill-rule="nonzero" fill="#cccccc" stroke="none" />
    <path d="M 66 111  L 811 111  L 811 602  L 66 602  L 66 111  " fill-rule="nonzero" fill="#ffffff" stroke="none" />
    <path d="M 497.825 242.3  C 473.843 242.3  455 223.457  455 199.475  C 455 175.493  473.843 156.65  497.825 156.65  C 521.807 156.65  540.65 175.493  540.65 199.475  C 540.65 223.457  521.807 242.3  497.825 242.3  " fill-rule="nonzero" fill="#cccccc" stroke="none" />
    <path d="M 81 588  L 81 333.9  L 260 218.4  L 510.6 396.144  L 653.8 287.7  L 797 396.144  L 797 588  L 81 588  " fill-rule="nonzero" fill="#169bd5" stroke="none" />
  </g>
</svg>