<?xml version="1.0" encoding="utf-8"?>
<svg version="1.1" xmlns:xlink="http://www.w3.org/1999/xlink" width="18px" height="18px" viewBox="172 471  18 18" xmlns="http://www.w3.org/2000/svg">
  <path d="M 181 471  C 186.04 471  190 474.96  190 480  C 190 485.04  186.04 489  181 489  C 175.96 489  172 485.04  172 480  C 172 474.96  175.96 471  181 471  Z " fill-rule="nonzero" fill="#f0f0f0" stroke="none" />
  <path d="M 181 471.5  C 185.76 471.5  189.5 475.24  189.5 480  C 189.5 484.76  185.76 488.5  181 488.5  C 176.24 488.5  172.5 484.76  172.5 480  C 172.5 475.24  176.24 471.5  181 471.5  Z " stroke-width="1" stroke="#797979" fill="none" />
  <path d="M 181 484.5  C 178.48 484.5  176.5 482.52  176.5 480  C 176.5 477.48  178.48 475.5  181 475.5  C 183.52 475.5  185.5 477.48  185.5 480  C 185.5 482.52  183.52 484.5  181 484.5  " fill-rule="nonzero" fill="#797979" stroke="none" />
</svg>