<?xml version="1.0" encoding="utf-8"?>
<svg version="1.1" xmlns:xlink="http://www.w3.org/1999/xlink" width="18px" height="18px" viewBox="238 471  18 18" xmlns="http://www.w3.org/2000/svg">
  <path d="M 247 471  C 252.04 471  256 474.96  256 480  C 256 485.04  252.04 489  247 489  C 241.96 489  238 485.04  238 480  C 238 474.96  241.96 471  247 471  Z " fill-rule="nonzero" fill="#f0f0f0" stroke="none" />
  <path d="M 247 471.5  C 251.76 471.5  255.5 475.24  255.5 480  C 255.5 484.76  251.76 488.5  247 488.5  C 242.24 488.5  238.5 484.76  238.5 480  C 238.5 475.24  242.24 471.5  247 471.5  Z " stroke-width="1" stroke="#409eff" fill="none" />
  <path d="M 247 484.5  C 244.48 484.5  242.5 482.52  242.5 480  C 242.5 477.48  244.48 475.5  247 475.5  C 249.52 475.5  251.5 477.48  251.5 480  C 251.5 482.52  249.52 484.5  247 484.5  " fill-rule="nonzero" fill="#409eff" stroke="none" />
</svg>