<?xml version="1.0" encoding="utf-8"?>
<svg version="1.1" xmlns:xlink="http://www.w3.org/1999/xlink" width="16px" height="16px" viewBox="16 460  16 16" xmlns="http://www.w3.org/2000/svg">
  <path d="M 16.5 463  A 2.5 2.5 0 0 1 19 460.5 L 29 460.5  A 2.5 2.5 0 0 1 31.5 463 L 31.5 473  A 2.5 2.5 0 0 1 29 475.5 L 19 475.5  A 2.5 2.5 0 0 1 16.5 473 L 16.5 463  Z " fill-rule="nonzero" fill="#ffffff" stroke="none" />
  <path d="M 16.5 463  A 2.5 2.5 0 0 1 19 460.5 L 29 460.5  A 2.5 2.5 0 0 1 31.5 463 L 31.5 473  A 2.5 2.5 0 0 1 29 475.5 L 19 475.5  A 2.5 2.5 0 0 1 16.5 473 L 16.5 463  Z " stroke-width="1" stroke="#999999" fill="none" />
  <path d="M 19.4285714285714 468  L 22.8571428571429 471.428571428571  L 28.5714285714286 463.428571428571  " stroke-width="3.42857142857143" stroke="#999999" fill="none" />
</svg>