<?xml version="1.0" encoding="utf-8"?>
<svg version="1.1" xmlns:xlink="http://www.w3.org/1999/xlink" width="16px" height="16px" viewBox="16 20  16 16" xmlns="http://www.w3.org/2000/svg">
  <path d="M 16.5 23  A 2.5 2.5 0 0 1 19 20.5 L 29 20.5  A 2.5 2.5 0 0 1 31.5 23 L 31.5 33  A 2.5 2.5 0 0 1 29 35.5 L 19 35.5  A 2.5 2.5 0 0 1 16.5 33 L 16.5 23  Z " fill-rule="nonzero" fill="#ffffff" stroke="none" />
  <path d="M 16.5 23  A 2.5 2.5 0 0 1 19 20.5 L 29 20.5  A 2.5 2.5 0 0 1 31.5 23 L 31.5 33  A 2.5 2.5 0 0 1 29 35.5 L 19 35.5  A 2.5 2.5 0 0 1 16.5 33 L 16.5 23  Z " stroke-width="1" stroke="#999999" fill="none" />
</svg>