<?xml version="1.0" encoding="utf-8"?>
<svg version="1.1" xmlns:xlink="http://www.w3.org/1999/xlink" width="16px" height="16px" xmlns="http://www.w3.org/2000/svg">
  <g transform="matrix(1 0 0 1 -12 -10 )">
    <path d="M 16 8  C 16 12.4194285714286  12.4194285714286 16  8 16  C 3.58171428571429 16  0 12.4194285714286  0 8  C 0 3.58057142857143  3.58171428571429 0  8 0  C 12.4194285714286 0  16 3.58057142857143  16 8  Z M 14.6628571428571 8  C 14.6628571428571 4.32571428571429  11.6742857142857 1.33714285714286  8 1.33714285714286  L 8 1.33257142857143  C 4.17714285714286 1.33371428571429  1.33714285714286 4.32685714285714  1.33714285714286 8  C 1.33714285714286 11.6731428571429  4.32685714285714 14.6628571428571  8 14.6628571428571  C 11.6731428571429 14.6628571428571  14.6628571428571 11.6742857142857  14.6628571428571 8  Z M 11.0868571428571 8.184  L 6.82057142857143 11.2445714285714  C 6.66033091750924 11.3607301384373  6.44522355686424 11.3666297074002  6.27885714285714 11.2594285714286  C 6.10279845895315 11.1389337641706  5.99926164509547 10.9378747231524  6.00342857142857 10.7245714285714  L 6.00342857142857 4.60685714285714  C 6.00342857142857 4.38514285714286  6.10857142857143 4.18057142857143  6.27885714285714 4.072  C 6.44572127291664 3.96461092270359  6.6614646222767 3.97096967405315  6.82171428571429 4.088  L 11.088 7.14742857142857  C 11.2422857142857 7.25942857142857  11.3371428571429 7.456  11.3371428571429 7.66628571428571  C 11.3371428571429 7.87657142857143  11.2422857142857 8.07314285714286  11.0868571428571 8.184  Z " fill-rule="nonzero" fill="#19be6b" stroke="none" transform="matrix(1 0 0 1 12 10 )" />
  </g>
</svg>