<?xml version="1.0" encoding="utf-8"?>
<svg version="1.1" xmlns:xlink="http://www.w3.org/1999/xlink" width="16px" height="15px" xmlns="http://www.w3.org/2000/svg">
  <g transform="matrix(1 0 0 1 -12 -11 )">
    <path d="M 15.1128211805556 7.52714269301471  C 15.1128211805556 11.5951085707721  11.7787065972222 14.9047076056985  7.68060763888889 14.9047076056985  C 3.58250868055556 14.9047076056985  0.248394097222223 11.5951085707721  0.248394097222223 7.52714269301471  C 0.248394097222223 3.45917681525735  3.58159722222222 0.149577780330882  7.68060763888889 0.149577780330882  C 11.7796180555556 0.149577780330882  15.1128211805556 3.45917681525735  15.1128211805556 7.52714269301471  Z M 7.68060763888889 1.26098058363971  C 4.19993055555556 1.26098058363971  1.36821180555556 4.07187787224265  1.36821180555556 7.52714269301471  C 1.36821180555556 10.9824075137868  4.19974826388889 13.7933048023897  7.68060763888889 13.7933048023897  C 11.1614670138889 13.7933048023897  13.9930034722222 10.9824075137868  13.9930034722222 7.52714269301471  C 13.9930034722222 4.07187787224265  11.1612847222222 1.26116153492647  7.68060763888889 1.26116153492647  Z M 5.37115451388889 9.81961454503677  L 5.37115451388889 5.23467084099265  L 9.99006076388889 5.23467084099265  L 9.99006076388889 9.81961454503677  L 5.37115451388889 9.81961454503677  Z " fill-rule="nonzero" fill="#999999" stroke="none" transform="matrix(1 0 0 1 12 11 )" />
  </g>
</svg>