<?xml version="1.0" encoding="utf-8"?>
<svg version="1.1" xmlns:xlink="http://www.w3.org/1999/xlink" width="18px" height="18px" viewBox="154 281  18 18" xmlns="http://www.w3.org/2000/svg">
  <path d="M 154.5 284  A 2.5 2.5 0 0 1 157 281.5 L 169 281.5  A 2.5 2.5 0 0 1 171.5 284 L 171.5 296  A 2.5 2.5 0 0 1 169 298.5 L 157 298.5  A 2.5 2.5 0 0 1 154.5 296 L 154.5 284  Z " fill-rule="nonzero" fill="#f0f0f0" stroke="none" />
  <path d="M 154.5 284  A 2.5 2.5 0 0 1 157 281.5 L 169 281.5  A 2.5 2.5 0 0 1 171.5 284 L 171.5 296  A 2.5 2.5 0 0 1 169 298.5 L 157 298.5  A 2.5 2.5 0 0 1 154.5 296 L 154.5 284  Z " stroke-width="1" stroke="#c6c6c6" fill="none" />
</svg>