<?xml version="1.0" encoding="utf-8"?>
<svg version="1.1" xmlns:xlink="http://www.w3.org/1999/xlink" width="33px" height="33px" xmlns="http://www.w3.org/2000/svg">
  <g transform="matrix(1 0 0 1 -1063 -93 )">
    <path d="M 16.5 32.51595703125  C 7.65463117769536 32.51595703125  0.484042968749999 25.3453688223046  0.484042968749999 16.5  C 0.484042968749999 7.65463117769536  7.65463117769536 0.484042968749999  16.5 0.484042968749999  C 25.3453688223046 0.484042968749999  32.51595703125 7.65463117769536  32.51595703125 16.5  C 32.51595703125 25.3453688223046  25.3453688223046 32.51595703125  16.5 32.51595703125  Z M 9.134361328125 21.691892578125  L 9.134361328125 21.69401953125  C 9.33825280250653 21.9563186423324  9.65185544647442 22.109751534307  9.9840791015625 22.109751534307  C 10.3163027566506 22.109751534307  10.6299054006185 21.9563186423324  10.833796875 21.69401953125  L 14.81970703125 16.663775390625  C 15.10897265625 16.30857421875  14.83672265625 15.736423828125  14.358158203125 15.736423828125  L 12.792720703125 15.736423828125  C 12.835259765625 12.805482421875  12.835259765625 9.083314453125  17.973978515625 6.103453125  C 18.101595703125 6.016248046875  18.037787109375 5.820568359375  17.8867734375 5.8397109375  C 8.049615234375 7.360482421875  7.258388671875 13.97743359375  7.237119140625 15.715154296875  L 5.61 15.715154296875  C 5.12080078125 15.715154296875  4.8357890625 16.29155859375  5.1420703125 16.66590234375  L 9.134361328125 21.691892578125  Z M 27.40276171875 17.280591796875  L 27.404888671875 17.280591796875  C 27.8919609375 17.259322265625  28.155703125 16.685044921875  27.851548828125 16.312828125  L 23.857130859375 11.2847109375  C 23.6531459135571 11.0240248071009  23.3405492786658 10.8717061289803  23.0095400390625 10.8717061289803  C 22.6785307994592 10.8717061289803  22.3659341645679 11.0240248071009  22.16194921875 11.2847109375  L 18.1930546875 16.312828125  C 17.888900390625 16.68291796875  18.173912109375 17.2571953125  18.654603515625 17.2571953125  L 20.220041015625 17.2571953125  C 20.168994140625 20.190263671875  20.168994140625 23.916685546875  15.03240234375 26.89229296875  C 14.90478515625 26.981625  14.97284765625 27.1773046875  15.12598828125 27.158162109375  C 24.956765625 25.635263671875  25.7479921875 19.0438359375  25.771388671875 17.280591796875  L 27.40276171875 17.280591796875  Z " fill-rule="nonzero" fill="#409eff" stroke="none" transform="matrix(1 0 0 1 1063 93 )" />
  </g>
</svg>