<?xml version="1.0" encoding="utf-8"?>
<svg version="1.1" xmlns:xlink="http://www.w3.org/1999/xlink" width="13px" height="8px" xmlns="http://www.w3.org/2000/svg">
  <g transform="matrix(1 0 0 1 -13 -183 )">
    <path d="M 12.9915803108808 4.0655737704918  C 12.9915803108808 4.0655737704918  10.5498704663212 0.0491803278688525  6.50841968911917 0.0491803278688525  C 2.4669689119171 0.0491803278688525  0.0252590673575134 4.0655737704918  0.0252590673575134 4.0655737704918  C 0.0252590673575134 4.0655737704918  2.84585492227979 7.95901639344262  6.50841968911917 7.95901639344262  C 10.1709844559585 7.95901639344262  12.9915803108808 4.0655737704918  12.9915803108808 4.0655737704918  Z M 11.9812176165803 4.27049180327869  C 11.6023316062176 4.68032786885246  11.1813471502591 5.13114754098361  10.6761658031088 5.54098360655738  C 9.32901554404145 6.64754098360656  7.89766839378238 7.34426229508197  6.46632124352332 7.34426229508197  C 5.03497409326425 7.34426229508197  3.60362694300518 6.68852459016393  2.25647668393782 5.54098360655738  C 1.79339378238342 5.13114754098361  1.33031088082902 4.72131147540984  0.951424870466321 4.27049180327869  C 0.867227979274611 4.18852459016393  0.825129533678757 4.10655737704918  0.740932642487047 4.02459016393442  C 0.783031088082902 3.94262295081967  0.867227979274611 3.86065573770492  0.909326424870466 3.77868852459016  C 1.24611398963731 3.32786885245901  1.66709844559585 2.87704918032787  2.13018134715026 2.4672131147541  C 3.43523316062176 1.31967213114754  4.86658031088083 0.622950819672129  6.46632124352332 0.622950819672129  C 8.0660621761658 0.622950819672129  9.49740932642487 1.31967213114754  10.8024611398964 2.4672131147541  C 11.2655440414508 2.87704918032787  11.6444300518135 3.32786885245901  12.0233160621762 3.77868852459016  C 12.065414507772 3.86065573770492  12.1496113989637 3.94262295081967  12.1917098445596 4.02459016393442  C 12.1496113989637 4.10655737704918  12.065414507772 4.18852459016393  11.9812176165803 4.27049180327869  Z " fill-rule="nonzero" fill="#aaaaaa" stroke="none" transform="matrix(1 0 0 1 13 183 )" />
  </g>
</svg>