<?xml version="1.0" encoding="utf-8"?>
<svg version="1.1" xmlns:xlink="http://www.w3.org/1999/xlink" width="5px" height="5px" xmlns="http://www.w3.org/2000/svg">
  <g transform="matrix(1 0 0 1 -17 -184 )">
    <path d="M 4.93566176470588 2.50932835820896  C 4.93566176470588 1.15671641791045  3.83272058823529 0.0373134328358209  2.5 0.0373134328358209  C 1.12132352941176 0.0373134328358209  0.0643382352941176 1.15671641791045  0.0643382352941176 2.50932835820896  C 0.0643382352941176 3.90858208955224  1.16727941176471 4.98134328358209  2.5 4.98134328358209  C 3.87867647058824 4.98134328358209  4.93566176470588 3.86194029850746  4.93566176470588 2.50932835820896  Z M 4.24632352941176 2.55597014925373  C 4.24632352941176 3.48880597014925  3.46507352941177 4.32835820895522  2.5 4.32835820895522  C 1.53492647058824 4.32835820895522  0.753676470588235 3.53544776119403  0.753676470588235 2.55597014925373  C 0.753676470588235 1.57649253731343  1.53492647058823 0.783582089552238  2.5 0.783582089552238  C 3.46507352941177 0.783582089552238  4.24632352941176 1.57649253731343  4.24632352941176 2.55597014925373  Z " fill-rule="nonzero" fill="#aaaaaa" stroke="none" transform="matrix(1 0 0 1 17 184 )" />
  </g>
</svg>