<svg t="1752564830242" class="icon" viewBox="0 0 1024 1024" version="1.1" xmlns="http://www.w3.org/2000/svg" p-id="5504" width="200" height="200"><path d="M217.6 793.6h563.2c20.48 0 38.4 17.92 38.4 38.4s-17.92 38.4-38.4 38.4h-563.2c-20.48 0-38.4-15.36-38.4-38.4 0-20.48 17.92-38.4 38.4-38.4z" fill="#A3CCFF" p-id="5505"></path><path d="M793.6 340.48l-58.88 66.56-199.68-204.8 61.44-64c12.8-15.36 33.28-15.36 48.64 0l148.48 153.6c12.8 12.8 12.8 33.28 0 48.64zM199.68 542.72L491.52 238.08l199.68 204.8-291.84 304.64H199.68v-204.8z" fill="#2589FF" p-id="5506"></path></svg>