<?xml version="1.0" encoding="utf-8"?>
<svg version="1.1" xmlns:xlink="http://www.w3.org/1999/xlink" width="20px" height="20px" xmlns="http://www.w3.org/2000/svg">
  <g transform="matrix(1 0 0 1 -1175 -33 )">
    <path d="M 2.65277776692709 19.3194444335937  C 2.39066828523293 19.5794257078655  2.03583747780859 19.7243566104423  1.66666666666667 19.7222222330729  C 1.29749585552474 19.7243566104423  0.94266504810041 19.5794257078655  0.680555566406251 19.3194444335937  C 0.417621338530353 19.0586574886872  0.269724575874001 18.7036632387182  0.269724575874001 18.3333333333333  C 0.269724575874001 17.9630034279484  0.417621338530353 17.6080091779795  0.680555566406251 17.3472222330729  L 17.3472222330729 0.680555566406248  C 17.6087551576758 0.419022641803372  17.9634699243528 0.272094974671726  18.3333333333333 0.272094974671726  C 19.1035340113679 0.272094974671726  19.7279050253283 0.896465988632134  19.7279050253283 1.66666666666666  C 19.7279050253283 2.03653007564715  19.5809773581966 2.3912448423242  19.3194444335938 2.65277776692708  L 2.65277776692709 19.3194444335937  Z " fill-rule="nonzero" fill="#333333" stroke="none" transform="matrix(1 0 0 1 1175 33 )" />
  </g>
</svg>