<?xml version="1.0" encoding="utf-8"?>
<svg version="1.1" xmlns:xlink="http://www.w3.org/1999/xlink" width="20px" height="20px" xmlns="http://www.w3.org/2000/svg">
  <g transform="matrix(1 0 0 1 -1175 -33 )">
    <path d="M 19.3194444335938 19.3194444335937  C 19.0573349518996 19.5794257078655  18.7025041444753 19.7243566104423  18.3333333333333 19.7222222330729  C 17.9641625221914 19.7243566104423  17.6093317147671 19.5794257078655  17.3472222330729 19.3194444335937  L 0.680555566406252 2.65277776692708  C 0.419022641803373 2.3912448423242  0.272094974671732 2.03653007564716  0.272094974671732 1.66666666666667  C 0.272094974671732 0.896465988632137  0.896465988632138 0.27209497467173  1.66666666666667 0.27209497467173  C 2.03653007564716 0.27209497467173  2.39124484232421 0.419022641803372  2.65277776692708 0.680555566406248  L 19.3194444335938 17.3472222330729  C 19.5823786614697 17.6080091779795  19.730275424126 17.9630034279484  19.730275424126 18.3333333333333  C 19.730275424126 18.7036632387182  19.5823786614697 19.0586574886872  19.3194444335938 19.3194444335937  Z " fill-rule="nonzero" fill="#333333" stroke="none" transform="matrix(1 0 0 1 1175 33 )" />
  </g>
</svg>