<?xml version="1.0" encoding="utf-8"?>
<svg version="1.1" xmlns:xlink="http://www.w3.org/1999/xlink" width="24px" height="24px" xmlns="http://www.w3.org/2000/svg">
  <g transform="matrix(1 0 0 1 -368 -23 )">
    <path d="M 24 12  C 24 5.37096774193548  18.6290322580645 0  12 0  C 5.37096774193548 0  0 5.37096774193548  0 12  C 0 18.6290322580645  5.37096774193548 24  12 24  C 18.6290322580645 24  24 18.6290322580645  24 12  Z M 7.74193548387097 8.90322580645161  C 7.74193548387097 6.55161290322581  9.64838709677419 4.64516129032258  12 4.64516129032258  C 14.3516129032258 4.64516129032258  16.258064516129 6.55161290322581  16.258064516129 8.90322580645161  C 16.258064516129 11.2548387096774  14.3516129032258 13.1612903225806  12 13.1612903225806  C 9.64838709677419 13.1612903225806  7.74193548387097 11.2548387096774  7.74193548387097 8.90322580645161  Z M 19.0887096774194 17.9903225806452  C 17.3854838709677 20.0032258064516  14.8403225806452 21.2903225806452  12 21.2903225806452  C 9.15967741935484 21.2903225806452  6.61451612903226 20.0032258064516  4.91129032258065 17.9903225806452  C 5.82096774193548 16.2774193548387  7.60161290322581 15.0967741935484  9.67741935483871 15.0967741935484  C 9.79354838709677 15.0967741935484  9.90967741935484 15.1161290322581  10.0209677419355 15.15  C 10.65 15.3532258064516  11.308064516129 15.4838709677419  12 15.4838709677419  C 12.691935483871 15.4838709677419  13.3548387096774 15.3532258064516  13.9790322580645 15.15  C 14.0903225806452 15.1161290322581  14.2064516129032 15.0967741935484  14.3225806451613 15.0967741935484  C 16.3983870967742 15.0967741935484  18.1790322580645 16.2774193548387  19.0887096774194 17.9903225806452  Z " fill-rule="nonzero" fill="#ffffff" stroke="none" transform="matrix(1 0 0 1 368 23 )" />
  </g>
</svg>