<?xml version="1.0" encoding="utf-8"?>
<svg version="1.1" xmlns:xlink="http://www.w3.org/1999/xlink" width="18px" height="22px" xmlns="http://www.w3.org/2000/svg">
  <g transform="matrix(1 0 0 1 -326 -24 )">
    <path d="M 17.4152947851562 16.4795148114224  C 17.4644297094727 16.2807161927532  17.4228540161133 16.0704484071929  17.3019066064453 15.9022341742996  C 17.2754493530273 15.8640036698545  14.6826390014648 12.2168133102101  14.6826390014648 9.51391648370151  C 14.6826390014648 5.77114987405711  13.0082731347656 3.8519784220097  11.1071308447266 3.13706795999461  L 11.1071308666992 2.79681644598599  C 11.1071308666992 1.61931683795797  10.1584495239258 0.66355416015625  8.99811019775391 0.66355416015625  C 7.83777087158203 0.66355416015625  6.88908952880859 1.62313988617996  6.88908952880859 2.79681644598599  L 6.88908952880859 3.13706795999461  C 4.98794723876953 3.85197844423491  3.31358137207031 5.77114987405711  3.31358137207031 9.51391648370151  C 3.31358137207031 12.2091672137662  0.720771020507813 15.8525345029634  0.694313767089844 15.8907650074084  C 0.577145961914062 16.0589792403017  0.5317906640625 16.2654239776401  0.577145961914062 16.4680456667565  C 0.622501237792969 16.6668443076509  0.751007878417969 16.8388815887662  0.928649399414062 16.9344578387662  C 1.05337643554688 17.0032727512123  3.28712411865234 18.2075337190194  6.05757599121094 18.8115757159213  C 6.52624725585937 20.2872732852909  7.68280697753906 21.2850895157597  8.99433057128906 21.2850895157597  C 10.3058541650391 21.2850895157597  11.4624138867187 20.2872732852909  11.9310851513672 18.8115757159213  C 14.7015370239258 18.2075337190194  16.9352847070312 17.0109188476562  17.0600117431641 16.9459269834321  C 17.2414328686523 16.8465276629849  17.3661599047852 16.6783134300916  17.4152947851562 16.4795148114224  Z M 8.29510330078125 2.79681644598599  C 8.29510330078125 2.40686528286638  8.61259027587891 2.08572900996767  8.99811019775391 2.08572900996767  C 9.38363009765625 2.08572900996767  9.70111709472656 2.40686526064116  9.70111709472656 2.79681644598599  L 9.70111709472656 2.81593170932112  C 9.54237359619141 2.80446256465517  9.3874097241211 2.79681644598599  9.23244583007813 2.79681644598599  L 8.76377456542969 2.79681644598599  C 8.60881067138672 2.79681644598599  8.45384679931641 2.80446254242996  8.29510330078125 2.81593170932112  L 8.29510330078125 2.79681644598599  Z M 10.2718377246094 19.0830123174838  C 9.94679154052734 19.5685397750539  9.48945908935547 19.8667377141703  8.99811019775391 19.8667377141703  C 8.50676130615235 19.8667377141703  8.04942885498047 19.5685397528287  7.72438267089844 19.0830123174838  C 8.14769863769531 19.1288889183728  8.57101462646484 19.1556502781519  8.99811019775391 19.1556502781519  C 9.42520576904297 19.1556502781519  9.85230136230469 19.1250658701509  10.2718377246094 19.0830123174838  Z " fill-rule="nonzero" fill="#ffffff" stroke="none" transform="matrix(1 0 0 1 326 24 )" />
  </g>
</svg>