<?xml version="1.0" encoding="utf-8"?>
<svg version="1.1" xmlns:xlink="http://www.w3.org/1999/xlink" width="120px" height="40px" xmlns="http://www.w3.org/2000/svg">
  <g transform="matrix(1 0 0 1 -429 -15 )">
    <path d="M 430 35  A 19 19 0 0 1 449 16 L 529 16  A 19 19 0 0 1 548 35 A 19 19 0 0 1 529 54 L 449 54  A 19 19 0 0 1 430 35 Z " fill-rule="nonzero" fill="#000000" stroke="none" fill-opacity="0.0980392156862745" />
    <path d="M 429.5 35  A 19.5 19.5 0 0 1 449 15.5 L 529 15.5  A 19.5 19.5 0 0 1 548.5 35 A 19.5 19.5 0 0 1 529 54.5 L 449 54.5  A 19.5 19.5 0 0 1 429.5 35 Z " stroke-width="1" stroke="#ffffff" fill="none" stroke-opacity="0.149019607843137" />
  </g>
</svg>