<?xml version="1.0" encoding="utf-8"?>
<svg version="1.1" xmlns:xlink="http://www.w3.org/1999/xlink" width="18px" height="18px" xmlns="http://www.w3.org/2000/svg">
  <g transform="matrix(1 0 0 1 -333 -27 )">
    <path d="M 14.9599431818182 16.8817116477273  C 14.9599431818182 16.5528409090909  14.7272727272727 16.284375  14.4409090909091 16  L 3.65081676136364 16  C 3.36669034090909 16.284375  3.13401988636364 16.5528409090909  3.13401988636364 16.8817116477273  C 3.13401988636364 17.2105823863636  3.36669034090909 17.4790482954545  3.65081676136364 17.4790482954545  L 14.4431463068182 17.4790482954545  C 14.7272727272727 17.4790482954545  14.9599431818182 17.2105823863636  14.9599431818182 16.8817116477273  Z M 18 1.60600142045455  C 17.9712357954545 1.03774857954545  17.5126065340909 0.579119318181818  16.9443536931818 0.579119318181818  L 1.05564630681818 0.579119318181818  C 0.489630681818182 0.579119318181818  0.0287642045454545 1.03774857954545  0 1.60600142045455  L 0 13.158984375  C 0.0287642045454545 13.725  0.487393465909091 14.1858664772727  1.05564630681818 14  L 16.9465909090909 14  C 17.5126065340909 14.1858664772727  17.9734730113636 13.7272372159091  18 13.158984375  L 18 1.60600142045455  Z M 15.7340198863636 4.64861505681819  C 15.7228338068182 4.83654119318182  15.6378196022727 5.00880681818182  15.4946377840909 5.13185369318182  L 11.0582386363636 9.00223721590909  C 10.6935724431818 9.32215909090909  10.1633522727273 9.37808948863636  9.73828125 9.14318181818182  L 6.84108664772727 7.53462357954545  C 6.76949573863636 7.49435369318182  6.67776988636364 7.50777698863636  6.62183948863636 7.56818181818182  L 3.81189630681818 10.5324928977273  C 3.67990056818182 10.6712002840909  3.49421164772727 10.7495028409091  3.30404829545455 10.7495028409091  C 3.12059659090909 10.7495028409091  2.94833096590909 10.6801491477273  2.81857244318182 10.5526278409091  C 2.53892045454546 10.2841619318182  2.52997159090909 9.83895596590909  2.7984375 9.55930397727273  L 5.83881392045455 6.35113636363637  C 6.20124289772727 5.973046875  6.77620738636364 5.88579545454546  7.23259943181818 6.14083806818182  L 10.1544034090909 7.76505681818182  C 10.2215198863636 7.80308948863637  10.304296875 7.794140625  10.3624644886364 7.74268465909091  L 14.5706676136364 4.07365056818182  C 14.7116122159091 3.95060369318182  14.8905894886364 3.88796164772728  15.0807528409091 3.90138494318182  C 15.2686789772727 3.91480823863637  15.4387073863636 3.99982244318182  15.5617542613636 4.14076704545455  C 15.6848011363636 4.28171164772728  15.7452059659091 4.46292613636364  15.7340198863636 4.64861505681819  Z " fill-rule="nonzero" fill="#ffffff" stroke="none" transform="matrix(1 0 0 1 333 27 )" />
  </g>
</svg>