<?xml version="1.0" encoding="utf-8"?>
<svg version="1.1" xmlns:xlink="http://www.w3.org/1999/xlink" width="20px" height="14px" xmlns="http://www.w3.org/2000/svg">
  <g transform="matrix(1 0 0 1 -446 -28 )">
    <path d="M 11.3750000074084 11.0775000075195  L 9.57327586206896 9.29687499248047  C 8.53017242120151 10.3556249849609  7.53448276602909 10.836875  6.53879311085668 10.836875  C 4.12068966258082 10.836875  2.50862070447198 9.15249999248047  2.50862068224677 6.74625000751953  C 2.50862068224677 4.484375  4.21551723397091 2.94437501503906  6.53879311085668 2.94437499248047  C 9.05172415274784 2.94437499248047  10.9008620837823 4.82124999248047  11.1853448201778 8.43062499248047  L 11.1853448201778 8.57499999248047  C 11.3749999851832 11.3181249924805  12.939655157597 13.0987499849609  15.1206896551724 13.3393749924805  C 17.0646551798222 13.58  19.056034490167 12.4731249924805  19.6724137931034 10.5962499924805  C 20.9051724212015 6.98687499248047  17.6810344827586 3.7625  14.0301724063847 5.061875  L 14.8362068965517 7.41999999248047  C 16.5431034482759 6.794375  17.870689647764 8.14187499248047  17.3017241305226 9.72999999248047  C 17.064655157597 10.40375  16.2586206896552 10.836875  15.4051724137931 10.7406249924805  C 14.4568965443157 10.6443749849609  13.8405172413793 9.92249998496093  13.698275862069 8.43062499248047  L 13.698275862069 8.33437500751953  C 13.4137931034483 3.37749999248047  10.4741379236261 0.393750007519531  6.58620689655172 0.393750007519531  C 2.88793103448276 0.393750007519531  0.0431034482758621 2.99250000751953  0.0431034482758621 6.69812499248047  C 0.0431034482758621 10.5000000075195  2.79310344086746 13.3393749924805  6.58620689655172 13.3393749924805  C 8.29310344827586 13.3393749924805  9.9051724063847 12.569375  11.3750000074084 11.0775000075195  Z " fill-rule="nonzero" fill="#ffffff" stroke="none" transform="matrix(1 0 0 1 446 28 )" />
  </g>
</svg>