<?xml version="1.0" encoding="utf-8"?>
<svg version="1.1" xmlns:xlink="http://www.w3.org/1999/xlink" width="22px" height="20px" xmlns="http://www.w3.org/2000/svg">
  <g transform="matrix(1 0 0 1 -565 -25 )">
    <path d="M 21 2.85  C 21.2666666738281 1.75  20.35 0.833333326171874  19.25 1  L 2.75 1  C 1.65 0.833333326171875  0.733333326171875 1.75  1 2.85  L 1 14.3633333261719  C 0.733333326171875 15.4633333261719  1.65 16.38  2.75 16  L 19.25 16  C 20.35 16.38  21.2666666738281 15.4633333261719  21 14.3633333261719  L 21 2.85  Z M 4.98666667382813 9.04666667382812  L 7.18666667382812 11.2466666738281  C 7.48 11.54  7.48 11.98  7.18666667382812 12.2733333261719  C 7.04 12.42  6.85666667382812 12.4933333261719  6.67333332617187 12.4933333261719  C 6.48999997851563 12.4933333261719  6.30666665234375 12.42  6.16 12.2733333261719  L 3.44666667382813 9.56  C 3.15333334765625 9.26666667382812  3.15333334765625 8.82666667382812  3.44666667382813 8.53333332617187  L 6.16 5.82  C 6.45333332617188 5.52666667382812  6.89333332617188 5.52666667382812  7.18666667382813 5.82  C 7.48000002148438 6.11333332617187  7.48 6.55333332617187  7.18666667382813 6.84666667382812  L 4.98666667382813 9.04666667382812  Z M 12.0633333261719 5.16  C 12.4666666523437 5.30666667382812  12.6866666523437 5.74666667382813  12.5766666738281 6.11333332617187  L 10.8533333261719 11.98  C 10.7433333261719 12.31  10.45 12.4933333261719  10.1566666738281 12.4933333261719  C 10.0833333476562 12.4933333261719  10.01 12.4933333261719  9.93666667382812 12.4566666738281  C 9.53333334765625 12.3466666738281  9.31333334765625 11.9433333476562  9.42333332617187 11.54  L 11.1466666738281 5.67333332617187  C 11.2566666738281 5.27  11.66 5.05  12.0633333261719 5.16  Z M 18.5533333261719 8.53333332617188  C 18.8466666523437 8.79  18.8466666523437 9.26666665234375  18.5533333261719 9.56  L 15.84 12.2733333261719  C 15.6933333261719 12.42  15.51 12.4933333261719  15.3266666738281 12.4933333261719  C 15.1433333476563 12.4933333261719  14.96 12.42  14.8133333261719 12.2733333261719  C 14.52 11.98  14.52 11.54  14.8133333261719 11.2466666738281  L 17.0133333261719 9.04666667382812  L 14.8133333261719 6.84666667382813  C 14.52 6.55333334765625  14.52 6.11333334765625  14.8133333261719 5.82  C 15.1066666523438 5.52666665234375  15.5466666523438 5.52666667382813  15.84 5.82  L 18.5533333261719 8.53333332617188  Z M 17.5266666738281 18.6166666738281  C 17.5266666953125 19.0200000214844  17.1966666738281 19.35  16.7933333261719 19  L 5.20666667382813 19  C 4.80333334765625 19.35  4.47333334765625 19.02  4.47333332617188 18.6166666738281  C 4.4733333046875 18.2133333476563  4.80333332617187 17.8833333476563  5.20666667382813 17.8833333261719  L 16.7933333261719 17.8833333261719  C 17.1966666523437 17.8833333261719  17.5266666523437 18.2133333261719  17.5266666738281 18.6166666738281  Z " fill-rule="nonzero" fill="#ffffff" stroke="none" transform="matrix(1 0 0 1 565 25 )" />
  </g>
</svg>