<?xml version="1.0" encoding="utf-8"?>
<svg version="1.1" xmlns:xlink="http://www.w3.org/1999/xlink" width="20px" height="18px" xmlns="http://www.w3.org/2000/svg">
  <g transform="matrix(1 0 0 1 -685 -27 )">
    <path d="M 19.6378580729167 12.8556818181818  C 19.6378580729167 12.0226384943182  19.13427734375 11.3038529829545  18.41064453125 10.9756214488636  L 18.41064453125 2.18607954545455  C 18.41064453125 1.04557883522727  17.46484375 0.116974431818182  16.30322265625 0.116974431818182  L 6.66324869791667 0.116974431818182  C 5.50162760416667 0.116974431818182  4.55582682291667 1.04557883522727  4.55582682291667 2.18607954545455  L 4.55582682291667 2.48107244318182  L 3.65234375 2.48107244318182  C 2.49072265625 2.48107244318182  1.544921875 3.40967684659091  1.544921875 4.55017755681818  L 1.544921875 10.9943181818182  C 0.8466796875 11.330859375  0.3642578125 12.0371803977273  0.3642578125 12.8536044034091  L 0.3642578125 15.8139204545455  C 0.3642578125 16.9544211647727  1.31005859375 17.8830255681818  2.4716796875 17.8830255681818  L 17.5304361979167 17.8830255681818  C 18.6920572916667 17.8830255681818  19.6378580729167 16.9544211647727  19.6378580729167 15.8139204545455  L 19.6378580729167 12.8556818181818  Z M 4.55582682291667 4.25933948863636  L 4.55582682291667 10.7865767045455  L 3.35188802083333 10.7865767045455  L 3.35188802083333 4.55433238636364  C 3.35188802083333 4.39021661931818  3.4873046875 4.25933948863636  3.65234375 4.25933948863636  L 4.55582682291667 4.25933948863636  Z M 16.5994466145833 10.7865767045455  L 16.6036783854167 10.7865767045455  L 12.5221354166667 10.7865767045455  C 12.1285807291667 11.7795809659091  11.14892578125 12.4879794034091  10 12.4879794034091  C 8.85107421875 12.4879794034091  7.87141927083333 11.7816583806818  7.47786458333333 10.7865767045455  L 6.36067708333333 10.7865767045455  L 6.36067708333333 2.18607954545455  C 6.36067708333333 2.02196377840909  6.49609375 1.89108664772727  6.6611328125 1.89108664772727  L 16.2989908854167 1.89108664772727  C 16.4661458333333 1.89108664772727  16.5994466145833 2.02404119318182  16.5994466145833 2.18607954545455  L 16.5994466145833 10.7865767045455  Z M 9.55143229166667 3.57587002840909  C 9.55143229166667 3.08560014204545  9.14729817708333 2.68881392045455  8.64794921875 2.68881392045455  C 8.14860026041667 2.68881392045455  7.74446614583333 3.08560014204545  7.74446614583333 3.57587002840909  L 7.74446614583333 8.89820667613636  C 7.74446614583333 9.3884765625  8.14860026041667 9.78526278409091  8.64794921875 9.78526278409091  C 9.14729817708333 9.78526278409091  9.55143229166667 9.3884765625  9.55143229166667 8.89820667613636  L 9.55143229166667 3.57587002840909  Z M 12.3444010416667 5.72599431818182  C 12.3444010416667 5.23572443181818  11.9402669270833 4.83893821022727  11.44091796875 4.83893821022727  C 10.9415690104167 4.83893821022727  10.5374348958333 5.23572443181818  10.5374348958333 5.72599431818182  L 10.5374348958333 8.90028409090909  C 10.5374348958333 9.39055397727273  10.9415690104167 9.78734019886364  11.44091796875 9.78734019886364  C 11.9402669270833 9.78734019886364  12.3444010416667 9.39055397727273  12.3444010416667 8.90028409090909  L 12.3444010416667 5.72599431818182  Z M 15.1373697916667 7.44817116477273  C 15.1373697916667 6.95997869318182  14.7332356770833 6.56111505681818  14.23388671875 6.56111505681818  C 13.7345377604167 6.56111505681818  13.3304036458333 6.95790127840909  13.3304036458333 7.44817116477273  L 13.3304036458333 8.89820667613636  C 13.3304036458333 9.3884765625  13.7345377604167 9.78526278409091  14.23388671875 9.78526278409091  C 14.7332356770833 9.78526278409091  15.1373697916667 9.3884765625  15.1373697916667 8.89820667613636  L 15.1373697916667 7.44817116477273  Z " fill-rule="nonzero" fill="#ffffff" stroke="none" transform="matrix(1 0 0 1 685 27 )" />
  </g>
</svg>