<?xml version="1.0" encoding="utf-8"?>
<svg version="1.1" xmlns:xlink="http://www.w3.org/1999/xlink" width="20px" height="20px" xmlns="http://www.w3.org/2000/svg">
  <g transform="matrix(1 0 0 1 -1043 -25 )">
    <path d="M 6.98966667382813 4.48166667382813  C 6.08686383705009 4.35215630942957  5.41654505772626 3.57871156405592  5.41666667382813 2.66666667382812  C 5.41694359602613 1.65434052020433  6.23767373990614 0.833834856654649  7.24999993140601 0.833834856654649  C 8.26252196880731 0.833834856654649  9.08333325757789 1.65464614542523  9.08333325757789 2.66716818282652  C 9.08333325757789 3.07827564790052  8.94515750633308 3.47745284197994  8.691 3.80058332617187  L 9.7635 6.48  C 11.0217905046431 6.15392463673191  12.3593381656074 6.37679372351745  13.4439166738281 7.09325  L 15.5614166738281 4.97483332617188  C 15.5199220285704 4.82002718419616  15.4989059840406 4.66044822715725  15.4989059840406 4.50017737148326  C 15.4989059840406 3.48765533408197  16.3197172728111 2.66684404531139  17.3322393102124 2.66684404531139  C 18.3447613476137 2.66684404531139  19.1655726363843 3.48765533408197  19.1655726363843 4.50017737148326  C 19.1655726363843 5.51269940888456  18.3447613476137 6.33351069765514  17.3322393102124 6.33351069765514  C 17.1719684443655 6.33351069765514  17.0123894772858 6.3124946504575  16.8575833261719 6.271  L 14.7400833261719 8.3885  C 15.2368485767682 9.13799019654463  15.5012102295434 10.0174949414761  15.5 10.9166666738281  C 15.5013014127192 11.8154320756771  15.2372686295711 12.6945847123188  14.741 13.4439166738281  L 16.8585 15.5614166738281  C 17.0133061419757 15.5199220285704  17.1728850990146 15.4989059840406  17.3331559546886 15.4989059840406  C 18.3456779920899 15.4989059840406  19.1664892808605 16.3197172728111  19.1664892808605 17.3322393102124  C 19.1664892808605 18.3447613476137  18.3456779920899 19.1655726363843  17.3331559546886 19.1655726363843  C 16.3206339172873 19.1655726363843  15.4998226285167 18.3447613476137  15.4998226285167 17.3322393102124  C 15.4998226285167 17.1719684443655  15.5208386757144 17.0123894772858  15.5623333261719 16.8575833261719  L 13.4448333261719 14.7400833261719  C 12.6949431142617 15.2355623156289  11.81596700986 15.4997205975251  10.9171707265388 15.4997205975251  C 8.73900593567364 15.4997205975251  6.86146242054101 13.9673207702821  6.425 11.8333333261719  L 4.25341667382812 11.8333333261719  C 3.92599247905808 12.4008269046087  3.32061488710161 12.7504583261719  2.66543890701092 12.7504583261719  C 1.65291686960963 12.7504583261719  0.832105580839043 11.9296470374013  0.832105580839043 10.917125  C 0.832105580839043 9.90460296259871  1.65291686960963 9.08379167382813  2.66543890701092 9.08379167382813  C 3.32061488710161 9.08379167382813  3.92599247905808 9.43342309539134  4.25341667382813 10.0009166738281  L 6.425 10.0009166738281  C 6.64461776760976 8.92511796146782  7.24313875474222 7.96390627154013  8.11166667382813 7.29216667382813  L 6.98966667382813 4.48166667382813  Z " fill-rule="nonzero" fill="#fbf9f9" stroke="none" transform="matrix(1 0 0 1 1043 25 )" />
  </g>
</svg>