<?xml version="1.0" encoding="utf-8"?>
<svg version="1.1" xmlns:xlink="http://www.w3.org/1999/xlink" width="19px" height="17px" xmlns="http://www.w3.org/2000/svg">
  <g transform="matrix(1 0 0 1 -1167 -27 )">
    <path d="M 4.53648325892857 16.337135925293  C 4.53648325892857 16.017649230957  4.81100251116072 15.7581460571289  5.15159765625 15.7581460571289  L 13.8049313616071 15.7581460571289  C 14.1455265066964 15.7581460571289  14.4209151785714 16.017649230957  14.4209151785714 16.337135925293  C 14.4209151785714 16.6566226196289  14.1448744419643 16.9159130859375  13.8049313616071 16.9159130859375  L 5.15159765625 16.9159130859375  C 4.81100251116072 16.9159130859375  4.53648325892857 16.6566226196289  4.53648325892857 16.337135925293  Z M 0.240680803571422 1.84813781738281  C 0.240680803571422 0.891166687011719  0.799065569196415 0.322174072265625  1.818025390625 0.322174072265625  L 17.139373046875 0.322174072265625  C 18.1574634486607 0.322174072265625  18.7158482142857 0.892442932128905  18.7158482142857 1.8487759399414  L 18.7158482142857 12.0797329711914  C 18.7158482142857 13.0390438842773  18.1574634486607 13.6056967163086  17.1385036272321 13.6056967163086  L 1.818025390625 13.6056967163086  C 0.799065569196415 13.6056967163086  0.240680803571422 13.0390438842773  0.240680803571422 12.0812219238281  L 0.240680803571422 1.84813781738281  Z M 13.3906529017857 6.89185852050781  L 13.3923917410714 6.89185852050781  C 13.3487587833305 6.71012512049919  13.2077749617819 6.56588442089596  13.0241925223214 6.51515350341797  L 12.8955184151786 6.48665069580078  C 12.2448572958206 6.29704148818288  11.860001854929 5.64187198628142  12.0200128348214 4.99620910644531  L 12.0610929129464 4.87815643310547  C 12.1072142056315 4.69696822076991  12.049978018603 4.50551804467287  11.9113353794643 4.37723022460938  C 11.9113353794643 4.37723022460938  11.7907034040178 4.27704498291016  11.4498909040178 4.08560821533203  C 11.29388876098 3.99291723943195  11.1312459837838 3.91137972052434  10.9632332589286 3.84163269042969  C 10.7805556704257 3.7872226093621  10.5820951475181 3.83422901888364  10.4450591517857 3.96436492919922  L 10.3559436383929 4.05774353027344  C 10.1193409207413 4.27741841363635  9.80527504040418 4.39932249134464  9.47913392857143 4.39807556152344  C 9.15160491085575 4.39798167801117  8.83656921047466 4.27504239910088  8.59884654017856 4.05455291748047  L 8.51190457589286 3.9635140991211  C 8.37511750308826 3.83356722339449  8.17701040098467 3.78656566175231  7.99459988839286 3.84078186035156  C 7.99459988839286 3.84078186035156  7.84636383928571 3.89417144775391  7.50555133928572 4.08475738525391  C 7.16473883928572 4.27534332275391  7.04649776785715 4.3780810546875  7.04649776785715 4.3780810546875  C 6.90716936503293 4.50524157330079  6.84975947185237 4.69662044638247  6.89674023437499 4.87730560302735  L 6.93390792410713 4.99705993652344  C 7.09021991394548 5.64301047925081  6.70446727878979 6.29613268467111  6.05448995535713 6.48601257324219  L 5.93059765625 6.51366455078125  C 5.74691556831135 6.56423321439271  5.60586133336787 6.70854595401603  5.56239843750001 6.8903695678711  C 5.56239843750001 6.8903695678711  5.53501171874998 7.04373168945313  5.53501171874998 7.42660522460938  C 5.53501171874998 7.80947875976563  5.56261579241072 7.96220275878906  5.56261579241072 7.96220275878906  C 5.59413225446428 8.13236877441406  5.75975669642855 8.30253479003906  5.93081501116072 8.33890777587891  L 6.05144698660715 8.36655975341797  C 6.70435770007018 8.55569106050385  7.09155212930213 9.2120854435406  6.93238643973214 9.85997924804688  L 6.89695758928571 9.97590484619141  C 6.85048755600999 10.1572946115492  6.90775765433125 10.3491022481069  7.04671512276786 10.4774691772461  C 7.04671512276786 10.4774691772461  7.16756445312501 10.5770162963867  7.50729017857142 10.769303894043  C 7.84701590401787 10.9615914916992  7.99481724330357 11.0124285888672  7.99481724330357 11.0124285888672  C 8.16044168526784 11.0717739868164  8.39235937500001 11.0154064941406  8.51299135044641 10.8903344726562  L 8.59819447544643 10.8009973144531  C 9.09184673351459 10.3426669819714  9.8659272148426 10.3433216370243  10.3587692522322 10.8024862670898  L 10.4439723772321 10.8920361328125  C 10.5810947833562 11.0220374003221  10.7796316841919 11.0687359072863  10.962146484375 11.0139175415039  C 10.962146484375 11.0139175415039  11.1103825334822 10.9613787841797  11.4509776785714 10.7707928466797  C 11.7915728236607 10.5802069091797  11.91003125 10.4783200073242  11.91003125 10.4783200073242  C 12.0486518143574 10.3507273488562  12.1061528947232 10.1598754935527  12.0604408482143 9.97909545898438  L 12.0232731584821 9.85870300292969  C 11.8652285678244 9.21204763141372  12.252458053019 8.55755729050495  12.9042126116071 8.36975036621094  L 13.0248445870536 8.34188568115235  C 13.2089558782723 8.2915935358477  13.3505288739588 8.14726126384727  13.3943479352679 7.9651806640625  C 13.3943479352679 7.9651806640625  13.4219520089286 7.81394561767578  13.4219520089286 7.42958312988281  C 13.4219520089286 7.04522064208984  13.3906529017857 6.89185852050781  13.3906529017857 6.89185852050781  Z M 11.0493067656013 7.42830701674759  C 11.0493067656013 8.27752077973464  10.346032447737 8.96604315617246  9.47826450892856 8.9663949584961  C 8.60925351026046 8.96639519339352  7.90548511157036 8.27767447428069  7.90548511157036 7.42809441214352  C 7.90548511157036 6.57851435000636  8.60925351026046 5.88979363089352  9.47739582585609 5.88979363089352  C 10.3449439305699 5.88979363089352  11.0484659536288 6.57760706601324  11.0493058035714 7.42660522460938  C 11.0493064449246 7.42717248843991  11.0493067656013 7.42773975256983  11.0493067656013 7.42830701674759  Z " fill-rule="nonzero" fill="#ffffff" stroke="none" transform="matrix(1 0 0 1 1167 27 )" />
  </g>
</svg>