<?xml version="1.0" encoding="utf-8"?>
<svg version="1.1" xmlns:xlink="http://www.w3.org/1999/xlink" width="18px" height="18px" viewBox="212 254  18 18" xmlns="http://www.w3.org/2000/svg">
  <path d="M 212.5 259  A 4.5 4.5 0 0 1 217 254.5 L 225 254.5  A 4.5 4.5 0 0 1 229.5 259 L 229.5 267  A 4.5 4.5 0 0 1 225 271.5 L 217 271.5  A 4.5 4.5 0 0 1 212.5 267 L 212.5 259  Z " fill-rule="nonzero" fill="#f0f0f0" stroke="none" />
  <path d="M 212.5 259  A 4.5 4.5 0 0 1 217 254.5 L 225 254.5  A 4.5 4.5 0 0 1 229.5 259 L 229.5 267  A 4.5 4.5 0 0 1 225 271.5 L 217 271.5  A 4.5 4.5 0 0 1 212.5 267 L 212.5 259  Z " stroke-width="1" stroke="#797979" fill="none" />
  <path d="M 215.857142857143 263  L 219.714285714286 266.857142857143  L 226.142857142857 257.857142857143  " stroke-width="3.85714285714286" stroke="#797979" fill="none" />
</svg>