<svg class="icon" viewBox="0 0 1024 1024" version="1.1" xmlns="http://www.w3.org/2000/svg" p-id="13530" height="128" width="128"><path d="M0 0h1024v1024H0z" fill="#FFFFFF" p-id="13531"></path><path d="M512 512m-448 0a448 448 0 1 0 896 0 448 448 0 1 0-896 0Z" fill="#FD504E" p-id="13532"></path><path d="M672 194c119.804 0 228.625 47.026 309.01 123.627v648.746a450.742 450.742 0 0 1-7.108 6.628H370.098C280.325 891.073 224 773.114 224 642c0-247.424 200.576-448 448-448z" fill="#FFFFFF" opacity=".1" p-id="13533"></path><path d="M681.907 315H342.093C305.703 315 288 332.946 288 368.843v215.371c0 35.9 16.609 52.865 52.092 52.865h52.094l-6.41 54.822a17.852 17.852 0 0 0 9.522 15.792 17.882 17.882 0 0 0 8.509 2.155c3.497 0 6.996-1.007 9.988-3.016L517.21 637.08h166.699c36.066 0 52.092-16.965 52.092-52.865v-215.37C736 332.945 717.97 315 681.907 315zM407.924 502.089c-14.34 0-25.993-11.659-25.993-25.956 0-14.295 11.654-26.002 25.993-26.002 14.338 0 25.994 11.66 25.994 26.002-0.003 14.345-11.705 25.956-25.994 25.956z m104.019 0c-14.415 0-26.126-11.659-26.126-25.956 0-14.295 11.714-26.002 26.126-26.002 14.413 0 26.124 11.66 26.124 26.002 0 14.345-11.762 25.956-26.124 25.956z m104.18 0c-14.415 0-26.085-11.659-26.085-25.956 0-14.295 11.67-26.002 26.085-26.002 14.409 0 26.122 11.66 26.122 26.002 0 14.345-11.71 25.956-26.122 25.956z" fill="#FFFFFF" p-id="13534"></path></svg>