<?xml version="1.0" encoding="utf-8"?>
<svg version="1.1" xmlns:xlink="http://www.w3.org/1999/xlink" width="226px" height="145px" xmlns="http://www.w3.org/2000/svg">
  <defs>
    <filter x="91px" y="126px" width="226px" height="145px" filterUnits="userSpaceOnUse" id="filter31">
      <feOffset dx="0" dy="0" in="SourceAlpha" result="shadowOffsetInner" />
      <feGaussianBlur stdDeviation="2.5" in="shadowOffsetInner" result="shadowGaussian" />
      <feComposite in2="shadowGaussian" operator="atop" in="SourceAlpha" result="shadowComposite" />
      <feColorMatrix type="matrix" values="0 0 0 0 0.898039215686275  0 0 0 0 0.945098039215686  0 0 0 0 1  0 0 0 1 0  " in="shadowComposite" />
    </filter>
    <g id="widget32">
      <path d="M 96.5 136  A 4.5 4.5 0 0 1 101 131.5 L 307 131.5  A 4.5 4.5 0 0 1 311.5 136 L 311.5 261  A 4.5 4.5 0 0 1 307 265.5 L 101 265.5  A 4.5 4.5 0 0 1 96.5 261 L 96.5 136  Z " fill-rule="nonzero" fill="#ffffff" stroke="none" />
      <path d="M 96.5 136  A 4.5 4.5 0 0 1 101 131.5 L 307 131.5  A 4.5 4.5 0 0 1 311.5 136 L 311.5 261  A 4.5 4.5 0 0 1 307 265.5 L 101 265.5  A 4.5 4.5 0 0 1 96.5 261 L 96.5 136  Z " stroke-width="1" stroke="#2b85e4" fill="none" />
    </g>
  </defs>
  <g transform="matrix(1 0 0 1 -91 -126 )">
    <use xlink:href="#widget32" filter="url(#filter31)" />
    <use xlink:href="#widget32" />
  </g>
</svg>