<svg class="icon" viewBox="0 0 1024 1024" version="1.1" xmlns="http://www.w3.org/2000/svg" p-id="18300" height="128" width="128"><path d="M512 0c282.756129 0 512 229.243871 512 512 0 282.756129-229.243871 512-512 512C229.243871 1024 0 794.756129 0 512 0 229.243871 229.243871 0 512 0z m216.113548 330.322581H282.112C263.151484 330.322581 247.741935 345.847742 247.741935 365.006452v293.987096c0 19.191742 15.393032 34.683871 34.370065 34.683871h446.001548c18.977032 0 34.386581-15.525161 34.386581-34.683871V365.006452a34.51871 34.51871 0 0 0-34.386581-34.683871z m-55.411613 106.396903a12.998194 12.998194 0 0 1-4.707096 17.721806l-153.732129 89.51742a12.783484 12.783484 0 0 1-8.522323 3.072 12.783484 12.783484 0 0 1-8.522322-3.072l-153.73213-89.51742a12.998194 12.998194 0 0 1-4.723612-17.721806 12.783484 12.783484 0 0 1 17.589677-4.740129l149.388387 86.957419 149.371871-86.957419a12.783484 12.783484 0 0 1 17.589677 4.740129z" fill="#009B44" p-id="18301"></path></svg>