<?xml version="1.0" encoding="utf-8"?>
<svg version="1.1" xmlns:xlink="http://www.w3.org/1999/xlink" width="216px" height="135px" xmlns="http://www.w3.org/2000/svg">
  <g transform="matrix(1 0 0 1 -96 -131 )">
    <path d="M 97 136  A 4 4 0 0 1 101 132 L 307 132  A 4 4 0 0 1 311 136 L 311 261  A 4 4 0 0 1 307 265 L 101 265  A 4 4 0 0 1 97 261 L 97 136  Z " fill-rule="nonzero" fill="#ffffff" stroke="none" />
    <path d="M 96.5 136  A 4.5 4.5 0 0 1 101 131.5 L 307 131.5  A 4.5 4.5 0 0 1 311.5 136 L 311.5 261  A 4.5 4.5 0 0 1 307 265.5 L 101 265.5  A 4.5 4.5 0 0 1 96.5 261 L 96.5 136  Z " stroke-width="1" stroke="#e6e6e6" fill="none" stroke-opacity="0.996078431372549" />
  </g>
</svg>