<?xml version="1.0" encoding="utf-8"?>
<svg version="1.1" xmlns:xlink="http://www.w3.org/1999/xlink" width="161px" height="35px" xmlns="http://www.w3.org/2000/svg">
  <g>
    <path d="M 1 5  A 4 4 0 0 1 5 1 L 156 1  A 4 4 0 0 1 160 5 L 160 30  A 4 4 0 0 1 156 34 L 5 34  A 4 4 0 0 1 1 30 L 1 5  Z " fill-rule="nonzero" fill="#f0f7ff" stroke="none" />
    <path d="M 0.5 5  A 4.5 4.5 0 0 1 5 0.5 L 156 0.5  A 4.5 4.5 0 0 1 160.5 5 L 160.5 30  A 4.5 4.5 0 0 1 156 34.5 L 5 34.5  A 4.5 4.5 0 0 1 0.5 30 L 0.5 5  Z " stroke-width="1" stroke="#7abbff" fill="none" stroke-opacity="0.996078431372549" />
  </g>
</svg>