<?xml version="1.0" encoding="utf-8"?>
<svg version="1.1" xmlns:xlink="http://www.w3.org/1999/xlink" width="16px" height="16px" viewBox="52 141  16 16" xmlns="http://www.w3.org/2000/svg">
  <path d="M 52.5 144  A 2.5 2.5 0 0 1 55 141.5 L 65 141.5  A 2.5 2.5 0 0 1 67.5 144 L 67.5 154  A 2.5 2.5 0 0 1 65 156.5 L 55 156.5  A 2.5 2.5 0 0 1 52.5 154 L 52.5 144  Z " fill-rule="nonzero" fill="#409eff" stroke="none" />
  <path d="M 52.5 144  A 2.5 2.5 0 0 1 55 141.5 L 65 141.5  A 2.5 2.5 0 0 1 67.5 144 L 67.5 154  A 2.5 2.5 0 0 1 65 156.5 L 55 156.5  A 2.5 2.5 0 0 1 52.5 154 L 52.5 144  Z " stroke-width="1" stroke="#f7f7f7" fill="none" />
  <path d="M 55.4285714285714 149  L 58.8571428571429 152.428571428571  L 64.5714285714286 144.428571428571  " stroke-width="3.42857142857143" stroke="#f7f7f7" fill="none" />
</svg>