<?xml version="1.0" encoding="utf-8"?>
<svg version="1.1" xmlns:xlink="http://www.w3.org/1999/xlink" width="16px" height="16px" viewBox="52 141  16 16" xmlns="http://www.w3.org/2000/svg">
  <path d="M 52.5 144  A 2.5 2.5 0 0 1 55 141.5 L 65 141.5  A 2.5 2.5 0 0 1 67.5 144 L 67.5 154  A 2.5 2.5 0 0 1 65 156.5 L 55 156.5  A 2.5 2.5 0 0 1 52.5 154 L 52.5 144  Z " fill-rule="nonzero" fill="#f0f0f0" stroke="none" />
  <path d="M 52.5 144  A 2.5 2.5 0 0 1 55 141.5 L 65 141.5  A 2.5 2.5 0 0 1 67.5 144 L 67.5 154  A 2.5 2.5 0 0 1 65 156.5 L 55 156.5  A 2.5 2.5 0 0 1 52.5 154 L 52.5 144  Z " stroke-width="1" stroke="#999999" fill="none" />
</svg>