<?xml version="1.0" encoding="utf-8"?>
<svg version="1.1" xmlns:xlink="http://www.w3.org/1999/xlink" width="16px" height="16px" viewBox="82 264  16 16" xmlns="http://www.w3.org/2000/svg">
  <path d="M 82.5 267  A 2.5 2.5 0 0 1 85 264.5 L 95 264.5  A 2.5 2.5 0 0 1 97.5 267 L 97.5 277  A 2.5 2.5 0 0 1 95 279.5 L 85 279.5  A 2.5 2.5 0 0 1 82.5 277 L 82.5 267  Z " fill-rule="nonzero" fill="#ffffff" stroke="none" />
  <path d="M 82.5 267  A 2.5 2.5 0 0 1 85 264.5 L 95 264.5  A 2.5 2.5 0 0 1 97.5 267 L 97.5 277  A 2.5 2.5 0 0 1 95 279.5 L 85 279.5  A 2.5 2.5 0 0 1 82.5 277 L 82.5 267  Z " stroke-width="1" stroke="#999999" fill="none" />
</svg>