<?xml version="1.0" encoding="utf-8"?>
<svg version="1.1" xmlns:xlink="http://www.w3.org/1999/xlink" width="16px" height="16px" viewBox="82 319  16 16" xmlns="http://www.w3.org/2000/svg">
  <path d="M 82.5 322  A 2.5 2.5 0 0 1 85 319.5 L 95 319.5  A 2.5 2.5 0 0 1 97.5 322 L 97.5 332  A 2.5 2.5 0 0 1 95 334.5 L 85 334.5  A 2.5 2.5 0 0 1 82.5 332 L 82.5 322  Z " fill-rule="nonzero" fill="#409eff" stroke="none" />
  <path d="M 82.5 322  A 2.5 2.5 0 0 1 85 319.5 L 95 319.5  A 2.5 2.5 0 0 1 97.5 322 L 97.5 332  A 2.5 2.5 0 0 1 95 334.5 L 85 334.5  A 2.5 2.5 0 0 1 82.5 332 L 82.5 322  Z " stroke-width="1" stroke="#f7f7f7" fill="none" />
  <path d="M 85.4285714285714 327  L 88.8571428571429 330.428571428571  L 94.5714285714286 322.428571428571  " stroke-width="3.42857142857143" stroke="#f7f7f7" fill="none" />
</svg>