<?xml version="1.0" encoding="utf-8"?>
<svg version="1.1" xmlns:xlink="http://www.w3.org/1999/xlink" width="16px" height="16px" viewBox="82 373  16 16" xmlns="http://www.w3.org/2000/svg">
  <path d="M 82.5 376  A 2.5 2.5 0 0 1 85 373.5 L 95 373.5  A 2.5 2.5 0 0 1 97.5 376 L 97.5 386  A 2.5 2.5 0 0 1 95 388.5 L 85 388.5  A 2.5 2.5 0 0 1 82.5 386 L 82.5 376  Z " fill-rule="nonzero" fill="#f0f0f0" stroke="none" />
  <path d="M 82.5 376  A 2.5 2.5 0 0 1 85 373.5 L 95 373.5  A 2.5 2.5 0 0 1 97.5 376 L 97.5 386  A 2.5 2.5 0 0 1 95 388.5 L 85 388.5  A 2.5 2.5 0 0 1 82.5 386 L 82.5 376  Z " stroke-width="1" stroke="#999999" fill="none" />
  <path d="M 85.4285714285714 381  L 88.8571428571429 384.428571428571  L 94.5714285714286 376.428571428571  " stroke-width="3.42857142857143" stroke="#999999" fill="none" />
</svg>