<?xml version="1.0" encoding="utf-8"?>
<svg version="1.1" xmlns:xlink="http://www.w3.org/1999/xlink" width="16px" height="16px" viewBox="82 484  16 16" xmlns="http://www.w3.org/2000/svg">
  <path d="M 82.5 487  A 2.5 2.5 0 0 1 85 484.5 L 95 484.5  A 2.5 2.5 0 0 1 97.5 487 L 97.5 497  A 2.5 2.5 0 0 1 95 499.5 L 85 499.5  A 2.5 2.5 0 0 1 82.5 497 L 82.5 487  Z " fill-rule="nonzero" fill="#f0f0f0" stroke="none" />
  <path d="M 82.5 487  A 2.5 2.5 0 0 1 85 484.5 L 95 484.5  A 2.5 2.5 0 0 1 97.5 487 L 97.5 497  A 2.5 2.5 0 0 1 95 499.5 L 85 499.5  A 2.5 2.5 0 0 1 82.5 497 L 82.5 487  Z " stroke-width="1" stroke="#999999" fill="none" />
</svg>