<?xml version="1.0" encoding="utf-8"?>
<svg version="1.1" xmlns:xlink="http://www.w3.org/1999/xlink" width="16px" height="16px" viewBox="82 651  16 16" xmlns="http://www.w3.org/2000/svg">
  <path d="M 82.5 654  A 2.5 2.5 0 0 1 85 651.5 L 95 651.5  A 2.5 2.5 0 0 1 97.5 654 L 97.5 664  A 2.5 2.5 0 0 1 95 666.5 L 85 666.5  A 2.5 2.5 0 0 1 82.5 664 L 82.5 654  Z " fill-rule="nonzero" fill="#f0f0f0" stroke="none" />
  <path d="M 82.5 654  A 2.5 2.5 0 0 1 85 651.5 L 95 651.5  A 2.5 2.5 0 0 1 97.5 654 L 97.5 664  A 2.5 2.5 0 0 1 95 666.5 L 85 666.5  A 2.5 2.5 0 0 1 82.5 664 L 82.5 654  Z " stroke-width="1" stroke="#999999" fill="none" />
  <path d="M 85.4285714285714 659  L 88.8571428571429 662.428571428571  L 94.5714285714286 654.428571428571  " stroke-width="3.42857142857143" stroke="#999999" fill="none" />
</svg>