<?xml version="1.0" encoding="utf-8"?>
<svg version="1.1" xmlns:xlink="http://www.w3.org/1999/xlink" width="16px" height="16px" viewBox="82 594  16 16" xmlns="http://www.w3.org/2000/svg">
  <path d="M 82.5 597  A 2.5 2.5 0 0 1 85 594.5 L 95 594.5  A 2.5 2.5 0 0 1 97.5 597 L 97.5 607  A 2.5 2.5 0 0 1 95 609.5 L 85 609.5  A 2.5 2.5 0 0 1 82.5 607 L 82.5 597  Z " fill-rule="nonzero" fill="#ffffff" stroke="none" />
  <path d="M 82.5 597  A 2.5 2.5 0 0 1 85 594.5 L 95 594.5  A 2.5 2.5 0 0 1 97.5 597 L 97.5 607  A 2.5 2.5 0 0 1 95 609.5 L 85 609.5  A 2.5 2.5 0 0 1 82.5 607 L 82.5 597  Z " stroke-width="1" stroke="#999999" fill="none" />
  <path d="M 85.4285714285714 602  L 88.8571428571429 605.428571428571  L 94.5714285714286 597.428571428571  " stroke-width="3.42857142857143" stroke="#999999" fill="none" />
</svg>