<?xml version="1.0" encoding="utf-8"?>
<svg version="1.1" xmlns:xlink="http://www.w3.org/1999/xlink" width="16px" height="16px" viewBox="82 761  16 16" xmlns="http://www.w3.org/2000/svg">
  <path d="M 82.5 764  A 2.5 2.5 0 0 1 85 761.5 L 95 761.5  A 2.5 2.5 0 0 1 97.5 764 L 97.5 774  A 2.5 2.5 0 0 1 95 776.5 L 85 776.5  A 2.5 2.5 0 0 1 82.5 774 L 82.5 764  Z " fill-rule="nonzero" fill="#ffffff" stroke="none" />
  <path d="M 82.5 764  A 2.5 2.5 0 0 1 85 761.5 L 95 761.5  A 2.5 2.5 0 0 1 97.5 764 L 97.5 774  A 2.5 2.5 0 0 1 95 776.5 L 85 776.5  A 2.5 2.5 0 0 1 82.5 774 L 82.5 764  Z " stroke-width="1" stroke="#999999" fill="none" />
  <path d="M 85.4285714285714 769  L 88.8571428571429 772.428571428571  L 94.5714285714286 764.428571428571  " stroke-width="3.42857142857143" stroke="#999999" fill="none" />
</svg>