<?xml version="1.0" encoding="utf-8"?>
<svg version="1.1" xmlns:xlink="http://www.w3.org/1999/xlink" width="16px" height="16px" viewBox="82 540  16 16" xmlns="http://www.w3.org/2000/svg">
  <path d="M 82.5 543  A 2.5 2.5 0 0 1 85 540.5 L 95 540.5  A 2.5 2.5 0 0 1 97.5 543 L 97.5 553  A 2.5 2.5 0 0 1 95 555.5 L 85 555.5  A 2.5 2.5 0 0 1 82.5 553 L 82.5 543  Z " fill-rule="nonzero" fill="#ffffff" stroke="none" />
  <path d="M 82.5 543  A 2.5 2.5 0 0 1 85 540.5 L 95 540.5  A 2.5 2.5 0 0 1 97.5 543 L 97.5 553  A 2.5 2.5 0 0 1 95 555.5 L 85 555.5  A 2.5 2.5 0 0 1 82.5 553 L 82.5 543  Z " stroke-width="1" stroke="#999999" fill="none" />
  <path d="M 85.4285714285714 548  L 88.8571428571429 551.428571428571  L 94.5714285714286 543.428571428571  " stroke-width="3.42857142857143" stroke="#999999" fill="none" />
</svg>